<svg xmlns:dc="http://purl.org/dc/elements/1.1/" xmlns:cc="http://creativecommons.org/ns#" xmlns:rdf="http://www.w3.org/1999/02/22-rdf-syntax-ns#" xmlns:svg="http://www.w3.org/2000/svg" xmlns="http://www.w3.org/2000/svg" xmlns:xlink="http://www.w3.org/1999/xlink" version="1.1" width="256" height="256" id="svg3039"><metadata id="metadata3045"><rdf:RDF><cc:Work><dc:format>image/svg+xml</dc:format><dc:type rdf:resource="http://purl.org/dc/dcmitype/StillImage"/><dc:title/></cc:Work></rdf:RDF></metadata><defs id="defs3043"><linearGradient id="linearGradient3803"><stop offset="0" id="stop3805" stop-color="#d7def0" stop-opacity="1"/><stop id="stop3811" offset=".5" stop-color="#ffffff" stop-opacity="1"/><stop offset="1" id="stop3807" stop-color="#d5def0" stop-opacity="1"/></linearGradient><linearGradient id="linearGradient3776"><stop id="stop3778" offset="0" stop-color="#b2cde9" stop-opacity="1"/><stop id="stop3780" offset="1" stop-color="#c4dbee" stop-opacity="1"/></linearGradient><linearGradient id="linearGradient3750"><stop id="stop3752" offset="0" stop-color="#d0e2f1" stop-opacity="1"/><stop offset=".856" id="stop3756" stop-color="#cadef0" stop-opacity="1"/><stop id="stop3754" offset="1" stop-color="#95bee3" stop-opacity="1"/></linearGradient><linearGradient id="linearGradient3708"><stop offset="0" id="stop3710" stop-color="#658db6" stop-opacity="1"/><stop id="stop3716" offset=".768" stop-color="#527fab" stop-opacity="1"/><stop offset="1" id="stop3712" stop-color="#4071a0" stop-opacity="1"/></linearGradient><linearGradient id="linearGradient3698"><stop offset="0" id="stop3700" stop-color="#96d0e1" stop-opacity="1"/><stop id="stop3706" offset=".678" stop-color="#89b7e1" stop-opacity="1"/><stop offset="1" id="stop3702" stop-color="#699dd3" stop-opacity="1"/></linearGradient><linearGradient id="linearGradient3647"><stop offset="0" id="stop3649" stop-color="#3b79bc" stop-opacity="1"/><stop offset="1" id="stop3651" stop-color="#94b8e0" stop-opacity="1"/></linearGradient><linearGradient id="linearGradient3588"><stop offset="0" id="stop3590" stop-color="#ffffff" stop-opacity="1"/><stop offset="1" id="stop3592" stop-color="#000000" stop-opacity="0"/></linearGradient><radialGradient xlink:href="#linearGradient3588" id="radialGradient3594" cx="-118.78" cy="121.492" fx="-118.78" fy="121.492" r="25.492" gradientUnits="userSpaceOnUse" gradientTransform="matrix(0.02177942,-0.95743591,0.97872327,0.02221687,-235.0993,5.0684454)"/><linearGradient xlink:href="#linearGradient3647" id="linearGradient3653" x1="-397.813" y1="149.188" x2="-397.559" y2="51.356" gradientUnits="userSpaceOnUse" gradientTransform="matrix(0.68333028,0,0,0.68619782,400.20717,61.939392)"/><radialGradient xlink:href="#linearGradient3698" id="radialGradient3704" cx="-383.275" cy="217.91" fx="-383.275" fy="217.91" r="59.402" gradientTransform="matrix(-1.1370372,-0.07599643,0.10125715,-1.5149891,-360.90158,429.90667)" gradientUnits="userSpaceOnUse"/><radialGradient xlink:href="#linearGradient3708" id="radialGradient3714" cx="-123.5" cy="-11.571" fx="-123.5" fy="-11.571" r="95.627" gradientTransform="matrix(-0.006688,0.49287469,-0.91186911,-0.01236166,114.95101,106.08597)" gradientUnits="userSpaceOnUse"/><radialGradient xlink:href="#linearGradient3750" id="radialGradient3748" cx="-94.873" cy="165.273" fx="-94.873" fy="165.273" r="60.481" gradientTransform="matrix(0.71868501,1.502722,-1.9024124,0.90983843,513.79835,119.58302)" gradientUnits="userSpaceOnUse"/><linearGradient xlink:href="#linearGradient3776" id="linearGradient3774" x1="162.071" y1="85.24" x2="220.761" y2="78.876" gradientUnits="userSpaceOnUse" gradientTransform="matrix(0.88405797,0,0,0.88405797,17.83905,21.399078)"/><linearGradient xlink:href="#linearGradient3803" id="linearGradient3809" x1="-382.041" y1="37.281" x2="-381.394" y2="165.567" gradientUnits="userSpaceOnUse" gradientTransform="matrix(0.68333028,0,0,0.68619782,400.20717,61.939392)"/></defs><path id="path2814" d="m -92.745764,122.57627 a 25.491526,25.491526 0 1 1 -50.983056,0 25.491526,25.491526 0 1 1 50.983056,0 z" transform="matrix(4.1381436,0,0,4.2415973,620.51292,-382.71981)" fill="url(#radialGradient3594)" fill-opacity="1" fill-rule="nonzero" stroke="none"/><path d="m 220.0946,92.744141 c 0,13.856649 -17.4967,30.881489 -40.52871,30.881489 -23.03201,0 -52.97488,-14.21674 -52.97488,-28.073397 0,-13.856658 18.67113,-25.089698 41.70314,-25.089698 17.595,0 40.98601,16.172271 49.91366,17.992436 0.69999,1.512244 1.20994,2.585947 1.88679,4.28917 z" id="path3655" fill="url(#linearGradient3774)" fill-opacity="1" fill-rule="nonzero" stroke="none"/><path d="M 49.161495,73.16323 C 60.107441,64.666556 80.381573,72.062297 94.504434,90.256208 108.62728,108.45012 110.14778,135.40069 99.201867,143.89736 88.25593,152.39403 68.988558,139.21932 54.865706,121.0254 44.076733,107.12641 51.284723,84.610267 47.248256,76.441869 47.792738,75.44991 48.469755,74.270086 49.161495,73.16323 z" id="path3655-4-8" fill="#2e5c91" fill-opacity="1" fill-rule="nonzero" stroke="none"/><path d="m 218.21234,88.448807 c -6.19556,-0.02886 -53.98964,0.256001 -95.1827,0.05782 C 107.67267,93.022479 95.000912,100.2282 88.390678,114.28129 83.673,110.26557 52.369064,76.96024 49.13251,73.225029 76.88294,36.405071 115.0196,32.947948 122.4344,32.947948 c 7.41481,0 62.45346,-7.63106 95.77794,55.500859 z" id="path3596" fill="url(#radialGradient3714)" fill-opacity="1" fill-rule="nonzero" stroke="none"/><path d="m 118.38546,230.52257 c -11.04926,-8.36187 -12.88532,-32.65646 1.01344,-51.02214 13.89876,-18.36566 36.27805,-30.89564 47.32731,-22.53378 11.04926,8.36186 6.5844,34.44909 -7.31437,52.81476 -10.61778,14.03021 -31.37619,14.9273 -38.21501,20.9478 -1.0953,-0.0402 -1.72854,-0.0535 -2.81137,-0.20664 z" id="path3655-4" fill="#699dd3" fill-opacity="1" fill-rule="nonzero" stroke="none"/><path d="m 121.19558,230.72845 c 3.16806,-5.3244 25.51267,-46.76587 46.58218,-82.16338 3.89961,-15.5249 4.72673,-29.74134 -4.02989,-42.56733 5.85399,-2.02813 51.48622,-12.355904 56.34706,-13.249981 17.65074,42.593981 1.28181,77.212101 -2.47998,83.601791 -3.7618,6.38969 -25.10883,57.69068 -96.41937,54.3789 z" id="path3596-1" fill="url(#radialGradient3748)" fill-opacity="1" fill-rule="nonzero" stroke="none"/><path d="m 47.282725,76.408608 c 3.066426,5.38357 27.161019,46.660752 47.543329,82.458362 11.576176,11.05539 24.475146,17.22598 39.952116,15.94247 -1.12611,6.09216 -14.70098,51.05467 -16.32307,55.72329 C 72.699586,224.85568 50.674573,193.53069 46.974808,187.10488 43.275052,180.67906 9.1992315,136.78915 47.282725,76.408608 z" id="path3596-1-7" fill="url(#radialGradient3704)" fill-opacity="1" fill-rule="nonzero" stroke="none"/><path d="m 168.9404,131.53613 c 0,22.40458 -18.0866,40.56709 -40.39756,40.56709 -22.31095,0 -40.397558,-18.16251 -40.397558,-40.56709 0,-22.40458 18.086608,-40.567081 40.397558,-40.567081 22.31096,0 40.39756,18.162501 40.39756,40.567081 z" id="path3645" fill="url(#linearGradient3653)" fill-opacity="1" stroke="url(#linearGradient3809)" stroke-width="6.89565229" stroke-miterlimit="4" stroke-opacity="1"/><path d="m 159.42489,111.1108 c 16.38141,15.11594 14.17412,26.13093 8.89584,38.89855 -2.74847,-19.6703 -2.07293,-28.66732 -8.89584,-38.89855 z" id="rect3782" fill="#ffffff" fill-opacity="1" fill-rule="nonzero" stroke="none"/><path d="m 104.50255,168.34773 c -20.020015,-12.79528 -26.353663,-40.41898 -7.791513,-55.68709 -9.589873,17.48237 -5.503641,28.64227 7.791513,55.68709 z" id="rect3782-4" fill="#ffffff" fill-opacity="1" fill-rule="nonzero" stroke="none"/></svg>