<svg height="16" viewBox="-.5 -.5 5.2333332 5.2333335" width="16" xmlns="http://www.w3.org/2000/svg" xmlns:xlink="http://www.w3.org/1999/xlink"><linearGradient id="a" gradientUnits="userSpaceOnUse" x1="42519.28500000001" x2="42575.33600000001" y1="-7078.7891" y2="-6966.9307"><stop offset="0" stop-color="#fff" stop-opacity="0"/><stop offset=".49517274" stop-color="#fff" stop-opacity=".3"/><stop offset="1" stop-color="#fff" stop-opacity=".3"/></linearGradient><path d="m42519.28500000001-7078.7891a.76086879.56791688 0 0 0 -.738.6739l33.586 125.8886a87.182358 87.182358 0 0 0 39.381-33.7636l-71.565-92.5196a.76086879.56791688 0 0 0 -.664-.2793z" fill="url(#a)" transform="matrix(.02427860986 0 0 .02427860986 -1030.1563562308 172.97083575326)"/><path d="m11249.461-1883.6961c-12.74 0-23.067 10.3275-23.067 23.0671 0 4.3335 1.22 8.5795 3.522 12.2514l19.232-24.8636c.138-.1796.486-.1796.624 0l19.233 24.8646c2.302-3.6721 3.523-7.9185 3.523-12.2524 0-12.7396-10.327-23.0671-23.067-23.0671z" fill="#fff" stroke-width="17.0055" transform="matrix(.0917616758 0 0 .0917616758 -1030.1563562308 172.97083575326)"/></svg>
