<svg xmlns="http://www.w3.org/2000/svg" width="1024" height="1024"><path fill="#00f" d="M536.648 218.844c-.901.028-3.302.925-11.773 4.344l-11 4.437-.07.875c-.054.646.16 1.265.82 2.36 1.094 1.814 3.99 5.442 6.438 8.062 1.641 1.757 8.687 9.581 40.93 45.453 28.098 31.261 32.455 36.111 36.25 40.375 5.575 6.267 7.493 8.3 9.85 10.453 2.395 2.187 3.872 3.105 4.97 3.078.445-.01 5.762-2.017 11.812-4.46 10.68-4.314 11.003-4.47 11.125-5.18l.125-.727.078.117.586.875c.244.37.467.731.68 1.094l-.04-.57a34.244 34.244 0 0 0-1.226-1.836 44.874 44.874 0 0 0-.726-.992c-3.485-4.612-5.23-6.587-33.211-37.72a175843.03 175843.03 0 0 1-35.485-39.5 3005.47 3005.47 0 0 0-5.781-6.421c-.376-.417-.689-.76-1.055-1.164-1.448-1.602-2.71-2.99-4-4.406l-.406-.446a1220.649 1220.649 0 0 0-2.937-3.21c-.341-.372-.695-.77-1.024-1.126-.828-.899-1.545-1.668-2.297-2.476-.509-.548-.977-1.047-1.453-1.555l-.648-.695c-.104-.11-.195-.204-.297-.313-.56-.594-1.098-1.158-1.61-1.695-.538-.565-1.05-1.105-1.539-1.61l-.164-.171-.289-.297c-.431-.444-.842-.862-1.234-1.258l-.024-.023c-.476-.48-.914-.916-1.336-1.328-.097-.096-.178-.174-.273-.266-.303-.295-.592-.576-.867-.836-.018-.017-.037-.03-.055-.047-.066-.063-.125-.114-.187-.172l-2.164-.992a4.288 4.288 0 0 1-.328-.023 1.185 1.185 0 0 0-.165-.008zm101.524 123.594c-.095.162-.188.324-.29.492l.29-.055zm79.922 212.218c-2.224.048-4.793.891-7.969 2.563-1.896.998-79.319 48.534-100.125 61.476-8.63 5.369-10.807 7.173-12.047 9.977-.617 1.394-.536 3.157.219 4.828.33.73 9.343 11.29 25.703 30.117 13.855 15.946 25.98 29.92 26.945 31.055 1.967 2.31 2.97 3.095 5.094 3.969 1.7.699 3.486.772 5.734.242 2.28-.538 5.36-1.984 8.72-4.086 3.735-2.338 47.943-29.562 79.132-48.735 12.856-7.902 23.822-14.668 24.367-15.03 1.69-1.127 4.4-3.832 5.156-5.15 1.341-2.336.805-5.217-1.46-7.85-2.226-2.588-36.89-42.513-48.352-55.688-4.616-5.307-5.28-5.92-7.438-6.93-1.138-.533-2.345-.787-3.68-.758zm-540.5 122.117c-.51 0-.896.114-1.094.352-.914 1.102-.165 2.602 11.563 23 5.138 8.938 14.39 25.025 20.554 35.75 18.507 32.197 17.709 30.895 21.258 34.586 3.948 4.106 4.44 4.386 30.75 17.289 3.85 1.888 17.913 8.802 31.25 15.367 20.775 10.227 25.71 12.594 28.125 13.461.895.322 1.75.161 2.117-.398.675-1.03.054-2.552-3.531-8.68-2.461-4.207-33.993-59.023-41.195-71.617-2.437-4.26-4.955-8.479-5.594-9.375-2.023-2.838-4.965-5.68-7.945-7.664-1.524-1.015-2.846-1.844-2.938-1.844-.092 0-18.024-8.793-39.851-19.54-21.828-10.745-40.307-19.797-41.063-20.116-.893-.377-1.75-.57-2.406-.57zm451.515 138.915c-.713.061-5.392 1.053-10.867 2.312-5.84 1.342-12.53 2.87-14.867 3.39-4.217.94-4.26.956-5.305 2.024-1.89 1.934-3.57 5.978-6.218 14.945-.897 3.035-4.724 15.753-8.508 28.266-22.872 75.632-25.841 85.421-25.977 85.64-.3.485-1.866 7.354-1.992 8.735-.167 1.83.181 2.83 1.031 2.953.285.041 4.275-.782 8.867-1.828l14.282-3.25c6.266-1.425 6.64-1.554 7.797-2.594l.734-.656-.82 1.5c-.135.246-.27.48-.407.711.219-.18.449-.367.672-.555.532-1.014 1.048-2.156 1.578-3.468 2.434-6.018 2.019-4.673 22.727-73.188 13.372-44.243 17.36-57.288 18.539-62.805l-.11-.898-.085.453-.328-.781c-.181-.43-.475-.837-.657-.907a.279.279 0 0 0-.086 0z"/><path fill="#fff" d="M229.188 168.378c-.886.013-4.006 1.207-16.477 6.258l-22.32 9.04c-3.564 1.443-6.689 2.755-6.946 2.913-.257.158-.759.88-1.117 1.61-.59 1.2-.632 1.508-.492 3.25.292 3.625 1.072 5.98 9.18 27.718 2.76 7.401 6.796 18.242 8.976 24.086l10.258 27.5c18.314 49.112 18.68 50.027 20.828 52.727 1.139 1.43 2.53 2.264 3.774 2.265.705 0 7.063-2.46 23-8.914 12.113-4.905 22.267-9.08 22.57-9.273.302-.194.8-.855 1.101-1.477.485-1 .53-1.398.399-3.422-.18-2.765-.975-5.703-2.906-10.742-.8-2.087-7.327-19.539-14.508-38.789-7.182-19.25-15.137-40.569-17.68-47.375a4961.016 4961.016 0 0 1-7.61-20.5c-4.77-12.992-6.628-16.159-9.882-16.86a.628.628 0 0 0-.148-.015zm635.156 171.664c-4.598-.038-10.17 1.792-18.11 5.914-1.848.96-18.097 9.306-36.109 18.547s-34.775 17.842-37.25 19.117c-2.475 1.276-8.381 4.318-13.125 6.758-9.88 5.082-13.01 6.775-15.125 8.188-2.861 1.91-3.475 2.827-2.273 3.375.329.15 4.688.793 9.687 1.43 5 .635 17.58 2.259 27.961 3.609 10.966 1.426 19.87 2.467 21.25 2.484 1.606.02 3.05-.13 4.461-.469 2.775-.665 6.711-2.229 10.398-4.125 1.657-.851 8.81-4.53 15.891-8.18 21.092-10.867 76.22-39.16 81.875-42.023 9.674-4.896 11.522-6.648 7.797-7.398-2.038-.41-54.053-7.037-56.422-7.188-.298-.019-.6-.036-.906-.039zM590.102 648.003c-.706 0 1.899 6.226 7.992 19.094.772 1.63 1.406 2.998 1.406 3.039 0 .04 1.253 2.755 2.781 6.031 1.528 3.277 3.483 7.48 4.344 9.336.86 1.856 1.928 4.163 2.375 5.125.447.963 1.208 2.594 1.688 3.625s2.728 5.869 5 10.75c4.728 10.16 4.795 10.314 8.992 19.375 10.023 21.642 11.156 23.594 19.156 33 1.52 1.788 4.575 5.319 6.781 7.852l8.274 9.5c2.345 2.692 9.479 10.917 15.859 18.273 20.32 23.428 21.057 24.235 21.938 24.242.171.002.312-.116.312-.265 0-.429-1.324-3.585-2.875-6.852-2.205-4.646-31.992-68.755-36.164-77.836-5.85-12.731-7.765-15.877-13.969-22.914-4.327-4.908-47.147-54.245-49.945-57.547-2.313-2.728-3.447-3.828-3.945-3.828zM483.977 754.308a8.955 8.955 0 0 0-1.86.187c-2.912.59-28.698 6.528-28.906 6.657-.482.298-.116.623 1.633 1.453 1.998.948 3.938 1.606 28.906 9.86 9.144 3.022 34.794 11.517 57 18.874 41.733 13.826 42.625 14.11 45.75 14.758 3.46.717 4.178.754 6.031.273 1.54-.399 17.181-3.99 24.094-5.53 2.2-.491 4.094-.986 4.211-1.095.446-.415-.89-1.228-3.992-2.437-3.941-1.536-13.462-4.726-70.219-23.524-47.739-15.81-51.585-17.06-56.68-18.406-2.8-.739-4.528-1.066-5.968-1.07z"/><path fill="#fdfd00" d="m710.484 92.43.016.57c.315.294.5.544.5.727 0 .172.206.534.648 1.125.443.59 1.12 1.41 2.07 2.5 1.142 1.306 2.678 2.998 4.657 5.148 4.215 4.578 54.642 60.014 65.61 72.125 5.104 5.638 8.573 9.48 11.28 12.336.542.57 1.052 1.095 1.54 1.594 4.875 4.99 7.381 6.689 14.492 11.61 11.113 7.69 19.698 13.65 25.304 17.554.888.618 2.05 1.422 2.766 1.922a519.186 519.186 0 0 1 3.594 2.523 55.071 55.071 0 0 0 2.07 1.406c.309.2.583.373.813.508h.008c.112.066.21.126.297.172.09.048.161.086.218.11.123.05.264.142.414.265.154.126.318.279.493.469.003.002-.003.006 0 .008.067.073.14.153.21.234l.735.266c-.482-.67-.956-1.229-1.383-1.61-.39-.348-1.682-1.81-2.867-3.25-2.777-3.373-5.7-6.608-44.61-49.367-36.228-39.813-38.012-41.748-41.515-44.945-3.635-3.318-5.468-4.643-26.25-19.031-10.433-7.224-19.363-13.502-19.844-13.946-.384-.354-.804-.69-1.265-1.023zM163.797 322.898a3.343 3.343 0 0 0-.297.024h-.016c-.098.012-.198.034-.304.055-.097.018-.2.044-.305.07-.092.023-.19.042-.289.07l-.023.008a14.178 14.178 0 0 0-1.04.367c-.07.029-.145.064-.218.094-.083.034-.164.065-.25.102-.059.025-.112.043-.172.07-.11.049-.22.103-.336.156-.312.143-.659.308-1.016.485l-.093.047c-.127.063-.266.135-.399.203a67.3 67.3 0 0 0-.86.445c-.286.151-.6.315-.913.484-.205.11-.378.202-.594.32l-.398.22c-.6.33-1.209.672-1.899 1.062a5502.665 5502.665 0 0 0-16.031 9.14 37159.415 37159.415 0 0 0-61.899 35.47 666.664 666.664 0 0 0-4.07 2.35c-4.138 2.454-7.038 4.71-9.125 7.243v.008c-.23.28-.46.565-.672.852-.212.288-.415.577-.61.875-.97 1.485-1.714 3.088-2.312 4.882-.043.13-.16.553-.343 1.243-.915 3.445-3.484 13.515-6.743 26.421-1.304 5.167-2.715 10.784-4.18 16.618-1.37 5.463-2.572 10.256-3.624 14.46-1.053 4.205-1.955 7.82-2.727 10.938v.008c-.385 1.556-.74 2.987-1.062 4.305-.972 3.962-1.671 6.894-2.164 9.086a99.238 99.238 0 0 0-.727 3.476c-.207 1.116-.302 1.844-.32 2.367a4.88 4.88 0 0 0 .015.54c.022.228.06.401.118.562.037.107.085.208.132.313.069.15.163.296.282.43.238.265.557.484.89.609.167.062.337.1.5.109.091.005.39-.066.797-.18.408-.113.926-.268 1.453-.445.66-.222 1.95-.827 3.36-1.563a57.887 57.887 0 0 0 2.563-1.414c5.318-3.095 59.825-34.275 73.75-42.187 4.537-2.578 8.993-5.16 11.429-6.617a51.204 51.204 0 0 0 1.687-1.04c.981-.652 1.929-1.37 2.797-2.109l.008-.008c.58-.494 1.127-.996 1.633-1.508.252-.254.497-.51.727-.765v-.008c.345-.383.664-.762.953-1.14v-.009c.096-.127.191-.249.28-.375.54-.755.95-1.307 1.368-2.133v-.008c.02-.038.043-.077.063-.117.1-.204.2-.427.304-.672.312-.735.65-1.68 1.063-3.023.33-1.074.71-2.402 1.164-4.07.227-.835.474-1.757.742-2.774 1.071-4.068 2.493-9.688 4.477-17.594.991-3.952 2.123-8.478 3.422-13.664 5.326-21.278 10.26-40.937 10.968-43.687.214-.829.402-1.588.563-2.281.401-1.739.637-3.067.703-4.086.013-.204.015-.391.015-.57a5.97 5.97 0 0 0-.015-.508 3.845 3.845 0 0 0-.063-.43 2.553 2.553 0 0 0-.164-.54v-.007c-.023-.053-.043-.1-.07-.149a1.608 1.608 0 0 0-.289-.375 1.62 1.62 0 0 0-.234-.195h-.008a1.935 1.935 0 0 0-.43-.21 2.215 2.215 0 0 0-.211-.063l-.07-.016-.055-.008a2.539 2.539 0 0 0-.258-.031 2.711 2.711 0 0 0-.328-.008zm472.695 23.344-1.07.25c-1.194.678-3.864 1.745-11.227 4.68-6.362 2.536-12.02 4.872-12.57 5.195-2.025 1.19-5.554 4.295-17.773 15.64-8.26 7.67-69.83 64.39-80.352 74.024-5.881 5.385-8.75 8.237-8.75 8.696 0 .149.17.273.375.273s4.31-1.575 9.125-3.5 8.835-3.498 8.938-3.492c.068.004.065.033 0 .086l3.359-1.32c.103-.074.217-.153.305-.22.673-.51 2.304-1.734 3.625-2.718 4.156-3.1 3.59-2.587 48.898-44.32L616 365.78c5.294-4.875 11.81-11.045 14.484-13.703 2.674-2.657 4.945-4.828 5.047-4.828.12 0 .493-.409.961-1.008zM278.72 558.648c-.137.002-.273.01-.406.016a8.223 8.223 0 0 0-.594.047c-.135.014-.268.028-.399.047-.041.006-.083.009-.125.016-.139.022-.272.05-.406.078a13.175 13.175 0 0 0-2.055.61c-2.72 1.062-5.502 3.216-9.765 7.468-.356.354-.725.725-1.102 1.11a123673.95 123673.95 0 0 0-54.625 55.835c-20.355 20.814-24.169 24.717-25.508 26.367v.008c-.306.378-.486.642-.703.961-.255.376-.487.734-.695 1.086v.008a12.9 12.9 0 0 0-.781 1.5v.008a9.327 9.327 0 0 0-.352.922 6.62 6.62 0 0 0-.21.86 5.269 5.269 0 0 0-.056.406 4.35 4.35 0 0 0-.008.765v.008c.021.245.068.485.133.711.066.23.155.445.266.656.187.357.38.673.64.985.002.002 0 .006 0 .008.086.103.188.202.29.305.101.102.214.215.336.32.246.213.531.433.882.672.351.239.77.497 1.258.781.244.142.505.288.79.445 1.138.629 2.615 1.389 4.562 2.36.973.485 2.065 1.024 3.289 1.625a68349.9 68349.9 0 0 1 54.25 26.664c2.337 1.15 4.598 2.257 6.68 3.273a997.653 997.653 0 0 0 9.578 4.633c.98.463 1.584.737 1.718.781.311.102.62.19.93.266.155.038.314.078.469.11a11.22 11.22 0 0 0 3.266.18c.47-.043.938-.112 1.414-.212.475-.1.954-.232 1.437-.39.294-.097.599-.212.914-.352a13.035 13.035 0 0 0 .977-.485 22.024 22.024 0 0 0 1.555-.945 27.447 27.447 0 0 0 1.648-1.195 37.724 37.724 0 0 0 2.86-2.492c.192-.186.384-.378.577-.57 1.539-1.532 10.538-10.713 20-20.407s22.443-22.969 28.844-29.5a19669.28 19669.28 0 0 0 17.992-18.375c2.312-2.366 4.304-4.413 6.031-6.187a988.402 988.402 0 0 0 7.477-7.735c.385-.405.722-.764 1.031-1.094.021-.022.05-.048.07-.07.325-.346.603-.65.852-.922a55.907 55.907 0 0 0 .867-.969c.242-.28.443-.517.578-.695.09-.116.162-.218.22-.305.495-.755.886-1.45 1.179-2.101.021-.047.034-.094.055-.14.256-.595.436-1.154.523-1.68.07-.427.086-.835.047-1.227a4.373 4.373 0 0 0-.445-1.492l-.008-.008a4.777 4.777 0 0 0-.196-.352c-.077-.124-.138-.24-.195-.343l-.008-.008c-.027-.05-.05-.1-.078-.149l-.008-.008a2.134 2.134 0 0 0-.375-.469 4.54 4.54 0 0 0-.484-.398 9.722 9.722 0 0 0-.352-.242c-.261-.173-.578-.37-.977-.602a43.106 43.106 0 0 0-.656-.375h-.008a135.49 135.49 0 0 0-4.055-2.148 640.988 640.988 0 0 0-5.671-2.86c-.45-.224-.814-.415-1.297-.656h-.008c-8.711-4.342-23.056-11.38-46.844-23.07-11.894-5.845-22.032-10.776-22.531-10.953-.17-.06-.347-.12-.524-.172a11.994 11.994 0 0 0-.547-.148c-.033-.009-.068-.016-.101-.024a13.058 13.058 0 0 0-1.242-.234c-.39-.056-.782-.096-1.172-.118-.116-.006-.229-.012-.344-.015-.19-.006-.383-.01-.57-.008z"/><path fill="#00e600" d="M800.852 211.781c-1.116.027-2.383.358-3.532.938-2.791 1.409-5.666 3.87-13.32 11.406-8.668 8.535-56.483 55.245-71 69.36-14.288 13.89-15.454 15.147-16.781 18.148-.735 1.66-.558 3.397.437 4.367.397.387 5.388 3.937 11.094 7.89s13.637 9.458 17.625 12.227c10.475 7.274 12.704 8.795 13.125 8.953.857.323 3.051.154 4.36-.336 1.595-.596 4.486-2.597 7.038-4.875 3.453-3.08 86.726-84.445 90.29-88.218 2.63-2.786 4.665-5.672 5.078-7.203.294-1.093.064-2.389-.578-3.211-.17-.218-7.344-5.267-15.938-11.227a12385.81 12385.81 0 0 1-20.625-14.328c-2.75-1.92-5.394-3.6-5.875-3.734a4.832 4.832 0 0 0-1.398-.157zm-613.649 114.29c-1.415-.016-2.74.984-3.664 2.804-.28.55-5.193 19.675-10.914 42.5s-10.63 42.339-10.914 43.367c-.684 2.472-.561 6.655.258 8.781 1.244 3.23 3.696 6.445 7.281 9.547 1.306 1.13 9.8 8.641 18.875 16.688L218 476.25c7.356 6.523 17.865 15.856 23.352 20.742 12.536 11.165 12.136 10.831 14.523 12.04 2.27 1.148 3.487 1.208 4.844.241.424-.301 1.096-1.229 1.515-2.093.892-1.839.217.76 12.5-48.344 9.563-38.229 9.769-39.093 9.766-41.5-.005-3.815-.84-6.23-3.25-9.414-2.183-2.884-.455-1.314-37.11-33.805-4.805-4.26-11.274-9.991-14.374-12.742-33.018-29.292-35.62-31.588-37.118-32.727-1.448-1.1-3.691-2.267-4.835-2.515a3.014 3.014 0 0 0-.61-.063zm549.844 92.827c-1.032.002-1.22.126-1.82.797-.637.712-.727 1.005-.727 2.328 0 2.758.786 5.257 5.492 17.446 15.746 40.781 35.807 92.633 38.102 98.476 4.01 10.213 6.626 14.07 10.586 15.625.728.286 5.671 1.032 13.664 2.063 6.89.889 19.393 2.516 27.781 3.61 8.387 1.092 15.857 1.946 16.602 1.905 1.157-.063 1.457-.19 2.062-.867.62-.693.711-.984.711-2.367 0-1.626-.572-4.244-1.453-6.664-.275-.756-4.877-12.681-10.235-26.5-5.357-13.819-11.55-29.794-13.757-35.5-2.207-5.706-6.73-17.406-10.055-26-3.325-8.594-6.93-17.948-8.008-20.79-3.1-8.176-5.14-11.981-7.601-14.147-2.32-2.042-2.513-2.088-15.891-3.782a9690.769 9690.769 0 0 1-27.75-3.562c-8.594-1.119-16.34-2.047-17.21-2.063-.187-.003-.346-.008-.493-.008z"/><path fill="#fd0000" d="M694.578 101.078a8.653 8.653 0 0 0-2.242.383c-2.774.851-5.206 2.63-9.93 7.25-7.062 6.908-35.631 34.808-58.656 57.281-27.714 27.05-27.172 26.504-28.719 28.883-2.876 4.426-2.966 7.883-.328 12.32.985 1.657 3.451 4.395 60.703 67.313 19.649 21.593 19.84 21.788 23.164 23.023 2.005.745 4.38.535 6.719-.586 1.01-.483 2.511-1.384 3.336-2.007.825-.624 7.918-7.422 15.766-15.102 7.847-7.68 27.995-27.366 44.765-43.75 18.128-17.71 30.902-30.382 31.508-31.25 2.217-3.175 3.055-5.889 2.61-8.453-.354-2.038-1.95-5.177-3.57-7.031-.732-.838-11.454-12.645-23.829-26.243s-29.403-32.317-37.844-41.601c-8.44-9.284-15.922-17.324-16.625-17.86-2.37-1.805-4.598-2.647-6.828-2.57zm-323.914 15.024c-.731.01-1.5.09-2.305.234-1.107.198-4.482 1.256-7.5 2.36a27401.9 27401.9 0 0 0-24.984 9.179c-10.725 3.944-24.956 9.176-31.625 11.625-17.154 6.3-40.887 15.027-44.07 16.203-7.96 2.942-10.669 6.984-9.352 13.961.25 1.325 2.184 6.845 5.516 15.75 2.82 7.54 7.388 19.786 10.156 27.211 4.95 13.278 6.845 18.349 17.633 47.25 2.977 7.975 6.705 17.977 8.281 22.227 1.696 4.575 3.286 8.437 3.898 9.468 2.044 3.44 4.37 5.352 7.196 5.907 1.568.307 1.959.304 4.164 0 1.56-.216 8.116-2.533 32.453-11.477 16.775-6.165 39.894-14.656 51.375-18.875l24.187-8.89c7.937-2.917 10.849-6.6 10.079-12.743-.14-1.116-.385-2.496-.54-3.07-.288-1.07-4.51-12.452-29.585-79.672-11.346-30.413-14.66-39.04-15.586-40.586-2.517-4.202-5.443-6.12-9.391-6.062zm562.04 247.132c-1 .033-2.046.212-3.118.54-.943.288-5.817 2.642-10.836 5.226s-15.369 7.896-23 11.813c-7.631 3.916-24.112 12.379-36.625 18.804l-28.375 14.57c-3.094 1.589-6.134 3.261-6.758 3.711-1.859 1.341-3.717 3.488-4.57 5.29-.744 1.57-.793 1.872-.79 4.312.004 1.444.158 3.244.345 4 .307 1.242 4.67 12.631 22.273 58.125 3.139 8.113 8.99 23.244 13 33.625s7.733 20.01 8.273 21.398c2.458 6.307 5.523 9.282 9.618 9.336.696.01 2.158-.216 3.25-.5 2.035-.528 1.078-.042 82.859-42.047 23.009-11.817 24.443-12.648 26.492-15.304 2.475-3.208 2.846-7.351 1.125-12.531-.45-1.353-34.572-89.78-42.484-110.094-1.48-3.801-3.44-7.127-4.945-8.399-1.552-1.31-3.535-1.947-5.735-1.875zm-786.016 77.329c-2.846.006-5.857 1.155-10.063 3.578-5.333 3.07-36.256 20.767-63.5 36.336-20.654 11.802-23.408 13.446-24.648 14.718-2.512 2.577-2.785 4.574-1.032 7.547 1.572 2.667-4.072-2.455 58.04 52.602 3.24 2.872 9.2 8.16 13.25 11.75 17.381 15.412 17.51 15.52 20.39 16.96 1.607.805 2.886 1.217 4.477 1.438 1.266.176 1.505.167 3.64-.117 2.955-.393 4.621-1.3 44.813-24.281 22.037-12.601 42.305-24.201 45.03-25.782 5.235-3.033 7.153-4.573 8.032-6.437 1.372-2.91-.33-6.334-5.281-10.625-1.349-1.169-11.506-10.16-22.578-19.977s-26.935-23.88-35.25-31.25-17.26-15.315-19.875-17.656c-5.91-5.29-6.712-5.899-9.508-7.25-2.12-1.024-3.99-1.559-5.937-1.554zm236.78 178.453c-1.671.014-3.566.825-5.687 2.43-.74.56-4.786 4.545-8.992 8.85a75114.182 75114.182 0 0 1-58.68 59.954c-9.9 10.106-18.515 19.106-19.148 20-3.177 4.488-3.911 8.196-2.469 12.477.306.908 3.387 6.531 7.117 13 6.469 11.214 9.832 17.073 30.696 53.398 11.033 19.21 11.663 20.165 14.062 21.39 1.27.65 3.299.542 4.899-.265 3.29-1.66 1.404.221 67.492-67.375 20.284-20.747 21.16-21.666 22.469-23.594 2.865-4.219 3.467-7.35 2.265-11.812-.461-1.714 1.368 1.537-24.945-44.219-8.645-15.032-11.1-19.313-18.61-32.375-4.985-8.671-6.227-10.366-8.328-11.383a4.759 4.759 0 0 0-2.14-.476zm406.407 24.382c-3.005.033-5.291.994-11.414 4.782-10.801 6.682-82.285 50.68-90.586 55.758-11.282 6.9-12.402 7.662-14.57 9.898-3.04 3.136-4.012 6.089-3.227 9.789.272 1.279 2.373 6.059 7.805 17.75 4.089 8.8 8.917 19.206 10.734 23.125 20.628 44.489 22.505 48.456 23.485 49.742 1.268 1.665 2.71 2.716 4.32 3.149 1.55.416 1.64.414 3.633-.008 3.667-.778-1.115 2.087 82.07-49.133 26.767-16.482 29.403-18.146 31.25-19.719 1.876-1.597 3.219-3.226 4.14-5.031.762-1.491.955-4.76.407-6.883-.212-.82-8.222-18.367-17.805-38.992a74431.074 74431.074 0 0 1-19.742-42.508c-3.384-7.321-3.792-8.066-5.21-9.477-1.853-1.841-2.857-2.268-5.29-2.242zM450.656 776.766c-1.795-.006-3.482.329-4.797.976-3.212 1.581-5.05 4.601-7.328 12.031-1.254 4.091-20.197 66.678-28.289 93.477-1.35 4.469-3.38 11.162-4.515 14.875l-2.063 6.75-.015 3.5c-.015 3.303.02 3.58.664 4.961.905 1.942 3.136 4.072 5.625 5.367 1.314.684 10.506 3.85 28.437 9.797a323982.14 323982.14 0 0 0 80.39 26.648c5.165 1.711 9.89 3.209 10.5 3.329 2.072.406 5.073.306 6.798-.227a7.498 7.498 0 0 0 2.82-1.563c1.466-1.29 3.337-4.099 4.062-6.093.295-.81 2.9-9.288 5.782-18.844a40584.652 40584.652 0 0 1 23.336-77.125l7.289-24 .008-3.375c.014-3.706-.2-4.573-1.649-6.68-.854-1.242-3.136-3.02-5.21-4.062-1.935-.972-117.243-39.157-119.352-39.524a14.873 14.873 0 0 0-2.492-.218z"/><path fill="#ff7f00" d="M500.211 241.86a7.765 7.765 0 0 0-1.54.117c-1.68.296-4.49 1.55-6.054 2.703-.553.408-4.044 3.544-7.758 6.968a93040.343 93040.343 0 0 1-65.484 60.313c-10.495 9.654-18.55 17.255-19.32 18.234-3.427 4.354-3.954 8.089-1.758 12.43 1.266 2.503 2.21 3.65 12.445 15.031 12.661 14.078 31.31 34.82 55.367 61.594 5.498 6.119 11.859 13.188 14.133 15.711 4.003 4.44 6.021 6.27 8.125 7.352 2.503 1.287 4.819 1.5 7.477.68 3.462-1.07-1.457 3.341 77.156-69.126 4.194-3.866 9.931-9.14 12.75-11.719 6.064-5.547 6.712-6.218 8.258-8.57 1.517-2.307 2.123-4.453 1.914-6.765-.121-1.334-.413-2.215-1.39-4.188-1.377-2.778.543-.542-21.68-25.266-5.927-6.593-18.966-21.096-28.977-32.234s-22.026-24.51-26.695-29.71c-4.67-5.202-9.124-9.952-9.899-10.563-2.438-1.926-4.822-2.936-7.07-2.993z"/><path d="M699.484 88.852c-1.354.025-2.681.221-3.757.593-3.148 1.088-7.03 3.886-12.602 9.078-1.512 1.41-18.495 17.924-37.742 36.704-52.236 50.968-56.465 55.171-59.485 59.195-5.36 7.141-5.152 11.962.86 20.07 2.22 2.995 5.663 6.81 67.719 75.008 11.502 12.64 16.047 17.524 19.898 21.383 4.816 4.827 3.832 4.102 37.867 27.695 12.742 8.832 13.887 9.546 17.508 10.836 2.153.767 5.497.806 7.789.094 3.19-.991 7.616-4.164 13.461-9.649 1.581-1.484 19.075-18.51 38.875-37.836 53.933-52.64 56.161-54.888 59.14-59.453 1.96-3.002 2.347-4.23 2.344-7.445-.003-2.542-.063-2.896-.812-4.648-.837-1.958-2.06-3.968-3.063-5.141-.07-.082-.144-.161-.21-.234-.004-.001.001-.005 0-.008a5.465 5.465 0 0 0-.25-.258h-.009a4.382 4.382 0 0 0-.234-.211 1.77 1.77 0 0 0-.414-.266 2.697 2.697 0 0 1-.219-.11c-.086-.045-.185-.105-.297-.171h-.008c-.229-.135-.503-.309-.812-.508a55.063 55.063 0 0 1-2.07-1.406 520.32 520.32 0 0 0-3.594-2.524c-.716-.5-1.879-1.304-2.766-1.921-2.145-1.495-5.109-3.555-8.101-5.633-.717-.498-1.722-1.198-2.485-1.727-4.236-2.94-9.162-6.35-14.719-10.195-1.39-.962-2.565-1.775-3.656-2.54-.066-.046-.137-.102-.203-.148-.378-.265-.759-.53-1.11-.78l-.82-.595c-.315-.228-.64-.466-.937-.687-.065-.049-.13-.092-.195-.14-.169-.127-.337-.259-.5-.384a61.116 61.116 0 0 1-1.446-1.132c-.226-.184-.456-.368-.68-.555-.331-.278-.66-.567-.992-.86-.024-.021-.053-.04-.078-.062-.242-.214-.48-.439-.726-.664-.202-.184-.404-.37-.61-.563-.264-.249-.53-.506-.804-.773-.236-.229-.482-.467-.727-.71a145.195 145.195 0 0 1-2.547-2.61 312.79 312.79 0 0 1-3.383-3.64l-.757-.83c-.519-.566-1.172-1.286-1.743-1.913a3981.207 3981.207 0 0 1-5.398-5.953c-10.967-12.11-61.394-67.547-65.609-72.125a417.242 417.242 0 0 1-2.64-2.89c-.265-.292-.503-.553-.743-.82-.035-.04-.059-.072-.093-.11-.427-.476-.83-.927-1.18-1.328a72.855 72.855 0 0 1-1.696-2.016l-.078-.102a20.442 20.442 0 0 1-.297-.382c-.091-.123-.17-.225-.242-.329-.016-.022-.024-.04-.039-.062l-.023-.04a5.376 5.376 0 0 1-.14-.218c-.035-.057-.062-.108-.087-.156-.016-.031-.026-.058-.039-.086-.013-.029-.037-.06-.047-.086-.005-.013-.004-.027-.008-.04a.402.402 0 0 1-.023-.108c0-.025 0-.051-.008-.079a.523.523 0 0 0-.032-.086 1.006 1.006 0 0 0-.093-.156 1.96 1.96 0 0 0-.157-.195c-.012-.014-.026-.033-.039-.047-.049-.052-.112-.108-.171-.164-1.038-.971-3.565-2.41-6.133-3.406-1.355-.526-3.14-.775-4.883-.742zm-4.906 12.226c2.23-.077 4.457.765 6.828 2.57.703.536 8.185 8.576 16.625 17.86 8.44 9.284 25.469 28.004 37.844 41.601 12.375 13.598 23.096 25.405 23.828 26.243 1.62 1.854 3.217 4.993 3.57 7.03.446 2.565-.392 5.279-2.609 8.454-.606.868-13.38 13.54-31.508 31.25-16.77 16.384-36.918 36.07-44.765 43.75-7.848 7.68-14.941 14.478-15.766 15.102-.825.623-2.326 1.524-3.336 2.007-2.34 1.12-4.713 1.331-6.719.586-3.324-1.235-3.515-1.43-23.164-23.023-57.252-62.918-59.718-65.656-60.703-67.313-2.638-4.437-2.548-7.894.328-12.32 1.547-2.38 1.005-1.832 28.719-28.883a128524.47 128524.47 0 0 0 58.656-57.281c4.724-4.62 7.156-6.399 9.93-7.25a8.654 8.654 0 0 1 2.242-.383zm-323.273 2.93c-1.62-.017-3.403.192-5.383.61-1.443.303-1.64.265-6.836 2.124-2.598.93-6.441 2.335-12.32 4.492-5.88 2.158-13.793 5.064-24.516 9.008-4.693 1.726-10.084 3.711-15.82 5.82-.05.019-.09.029-.14.047-.337.123-.625.23-.977.36a19555.655 19555.655 0 0 0-31.688 11.664 3968.79 3968.79 0 0 1-8.375 3.078c-.012.004-.019.003-.031.008-1.616.592-3.382 1.247-5.227 1.93l-.36.132c-1.595.591-3.236 1.201-4.921 1.829-.197.073-.38.144-.578.218l-.664.25c-1.96.732-3.895 1.454-5.852 2.188-1.208.451-2.52.938-3.64 1.36l-.555.21c-1.833.69-3.609 1.364-5.266 1.992-.008.003-.023.005-.03.008l-.407.157c-.66.25-1.116.428-1.735.664-1.145.435-2.22.845-3.195 1.218-.94.36-1.875.72-2.617 1.008-.118.046-.224.082-.336.125-.198.077-.452.18-.633.25-.58.228-1.213.477-1.578.625-1.237.502-4.275 1.73-6.75 2.735s-6.919 2.814-9.875 4.015a1880.13 1880.13 0 0 1-10.875 4.367c-2.04.811-3.811 1.53-5.36 2.18a108.54 108.54 0 0 0-4.03 1.774c-.774.362-1.478.71-2.118 1.046-.32.169-.622.336-.914.5-.584.33-1.12.65-1.617.977a21.926 21.926 0 0 0-2.04 1.516h-.007c-.423.352-.83.718-1.242 1.109-.127.12-.248.244-.367.367-.12.123-.239.241-.352.367v.008c-.112.125-.223.248-.328.375v.008a10.642 10.642 0 0 0-2.18 4.414v.008c-.077.334-.143.68-.195 1.032-.052.354-.092.72-.117 1.093a17.128 17.128 0 0 0-.024 1.75 21.294 21.294 0 0 0 .149 1.899 27.977 27.977 0 0 0 .445 2.664l.023.117.04.172a42.049 42.049 0 0 0 .742 2.922c.078.27.158.542.242.82 1.47 4.848 2.664 8.103 18.164 49.633 3.156 8.456 7.036 18.862 8.625 23.125 2.324 6.235 4.387 11.764 6.219 16.672a6667.503 6667.503 0 0 0 8.508 22.71c1.05 2.782 1.941 5.12 2.703 7.102a470.255 470.255 0 0 0 1.937 4.97c1.622 4.08 2.399 5.763 3.25 7.421 1.344 2.617 2.62 4.566 3.977 6 .17.18.335.344.508.508.347.33.7.628 1.062.898a10.383 10.383 0 0 0 2.89 1.516 9.598 9.598 0 0 0 1.04.273c.166.034.338.066.515.094.044.007.088.017.133.023.185.028.376.05.57.07.175.02.35.04.532.055.113.01.228.016.343.024.155.01.311.017.47.023.09.004.181.005.273.008l.328.008h.101c2.083.022 4.383-.22 6.344-.703.016-.004.03-.011.047-.015.178-.045.351-.092.523-.14.125-.036.247-.065.368-.102.021-.007.04-.017.062-.024.218-.067.429-.137.633-.21.756-.275 10.937-4.402 22.625-9.173 5.204-2.124 8.822-3.6 12.32-5.023l2.04-.828c2.37-.963 4.611-1.87 6.398-2.586 1.52-.609 2.863-1.146 4.101-1.633 1.315-.518 2.511-.985 3.672-1.43a596.654 596.654 0 0 1 6.695-2.492c1.255-.458 2.617-.952 4.149-1.508 5.431-1.97 12.012-4.373 14.625-5.336 2.612-.963 10.319-3.796 17.125-6.296 23.975-8.809 35.75-13.133 46.031-16.915.948-.348 1.497-.553 2.39-.882 6.034-2.22 12.388-4.563 15.43-5.688 3.602-1.33 6.278-2.319 8.157-3.023 2.873-1.077 5.42-1.983 6.164-2.196.105-.03.176-.047.203-.047.214 0 1.09-.35 1.945-.78 3.637-1.829 6.318-3.926 8.008-6.25.083-.115.164-.229.242-.345v-.008c.079-.115.161-.227.235-.343v-.008c.043-.07.083-.142.125-.211.03-.05.064-.098.093-.149.069-.117.132-.233.196-.351v-.008c.064-.12.128-.238.187-.36.3-.61.531-1.23.703-1.867.034-.124.073-.25.102-.375v-.008a8.269 8.269 0 0 0 .18-1.164c.025-.287.046-.601.054-.93.004-.166.008-.332.008-.507a28.649 28.649 0 0 0-.156-2.773c-.04-.385-.086-.77-.14-1.15a23.373 23.373 0 0 0-.407-2.163c-.16-.66-.316-1.27-.492-1.922a57.774 57.774 0 0 0-.633-2.164 90.1 90.1 0 0 0-.43-1.336 233.337 233.337 0 0 0-2.015-5.805c-2.408-6.705-6.703-18.23-14.883-40.149-4.67-12.512-10.146-27.193-12.172-32.625a12120.082 12120.082 0 0 0-10.625-28.414c-1.98-5.267-3.514-9.303-4.734-12.453-.815-2.1-1.488-3.803-2.063-5.21a128.86 128.86 0 0 0-.797-1.9v-.007c-1.454-3.41-2.186-4.597-3.265-6.266-.178-.275-.357-.54-.54-.797-.017-.024-.037-.046-.054-.07a17.126 17.126 0 0 0-.906-1.172 15.89 15.89 0 0 0-1.047-1.117l-.102-.094a13.458 13.458 0 0 0-.203-.187c-.07-.063-.133-.127-.203-.188l-.102-.086c-.105-.09-.213-.172-.32-.257a11.65 11.65 0 0 0-.313-.243l-.109-.078c-.073-.052-.145-.105-.219-.156-.073-.05-.144-.1-.218-.148l-.11-.07c-.111-.072-.223-.145-.336-.212-.112-.066-.229-.125-.344-.187l-.117-.063a10.99 10.99 0 0 0-.468-.234l-.118-.055c-.119-.054-.238-.106-.359-.156h-.008a11.153 11.153 0 0 0-.734-.273c-.085-.029-.172-.06-.258-.086l-.125-.04c-.128-.037-.26-.067-.39-.1-.132-.034-.266-.065-.4-.095-.044-.01-.087-.021-.132-.03-.088-.02-.176-.039-.266-.055-.09-.017-.182-.032-.273-.047a7.296 7.296 0 0 0-.14-.024c-.141-.022-.28-.037-.423-.054-.139-.018-.28-.034-.422-.047-.048-.005-.099-.012-.148-.016-.135-.011-.268-.023-.406-.031-.254-.015-.511-.021-.774-.024zm-.64 12.094c3.947-.058 6.872 1.86 9.39 6.062.926 1.547 4.24 10.173 15.586 40.586 25.076 67.22 29.298 78.602 29.586 79.672.154.574.399 1.954.539 3.07.77 6.143-2.142 9.826-10.079 12.742-1.82.67-12.706 4.672-24.187 8.891-11.481 4.219-34.6 12.71-51.375 18.875-24.337 8.944-30.893 11.261-32.453 11.477-2.205.304-2.596.307-4.164 0-2.827-.554-5.152-2.468-7.195-5.907-.613-1.031-2.203-4.893-3.899-9.468-1.576-4.25-5.304-14.252-8.281-22.227-10.788-28.901-12.684-33.972-17.633-47.25-2.768-7.425-7.335-19.67-10.156-27.21-3.332-8.906-5.266-14.426-5.516-15.75-1.317-6.978 1.392-11.02 9.352-13.962 3.183-1.176 26.916-9.902 44.07-16.203 6.669-2.45 20.9-7.681 31.625-11.625s21.967-8.076 24.984-9.18c3.018-1.103 6.393-2.161 7.5-2.36a14.28 14.28 0 0 1 2.305-.233zm-141.477 52.273a.649.649 0 0 1 .148.016c3.254.7 5.112 3.867 9.883 16.859 1.64 4.469 5.067 13.694 7.61 20.5 2.542 6.806 10.497 28.125 17.679 47.375 7.181 19.25 13.707 36.702 14.508 38.789 1.931 5.039 2.727 7.976 2.906 10.742.13 2.023.086 2.421-.399 3.422-.3.622-.798 1.283-1.101 1.477-.303.193-10.457 4.368-22.57 9.273-15.937 6.453-22.295 8.914-23 8.914-1.245-.002-2.635-.835-3.774-2.265-2.148-2.7-2.514-3.615-20.828-52.727l-10.258-27.5c-2.18-5.844-6.216-16.685-8.976-24.086-8.108-21.738-8.888-24.093-9.18-27.719-.14-1.741-.097-2.05.492-3.25.358-.73.86-1.45 1.117-1.61.257-.157 3.381-1.47 6.946-2.913 3.564-1.443 13.609-5.51 22.32-9.04 12.47-5.05 15.591-6.245 16.477-6.257zm571.664 43.406c.506-.012.983.041 1.398.156.48.134 3.125 1.815 5.875 3.735S820.156 224.04 828.75 230c8.594 5.96 15.767 11.009 15.938 11.227.642.822.872 2.118.578 3.21-.413 1.532-2.448 4.418-5.078 7.204-3.564 3.773-86.837 85.137-90.29 88.218-2.552 2.278-5.443 4.279-7.039 4.875-1.308.49-3.502.659-4.359.336-.42-.158-2.65-1.679-13.125-8.953-3.987-2.769-11.919-8.273-17.625-12.226s-10.697-7.504-11.094-7.891c-.995-.97-1.172-2.706-.437-4.367 1.327-3.001 2.493-4.257 16.781-18.149 14.517-14.114 62.332-60.824 71-69.359 7.654-7.537 10.529-9.997 13.32-11.406 1.149-.58 2.416-.91 3.532-.938zm-272.54 2.89c-1.06.003-2.131.11-3.109.329.945-.196 2.265-.316 3.422-.313.17.001.335.002.5.008-.27-.013-.54-.023-.813-.023zm.04.345a16.6 16.6 0 0 0-5.102.93c-3.896 1.362-21.078 8.342-23.367 9.492-5.358 2.69-4.996 2.374-42.258 36.703-7.013 6.46-22.088 20.34-33.5 30.851-32.39 29.83-34.924 32.265-37.328 35.86-3.887 5.811-3.33 10.26 2.203 17.671 2.936 3.933 4.945 6.226 27.75 31.602 5.437 6.05 14.33 15.941 19.758 21.984 27.902 31.067 37.705 41.933 41.633 46.141 6.94 7.436 10.622 10.344 14.421 11.367 2.708.73 5.752.336 9.938-1.289 1.59-.617 1.862-.812 1.812-1.273-.085-.788 1.954-2.864 10.188-10.399 11.374-10.409 79.748-73.408 83.875-77.281 7.068-6.633 11.927-10.784 13.664-11.672.734-.375 22.198-8.946 23.242-9.281.577-.185 3.31-4.35 3.82-5.82 1.253-3.614.497-7.449-2.312-11.696l-.586-.875-.078-.117-.125.727a.757.757 0 0 1-.125.328l-.008.008a.78.78 0 0 1-.063.078l-.015.015c-.025.025-.048.044-.078.07-.018.016-.035.032-.055.048a2.173 2.173 0 0 1-.14.101c-.013.008-.02.016-.032.024-.07.046-.149.088-.242.14-.087.049-.18.1-.29.156l-.077.04c-.092.046-.189.088-.297.14a33.97 33.97 0 0 1-.75.344c-.091.04-.15.074-.25.117-.181.08-.313.137-.524.227-.28.12-.536.225-.875.367-.352.147-.655.27-1.078.445-.27.112-.495.205-.797.328l-.359.149c-1.375.561-2.975 1.208-5.07 2.054-6.05 2.444-11.367 4.45-11.813 4.461-1.098.027-2.575-.891-4.969-3.078-2.358-2.153-4.275-4.186-9.851-10.453-3.794-4.264-8.151-9.113-36.25-40.375-32.243-35.871-39.288-43.696-40.93-45.453-2.448-2.62-5.343-6.248-6.437-8.062-.66-1.095-.874-1.714-.82-2.36l.07-.875 11-4.437c5.39-2.176 8.292-3.317 9.945-3.875l.258-.094h.008c.165-.054.299-.092.437-.133.073-.021.13-.044.196-.062.03-.008.05-.008.078-.016.148-.04.282-.077.398-.101a3.274 3.274 0 0 1 .36-.055 1.38 1.38 0 0 1 .257 0c.13.014.237.02.336.023.354.01.521-.05.446-.172a.834.834 0 0 0-.11-.14c-.74-.767-4.09-2.66-5.547-3.102-1.065-.324-2.294-.47-3.586-.445zm8.195 2.476c.447.331.963.763 1.562 1.29h.008c.034.03.067.054.102.085.062.055.13.121.195.18l-.172-.188c-.367-.392-.979-.877-1.695-1.367zM499.82 241.86c.13-.003.261-.003.39 0 2.249.057 4.633 1.067 7.071 2.993.775.611 5.23 5.36 9.899 10.562 4.669 5.202 16.684 18.574 26.695 29.711l28.977 32.234c22.223 24.724 20.303 22.488 21.68 25.266.977 1.973 1.269 2.853 1.39 4.188.144 1.59-.1 3.101-.758 4.64-.06.14-.12.282-.188.422-.266.562-.589 1.126-.968 1.703-1.546 2.352-2.194 3.023-8.258 8.57a5663.656 5663.656 0 0 0-12.75 11.72c-61.417 56.614-71.849 66.31-75.125 68.35a5.33 5.33 0 0 1-.672.36c-.482.214-.818.247-1.36.414-2.657.821-4.973.608-7.476-.68-2.104-1.082-4.122-2.91-8.125-7.351-2.274-2.523-8.635-9.592-14.133-15.711a180751.5 180751.5 0 0 0-55.367-61.594c-10.235-11.38-11.18-12.528-12.445-15.031-2.196-4.341-1.67-8.076 1.758-12.43.77-.979 8.825-8.58 19.32-18.234a93183.459 93183.459 0 0 0 65.484-60.313c3.714-3.424 7.205-6.56 7.758-6.968 1.564-1.154 4.373-2.407 6.055-2.703.126-.023.255-.039.383-.055l.062-.008c.083-.01.167-.016.25-.024.152-.013.3-.027.453-.03zm-323.64 74.414c-.335.002-.685.02-1.055.04-3.078.166-5.926 1.16-11.5 4.03-3.653 1.882-56.181 31.797-84.25 47.977-9.48 5.465-13.26 8.017-16.148 10.906-3.515 3.516-4.831 5.98-6.961 13.024-1.51 4.99-21.631 85.547-22.375 89.578-.76 4.11-.853 8.151-.243 10.508 1.198 4.622 4.204 8.373 13.32 16.633 4.389 3.975 69.207 61.486 77.54 68.797 9.912 8.697 13.81 11.432 17.992 12.601.949.266 2.15.357 3.875.297 3.323-.116 5.888-.993 11.75-4.008 4.504-2.317 80.328-45.569 89.75-51.195 13.04-7.787 15.079-10.545 19.094-25.836 2.367-9.016 20.253-80.754 20.773-83.32.764-3.77 1.047-7.283.774-9.657-.657-5.69-3.539-9.505-15.016-19.875-3.98-3.595-34.172-30.395-55.508-49.273-2.564-2.269-8.477-7.507-13.14-11.64-15.192-13.466-18.107-15.821-22.141-17.852-2.582-1.3-4.188-1.75-6.531-1.735zm-12.383 6.625a2.932 2.932 0 0 1 .586.04c.017.003.037.004.054.008a2.49 2.49 0 0 1 .282.078c.16.056.3.126.43.21h.007c.085.057.163.126.235.196.11.108.209.23.289.375.026.049.047.096.07.149v.008c.07.158.124.336.164.539.027.135.05.273.063.43.013.158.015.325.015.507 0 .18-.002.367-.015.57-.067 1.02-.302 2.348-.703 4.086-.16.694-.35 1.453-.563 2.282-.709 2.75-5.643 22.41-10.969 43.687-1.298 5.186-2.43 9.711-3.422 13.664-1.983 7.906-3.405 13.526-4.476 17.594a346 346 0 0 1-.742 2.773 132.762 132.762 0 0 1-1.164 4.07c-.413 1.344-.751 2.289-1.063 3.024-.104.245-.205.468-.305.672-.019.04-.043.08-.062.117v.008c-.418.826-.828 1.378-1.367 2.133-.09.126-.185.248-.282.375v.008a18.28 18.28 0 0 1-.953 1.14v.009c-.23.255-.474.511-.726.765a26.294 26.294 0 0 1-1.633 1.508l-.008.008a29.877 29.877 0 0 1-2.797 2.11c-.291.193-.875.553-1.687 1.039-2.436 1.458-6.893 4.038-11.43 6.617-13.924 7.912-68.432 39.092-73.75 42.187a57.98 57.98 0 0 1-2.563 1.414c-1.41.736-2.698 1.341-3.359 1.563-.528.177-1.045.331-1.453.445-.408.114-.706.184-.797.18a1.682 1.682 0 0 1-.5-.11 2.307 2.307 0 0 1-.89-.609 1.73 1.73 0 0 1-.282-.43c-.047-.104-.095-.205-.133-.312a2.288 2.288 0 0 1-.117-.563 4.88 4.88 0 0 1-.016-.54c.018-.522.114-1.25.32-2.366l.048-.25c.162-.854.378-1.886.68-3.226.493-2.193 1.192-5.124 2.163-9.086.323-1.318.678-2.75 1.063-4.305v-.008c.772-3.118 1.674-6.733 2.727-10.938 1.052-4.205 2.254-8.997 3.625-14.46 1.463-5.835 2.875-11.451 4.18-16.618 3.257-12.906 5.827-22.977 6.741-26.422.183-.689.301-1.113.344-1.242.598-1.794 1.343-3.397 2.313-4.883.194-.297.397-.586.609-.875.211-.287.441-.571.672-.851v-.008c2.087-2.532 4.987-4.789 9.125-7.242a669.61 669.61 0 0 1 4.07-2.352c11.182-6.433 42.276-24.25 61.899-35.469a5502.665 5502.665 0 0 1 16.03-9.14 197.741 197.741 0 0 1 2.298-1.282c.216-.118.389-.21.594-.32.313-.169.626-.333.914-.484.3-.159.585-.306.859-.446.133-.067.272-.14.398-.203l.094-.047c.357-.176.704-.341 1.016-.484.116-.053.225-.107.336-.156.06-.027.113-.045.172-.07.086-.038.167-.068.25-.102.073-.03.148-.066.218-.094.189-.075.37-.143.54-.203.176-.062.34-.117.5-.164l.023-.008c.098-.029.197-.048.289-.07.104-.026.207-.052.305-.07.106-.021.206-.043.304-.055h.016c.103-.013.202-.02.297-.024zm23.406 3.172c.202.002.405.019.61.063 1.144.248 3.387 1.415 4.835 2.515 1.499 1.14 4.1 3.435 37.118 32.727 3.1 2.75 9.569 8.482 14.375 12.742 36.654 32.49 34.926 30.92 37.109 33.805 2.41 3.184 3.245 5.599 3.25 9.414.003 2.407-.203 3.271-9.766 41.5-12.283 49.104-11.608 46.505-12.5 48.344-.419.864-1.091 1.792-1.515 2.093-1.357.967-2.574.907-4.844-.242-2.387-1.208-1.987-.874-14.523-12.039-5.487-4.886-15.996-14.219-23.352-20.742l-29.875-26.492c-9.075-8.047-17.569-15.557-18.875-16.688-3.585-3.102-6.037-6.317-7.281-9.547-.82-2.126-.942-6.31-.258-8.78.284-1.03 5.193-20.543 10.914-43.368s10.635-41.95 10.914-42.5c.924-1.82 2.25-2.82 3.664-2.805zm449.04 1.578c.92 1.294 1.673 2.51 2.257 3.672-.645-1.324-1.404-2.649-1.938-3.289zm2.257 3.672c.099.197.192.393.281.586-.09-.196-.185-.388-.281-.586zm.281.586c.795 1.728 1.205 3.344 1.242 4.922a10.213 10.213 0 0 0-.421-2.844c-.167-.564-.466-1.305-.82-2.078zm228.766 6.922c-2.81.015-5.297.292-5.297.703 0 .12.928.219 2.062.219s8.253.786 15.813 1.75c32.594 4.154 41.308 5.297 42.18 5.523 1.035.27 1.695.82 1.695 1.407 0 1.006-3.386 3.277-9.25 6.203-1.856.926-11.7 5.953-21.875 11.18-10.175 5.226-28.681 14.735-41.125 21.125s-26.056 13.392-30.25 15.57c-13.567 7.044-16.992 8.033-24.375 7.015-5.103-.703-37.293-4.82-46.25-5.914-3.988-.487-7.666-.997-8.18-1.132-1.197-.316-1.54-.907-1.054-1.844.2-.388.317-.761.25-.828-.282-.282-4.613 2.714-6.547 4.531-1.66 1.56-2.287 2.36-3.032 3.867l-.937 1.899.015 3.515c.018 3.953.228 4.949 2.329 11.133 1.816 5.346 1.77 5.218 10.234 27.125 22.898 59.264 30.498 78.901 32.96 85.125 2.786 7.038 5.684 13.307 7.227 15.633 2.143 3.228 4.828 5.507 7.82 6.633 3.185 1.197 3.702 1.271 39.665 5.867 11.412 1.458 21.819 2.742 23.125 2.851 3.432.287 4.111.286 6.75.008 4.601-.484 8.353-1.862 17.625-6.453 6.396-3.167 82.828-42.37 95.5-48.984 10.704-5.587 13.762-7.476 16.68-10.328 4.119-4.027 4.694-8.715 2.117-17.102-1.568-5.102-1.973-6.181-28.29-74.25-13.82-35.747-16.843-43.474-18.538-47.46-5.315-12.498-8.632-15.587-18.47-17.173-3.918-.632-52.853-6.889-56.75-7.257a39.547 39.547 0 0 0-3.827-.157zm65.562 24.399c2.036.015 3.874.654 5.328 1.882 1.507 1.272 3.465 4.598 4.946 8.399 7.912 20.314 42.035 108.74 42.484 110.094 1.721 5.18 1.35 9.323-1.125 12.53-2.05 2.657-3.483 3.488-26.492 15.306-81.781 42.004-80.824 41.518-82.86 42.046-1.09.284-2.553.51-3.25.5-4.094-.054-7.159-3.03-9.617-9.336-.54-1.387-4.262-11.017-8.273-21.398-4.01-10.381-9.861-25.512-13-33.625-17.603-45.494-21.966-56.883-22.273-58.125-.187-.756-.342-2.556-.344-4-.004-2.44.045-2.742.789-4.313.853-1.801 2.711-3.948 4.57-5.289.624-.45 3.664-2.122 6.758-3.71l28.375-14.57c12.512-6.426 28.994-14.889 36.625-18.805 7.631-3.917 17.981-9.229 23-11.813 5.019-2.584 9.893-4.938 10.836-5.227a12.032 12.032 0 0 1 3.523-.547zm-196.062 55.671c.147 0 .306.004.492.008.87.016 8.617.945 17.21 2.063a9690.769 9690.769 0 0 0 27.75 3.562c13.379 1.694 13.572 1.74 15.892 3.782 2.46 2.166 4.5 5.97 7.601 14.148 1.077 2.841 4.683 12.195 8.008 20.79 3.325 8.593 7.848 20.293 10.055 26 2.206 5.705 8.4 21.68 13.757 35.5 5.358 13.818 9.96 25.743 10.235 26.5.88 2.42 1.453 5.038 1.453 6.663 0 1.383-.092 1.674-.711 2.367-.605.678-.905.804-2.063.868-.744.04-8.214-.814-16.601-1.907-8.388-1.093-20.891-2.72-27.781-3.609-7.993-1.031-12.936-1.776-13.664-2.063-3.96-1.555-6.576-5.412-10.586-15.625-2.295-5.843-22.357-57.695-38.102-98.476-4.706-12.189-5.492-14.687-5.492-17.445 0-1.324.09-1.616.727-2.328.6-.672.788-.795 1.82-.797zm-590.36 21.665c1.948-.004 3.818.53 5.938 1.554 2.796 1.351 3.597 1.96 9.508 7.25a8884.03 8884.03 0 0 0 19.875 17.656c8.315 7.37 24.178 21.433 35.25 31.25 11.071 9.818 21.23 18.808 22.578 19.977 4.951 4.291 6.653 7.714 5.281 10.625-.879 1.864-2.797 3.404-8.031 6.438-2.726 1.58-22.994 13.18-45.031 25.78-40.192 22.982-41.858 23.89-44.813 24.282-2.135.284-2.374.293-3.64.117-1.59-.22-2.87-.633-4.477-1.437-2.88-1.441-3.009-1.549-20.39-16.961-4.05-3.59-10.01-8.878-13.25-11.75-62.112-55.057-56.468-49.935-58.04-52.602-1.753-2.973-1.48-4.97 1.032-7.547 1.24-1.272 3.994-2.916 24.648-14.718 27.244-15.569 58.167-33.265 63.5-36.336 4.206-2.423 7.217-3.573 10.063-3.579zm376.5 7.53zm-2.476 1.165zM722.617 549.39c-1.86.025-2.483.171-4.289.797-2.832.98-6.559 2.834-11.46 5.703-3.255 1.904-83.676 51.34-99.118 60.93-14.083 8.744-18.348 12.318-20.055 16.804-.86 2.262-.81 6.404.117 9.531.972 3.275 1.584 4.617 2.032 4.446.558-.215 1.763.797 3.742 3.148.984 1.169 5.498 6.4 10.031 11.625 24.877 28.673 39.87 45.918 41.055 47.21 4.446 4.848 8.121 10.568 11.437 17.813 3.975 8.685 36.426 78.536 38.899 83.727 1.925 4.042 2.517 5.807 2.18 6.547-.246.539-.155.724.953 1.867 2.723 2.81 5.543 4.768 8.234 5.727 1.838.654 5.418.63 7.953-.055 2.822-.761 8.772-3.806 16.172-8.274 5.92-3.573 86.148-52.942 96.5-59.382 12.682-7.89 17.136-11.638 18.797-15.805.757-1.899.911-5.794.328-8.445-.934-4.245-1.87-6.385-16.695-38.305l-18.055-38.875c-13.176-28.373-13.555-29.032-24.102-41.25a50848.302 50848.302 0 0 0-44.367-51.125c-7.529-8.657-11.377-12.174-15-13.711-1.352-.574-1.87-.648-4.406-.648-.323 0-.617-.004-.883 0zm-442.437 3.875c-1.357 0-1.919.137-3.14.562-3.873 1.347-7.017 3.807-15.009 11.742-7.178 7.127-78.55 80.086-82.226 84.055-4.87 5.257-7.303 8.637-8.516 11.836-.538 1.418-.627 2.075-.625 4.414.002 2.423.091 3.024.781 5.047 1.543 4.523 1.084 3.69 27.243 49.203 27.37 47.623 27.118 47.21 31.468 51.54 4.21 4.188 4.597 4.389 56.594 29.96 16.981 8.351 32.281 15.831 34 16.617 4.495 2.055 7.856 3.251 10.125 3.602.413.064 1.706.077 2.875.03 4.942-.196 8.537-2.458 16.852-10.616 3.946-3.872 54.407-55.306 77.906-79.407 13.094-13.429 15.472-17.088 15.18-23.335-.209-4.455-1.58-7.536-9.438-21.266-15.118-26.415-41.607-72.335-43.258-74.992-3.42-5.507-6.526-9.131-9.992-11.664-2.346-1.715-5.552-3.496-13.352-7.399-14.707-7.36-71.085-35.026-74.773-36.695-5.643-2.553-7.401-3.067-11.016-3.195a50.008 50.008 0 0 0-1.68-.04zm437.914 1.39c1.334-.029 2.54.225 3.68.758 2.156 1.01 2.82 1.623 7.437 6.93 11.462 13.175 46.126 53.1 48.352 55.687 2.265 2.634 2.801 5.515 1.46 7.852-.755 1.317-3.465 4.022-5.156 5.148-.545.363-11.51 7.129-24.367 15.032-31.189 19.172-75.397 46.396-79.133 48.734-3.36 2.102-6.44 3.548-8.719 4.086-2.248.53-4.034.457-5.734-.242-2.124-.874-3.127-1.66-5.094-3.97-.965-1.133-13.09-15.108-26.945-31.054-16.36-18.828-25.373-29.386-25.703-30.117-.755-1.67-.836-3.434-.219-4.828 1.24-2.804 3.416-4.608 12.047-9.977 20.806-12.942 98.229-60.478 100.125-61.476 3.176-1.672 5.745-2.515 7.969-2.563zm-439.375 3.992a12.112 12.112 0 0 1 .914.024 13.855 13.855 0 0 1 2.414.351l.101.024c.1.025.199.051.297.078.083.023.169.046.25.07.177.053.354.112.524.172.499.178 10.637 5.108 22.531 10.953 23.788 11.69 38.133 18.729 46.844 23.07h.008c.483.241.848.432 1.297.657a640.887 640.887 0 0 1 5.671 2.86 135.42 135.42 0 0 1 4.055 2.148h.008c.238.133.459.26.656.375.4.232.716.429.977.601.13.087.249.168.352.243.205.149.363.281.484.398.18.173.285.317.375.469l.008.008c.028.048.05.098.078.148l.008.008c.057.104.118.22.195.344.073.118.134.231.196.351l.008.008a4.37 4.37 0 0 1 .445 1.493c.04.392.023.8-.047 1.226-.087.526-.267 1.085-.523 1.68-.02.047-.034.093-.055.14a15.229 15.229 0 0 1-1.18 2.102 5.42 5.42 0 0 1-.218.305 26.24 26.24 0 0 1-.797.945c-.186.21-.398.445-.649.719-.249.271-.527.576-.851.922-.021.022-.05.047-.07.07-.31.33-.647.689-1.032 1.094a989.344 989.344 0 0 1-7.476 7.734c-1.728 1.775-3.72 3.822-6.032 6.188A19733.086 19733.086 0 0 1 330.493 645a25088.515 25088.515 0 0 0-28.844 29.5c-9.462 9.693-18.46 18.874-20 20.406-.193.193-.384.385-.578.57a37.719 37.719 0 0 1-2.86 2.492 27.46 27.46 0 0 1-1.648 1.196 21.793 21.793 0 0 1-1.554.945c-.167.09-.33.178-.492.258-.163.08-.327.156-.485.226-.315.14-.62.255-.914.352-.482.159-.962.29-1.437.39-.476.1-.944.17-1.414.211a11.226 11.226 0 0 1-3.266-.18c-.155-.03-.314-.07-.469-.109-.31-.076-.619-.163-.93-.265-.134-.044-.738-.318-1.718-.781-1.96-.927-5.415-2.6-9.578-4.633a2372.52 2372.52 0 0 1-6.68-3.274 68384.831 68384.831 0 0 0-54.25-26.664 624.073 624.073 0 0 1-3.29-1.625c-1.946-.97-3.423-1.73-4.562-2.36a40.888 40.888 0 0 1-.789-.444 21.506 21.506 0 0 1-1.257-.782 9.418 9.418 0 0 1-.883-.672 6.07 6.07 0 0 1-.336-.32c-.102-.103-.204-.202-.29-.305 0-.003.002-.005 0-.008a5.416 5.416 0 0 1-.64-.984c-.11-.211-.2-.427-.266-.656a3.732 3.732 0 0 1-.132-.711v-.008c-.02-.247-.017-.5.008-.766a5.27 5.27 0 0 1 .054-.406c.048-.276.118-.563.211-.86.093-.294.214-.605.352-.921v-.008c.138-.317.3-.646.484-.985.092-.168.194-.341.297-.515v-.008c.208-.352.44-.71.695-1.086.217-.32.397-.583.704-.961v-.008c1.338-1.65 5.152-5.553 25.507-26.367a123145 123145 0 0 1 54.625-55.836c.377-.384.747-.755 1.102-1.11 4.263-4.251 7.045-6.406 9.766-7.468a13.106 13.106 0 0 1 2.055-.61c.133-.028.266-.056.405-.078.042-.007.084-.01.125-.016.131-.019.264-.032.399-.046a10.339 10.339 0 0 1 1-.063zm104.75 60.368a4.766 4.766 0 0 1 2.14.476c2.101 1.017 3.343 2.712 8.329 11.383 7.51 13.062 9.964 17.343 18.609 32.375 26.312 45.756 24.484 42.505 24.945 44.219 1.202 4.462.6 7.593-2.265 11.812-1.31 1.928-2.185 2.847-22.47 23.594-66.087 67.596-64.201 65.716-67.491 67.375-1.6.807-3.629.914-4.899.266-2.4-1.226-3.029-2.18-14.062-21.391-20.864-36.325-24.227-42.184-30.696-53.398-3.73-6.469-6.81-12.092-7.117-13-1.442-4.28-.708-7.99 2.469-12.477.633-.894 9.248-9.894 19.148-20a75061.705 75061.705 0 0 0 58.68-59.953c4.206-4.306 8.252-8.292 8.992-8.852 2.121-1.604 4.016-2.415 5.688-2.43zm406.406 24.382c2.433-.026 3.437.401 5.289 2.243 1.419 1.41 1.827 2.155 5.211 9.476 1.274 2.756 10.16 21.883 19.742 42.508 9.583 20.625 17.593 38.172 17.805 38.992.548 2.124.355 5.392-.406 6.883-.922 1.805-2.265 3.434-4.141 5.031-1.847 1.573-4.483 3.238-31.25 19.719-83.185 51.22-78.403 48.356-82.07 49.133-1.994.422-2.083.424-3.633.008-1.61-.433-3.052-1.484-4.32-3.149-.98-1.286-2.857-5.253-23.485-49.742-1.817-3.919-6.645-14.325-10.734-23.125-5.432-11.69-7.534-16.471-7.805-17.75-.785-3.7.186-6.653 3.227-9.789 2.168-2.236 3.288-2.998 14.57-9.898 8.301-5.077 79.785-49.076 90.586-55.758 6.123-3.788 8.409-4.749 11.414-4.781zm-612.281 33.375c.656 0 1.513.194 2.406.57.756.32 19.235 9.372 41.063 20.118C242.89 708.207 260.822 717 260.913 717c.093 0 1.414.829 2.938 1.844 2.98 1.985 5.922 4.826 7.945 7.664.639.896 3.157 5.115 5.594 9.375 7.202 12.594 38.734 67.41 41.195 71.617 3.585 6.128 4.206 7.65 3.531 8.68-.366.56-1.222.72-2.117.398-2.415-.867-7.35-3.234-28.125-13.46-13.338-6.566-27.4-13.48-31.25-15.368-26.31-12.903-26.802-13.183-30.75-17.29-3.55-3.69-2.75-2.388-21.258-34.585-6.165-10.725-15.416-26.813-20.555-35.75-11.727-20.398-12.476-21.898-11.562-23 .198-.238.584-.352 1.094-.352zm302.094 77.07a20.45 20.45 0 0 0-.735.032c-.178.01-.363.024-.555.039-.142.011-.281.018-.43.031-.225.02-.452.044-.687.07-.088.01-.177.029-.265.04-.186.022-.368.037-.555.062-.363.049-.728.104-1.086.164-2.53.428-27.622 6.2-29.75 6.844-3.395 1.027-5.771 2.584-7.883 5.703a20.24 20.24 0 0 0-.367.562v.008c-.121.193-.247.39-.367.594V768l-.133.227c-.198.345-.39.7-.586 1.078-.12.23-.24.46-.36.703-.714 1.458-1.42 3.148-2.156 5.117-.245.656-.49 1.336-.742 2.055-.253.722-.51 1.469-.773 2.258-.273.816-.722 2.212-1.297 4.039-1.724 5.48-4.592 14.823-7.336 23.898-3.659 12.1-7.885 26.05-9.383 31-5.596 18.492-9.709 32.07-12.734 42.133-2.27 7.548-3.925 13.117-5.133 17.305a297.297 297.297 0 0 0-1.867 6.703c-.115.437-.224.842-.32 1.226-.097.382-.179.735-.258 1.07a48.66 48.66 0 0 0-.391 1.774c-.051.259-.094.499-.133.727a18.196 18.196 0 0 0-.257 2.25c-.036.812-.004 1.548-.008 2.562l-.016 4.008.82 1.664c.143.29.303.581.485.867.09.143.188.28.289.422.002.003-.002.006 0 .008.099.14.204.276.312.414.111.142.224.283.344.422a14.31 14.31 0 0 0 1.188 1.21c.144.132.285.263.437.392.002.003.006-.003.008 0a16.687 16.687 0 0 0 .961.75c.168.122.332.248.508.367h.008a20.048 20.048 0 0 0 1.093.695 23.003 23.003 0 0 0 1.18.648l.906.47h.008c.286.145.56.288.852.43.296.142.601.284.945.437a65.233 65.233 0 0 0 2.633 1.07 263.468 263.468 0 0 0 4.469 1.61c.954.333 2.022.709 3.234 1.124h.008c2.424.831 5.41 1.843 9.117 3.086 11.132 3.734 28.804 9.586 57.57 19.117 19.336 6.406 31.605 10.47 39.68 13.102h.008c6.725 2.192 10.545 3.393 13.102 4.125a66.33 66.33 0 0 0 2.57.687c1.091.266 1.971.438 2.992.633.144.028.301.055.47.078.067.01.146.015.218.024.08.01.158.022.242.031l.133.016a28.322 28.322 0 0 0 1.203.086h.047c.238.01.483.024.742.03h.024c.146.005.3.006.453.009.381.006.776.01 1.195.008.298-.003.606-.01.922-.016l3.875-.07 12.75-2.93c18.886-4.331 19.26-4.438 22.195-6.578.22-.16.447-.349.68-.562.118-.108.232-.224.352-.344a14.834 14.834 0 0 0 1.43-1.64c.233-.305.464-.615.687-.938.334-.485.65-.99.937-1.492.192-.335.369-.67.531-1 .163-.33.312-.654.438-.97l.39-.991a35.583 35.583 0 0 1-1.234 2.648c-.224.188-.454.375-.672.555.136-.232.272-.465.407-.711l.82-1.5-.734.656c-.235.21-.439.377-.665.531-.052.036-.108.076-.164.11a3.592 3.592 0 0 1-.078.047l-.015.008a5.409 5.409 0 0 1-.578.273c-.118.048-.25.1-.391.149-1.013.348-2.67.74-5.906 1.476h-.008l-14.274 3.25c-2.296.523-4.44.989-6.047 1.32-.803.166-1.475.296-1.96.383-.244.044-.441.081-.586.102-.146.02-.238.028-.274.023a1.174 1.174 0 0 1-.117-.023c-.038-.01-.074-.026-.11-.04a.954.954 0 0 1-.312-.195h-.008c-.039-.036-.067-.073-.102-.117a1.243 1.243 0 0 1-.093-.133c-.01-.014-.015-.032-.024-.046l-.015-.024c-.036-.066-.073-.134-.102-.21v-.009c-.029-.078-.048-.16-.07-.25a3.215 3.215 0 0 1-.031-.14l-.016-.079c-.009-.051-.023-.101-.031-.156-.022-.169-.026-.356-.031-.554-.002-.067-.008-.134-.008-.204 0-.074.005-.148.008-.226.006-.174.014-.354.031-.547.009-.1.031-.236.055-.39.005-.037.009-.079.015-.118.012-.07.025-.16.04-.242l.046-.25c.066-.363.148-.78.242-1.242.01-.044.015-.09.024-.133.032-.162.065-.32.102-.492.026-.124.058-.251.085-.375l.133-.61c.064-.29.122-.562.188-.851a71.878 71.878 0 0 1 .64-2.656c.1-.382.184-.675.258-.914.072-.237.127-.4.164-.461.02-.033.141-.397.336-1.016.135-.43.317-1.021.563-1.82.654-2.13 1.753-5.74 3.562-11.703 3.618-11.93 10.08-33.286 21.516-71.102 3.784-12.513 7.611-25.23 8.508-28.266.33-1.118.642-2.162.945-3.132v-.008l.14-.446c.107-.337.21-.641.313-.96.098-.305.186-.587.281-.876l.14-.422v-.008c.14-.415.28-.812.415-1.195v-.008c.134-.383.269-.75.398-1.101v-.008c.13-.353.257-.692.383-1.016.128-.329.258-.638.383-.938.123-.296.24-.574.36-.843.22-.494.433-.941.648-1.352l.039-.07c.049-.093.1-.177.148-.266.035-.062.068-.127.102-.187.04-.072.084-.15.125-.22v-.007c.116-.198.236-.378.352-.555 0-.003-.003-.006 0-.008.114-.173.229-.337.343-.492.002-.003-.003-.006 0-.008.115-.155.237-.294.352-.43.002-.002-.003-.006 0-.008.117-.137.233-.262.351-.382.13-.132.244-.24.352-.344.09-.087.177-.17.266-.242l.039-.032c.007-.006.016-.009.023-.015.002-.003-.003-.007 0-.008.044-.034.087-.063.133-.094l.031-.023c.042-.028.088-.052.133-.078.014-.01.032-.016.047-.024.052-.028.106-.059.164-.086l.039-.015.008-.008c.007-.004.016-.005.023-.008.066-.03.128-.058.204-.086.083-.032.176-.062.273-.094.075-.025.157-.053.242-.078.022-.007.047-.01.07-.016.014-.004.026-.012.04-.015l.03-.008c.213-.06.448-.12.727-.188.367-.09.824-.197 1.336-.312l1.125-.25c.982-.22 3.008-.679 5.14-1.165.302-.068.667-.155.977-.226 2.372-.541 5.096-1.16 7.703-1.758.395-.09.66-.153 1.047-.242.27-.062.5-.12.766-.18l.61-.14c.894-.204 1.71-.381 2.53-.563a357.79 357.79 0 0 1 3.313-.719c.874-.184 1.59-.337 2.18-.453.093-.018.22-.046.304-.062.277-.053.535-.102.72-.133l.046-.008c.11-.018.18-.022.25-.031.044-.006.119-.021.149-.024.017-.002.019 0 .03 0 .022 0 .048-.003.055 0 .182.07.476.477.657.906l.328.782.086-.453.11.867.14-.54c.06-.229.111-.51.156-.843.023-.167.044-.346.063-.54.056-.577.095-1.272.117-2.085.015-.542.023-1.135.023-1.781 0-1.918 0-2.892-.101-3.594v-.008c-.013-.088-.031-.17-.047-.25a4.161 4.161 0 0 0-.117-.461c-.12-.373-.29-.737-.54-1.266a9.687 9.687 0 0 0-.656-1.164 11.15 11.15 0 0 0-.836-1.109c-.002-.002.003-.006 0-.008-.204-.24-.426-.472-.656-.703a13.52 13.52 0 0 0-.36-.352 16.478 16.478 0 0 0-2.53-1.922c-.16-.1-.32-.2-.485-.296-.925-.544-1.555-.892-2.023-1.086a3.731 3.731 0 0 0-.22-.086c-.345-.12-.584-.138-.796-.063a.925.925 0 0 0-.203.102c-.047.03-.094.07-.14.11-.007.004-.01.01-.016.015a2.41 2.41 0 0 0-.125.117c-.287.287-.705.523-.93.523-.225 0-6.61 1.435-14.187 3.188-1.978.457-3.713.854-5.243 1.203-.764.174-1.48.336-2.148.484-.236.053-.502.115-.727.164-.386.085-.786.174-1.14.25-.1.022-.208.042-.305.063-.46.097-.911.191-1.32.273a75.986 75.986 0 0 1-2.157.399c-.056.009-.124.022-.18.03-.02.004-.042.006-.062.009-.318.05-.606.095-.89.133-.088.011-.19.029-.274.039l-.125.015-.062.008c-.307.035-.6.06-.875.078a14.07 14.07 0 0 1-1.414.024 11.607 11.607 0 0 1-.828-.062l-.188-.024a14.288 14.288 0 0 1-.648-.094c-.182-.031-.368-.063-.555-.102-.03-.006-.063-.017-.094-.023-.076-.016-.156-.03-.234-.047-.218-.048-.438-.1-.672-.156-.28-.067-.577-.134-.89-.211-1.513-.371-14.62-4.616-29.126-9.43-43.62-14.476-69.083-22.909-84.375-27.953-1.331-.44-2.5-.83-3.664-1.219l-1.117-.375c-1.454-.487-2.77-.934-3.96-1.343a233.689 233.689 0 0 1-4.54-1.602c-.417-.153-.81-.3-1.172-.438a56.487 56.487 0 0 1-1.867-.742c-.261-.11-.496-.214-.71-.312-.058-.027-.103-.045-.157-.07a14.567 14.567 0 0 1-.422-.204 8.082 8.082 0 0 1-.453-.25 3.788 3.788 0 0 1-.32-.21 1.354 1.354 0 0 1-.258-.235c-.008-.01-.01-.021-.016-.031a.438.438 0 0 1-.054-.094.407.407 0 0 1 0-.273v-.008a.55.55 0 0 1 .039-.086v-.008c.016-.03.04-.057.062-.086v-.008c.023-.03.057-.057.086-.086.061-.06.134-.119.219-.172.038-.024.167-.07.375-.133 1.458-.431 6.858-1.735 13.054-3.14 5.906-1.34 9.478-2.146 11.618-2.649 1.07-.251 1.779-.428 2.242-.554.151-.042.28-.078.383-.11.103-.032.189-.06.25-.086a.616.616 0 0 0 .125-.07c.013-.01.025-.015.03-.024.007-.009.008-.023.009-.03 0-.01-.002-.015-.008-.024-.005-.008-.007-.016-.016-.024-.034-.03-.1-.056-.156-.093a.344.344 0 0 0-.07-.032c-.024-.009-.049-.024-.079-.03h-.015a3.788 3.788 0 0 0-.531-.055c-.175-.008-.37-.012-.594-.008zm-29.032 22.923c.816.003 1.655.073 2.492.218 2.11.367 117.418 38.552 119.352 39.524 2.074 1.042 4.356 2.82 5.211 4.062 1.45 2.107 1.662 2.974 1.648 6.68l-.008 3.375-7.289 24c-7.78 25.624-14.88 49.09-23.336 77.125-2.882 9.556-5.486 18.034-5.78 18.844-.727 1.994-2.598 4.803-4.063 6.093a7.498 7.498 0 0 1-2.82 1.563c-1.725.533-4.726.633-6.798.227-.61-.12-5.335-1.618-10.5-3.329-12.041-3.988-46.625-15.45-80.39-26.648-17.932-5.946-27.124-9.113-28.438-9.797-2.489-1.295-4.72-3.425-5.625-5.367-.643-1.38-.678-1.658-.664-4.961l.016-3.5 2.062-6.75a5277.854 5277.854 0 0 0 4.516-14.875c8.092-26.799 27.035-89.386 28.289-93.477 2.278-7.43 4.116-10.45 7.328-12.03 1.315-.648 3.002-.983 4.797-.977z"/></svg>