<svg height="270" width="270" xmlns="http://www.w3.org/2000/svg" xmlns:xlink="http://www.w3.org/1999/xlink"><pattern id="a" patternTransform="matrix(.79695576 -.06972459 -.06972459 -.79695576 107.5975 -129.46449)" xlink:href="#h"/><pattern id="b" patternTransform="matrix(.79695576 .06972459 .06972459 -.79695576 148.25696 -125.98576)" xlink:href="#h"/><pattern id="c" patternTransform="matrix(.69282032 -.4 -.4 -.69282032 -97.020527 -39.182683)" xlink:href="#g"/><pattern id="d" patternTransform="matrix(.69282032 .4 .4 -.69282032 125.67171 -146.68254)" xlink:href="#g"/><clipPath id="e"><path d="m0 216h216v-216h-216z"/></clipPath><clipPath id="f"><path d="m121.724 55.661c.343 1.114.39 2.832-3.038 2.054s-9.395-1.342-9.843-12.303l-.214-20.989h-2.258l-.213 20.989c-.448 10.961-9.842 12.303-9.842 12.303-3.428.778-3.383-.938-3.04-2.052-3.371 5.738-12.394 4.996-12.394 4.996-3.133-1.117-.224-3.131-.224-3.131 4.921-1.788 5.369-7.158 5.369-7.158v-15.18l.52-11.728c1.117-5.224 3.874-8.312 6.578-10.129l28.803.033c3.484 2.365 7.047 6.846 7.047 15.307v21.697s.447 5.37 5.369 7.158 2.906 2.014-.225 3.131-.382.031-1.017.032c-2.455 0-8.7-.469-11.378-5.03m-27.197-21.619v16.552c0 1.617-.285 2.977-.773 4.12 3.239-2.526 3.457-8.855 3.457-8.855v-20.663c-3.225 2.282-2.684 8.846-2.684 8.846m23.264 11.817s.217 6.329 3.456 8.855c-.487-1.143-.772-2.503-.772-4.12v-16.552s.539-6.101-2.684-8.612z"/></clipPath><pattern id="g" height="160.00008" patternTransform="matrix(.8 0 0 -.8 0 -128)" patternUnits="userSpaceOnUse" width="160.00008"><path d="m0 .000075h160v159.996325h-160z" fill="#876648"/><path d="m2.25-.00000125h.25v160.000075h-.25z" fill="#452f27" opacity=".5"/><path d="m7.25-.00000125h.25v160.000075h-.25z" fill="#452f27" opacity=".5"/><path d="m12.25-.00000125h.25v160.000075h-.25z" fill="#452f27" opacity=".5"/><path d="m17.25-.00000125h.25v160.000075h-.25z" fill="#452f27" opacity=".5"/><path d="m22.24999875-.00000125h.25v160.000075h-.25z" fill="#452f27" opacity=".5"/><path d="m27.24999875-.00000125h.25v160.000075h-.25z" fill="#452f27" opacity=".5"/><path d="m32.24999875-.00000125h.25v160.000075h-.25z" fill="#452f27" opacity=".5"/><path d="m37.24999875-.00000125h.25v160.000075h-.25z" fill="#452f27" opacity=".5"/><path d="m42.24999875-.00000125h.25v160.000075h-.25z" fill="#452f27" opacity=".5"/><path d="m47.24999875-.00000125h.25v160.000075h-.25z" fill="#452f27" opacity=".5"/><path d="m52.24999875-.00000125h.25v160.000075h-.25z" fill="#452f27" opacity=".5"/><path d="m57.24999875-.00000125h.25v160.000075h-.25z" fill="#452f27" opacity=".5"/><path d="m62.24999875-.00000125h.25v160.000075h-.25z" fill="#452f27" opacity=".5"/><path d="m67.24999875-.00000125h.25v160.000075h-.25z" fill="#452f27" opacity=".5"/><path d="m72.24999875-.00000125h.25v160.000075h-.25z" fill="#452f27" opacity=".5"/><path d="m77.24999875-.00000125h.25v160.000075h-.25z" fill="#452f27" opacity=".5"/><path d="m82.25000375-.00000125h.25v160.000075h-.25z" fill="#452f27" opacity=".5"/><path d="m87.25000375-.00000125h.25v160.000075h-.25z" fill="#452f27" opacity=".5"/><path d="m92.25000375-.00000125h.25v160.000075h-.25z" fill="#452f27" opacity=".5"/><path d="m97.25000375-.00000125h.25v160.000075h-.25z" fill="#452f27" opacity=".5"/><path d="m102.25000375-.00000125h.25v160.000075h-.25z" fill="#452f27" opacity=".5"/><path d="m107.25000375-.00000125h.25v160.000075h-.25z" fill="#452f27" opacity=".5"/><path d="m112.25000375-.00000125h.25v160.000075h-.25z" fill="#452f27" opacity=".5"/><path d="m117.25000375-.00000125h.25v160.000075h-.25z" fill="#452f27" opacity=".5"/><path d="m122.25000375-.00000125h.25v160.000075h-.25z" fill="#452f27" opacity=".5"/><path d="m127.25-.00000125h.25v160.000075h-.25z" fill="#452f27" opacity=".5"/><path d="m132.25-.00000125h.25v160.000075h-.25z" fill="#452f27" opacity=".5"/><path d="m137.25-.00000125h.25v160.000075h-.25z" fill="#452f27" opacity=".5"/><path d="m142.25-.00000125h.25v160.000075h-.25z" fill="#452f27" opacity=".5"/><path d="m147.25-.00000125h.25v160.000075h-.25z" fill="#452f27" opacity=".5"/><path d="m152.25-.00000125h.25v160.000075h-.25z" fill="#452f27" opacity=".5"/><path d="m157.25-.00000125h.25v160.000075h-.25z" fill="#452f27" opacity=".5"/><path d="m1.8-128.00006h.2v128.00006h-.2z" fill="#452f27" opacity=".5" transform="matrix(0 1.25 -1.25 0 0 .000075)"/><path d="m5.8-128.00006h.2v128.00006h-.2z" fill="#452f27" opacity=".5" transform="matrix(0 1.25 -1.25 0 0 .000075)"/><path d="m9.8-128.00006h.2v128.00006h-.2z" fill="#452f27" opacity=".5" transform="matrix(0 1.25 -1.25 0 0 .000075)"/><path d="m13.8-128.00006h.2v128.00006h-.2z" fill="#452f27" opacity=".5" transform="matrix(0 1.25 -1.25 0 0 .000075)"/><path d="m17.799999-128.00006h.2v128.00006h-.2z" fill="#452f27" opacity=".5" transform="matrix(0 1.25 -1.25 0 0 .000075)"/><path d="m21.799999-128.00006h.2v128.00006h-.2z" fill="#452f27" opacity=".5" transform="matrix(0 1.25 -1.25 0 0 .000075)"/><path d="m25.799999-128.00006h.2v128.00006h-.2z" fill="#452f27" opacity=".5" transform="matrix(0 1.25 -1.25 0 0 .000075)"/><path d="m29.799999-128.00006h.2v128.00006h-.2z" fill="#452f27" opacity=".5" transform="matrix(0 1.25 -1.25 0 0 .000075)"/><path d="m33.799999-128.00006h.2v128.00006h-.2z" fill="#452f27" opacity=".5" transform="matrix(0 1.25 -1.25 0 0 .000075)"/><path d="m37.799999-128.00006h.2v128.00006h-.2z" fill="#452f27" opacity=".5" transform="matrix(0 1.25 -1.25 0 0 .000075)"/><path d="m41.799999-128.00006h.2v128.00006h-.2z" fill="#452f27" opacity=".5" transform="matrix(0 1.25 -1.25 0 0 .000075)"/><path d="m45.799999-128.00006h.2v128.00006h-.2z" fill="#452f27" opacity=".5" transform="matrix(0 1.25 -1.25 0 0 .000075)"/><path d="m49.799999-128.00006h.2v128.00006h-.2z" fill="#452f27" opacity=".5" transform="matrix(0 1.25 -1.25 0 0 .000075)"/><path d="m53.799999-128.00006h.2v128.00006h-.2z" fill="#452f27" opacity=".5" transform="matrix(0 1.25 -1.25 0 0 .000075)"/><path d="m57.799999-128.00006h.2v128.00006h-.2z" fill="#452f27" opacity=".5" transform="matrix(0 1.25 -1.25 0 0 .000075)"/><path d="m61.799999-128.00006h.2v128.00006h-.2z" fill="#452f27" opacity=".5" transform="matrix(0 1.25 -1.25 0 0 .000075)"/><path d="m65.800003-128.00006h.2v128.00006h-.2z" fill="#452f27" opacity=".5" transform="matrix(0 1.25 -1.25 0 0 .000075)"/><path d="m69.800003-128.00006h.2v128.00006h-.2z" fill="#452f27" opacity=".5" transform="matrix(0 1.25 -1.25 0 0 .000075)"/><path d="m73.800003-128.00006h.2v128.00006h-.2z" fill="#452f27" opacity=".5" transform="matrix(0 1.25 -1.25 0 0 .000075)"/><path d="m77.800003-128.00006h.2v128.00006h-.2z" fill="#452f27" opacity=".5" transform="matrix(0 1.25 -1.25 0 0 .000075)"/><path d="m81.800003-128.00006h.2v128.00006h-.2z" fill="#452f27" opacity=".5" transform="matrix(0 1.25 -1.25 0 0 .000075)"/><path d="m85.800003-128.00006h.2v128.00006h-.2z" fill="#452f27" opacity=".5" transform="matrix(0 1.25 -1.25 0 0 .000075)"/><path d="m89.800003-128.00006h.2v128.00006h-.2z" fill="#452f27" opacity=".5" transform="matrix(0 1.25 -1.25 0 0 .000075)"/><path d="m93.800003-128.00006h.2v128.00006h-.2z" fill="#452f27" opacity=".5" transform="matrix(0 1.25 -1.25 0 0 .000075)"/><path d="m97.800003-128.00006h.2v128.00006h-.2z" fill="#452f27" opacity=".5" transform="matrix(0 1.25 -1.25 0 0 .000075)"/><path d="m101.8-128.00006h.2v128.00006h-.2z" fill="#452f27" opacity=".5" transform="matrix(0 1.25 -1.25 0 0 .000075)"/><path d="m105.8-128.00006h.2v128.00006h-.2z" fill="#452f27" opacity=".5" transform="matrix(0 1.25 -1.25 0 0 .000075)"/><path d="m109.8-128.00006h.2v128.00006h-.2z" fill="#452f27" opacity=".5" transform="matrix(0 1.25 -1.25 0 0 .000075)"/><path d="m113.8-128.00006h.2v128.00006h-.2z" fill="#452f27" opacity=".5" transform="matrix(0 1.25 -1.25 0 0 .000075)"/><path d="m117.8-128.00006h.2v128.00006h-.2z" fill="#452f27" opacity=".5" transform="matrix(0 1.25 -1.25 0 0 .000075)"/><path d="m121.8-128.00006h.2v128.00006h-.2z" fill="#452f27" opacity=".5" transform="matrix(0 1.25 -1.25 0 0 .000075)"/><path d="m125.8-128.00006h.2v128.00006h-.2z" fill="#452f27" opacity=".5" transform="matrix(0 1.25 -1.25 0 0 .000075)"/><path d="m4.75.000075h.25v160h-.25z" fill="#452f27"/><path d="m9.75.000075h.25v160h-.25z" fill="#452f27"/><path d="m14.75.000075h.25v160h-.25z" fill="#452f27"/><path d="m19.75.000075h.25v160h-.25z" fill="#452f27"/><path d="m24.74999875.000075h.25v160h-.25z" fill="#452f27"/><path d="m29.74999875.000075h.25v160h-.25z" fill="#452f27"/><path d="m34.74999875.000075h.25v160h-.25z" fill="#452f27"/><path d="m39.74999875.000075h.25v160h-.25z" fill="#452f27"/><path d="m44.74999875.000075h.25v160h-.25z" fill="#452f27"/><path d="m49.74999875.000075h.25v160h-.25z" fill="#452f27"/><path d="m54.74999875.000075h.25v160h-.25z" fill="#452f27"/><path d="m59.74999875.000075h.25v160h-.25z" fill="#452f27"/><path d="m64.74999875.000075h.25v160h-.25z" fill="#452f27"/><path d="m69.74999875.000075h.25v160h-.25z" fill="#452f27"/><path d="m74.74999875.000075h.25v160h-.25z" fill="#452f27"/><path d="m79.74999875.000075h.25v160h-.25z" fill="#452f27"/><path d="m84.75000375.000075h.25v160h-.25z" fill="#452f27"/><path d="m89.75000375.000075h.25v160h-.25z" fill="#452f27"/><path d="m94.75000375.000075h.25v160h-.25z" fill="#452f27"/><path d="m99.75000375.000075h.25v160h-.25z" fill="#452f27"/><path d="m104.75000375.000075h.25v160h-.25z" fill="#452f27"/><path d="m109.75000375.000075h.25v160h-.25z" fill="#452f27"/><path d="m114.75000375.000075h.25v160h-.25z" fill="#452f27"/><path d="m119.75000375.000075h.25v160h-.25z" fill="#452f27"/><path d="m124.75000375.000075h.25v160h-.25z" fill="#452f27"/><path d="m129.75.000075h.25v160h-.25z" fill="#452f27"/><path d="m134.75.000075h.25v160h-.25z" fill="#452f27"/><path d="m139.75.000075h.25v160h-.25z" fill="#452f27"/><path d="m144.75.000075h.25v160h-.25z" fill="#452f27"/><path d="m149.75.000075h.25v160h-.25z" fill="#452f27"/><path d="m154.75.000075h.25v160h-.25z" fill="#452f27"/><path d="m159.75.000075h.25v160h-.25z" fill="#452f27"/><path d="m3.8-128h.2v128h-.2z" fill="#452f27" transform="matrix(0 1.25 -1.25 0 0 .000075)"/><path d="m7.8-128h.2v128h-.2z" fill="#452f27" transform="matrix(0 1.25 -1.25 0 0 .000075)"/><path d="m11.8-128h.2v128h-.2z" fill="#452f27" transform="matrix(0 1.25 -1.25 0 0 .000075)"/><path d="m15.8-128h.2v128h-.2z" fill="#452f27" transform="matrix(0 1.25 -1.25 0 0 .000075)"/><path d="m19.799999-128h.2v128h-.2z" fill="#452f27" transform="matrix(0 1.25 -1.25 0 0 .000075)"/><path d="m23.799999-128h.2v128h-.2z" fill="#452f27" transform="matrix(0 1.25 -1.25 0 0 .000075)"/><path d="m27.799999-128h.2v128h-.2z" fill="#452f27" transform="matrix(0 1.25 -1.25 0 0 .000075)"/><path d="m31.799999-128h.2v128h-.2z" fill="#452f27" transform="matrix(0 1.25 -1.25 0 0 .000075)"/><path d="m35.799999-128h.2v128h-.2z" fill="#452f27" transform="matrix(0 1.25 -1.25 0 0 .000075)"/><path d="m39.799999-128h.2v128h-.2z" fill="#452f27" transform="matrix(0 1.25 -1.25 0 0 .000075)"/><path d="m43.799999-128h.2v128h-.2z" fill="#452f27" transform="matrix(0 1.25 -1.25 0 0 .000075)"/><path d="m47.799999-128h.2v128h-.2z" fill="#452f27" transform="matrix(0 1.25 -1.25 0 0 .000075)"/><path d="m51.799999-128h.2v128h-.2z" fill="#452f27" transform="matrix(0 1.25 -1.25 0 0 .000075)"/><path d="m55.799999-128h.2v128h-.2z" fill="#452f27" transform="matrix(0 1.25 -1.25 0 0 .000075)"/><path d="m59.799999-128h.2v128h-.2z" fill="#452f27" transform="matrix(0 1.25 -1.25 0 0 .000075)"/><path d="m63.799999-128h.2v128h-.2z" fill="#452f27" transform="matrix(0 1.25 -1.25 0 0 .000075)"/><path d="m67.800003-128h.2v128h-.2z" fill="#452f27" transform="matrix(0 1.25 -1.25 0 0 .000075)"/><path d="m71.800003-128h.2v128h-.2z" fill="#452f27" transform="matrix(0 1.25 -1.25 0 0 .000075)"/><path d="m75.800003-128h.2v128h-.2z" fill="#452f27" transform="matrix(0 1.25 -1.25 0 0 .000075)"/><path d="m79.800003-128h.2v128h-.2z" fill="#452f27" transform="matrix(0 1.25 -1.25 0 0 .000075)"/><path d="m83.800003-128h.2v128h-.2z" fill="#452f27" transform="matrix(0 1.25 -1.25 0 0 .000075)"/><path d="m87.800003-128h.2v128h-.2z" fill="#452f27" transform="matrix(0 1.25 -1.25 0 0 .000075)"/><path d="m91.800003-128h.2v128h-.2z" fill="#452f27" transform="matrix(0 1.25 -1.25 0 0 .000075)"/><path d="m95.800003-128h.2v128h-.2z" fill="#452f27" transform="matrix(0 1.25 -1.25 0 0 .000075)"/><path d="m99.800003-128h.2v128h-.2z" fill="#452f27" transform="matrix(0 1.25 -1.25 0 0 .000075)"/><path d="m103.8-128h.2v128h-.2z" fill="#452f27" transform="matrix(0 1.25 -1.25 0 0 .000075)"/><path d="m107.8-128h.2v128h-.2z" fill="#452f27" transform="matrix(0 1.25 -1.25 0 0 .000075)"/><path d="m111.8-128h.2v128h-.2z" fill="#452f27" transform="matrix(0 1.25 -1.25 0 0 .000075)"/><path d="m115.8-128h.2v128h-.2z" fill="#452f27" transform="matrix(0 1.25 -1.25 0 0 .000075)"/><path d="m119.8-128h.2v128h-.2z" fill="#452f27" transform="matrix(0 1.25 -1.25 0 0 .000075)"/><path d="m123.8-128h.2v128h-.2z" fill="#452f27" transform="matrix(0 1.25 -1.25 0 0 .000075)"/><path d="m127.8-128h.2v128h-.2z" fill="#452f27" transform="matrix(0 1.25 -1.25 0 0 .000075)"/></pattern><pattern id="h" height="80" patternTransform="matrix(.8 0 0 -.8 128 -128)" patternUnits="userSpaceOnUse" width="80"><g transform="matrix(.625 0 0 -.625 -80 -80)"><path d="m128 128.00006h128v127.99706h-128z" fill="#ffd5d5" transform="scale(1 -1)"/><g fill="#ff9090"><path d="m131.59999 128h.4v128h-.4z" fill="#ff9090" transform="scale(1 -1)"/><path d="m135.59999 128h.4v128h-.4z" fill="#ff9090" transform="scale(1 -1)"/><path d="m139.59999 128h.4v128h-.4z" fill="#ff9090" transform="scale(1 -1)"/><path d="m143.59999 128h.4v128h-.4z" fill="#ff9090" transform="scale(1 -1)"/><path d="m147.59999 128h.4v128h-.4z" fill="#ff9090" transform="scale(1 -1)"/><path d="m151.59999 128h.4v128h-.4z" fill="#ff9090" transform="scale(1 -1)"/><path d="m155.59999 128h.4v128h-.4z" fill="#ff9090" transform="scale(1 -1)"/><path d="m159.59999 128h.4v128h-.4z" fill="#ff9090" transform="scale(1 -1)"/><path d="m163.59999 128h.4v128h-.4z" fill="#ff9090" transform="scale(1 -1)"/><path d="m167.59999 128h.4v128h-.4z" fill="#ff9090" transform="scale(1 -1)"/><path d="m171.59999 128h.4v128h-.4z" fill="#ff9090" transform="scale(1 -1)"/><path d="m175.59999 128h.4v128h-.4z" fill="#ff9090" transform="scale(1 -1)"/><path d="m179.59999 128h.4v128h-.4z" fill="#ff9090" transform="scale(1 -1)"/><path d="m183.59999 128h.4v128h-.4z" fill="#ff9090" transform="scale(1 -1)"/><path d="m187.59999 128h.4v128h-.4z" fill="#ff9090" transform="scale(1 -1)"/><path d="m191.59999 128h.4v128h-.4z" fill="#ff9090" transform="scale(1 -1)"/><path d="m195.59999 128h.4v128h-.4z" fill="#ff9090" transform="scale(1 -1)"/><path d="m199.59999 128h.4v128h-.4z" fill="#ff9090" transform="scale(1 -1)"/><path d="m203.59999 128h.4v128h-.4z" fill="#ff9090" transform="scale(1 -1)"/><path d="m207.59999 128h.4v128h-.4z" fill="#ff9090" transform="scale(1 -1)"/><path d="m211.59999 128h.4v128h-.4z" fill="#ff9090" transform="scale(1 -1)"/><path d="m215.59999 128h.4v128h-.4z" fill="#ff9090" transform="scale(1 -1)"/><path d="m219.59999 128h.4v128h-.4z" fill="#ff9090" transform="scale(1 -1)"/><path d="m223.59999 128h.4v128h-.4z" fill="#ff9090" transform="scale(1 -1)"/><path d="m227.59999 128h.4v128h-.4z" fill="#ff9090" transform="scale(1 -1)"/><path d="m231.59999 128h.4v128h-.4z" fill="#ff9090" transform="scale(1 -1)"/><path d="m235.59999 128h.4v128h-.4z" fill="#ff9090" transform="scale(1 -1)"/><path d="m239.59999 128h.4v128h-.4z" fill="#ff9090" transform="scale(1 -1)"/><path d="m243.59999 128h.4v128h-.4z" fill="#ff9090" transform="scale(1 -1)"/><path d="m247.59999 128h.4v128h-.4z" fill="#ff9090" transform="scale(1 -1)"/><path d="m251.59999 128h.4v128h-.4z" fill="#ff9090" transform="scale(1 -1)"/><path d="m255.59999 128h.4v128h-.4z" fill="#ff9090" transform="scale(1 -1)"/></g></g></pattern><g transform="matrix(1.25 0 0 -1.25 0 270)"><g clip-path="url(#e)" fill="#0c2656" stroke="#000" stroke-width=".4" transform="translate(0 -13.222023)"><path d="m0 0c0-9.73-22.538-17.617-50.339-17.617-27.803 0-50.34 7.887-50.34 17.617s22.537 17.619 50.34 17.619c27.801 0 50.339-7.889 50.339-17.619" fill="#0c2656" stroke="#000" stroke-width=".4" transform="translate(158.542 54.9961)"/></g><g fill="#fff" transform="matrix(-1 0 0 1 216.44687 1.6)"><path d="m142.77252 37.707928 1.12989-3.319207-1.50281-.511573c-.55615-.189326-1.0351-.191711-1.43684-.0072-.40173.184549-.69323.543071-.87451 1.075567-.17991.528544-.16703.988483.0387 1.379818.2057.391323.58663.681649 1.14279.870978l1.50281.511573m.86082 1.388996-2.69797-.918416c-.99003-.337028-1.66096-.816301-2.01278-1.437823-.35709-.618931-.38862-1.360305-.0946-2.224122.29675-.871714.77539-1.443822 1.43594-1.716326.65661-.273851 1.47994-.242266 2.46997.09476l1.50282.511573 1.20844-3.549953 1.19515.406842-3.007 8.833468"/><path d="m133.34329 35.295983c.89812.183494 1.68092-.0053 2.34841-.566351.66342-.561909 1.11315-1.420509 1.3492-2.575802.23521-1.151219.15791-2.115376-.23192-2.892474-.39391-.777935-1.03992-1.258653-1.93804-1.442154-.8981-.183502-1.67682.0061-2.33616.568852-.6634.561902-1.11272 1.418461-1.34794 2.569679-.23604 1.155294-.15915 2.121493.23067 2.898598.38575.77626 1.02768 1.256143 1.92578 1.439652m-.20519 1.004252c-1.28184-.261915-2.2185-.901958-2.80999-1.920133-.59231-1.014104-.74083-2.243724-.44557-3.688864.29444-1.441062.9134-2.513872 1.85686-3.218432.94265-.700477 2.05489-.919762 3.33673-.657857 1.28594.262742 2.2271.901579 2.8235 1.916512.59232 1.014097.74084 2.243717.44557 3.688864-.29527 1.445138-.91422 2.517947-1.85686 3.218432-.94755.703718-2.0643.924211-3.35024.661478"/><path d="m127.25526 35.129604-1.25462-.140816.92227-8.217155-4.5154-.506796.11851-1.055871 5.77002.647612z"/><path d="m120.03104 34.422906-1.25967-.08451.62463-9.310321 1.25967.08451z"/><path d="m109.12729 33.267667.0347-1.330799c.41456.406762.86086.714325 1.33892.922689.47391.20824.98161.319418 1.52308.333536 1.06631.02778 1.89122-.277925 2.47473-.917101.58341-.635026.89117-1.568992.9233-2.801901.032-1.228753-.22669-2.17748-.77613-2.846182-.54954-.664541-1.35746-1.010703-2.42377-1.038486-.54148-.01411-1.05427.07048-1.53838.253765-.48827.183176-.94999.467079-1.38516.851709l.0343-1.318302c.44934-.288394.92379-.501108 1.42336-.638142.49541-.137142 1.01802-.19855 1.56783-.184224 1.41202.03679 2.51291.496873 3.30266 1.380244.78966.887535 1.165 2.078965 1.12604 3.574294-.0391 1.499485-.47596 2.669751-1.31065 3.510802-.83479.8452-1.9582 1.249408-3.37023 1.212625-.55813-.01455-1.081-.103202-1.5686-.265948-.49186-.158708-.95053-.391568-1.37602-.698579"/><path d="m107.01248 34.004774-5.8989.113965-.0205-1.062302 4.63664-.08958-.0534-2.761985-4.44292.08584-.0205-1.062302 4.44293-.08584-.0653-3.380619-4.74911.09175-.0205-1.062302 6.01137-.116138.18025 9.329509"/><path d="m92.780518 29.766436-.361516-3.399582-2.013647.214134c-.675353.07182-1.159861.26371-1.453524.575681-.297353.31655-.415411.762786-.354173 1.338708.06169.580059.270733.989415.627128 1.22807.352704.243229.866732.328937 1.542086.257123zm.405798 3.815984-.297409-2.796731-1.858272.197611c-.613205.0652-1.056851.227611-1.330941.487223-.277782.264182-.391561.632445-.341337 1.104789.04979.468185.238255.802212.565385 1.002081.322996.200293.791096.267839 1.404302.202638zm1.365132.898179-3.206918.341029c-.957099.10177-1.715756-.01868-2.275972-.361353-.560205-.34269-.879304-.880713-.957298-1.61407-.06036-.56764.0242-1.033359.253679-1.397159.229489-.363812.596709-.614466 1.101661-.751961-.631446-.06694-1.139518-.293653-1.524217-.680135-.388388-.381908-.616072-.88775-.683051-1.517529-.08811-.828663.125557-1.498765.641013-2.010305.51547-.511544 1.293186-.822611 2.33315-.933202l3.331218-.354247z"/><path d="m82.472476 35.304638c.898817-.180038 1.546681-.658254 1.943594-1.434651.39283-.775595.473454-1.741489.241871-2.897685-.230762-1.152121-.676761-2.01041-1.337998-2.57487-.665317-.563647-1.447384-.755456-2.346203-.575426-.898809.180027-1.542587.657425-1.931337 1.432196-.392822.775584-.473855 1.739435-.243099 2.891557.231589 1.156195.677997 2.016527 1.339226 2.580999.657154.565272 1.435135.757898 2.333946.57788m.201304 1.005038c-1.282849.256939-2.394645.03131-3.335392-.67688-.939916-.704126-1.554718-1.77932-1.844408-3.225587-.288855-1.442194-.135579-2.671231.459827-3.687114.59624-1.011803 1.535782-1.646178 2.818629-1.903127 1.286943-.257768 2.402415-.035 3.346421.668297.939924.704114 1.554726 1.779309 1.844408 3.225587.289681 1.446268.136406 2.675305-.459826 3.687114-.5995 1.016696-1.542718 1.653932-2.829659 1.91171"/><path d="m78.371967 37.032325-1.283944.436923-3.312607-2.536821-1.089487 4.034844-1.283944.436924 1.396402-5.208807-4.591852-3.560533 1.283944-.436924 3.763607 2.911505 1.224249-4.608861 1.289861-.438937-1.548914 5.788864z"/></g><path d="m-100.6786-6.9961002-.0004 6.99610037h100.67919927l.00020121-6.99610037" fill="#0c2656" stroke="#000" stroke-width=".28895" transform="matrix(1 0 0 1.9163453 158.542 54.9961)"/><g clip-path="url(#e)" fill="#103272"><path d="m0 0c0-9.73-22.538-17.617-50.339-17.617-27.803 0-50.34 7.887-50.34 17.617s22.537 17.619 50.34 17.619c27.801 0 50.339-7.889 50.339-17.619" fill="#103272" transform="translate(158.542 54.9961)"/></g><g clip-path="url(#f)" fill="#1748a1" transform="translate(-.000211)"><path d="m0 0c0-9.73-22.538-17.617-50.339-17.617-27.803 0-50.34 7.887-50.34 17.617s22.537 17.619 50.34 17.619c27.801 0 50.339-7.889 50.339-17.619" fill="#1748a1" transform="translate(158.542 54.9961)"/></g><g clip-path="url(#e)" fill="none" stroke="#000" stroke-width=".4"><path d="m0 0c0-9.73-22.538-17.617-50.339-17.617-27.803 0-50.34 7.887-50.34 17.617s22.537 17.619 50.34 17.619c27.801 0 50.339-7.889 50.339-17.619" fill="none" stroke="#000" stroke-width=".4" transform="translate(158.542 54.9961)"/></g><g transform="matrix(.5 0 0 -.5 64 -64)"><path d="m128 128.00006h128v127.99706h-128z" fill="#ffd5d5"/><g fill="#ff9090"><path d="m131.59999 128h.4v128h-.4z"/><path d="m135.59999 128h.4v128h-.4z"/><path d="m139.59999 128h.4v128h-.4z"/><path d="m143.59999 128h.4v128h-.4z"/><path d="m147.59999 128h.4v128h-.4z"/><path d="m151.59999 128h.4v128h-.4z"/><path d="m155.59999 128h.4v128h-.4z"/><path d="m159.59999 128h.4v128h-.4z"/><path d="m163.59999 128h.4v128h-.4z"/><path d="m167.59999 128h.4v128h-.4z"/><path d="m171.59999 128h.4v128h-.4z"/><path d="m175.59999 128h.4v128h-.4z"/><path d="m179.59999 128h.4v128h-.4z"/><path d="m183.59999 128h.4v128h-.4z"/><path d="m187.59999 128h.4v128h-.4z"/><path d="m191.59999 128h.4v128h-.4z"/><path d="m195.59999 128h.4v128h-.4z"/><path d="m199.59999 128h.4v128h-.4z"/><path d="m203.59999 128h.4v128h-.4z"/><path d="m207.59999 128h.4v128h-.4z"/><path d="m211.59999 128h.4v128h-.4z"/><path d="m215.59999 128h.4v128h-.4z"/><path d="m219.59999 128h.4v128h-.4z"/><path d="m223.59999 128h.4v128h-.4z"/><path d="m227.59999 128h.4v128h-.4z"/><path d="m231.59999 128h.4v128h-.4z"/><path d="m235.59999 128h.4v128h-.4z"/><path d="m239.59999 128h.4v128h-.4z"/><path d="m243.59999 128h.4v128h-.4z"/><path d="m247.59999 128h.4v128h-.4z"/><path d="m251.59999 128h.4v128h-.4z"/><path d="m255.59999 128h.4v128h-.4z"/></g></g><path d="m-36.399788-130.60001h3.2v34.400002h-3.2z" fill="#f0f" opacity=".5" transform="scale(1 -1)"/><path d="m-35.599791 125.2c.235703-.2357 1.364298-.2357 1.6 0 .235703.2357-.04355.29486 0 .4s.156448.0949.2.2c.04355.10514.08817.23526 0 .4s-.526786.18662-.6.4c-.07322.21338.172437.43014.2.6.02756.16986.06159.2513 0 .4s-.251304.33841-.4.4c-.148696.0616-.251304.0616-.4 0s-.338408-.2513-.4-.4c-.06159-.1487-.02756-.23014 0-.4s.273214-.38662.2-.6c-.07322-.21338-.511832-.23526-.6-.4-.08817-.16474-.04355-.29486 0-.4s.156448-.0949.2-.2c.04355-.10514-.235702-.1643 0-.4z" fill="#0f0"/><path d="m197.042 128.0273.133.658c-14.768 2.953-29.922 2.983-39.09 2.602 1.506 5.426 1.959 11.67 1.959 18.633 0 9.986-3.752 17.975-9.843 24.054 1.065 3.435 2.487 11.066-1.42 20.833 0 0-6.89 2.188-22.476-8.243-6.106 1.526-12.604 2.279-19.112 2.279-7.16 0-14.395-.912-21.143-2.763-16.086 10.975-23.186 8.727-23.186 8.727-4.636-11.59-1.77-20.171-.899-22.302-5.448-5.879-8.774-13.384-8.774-22.585 0-6.947.792-13.178 2.724-18.594-9.247.336-23.849.207-38.089-2.641l.132-.658c14.325 2.865 29.018 2.965 38.209 2.617.425-1.121.899-2.209 1.43-3.26-9.088-.293-24.604-1.451-39.475-5.646l.182-.645c14.988 4.227 30.641 5.356 39.641 5.631 5.43-10.121 16.135-16.658 35.18-18.711-2.704-1.816-5.46-4.904-6.579-10.129-3.683-1.761-15.343-6.062-22.339 5.971 0 0-3.916 7.16-11.412 7.721 0 0-7.271.111-.503-4.531 0 0 4.867-2.293 8.223-10.909 0 0 4.379-14.695 25.512-9.98v-15.18s-.447-5.369-5.369-7.158c0 0-2.908-2.014.224-3.131 0 0 13.645-1.119 13.645 10.065v16.552s-.54 6.565 2.683 8.846v-27.187s-.222-6.487-3.578-8.948c0 0-2.237-4.025 2.684-2.908 0 0 9.394 1.342 9.842 12.303l.214 27.513h2.257l.215-27.513c.447-10.961 9.842-12.303 9.842-12.303 4.919-1.117 2.683 2.908 2.683 2.908-3.355 2.461-3.578 8.948-3.578 8.948v26.953c3.223-2.51 2.684-8.612 2.684-8.612v-16.552c0-11.184 13.644-10.065 13.644-10.065 3.131 1.117.225 3.131.225 3.131-4.922 1.789-5.369 7.158-5.369 7.158v21.697c0 8.461-3.563 12.942-7.047 15.307 20.31 2.014 30.056 8.572 34.548 18.762 8.896-.244 24.906-1.328 40.22-5.649l.182.645c-15.227 4.295-31.131 5.406-40.117 5.668.426 1.029.797 2.1 1.127 3.201 9.105.389 24.328.385 39.154-2.58" fill="#292929"/><path d="m116.32578 188.42882s5.0926-7.08542 17.50465-13.14007c9.56439-4.66555 19.63993-4.99026 19.63993-4.99026l4.70625 23.64103s-6.73308 3.88122-12.69148 7.13906c-6.34043 3.46673-14.55248 5.68086-14.55248 5.68086z" fill="#800000" stroke="#000" stroke-width=".16"/><path d="m140.1777 150.3906c4.375-3.963 6.934-8.749 6.934-13.905 0-24.075-17.948-24.728-40.085-24.728-22.14 0-40.086 3.334-40.086 24.728 0 5.122 2.524 9.878 6.845 13.825 7.206 6.578 19.404 3.095 33.241 3.095 13.782 0 25.934 3.518 33.151-3.015" fill="#f6ceb5"/><path d="m93.6968 135.2578c0-6.631-3.734-12.006-8.34-12.006s-8.342 5.375-8.342 12.006 3.736 12.004 8.342 12.004 8.34-5.373 8.34-12.004" fill="#fff"/><path d="m91.021 135.1074c0-4.42-2.491-8.002-5.561-8.002-3.072 0-5.56 3.582-5.56 8.002 0 4.422 2.488 8.006 5.56 8.006 3.07 0 5.561-3.584 5.561-8.006" fill="#b1645a"/><path d="m138.4434 135.2578c0-6.631-3.734-12.006-8.342-12.006-4.605 0-8.34 5.375-8.34 12.006s3.735 12.004 8.34 12.004c4.608 0 8.342-5.373 8.342-12.004" fill="#fff"/><path d="m135.7656 135.1074c0-4.42-2.49-8.002-5.561-8.002-3.07 0-5.56 3.582-5.56 8.002 0 4.422 2.49 8.006 5.56 8.006 3.071 0 5.561-3.584 5.561-8.006" fill="#b1645a"/><path d="m109.2305 124.5957c0-1.152-.934-2.086-2.086-2.086-1.153 0-2.086.934-2.086 2.086s.933 2.086 2.086 2.086c1.152 0 2.086-.934 2.086-2.086" fill="#b1645a"/><path d="m102.2847 119.3223c-.123.35.061.732.409.855.349.124.733-.06.856-.408.536-1.515 1.973-2.533 3.577-2.533s3.041 1.018 3.578 2.533c.123.35.506.532.856.408.349-.123.531-.505.408-.855-.725-2.049-2.672-3.426-4.842-3.426s-4.115 1.377-4.842 3.426" fill="#b1645a"/><path d="m56.0405 109.7852c0-.557-.652-1.006-1.455-1.006s-1.454.449-1.454 1.006.651 1.008 1.454 1.008 1.455-.451 1.455-1.008" fill="#c5e6da"/><path d="m60.0679 107.5488c0-.557-.652-1.008-1.455-1.008s-1.454.451-1.454 1.008c0 .555.651 1.006 1.454 1.006s1.455-.451 1.455-1.006" fill="#c5e6da"/><path d="m62.5288 104.6387c0-.555-.651-1.006-1.455-1.006-.803 0-1.453.451-1.453 1.006 0 .557.65 1.008 1.453 1.008.804 0 1.455-.451 1.455-1.008" fill="#c5e6da"/><path d="m64.7651 101.2832c0-.557-.65-1.008-1.453-1.008-.804 0-1.455.451-1.455 1.008s.651 1.008 1.455 1.008c.803 0 1.453-.451 1.453-1.008" fill="#c5e6da"/><path d="m67.2271 98.1504c0-.555-.651-1.006-1.454-1.006s-1.455.451-1.455 1.006c0 .557.652 1.008 1.455 1.008s1.454-.451 1.454-1.008" fill="#c5e6da"/><path d="m70.5835 95.4668c0-.557-.651-1.008-1.455-1.008-.803 0-1.453.451-1.453 1.008 0 .555.65 1.006 1.453 1.006.804 0 1.455-.451 1.455-1.006" fill="#c5e6da"/><path d="m75.2817 93.6758c0-.555-.651-1.006-1.454-1.006-.804 0-1.455.451-1.455 1.006 0 .557.651 1.008 1.455 1.008.803 0 1.454-.451 1.454-1.008" fill="#c5e6da"/><path d="m79.9575 93.6758c0-.555-.651-1.006-1.454-1.006-.804 0-1.455.451-1.455 1.006 0 .557.651 1.008 1.455 1.008.803 0 1.454-.451 1.454-1.008" fill="#c5e6da"/><path d="m84.7036 94.4551c0-.557-.651-1.008-1.454-1.008-.804 0-1.455.451-1.455 1.008s.651 1.008 1.455 1.008c.803 0 1.454-.451 1.454-1.008" fill="#c5e6da"/><image height="16.798891" opacity=".7" transform="matrix(.32352009 .9462213 -.9462213 .32352009 0 0)" width="32.506947" x="77.947563" xlink:href="file:///Users/lgarron/Documents/Graphics/Doctocat/sonic-screwdriver.jpeg" y="60.586815"/><path d="m-35.599789-115h1.6v4.6h-1.6z" fill="#333" opacity=".05" transform="scale(1 -1)"/><path d="m-35.199791 94.8h.8c.4 0 .8.8.8 1s.130936.03326.2.2c.06906.166736.06906.633264 0 .8s-.11818.0025-.2.2c-.08182.197532 0 1 0 1 0 .4 0 .8.4 1.2-1.2-.2-2-.2-3.2 0 .4-.4.4-.8.4-1.2 0 0 .08182-.802468 0-1s-.130936-.03326-.2-.2c-.06906-.166736-.06906-.633264 0-.8s.2 0 .2-.2.4-1 .8-1z" fill="#d45500" opacity=".5"/><path d="m-33.199791 99.2.4 5.6c-1.2-.4-2.8-.4-4 0l.4-5.6c1.2-.2 2-.2 3.2 0z" fill="#e3dedb" opacity=".5"/><path d="m-32.799791 105.2c-.8 1.6-.8 2.8-.2 4.4h-3.6c.6-1.6.6-2.8-.2-4.4 1.2-.4 2.8-.4 4 0z" fill="#333" opacity=".5"/><path d="m-34.799791 94.6v34.4" fill="none" stroke="#000" stroke-width=".2"/><path d="m-33.399791 114.8h.2l.2 1.6v4l-.2.2v3.4h-.4v-9.2z" fill="#999" opacity=".5"/><path d="m-36.799791 104.8c1.2-.4 2.8-.4 4 0 .1163.17694.09914.30385 0 .4-1.2-.4-2.8-.4-4 0-.09914-.10854-.116299-.23759 0-.4z" fill="#d45500"/><path d="m-36.599791 109.6.4 1c1-.2 1.8-.2 2.8 0l.4-1c-1.2-.2-2.4-.2-3.6 0" fill="#d45500"/><path d="m-34.199791 110.4v7.4.8h.4l.4-.6v-6.8l-.2-.8z" fill="#d45500"/><path d="m-36.199791 114.8h-.2l-.2 1.6v4l.2.2v3.4h.4v-9.2z" fill="#999" opacity=".5"/><path d="m-35.399791 110.4v7.6.6h-.4l-.4-.6v-6.8l.2-.8z" fill="#d45500"/><path d="m-34.399791 121.8h.6l.8 1.6.8 2.8-.4 1.2-.6.2-.4-.4.4-.8-1.2-3.2z" fill="#666"/><path d="m-35.199791 121.8h-.6l-.8 1.6-.8 2.8.4 1.2.6.2.4-.4-.4-.8 1.2-3.2z" fill="#666"/><path d="m-35.399791 114.8h1.2v5.8 3.8l-.2.8h-.8l-.2-.8z" fill="#999" opacity=".5"/><path d="m-35.399792-120.6h1.2v4.2h-1.2z" fill="#808080" opacity=".5" transform="scale(1 -1)"/><g transform="matrix(.9889588 .14819072 -.14819072 .9889588 19.59911 -5.09453)"><path d="m53.930712 97.243379 1.250211.332752c.625106.166376.91746 1.582963.834272 1.895516-.08319.312553.190788.106439.229365.395741.03857.289292-.155475 1.018372-.332752 1.250212s-.185727-.0452-.395741.22936c-.210027.27467-.41594 1.56277-.41594 1.56277-.166376.6251-.332752 1.25021.125978 2.04169-1.792129-.81168-3.042341-1.14443-5.000846-1.33101.791482-.45873.957858-1.08383 1.124234-1.70894 0 0 .461644-1.22003.41594-1.56276-.0457-.34273-.190788-.10644-.229365-.395742-.03857-.289294.155475-1.018367.332752-1.250212.177276-.231844.312552.08319.39574-.229365.08319-.312552 1.041046-1.396388 1.666152-1.230012z" fill="#d45500"/><path d="m55.226105 104.95142-1.704157 8.91786c-1.708941-1.12424-4.209364-1.78974-6.251058-1.66376l2.954369-8.58511c1.958505.18658 3.208717.51933 5.000846 1.33101z" fill="#e3dedb" stroke="#000" stroke-width=".08"/><path d="m53.355572 114.49438c-1.915715 2.16768-2.414843 4.04299-2.142688 6.79298l-5.625952-1.49738c1.603162-2.25086 2.10229-4.12618 1.517582-6.95936 2.041694-.12597 4.542117.53953 6.251058 1.66376z" fill="#333"/><path d="m47.27089 112.20552c2.041694-.12598 4.542117.53952 6.251058 1.66376.10815.32489.02855.51608-.166376.6251-1.708941-1.12423-4.209364-1.78973-6.251058-1.66376-.109784-.21086-.08292-.41967.166376-.6251z" fill="#d45500"/><path d="m40.661035 144.58504c.466385-.27031 2.230115.19912 2.500423.6655.270308.46639-.190701.44268-.166376.62511.02433.18243.205035.21332.229365.39574.02433.18243.03994.40432-.166376.62511-.206313.22078-.900863.0725-1.104035.37554-.20318.30301.09056.74394.06299 1.02085-.02758.2769-.0083.41834-.166376.6251-.158099.20676-.533486.42433-.791481.45873-.257999.0344-.418351-.008-.625106-.16638-.206755-.15811-.424325-.53348-.45873-.79148-.0344-.25799.05266-.37112.166376-.6251.11372-.25398.587778-.49055.562117-.85447-.02567-.36393-.702022-.58054-.771283-.87467-.06927-.29413.05458-.47891.166376-.62511.111792-.1462.283947-.0832.395741-.22936.111792-.1462-.30001-.3548.166376-.62511z" fill="#0f0"/><path d="m76.480705-112.76761h2.587472v7.438982h-2.587472z" fill="#333" transform="matrix(.96635758 .25720231 .25720231 -.96635758 0 0)"/><path d="m48.424891 129.24736.312553.0832-.352951 2.58361-1.663759 6.25106-.395741.22936-1.414196 5.3134-.625106-.16638 3.826647-14.37743z" fill="#999"/><path d="m45.586932 119.78998.209166 1.72914c1.645952.10338 2.896164.43614 4.37574 1.16463l1.041046-1.39639c-1.79213-.81168-3.667447-1.31081-5.625952-1.49738" fill="#d45500"/><path d="m49.004815 122.03844-3.077955 11.56446-.332752 1.25021.625106.16638.874669-.77129 2.828391-10.62679.0202-1.3334z" fill="#d45500"/><path d="m44.049151 128.08273-.312553-.0832-.978057 2.41723-1.663759 6.25106.229365.39574-1.414196 5.3134.625106.16638 3.826646-14.37743z" fill="#999"/><path d="m47.129497 121.53932-3.161142 11.87701-.249564.93765-.625106-.16637-.375542-1.10404 2.828391-10.62679.645305-1.16703z" fill="#d45500"/><path d="m43.950548 139.77077.937658.24956.584708 2.83318.08558 4.70849-1.124234 1.70894-1.020846.063-.45873-.79148.957858-1.08384-.54431-5.49997z" fill="#666"/><path d="m42.700336 139.43802-.937659-.24957-1.915715 2.16767-2.414843 4.04299.125978 2.0417.854471.56211.791481-.45873-.292353-1.41658 3.206324-4.50172z" fill="#666"/><path d="m45.299362 128.41548 1.875317.49913-2.412451 9.06403-1.580571 5.9385-.645305 1.16703-1.250211-.33275.0202-1.3334z" fill="#999"/><path d="m76.804138-121.82376h1.940604v6.792113h-1.940604z" fill="#808080" transform="matrix(.96635758 .25720231 .25720231 -.96635758 0 0)"/></g><path d="m61.981814 131.64126c.791936-.68546 5.016767.56801 6.449829.38819s3.213482 1.70829 2.455065 2.8712-2.831424 2.37637-5.460603 2.22469-3.893207-1.46627-4.146012-2.62918-.09022-2.16944.701721-2.8549z" fill="#292929" transform="matrix(.8 0 0 -.8 0 216)"/><path d="m121.34672 160.78795-2.42694-9.101-2.42693-16.7863s8.68774 1.39787 17.99976 1.41572c8.32221.016 18.40416-1.41568 18.40425-1.41572l-5.25835 25.68506s-1.61796 4.24713-11.12345 4.24713c-9.5055 0-15.16834-4.04489-15.16834-4.04489z" fill="url(#h)" transform="matrix(.8 0 0 -.8 0 216)"/><path d="m93.473811 108.11771s5.394766-.57207 8.518059-1.02967c3.12329-.45762 5.82067-.22882 5.82067-.22882l-1.13574-5.03389s-10.789544 1.6017-12.067246 2.17374c-1.277712.57202-1.135743 4.11864-1.135743 4.11864z" fill="url(#a)" stroke="#000" stroke-linejoin="round" stroke-width=".4456"/><path d="m122.00814 108.16378s-5.39477-.57207-8.51806-1.02967c-3.12329-.45762-5.82067-.22882-5.82067-.22882l1.13574-5.0339s10.78955 1.60171 12.06725 2.17375c1.27771.57202 1.13574 4.11864 1.13574 4.11864z" fill="url(#b)" stroke="#000" stroke-linecap="round" stroke-linejoin="round" stroke-width=".4456"/><path d="m134.42797 136.7161s.77754 6.64089.63453 14.79237c-.143 8.15148-.32203 11.45869-.32203 11.45869" fill="none" stroke="#000" stroke-width=".5" transform="matrix(.8 0 0 -.8 0 216)"/><path d="m120.73999 160.38346s.40448 25.07833-.20225 26.29179c-.60673 1.21347 2.62918 3.03367 5.66285 3.03367 3.03366 0 6.03107-1.05471 6.87631-3.53928 1.10861-4.67923 1.61156-10.66546 1.61796-15.47171.28934 4.68706.29876 10.36409 1.01122 15.37059.13709.82253 1.8202 2.42693 5.86509 2.02245 4.04489-.40449 5.86509-1.41572 6.26958-2.42694s.10112-25.07833.10112-25.07833-9.75864 2.42694-13.44926 2.42694c-6.57295 0-13.75262-2.62918-13.75262-2.62918z" fill="#103372" stroke="#000" stroke-linejoin="round" stroke-width=".2" transform="matrix(.8 0 0 -.8 0 216)"/><path d="m119.52652 176.25966s4.70304 4.04543 7.48305 2.02245c2.49739-1.81732 2.37162-10.08273 2.3952-18.07635.0334-11.32815-4.08337-21.34465-8.05805-23.99052-3.35075-2.23053-4.85387-1.31459-4.85387-1.31459s-.70786.20225-1.51683.60674c-.80898.40449-3.43816 2.42693-4.0449 3.23591-.60673.80898-4.5505 7.2808-4.44937 24.57271.10112 17.29191.60673 18.40425.50561 18.70762-.10113.30337.30336 3.6404 2.42693 5.15723 2.12357 1.51684 5.86509 2.42694 6.77519 1.71908.9101-.70785 2.52806-3.94376 2.62918-5.86509.10112-1.92132-.40449-26.19066-.10112-27.20189.30337-1.01122.80898 20.4267.80898 20.4267z" fill="url(#g)" stroke="#000" stroke-linejoin="round" stroke-width=".2" transform="matrix(.8 0 0 -.8 0 216)"/><path d="m103.63822 86.202783s-8.237283 14.758477-8.351694 15.216097c-.114401.45763 1.144073 1.7161 1.144073 1.7161l-2.173724 1.14406-2.516954 3.43221s1.201286.80083 1.716105.74365c.514826-.0572 2.574151-.34322 3.31779-.62924.743644-.28603 3.284904-3.24088 5.033904-7.66525 1.78643-4.519066 2.21553-13.957627 1.8305-13.957627z" fill="url(#d)" stroke="#000" stroke-linejoin="round" stroke-width=".16"/><path d="m107.59958 104.5392-5.60593 1.68749s-.964-1.10603-.88665-2.60275c.0782-1.51413.68643-2.45974.68643-2.45974l6.00636 1.57309 4.9195-1.6875s1.00105.51483 1.08685 2.65995c-.0858 1.37289-1.02965 2.65996-1.02965 2.65996z" fill="#aa001f"/><path d="m133.81004 140.05789-7.28081-.88482s-.20224.85954-.17696 1.06178c.0253.20225.10112 1.16291.15168 1.31459.0506.15169 7.55889-.85954 7.55889-.85954z" fill="#800014" transform="matrix(.8 0 0 -.8 0 216)"/><path d="m107.85526 103.89302 5.82464.70785s.1618-.68763.14157-.84942c-.0202-.1618-.0809-.93033-.12134-1.05167-.0405-.12135-6.04711.68763-6.04711.68763z" fill="#800015"/><path d="m107.59958 104.5392-5.60593 1.68749s-.964-1.10603-.88665-2.60275c.0782-1.51413.68643-2.45974.68643-2.45974l6.00636 1.57309 4.9195-1.6875s1.00105.51483 1.08685 2.65995c-.0858 1.37289-1.02965 2.65996-1.02965 2.65996z" fill="none" stroke="#000" stroke-linejoin="round" stroke-width=".16"/><path d="m136.60885 140.36281c0 1.0465-.84836 1.89486-1.89486 1.89486s-1.89486-.84836-1.89486-1.89486c0-1.04651.84836-1.89486 1.89486-1.89486s1.89486.84835 1.89486 1.89486z" fill="#800014" stroke="#000" stroke-width=".2" transform="matrix(.43431386 0 0 -.8 49.142148 216)"/><path d="m119.4418 75.315863s-3.76243-3.236344-5.98644-1.61796c-1.99791 1.453856-1.89729 8.066184-1.91616 14.46108-.0267 9.06252 3.2667 17.075717 6.44644 19.192417 2.6806 1.78442 3.8831 1.05167 3.8831 1.05167s.56629-.1618 1.21346-.48539c.64719-.32359 2.75053-1.94155 3.23592-2.58873s3.6404-5.824639 3.5595-19.658167-.48539-14.7234-.40449-14.966096-.24269-2.91232-1.94154-4.125784c-1.69886-1.213472-4.69207-1.941552-5.42015-1.375264-.72808.56628-2.02245 3.155008-2.10335 4.692072-.0809 1.537056.32359 20.952528.0809 21.761512-.24269.808976-.64718-16.34136-.64718-16.34136z" fill="url(#g)" stroke="#000" stroke-linejoin="round" stroke-width=".16"/><path d="m111.4248 86.45137s8.23727 14.75848 8.35169 15.2161c.11439.45763-1.14407 1.7161-1.14407 1.7161l2.17373 1.14408 2.51694 3.43219s-1.20127.80082-1.71609.74363c-.51484-.0572-2.57416-.3432-3.3178-.62922-.74365-.28601-3.2849-3.24088-5.03391-7.66525-1.78643-4.519065-2.21553-13.957627-1.83049-13.95763z" fill="url(#c)" stroke="#000" stroke-linejoin="round" stroke-width=".16"/><path d="m130.96713 206.7755c2.38067-1.23031 3.37739-1.06132 3.56339-2.82042l-14.6879-19.22112c-2.31629 2.15475-1.52996 1.5806-3.52362 3.69845z" fill="#a00"/><path d="m116.32578 188.42882s5.0926-7.08542 17.50465-13.14007c9.56439-4.66555 19.63993-4.99026 19.63993-4.99026l4.70625 23.64103s-6.73308 3.88122-12.69148 7.13906c-6.34043 3.46673-14.55248 5.68086-14.55248 5.68086z" fill="none" stroke="#000" stroke-width=".16"/><path d="m141.61009 195.42434c8.04046-3.56113 15.39118-3.51776 16.56652-1.48482s-3.8887 6.91553-11.75421 10.27781c-7.86552 3.36228-13.99834 4.1419-15.48975 2.54211s2.63698-7.77397 10.67744-11.3351z" fill="#800000" stroke="#000" stroke-width=".16"/><path d="m147.20301 199.49748c-.41782-.81576-1.36721-.2054-2.60045.42623-1.23324.63165-2.28331 1.04542-1.86549 1.86119.41783.81577 1.75628.96502 2.98952.33337s1.89425-1.80501 1.47642-2.62079z" fill="#a00" stroke="#000" stroke-width=".118747"/><path d="m0 128.00006h128v127.99706h-128z" fill="#876648" transform="scale(1 -1)"/><g fill="#452f27"><path d="m1.8-.000061h.2v128.00006h-.2z" opacity=".5" transform="matrix(1 0 0 -1 0 -128.00006)"/><path d="m5.8-.000061h.2v128.00006h-.2z" opacity=".5" transform="matrix(1 0 0 -1 0 -128.00006)"/><path d="m9.8-.000061h.2v128.00006h-.2z" opacity=".5" transform="matrix(1 0 0 -1 0 -128.00006)"/><path d="m13.8-.000061h.2v128.00006h-.2z" opacity=".5" transform="matrix(1 0 0 -1 0 -128.00006)"/><path d="m17.799999-.000061h.2v128.00006h-.2z" opacity=".5" transform="matrix(1 0 0 -1 0 -128.00006)"/><path d="m21.799999-.000061h.2v128.00006h-.2z" opacity=".5" transform="matrix(1 0 0 -1 0 -128.00006)"/><path d="m25.799999-.000061h.2v128.00006h-.2z" opacity=".5" transform="matrix(1 0 0 -1 0 -128.00006)"/><path d="m29.799999-.000061h.2v128.00006h-.2z" opacity=".5" transform="matrix(1 0 0 -1 0 -128.00006)"/><path d="m33.799999-.000061h.2v128.00006h-.2z" opacity=".5" transform="matrix(1 0 0 -1 0 -128.00006)"/><path d="m37.799999-.000061h.2v128.00006h-.2z" opacity=".5" transform="matrix(1 0 0 -1 0 -128.00006)"/><path d="m41.799999-.000061h.2v128.00006h-.2z" opacity=".5" transform="matrix(1 0 0 -1 0 -128.00006)"/><path d="m45.799999-.000061h.2v128.00006h-.2z" opacity=".5" transform="matrix(1 0 0 -1 0 -128.00006)"/><path d="m49.799999-.000061h.2v128.00006h-.2z" opacity=".5" transform="matrix(1 0 0 -1 0 -128.00006)"/><path d="m53.799999-.000061h.2v128.00006h-.2z" opacity=".5" transform="matrix(1 0 0 -1 0 -128.00006)"/><path d="m57.799999-.000061h.2v128.00006h-.2z" opacity=".5" transform="matrix(1 0 0 -1 0 -128.00006)"/><path d="m61.799999-.000061h.2v128.00006h-.2z" opacity=".5" transform="matrix(1 0 0 -1 0 -128.00006)"/><path d="m65.800003-.000061h.2v128.00006h-.2z" opacity=".5" transform="matrix(1 0 0 -1 0 -128.00006)"/><path d="m69.800003-.000061h.2v128.00006h-.2z" opacity=".5" transform="matrix(1 0 0 -1 0 -128.00006)"/><path d="m73.800003-.000061h.2v128.00006h-.2z" opacity=".5" transform="matrix(1 0 0 -1 0 -128.00006)"/><path d="m77.800003-.000061h.2v128.00006h-.2z" opacity=".5" transform="matrix(1 0 0 -1 0 -128.00006)"/><path d="m81.800003-.000061h.2v128.00006h-.2z" opacity=".5" transform="matrix(1 0 0 -1 0 -128.00006)"/><path d="m85.800003-.000061h.2v128.00006h-.2z" opacity=".5" transform="matrix(1 0 0 -1 0 -128.00006)"/><path d="m89.800003-.000061h.2v128.00006h-.2z" opacity=".5" transform="matrix(1 0 0 -1 0 -128.00006)"/><path d="m93.800003-.000061h.2v128.00006h-.2z" opacity=".5" transform="matrix(1 0 0 -1 0 -128.00006)"/><path d="m97.800003-.000061h.2v128.00006h-.2z" opacity=".5" transform="matrix(1 0 0 -1 0 -128.00006)"/><path d="m101.8-.000061h.2v128.00006h-.2z" opacity=".5" transform="matrix(1 0 0 -1 0 -128.00006)"/><path d="m105.8-.000061h.2v128.00006h-.2z" opacity=".5" transform="matrix(1 0 0 -1 0 -128.00006)"/><path d="m109.8-.000061h.2v128.00006h-.2z" opacity=".5" transform="matrix(1 0 0 -1 0 -128.00006)"/><path d="m113.8-.000061h.2v128.00006h-.2z" opacity=".5" transform="matrix(1 0 0 -1 0 -128.00006)"/><path d="m117.8-.000061h.2v128.00006h-.2z" opacity=".5" transform="matrix(1 0 0 -1 0 -128.00006)"/><path d="m121.8-.000061h.2v128.00006h-.2z" opacity=".5" transform="matrix(1 0 0 -1 0 -128.00006)"/><path d="m125.8-.000061h.2v128.00006h-.2z" opacity=".5" transform="matrix(1 0 0 -1 0 -128.00006)"/><path d="m1.8-128.00006h.2v128.00006h-.2z" opacity=".5" transform="matrix(0 -1 -1 0 0 -128.00006)"/><path d="m5.8-128.00006h.2v128.00006h-.2z" opacity=".5" transform="matrix(0 -1 -1 0 0 -128.00006)"/><path d="m9.8-128.00006h.2v128.00006h-.2z" opacity=".5" transform="matrix(0 -1 -1 0 0 -128.00006)"/><path d="m13.8-128.00006h.2v128.00006h-.2z" opacity=".5" transform="matrix(0 -1 -1 0 0 -128.00006)"/><path d="m17.799999-128.00006h.2v128.00006h-.2z" opacity=".5" transform="matrix(0 -1 -1 0 0 -128.00006)"/><path d="m21.799999-128.00006h.2v128.00006h-.2z" opacity=".5" transform="matrix(0 -1 -1 0 0 -128.00006)"/><path d="m25.799999-128.00006h.2v128.00006h-.2z" opacity=".5" transform="matrix(0 -1 -1 0 0 -128.00006)"/><path d="m29.799999-128.00006h.2v128.00006h-.2z" opacity=".5" transform="matrix(0 -1 -1 0 0 -128.00006)"/><path d="m33.799999-128.00006h.2v128.00006h-.2z" opacity=".5" transform="matrix(0 -1 -1 0 0 -128.00006)"/><path d="m37.799999-128.00006h.2v128.00006h-.2z" opacity=".5" transform="matrix(0 -1 -1 0 0 -128.00006)"/><path d="m41.799999-128.00006h.2v128.00006h-.2z" opacity=".5" transform="matrix(0 -1 -1 0 0 -128.00006)"/><path d="m45.799999-128.00006h.2v128.00006h-.2z" opacity=".5" transform="matrix(0 -1 -1 0 0 -128.00006)"/><path d="m49.799999-128.00006h.2v128.00006h-.2z" opacity=".5" transform="matrix(0 -1 -1 0 0 -128.00006)"/><path d="m53.799999-128.00006h.2v128.00006h-.2z" opacity=".5" transform="matrix(0 -1 -1 0 0 -128.00006)"/><path d="m57.799999-128.00006h.2v128.00006h-.2z" opacity=".5" transform="matrix(0 -1 -1 0 0 -128.00006)"/><path d="m61.799999-128.00006h.2v128.00006h-.2z" opacity=".5" transform="matrix(0 -1 -1 0 0 -128.00006)"/><path d="m65.800003-128.00006h.2v128.00006h-.2z" opacity=".5" transform="matrix(0 -1 -1 0 0 -128.00006)"/><path d="m69.800003-128.00006h.2v128.00006h-.2z" opacity=".5" transform="matrix(0 -1 -1 0 0 -128.00006)"/><path d="m73.800003-128.00006h.2v128.00006h-.2z" opacity=".5" transform="matrix(0 -1 -1 0 0 -128.00006)"/><path d="m77.800003-128.00006h.2v128.00006h-.2z" opacity=".5" transform="matrix(0 -1 -1 0 0 -128.00006)"/><path d="m81.800003-128.00006h.2v128.00006h-.2z" opacity=".5" transform="matrix(0 -1 -1 0 0 -128.00006)"/><path d="m85.800003-128.00006h.2v128.00006h-.2z" opacity=".5" transform="matrix(0 -1 -1 0 0 -128.00006)"/><path d="m89.800003-128.00006h.2v128.00006h-.2z" opacity=".5" transform="matrix(0 -1 -1 0 0 -128.00006)"/><path d="m93.800003-128.00006h.2v128.00006h-.2z" opacity=".5" transform="matrix(0 -1 -1 0 0 -128.00006)"/><path d="m97.800003-128.00006h.2v128.00006h-.2z" opacity=".5" transform="matrix(0 -1 -1 0 0 -128.00006)"/><path d="m101.8-128.00006h.2v128.00006h-.2z" opacity=".5" transform="matrix(0 -1 -1 0 0 -128.00006)"/><path d="m105.8-128.00006h.2v128.00006h-.2z" opacity=".5" transform="matrix(0 -1 -1 0 0 -128.00006)"/><path d="m109.8-128.00006h.2v128.00006h-.2z" opacity=".5" transform="matrix(0 -1 -1 0 0 -128.00006)"/><path d="m113.8-128.00006h.2v128.00006h-.2z" opacity=".5" transform="matrix(0 -1 -1 0 0 -128.00006)"/><path d="m117.8-128.00006h.2v128.00006h-.2z" opacity=".5" transform="matrix(0 -1 -1 0 0 -128.00006)"/><path d="m121.8-128.00006h.2v128.00006h-.2z" opacity=".5" transform="matrix(0 -1 -1 0 0 -128.00006)"/><path d="m125.8-128.00006h.2v128.00006h-.2z" opacity=".5" transform="matrix(0 -1 -1 0 0 -128.00006)"/><path d="m3.8 0h.2v128h-.2z" transform="matrix(1 0 0 -1 0 -128.00006)"/><path d="m7.8 0h.2v128h-.2z" transform="matrix(1 0 0 -1 0 -128.00006)"/><path d="m11.8 0h.2v128h-.2z" transform="matrix(1 0 0 -1 0 -128.00006)"/><path d="m15.8 0h.2v128h-.2z" transform="matrix(1 0 0 -1 0 -128.00006)"/><path d="m19.799999 0h.2v128h-.2z" transform="matrix(1 0 0 -1 0 -128.00006)"/><path d="m23.799999 0h.2v128h-.2z" transform="matrix(1 0 0 -1 0 -128.00006)"/><path d="m27.799999 0h.2v128h-.2z" transform="matrix(1 0 0 -1 0 -128.00006)"/><path d="m31.799999 0h.2v128h-.2z" transform="matrix(1 0 0 -1 0 -128.00006)"/><path d="m35.799999 0h.2v128h-.2z" transform="matrix(1 0 0 -1 0 -128.00006)"/><path d="m39.799999 0h.2v128h-.2z" transform="matrix(1 0 0 -1 0 -128.00006)"/><path d="m43.799999 0h.2v128h-.2z" transform="matrix(1 0 0 -1 0 -128.00006)"/><path d="m47.799999 0h.2v128h-.2z" transform="matrix(1 0 0 -1 0 -128.00006)"/><path d="m51.799999 0h.2v128h-.2z" transform="matrix(1 0 0 -1 0 -128.00006)"/><path d="m55.799999 0h.2v128h-.2z" transform="matrix(1 0 0 -1 0 -128.00006)"/><path d="m59.799999 0h.2v128h-.2z" transform="matrix(1 0 0 -1 0 -128.00006)"/><path d="m63.799999 0h.2v128h-.2z" transform="matrix(1 0 0 -1 0 -128.00006)"/><path d="m67.800003 0h.2v128h-.2z" transform="matrix(1 0 0 -1 0 -128.00006)"/><path d="m71.800003 0h.2v128h-.2z" transform="matrix(1 0 0 -1 0 -128.00006)"/><path d="m75.800003 0h.2v128h-.2z" transform="matrix(1 0 0 -1 0 -128.00006)"/><path d="m79.800003 0h.2v128h-.2z" transform="matrix(1 0 0 -1 0 -128.00006)"/><path d="m83.800003 0h.2v128h-.2z" transform="matrix(1 0 0 -1 0 -128.00006)"/><path d="m87.800003 0h.2v128h-.2z" transform="matrix(1 0 0 -1 0 -128.00006)"/><path d="m91.800003 0h.2v128h-.2z" transform="matrix(1 0 0 -1 0 -128.00006)"/><path d="m95.800003 0h.2v128h-.2z" transform="matrix(1 0 0 -1 0 -128.00006)"/><path d="m99.800003 0h.2v128h-.2z" transform="matrix(1 0 0 -1 0 -128.00006)"/><path d="m103.8 0h.2v128h-.2z" transform="matrix(1 0 0 -1 0 -128.00006)"/><path d="m107.8 0h.2v128h-.2z" transform="matrix(1 0 0 -1 0 -128.00006)"/><path d="m111.8 0h.2v128h-.2z" transform="matrix(1 0 0 -1 0 -128.00006)"/><path d="m115.8 0h.2v128h-.2z" transform="matrix(1 0 0 -1 0 -128.00006)"/><path d="m119.8 0h.2v128h-.2z" transform="matrix(1 0 0 -1 0 -128.00006)"/><path d="m123.8 0h.2v128h-.2z" transform="matrix(1 0 0 -1 0 -128.00006)"/><path d="m127.8 0h.2v128h-.2z" transform="matrix(1 0 0 -1 0 -128.00006)"/><path d="m3.8-128h.2v128h-.2z" transform="matrix(0 -1 -1 0 0 -128.00006)"/><path d="m7.8-128h.2v128h-.2z" transform="matrix(0 -1 -1 0 0 -128.00006)"/><path d="m11.8-128h.2v128h-.2z" transform="matrix(0 -1 -1 0 0 -128.00006)"/><path d="m15.8-128h.2v128h-.2z" transform="matrix(0 -1 -1 0 0 -128.00006)"/><path d="m19.799999-128h.2v128h-.2z" transform="matrix(0 -1 -1 0 0 -128.00006)"/><path d="m23.799999-128h.2v128h-.2z" transform="matrix(0 -1 -1 0 0 -128.00006)"/><path d="m27.799999-128h.2v128h-.2z" transform="matrix(0 -1 -1 0 0 -128.00006)"/><path d="m31.799999-128h.2v128h-.2z" transform="matrix(0 -1 -1 0 0 -128.00006)"/><path d="m35.799999-128h.2v128h-.2z" transform="matrix(0 -1 -1 0 0 -128.00006)"/><path d="m39.799999-128h.2v128h-.2z" transform="matrix(0 -1 -1 0 0 -128.00006)"/><path d="m43.799999-128h.2v128h-.2z" transform="matrix(0 -1 -1 0 0 -128.00006)"/><path d="m47.799999-128h.2v128h-.2z" transform="matrix(0 -1 -1 0 0 -128.00006)"/><path d="m51.799999-128h.2v128h-.2z" transform="matrix(0 -1 -1 0 0 -128.00006)"/><path d="m55.799999-128h.2v128h-.2z" transform="matrix(0 -1 -1 0 0 -128.00006)"/><path d="m59.799999-128h.2v128h-.2z" transform="matrix(0 -1 -1 0 0 -128.00006)"/><path d="m63.799999-128h.2v128h-.2z" transform="matrix(0 -1 -1 0 0 -128.00006)"/><path d="m67.800003-128h.2v128h-.2z" transform="matrix(0 -1 -1 0 0 -128.00006)"/><path d="m71.800003-128h.2v128h-.2z" transform="matrix(0 -1 -1 0 0 -128.00006)"/><path d="m75.800003-128h.2v128h-.2z" transform="matrix(0 -1 -1 0 0 -128.00006)"/><path d="m79.800003-128h.2v128h-.2z" transform="matrix(0 -1 -1 0 0 -128.00006)"/><path d="m83.800003-128h.2v128h-.2z" transform="matrix(0 -1 -1 0 0 -128.00006)"/><path d="m87.800003-128h.2v128h-.2z" transform="matrix(0 -1 -1 0 0 -128.00006)"/><path d="m91.800003-128h.2v128h-.2z" transform="matrix(0 -1 -1 0 0 -128.00006)"/><path d="m95.800003-128h.2v128h-.2z" transform="matrix(0 -1 -1 0 0 -128.00006)"/><path d="m99.800003-128h.2v128h-.2z" transform="matrix(0 -1 -1 0 0 -128.00006)"/><path d="m103.8-128h.2v128h-.2z" transform="matrix(0 -1 -1 0 0 -128.00006)"/><path d="m107.8-128h.2v128h-.2z" transform="matrix(0 -1 -1 0 0 -128.00006)"/><path d="m111.8-128h.2v128h-.2z" transform="matrix(0 -1 -1 0 0 -128.00006)"/><path d="m115.8-128h.2v128h-.2z" transform="matrix(0 -1 -1 0 0 -128.00006)"/><path d="m119.8-128h.2v128h-.2z" transform="matrix(0 -1 -1 0 0 -128.00006)"/><path d="m123.8-128h.2v128h-.2z" transform="matrix(0 -1 -1 0 0 -128.00006)"/><path d="m127.8-128h.2v128h-.2z" transform="matrix(0 -1 -1 0 0 -128.00006)"/></g></g></svg>