<svg height="1024" width="1024" xmlns="http://www.w3.org/2000/svg"><path d="m536.64845 218.84375c-.90188.0285-3.30245.92487-11.77345 4.34375l-11 4.4375-.0703.875c-.0538.64595.1603 1.26512.8203 2.35937 1.09433 1.81438 3.9894 5.44218 6.4375 8.0625 1.64188 1.7574 8.68722 9.58148 40.9297 45.45313 28.0987 31.26148 32.4562 36.11137 36.25 40.375 5.57613 6.2668 7.49348 8.29942 9.85155 10.45312 2.394 2.18651 3.87095 3.10508 4.96875 3.07813.4457-.011 5.7626-2.01745 11.8125-4.46095 10.6805-4.31363 11.00347-4.46883 11.125-5.17968l.125-.72657.0781.1172.58593.875c.2441.36892.46662.7309.6797 1.09375l-.039-.5703c-.37003-.5963-.77683-1.20572-1.22658-1.83595-.23235-.3256-.47285-.65643-.72657-.9922-3.48483-4.61118-5.22938-6.5864-33.21093-37.71875-9.0161-10.03125-24.98204-27.80633-35.48437-39.49999-2.08168-2.31781-3.95765-4.4031-5.78125-6.42187-.37648-.41683-.68875-.7595-1.0547-1.16407-1.4488-1.60185-2.70967-2.9895-4-4.40625-.14588-.16028-.2622-.28731-.40625-.44531-1.00505-1.10272-2.02508-2.21713-2.9375-3.21094-.34083-.37128-.69505-.76844-1.02343-1.125-.82812-.89922-1.54562-1.66833-2.29687-2.47656-.50888-.54762-.97777-1.04695-1.45313-1.55469-.22664-.24213-.42922-.46204-.64842-.69531-.1038-.11044-.19472-.20401-.2969-.3125-.55925-.594-1.0979-1.15868-1.60935-1.69531-.53892-.5654-1.05072-1.10495-1.53908-1.60938-.0542-.056-.1105-.11664-.16407-.17187-.1024-.10566-.18875-.19387-.28905-.29688-.43163-.44338-.84195-.86217-1.23438-1.25781-.008-.008-.0153-.0151-.0235-.0234-.47617-.47983-.91437-.91532-1.33595-1.32813-.0976-.0956-.1786-.17344-.27345-.26562-.30317-.29469-.59165-.57566-.86717-.83594-.0177-.0169-.037-.0302-.0547-.0469-.0666-.0628-.1254-.11393-.1875-.17187l-2.164-.9922c-.0978-.003-.20227-.01-.32812-.0234-.0481-.005-.10395-.01-.16405-.008zm101.52342 123.59375c-.0947.16298-.18757.3248-.28907.4922l.28907-.0547zm79.92188 212.21875c-2.22348.0482-4.79295.89088-7.96875 2.5625-1.89645.99823-79.31885 48.53462-100.125 61.47655-8.63053 5.36847-10.8066 7.1727-12.04688 9.97657-.61689 1.39458-.53615 3.15748.21875 4.82813.33013.7306 9.34323 11.28908 25.70313 30.1172 13.8554 15.94578 25.9797 29.92062 26.9453 31.05467 1.96687 2.30988 2.97007 3.09555 5.09375 3.96875 1.7004.69916 3.48615.77248 5.7344.24218 2.2788-.53745 5.35943-1.98358 8.71875-4.08593 3.73575-2.33799 47.9439-29.56232 79.1328-48.73437 12.85625-7.90283 23.8223-14.66828 24.3672-15.03125 1.69045-1.12613 4.4007-3.83125 5.15625-5.14845 1.34055-2.33713.80438-5.21803-1.46095-7.85155-2.2253-2.587-36.8899-42.51215-48.35155-55.6875-4.61627-5.30643-5.28072-5.92038-7.4375-6.9297-1.13852-.53273-2.34563-.78673-3.6797-.7578zm-540.5 122.1172c-.51024-.00005-.89581.11305-1.09375.35155-.91419 1.10153-.16492 2.60193 11.5625 23 5.13841 8.9375 14.38986 25.025 20.55469 35.75 18.50706 32.1969 17.70861 30.89527 21.25781 34.58595 3.94837 4.10573 4.44007 4.386 30.75 17.28905 3.85 1.88815 17.9125 8.80155 31.25 15.3672 20.7748 10.2268 25.71035 12.59355 28.125 13.46092.8953.3216 1.75063.161 2.1172-.39842.67478-1.02982.0536-2.55137-3.53125-8.6797-2.46102-4.20687-33.99285-59.02337-41.19533-71.6172-2.43624-4.25985-4.95477-8.4786-5.59375-9.375-2.02305-2.8381-4.96507-5.6791-7.94532-7.66405-1.5239-1.01498-2.84508-1.84375-2.9375-1.84375-.0924 0-18.02413-8.79287-39.85155-19.53905-21.82743-10.74622-40.30625-19.79787-41.0625-20.1172-.89342-.37722-1.75023-.5703-2.40625-.5703zm451.51562 138.91405c-.71302.0616-5.39187 1.0539-10.86717 2.3125-5.84035 1.34248-12.5297 2.8698-14.8672 3.39062-4.21673.9395-4.26058.95533-5.3047 2.02343-1.8903 1.93387-3.57053 5.97772-6.21875 14.94532-.8962 3.03485-4.72395 15.75313-8.5078 28.26563-22.87158 75.63207-25.8411 85.42142-25.97655 85.64062-.29932.48425-1.86655 7.3537-1.9922 8.73438-.16662 1.83092.1815 2.8303 1.03125 2.95312.28498.0412 4.27435-.78192 8.8672-1.82812 4.5928-1.0462 11.01793-2.50798 14.28125-3.25 6.2667-1.425 6.64105-1.55372 7.79685-2.59375l.7344-.65625-.82033 1.5c-.13457.24595-.27042.47937-.40625.71095.21816-.1803.44816-.36712.67188-.5547.53205-1.01405 1.04735-2.15612 1.57812-3.46875 2.43323-6.01745 2.01868-4.67207 22.72658-73.1875 13.37175-44.24288 17.35985-57.28752 18.53905-62.8047l-.10938-.89843-.0859.45313-.32815-.78125c-.18095-.4296-.47428-.83642-.65625-.90625-.0113-.004-.0384-.004-.0859 0z" fill="#00f"/><path d="m229.1875 168.3782c-.88535.0125-4.006 1.2068-16.47656 6.2578-8.71131 3.52838-18.75605 7.59611-22.32032 9.03908s-6.68844 2.7558-6.94531 2.91407c-.25687.15828-.75915.88-1.11719 1.60935-.58924 1.20041-.63259 1.50858-.49218 3.25.29231 3.6256 1.07244 5.9811 9.17968 27.71875 2.76029 7.40108 6.79669 18.2422 8.97657 24.08595 2.17987 5.84375 6.79673 18.21875 10.25781 27.5 18.3144 49.11202 18.67962 50.02708 20.82812 52.72655 1.13867 1.4307 2.52923 2.264 3.77344 2.26565.70552 0 7.06311-2.46073 22.99999-8.91408 12.11375-4.90522 22.2677-9.0798 22.57032-9.27342.30263-.19368.80048-.85463 1.10158-1.47658.4845-1.00082.52945-1.3987.39842-3.42187-.1791-2.76578-.97482-5.70375-2.90625-10.7422-.80017-2.08735-7.32627-19.53905-14.50782-38.78905-7.18158-19.25-15.13719-40.56875-17.67968-47.375-2.54248-6.80625-5.96856-16.03125-7.60937-20.5-4.77026-12.99175-6.62855-16.15902-9.88281-16.85937-.0413-.009-.0894-.0165-.14844-.0155zm635.15625 171.66405c-4.59735-.0383-10.1701 1.7922-18.10938 5.91408-1.84857.95975-18.09687 9.30612-36.10937 18.54687s-34.775 17.84135-37.25 19.1172c-2.475 1.2758-8.38125 4.3178-13.125 6.7578-9.87918 5.08145-13.01058 6.77518-15.125 8.1875-2.86105 1.91105-3.47545 2.82733-2.27345 3.375.32912.14995 4.68848.79363 9.6875 1.4297 4.99902.63605 17.5797 2.25963 27.96095 3.60935 10.96585 1.42575 19.8702 2.46683 21.25 2.4844 1.6062.0205 3.05017-.13057 4.46095-.46875 2.77475-.66517 6.7113-2.22927 10.39842-4.125 1.65651-.8517 8.80938-4.53117 15.89063-8.1797 21.0924-10.86755 76.22005-39.16125 81.875-42.02345 9.67448-4.89657 11.52202-6.64782 7.79687-7.39842-2.03767-.41058-54.05314-7.03663-56.42187-7.1875-.29825-.019-.59975-.0365-.90625-.0391zm-274.2422 307.96095c-.70563 0 1.8995 6.22597 7.9922 19.09375.7721 1.6307 1.40625 2.99847 1.40625 3.03908 0 .0406 1.25302 2.75459 2.78125 6.03125 1.5282 3.27662 3.48317 7.47967 4.34375 9.33592.8606 1.85625 1.92772 4.1625 2.375 5.125.44727.9625 1.2084 2.59375 1.6875 3.625s2.7285 5.86875 5 10.75c4.72817 10.1604 4.79557 10.31357 8.9922 19.375 10.02285 21.64162 11.15605 23.59392 19.15625 33 1.5203 1.7875 4.57483 5.3187 6.78125 7.85158 2.2064 2.53285 5.92842 6.80785 8.27342 9.5 2.34498 2.69212 9.47896 10.91717 15.85938 18.27342 20.32052 23.4283 21.0573 24.2344 21.9375 24.2422.17187.002.3125-.11665.3125-.26562 0-.42858-1.3241-3.58451-2.875-6.85158-2.20547-4.646-31.9923-68.75548-36.16405-77.83592-5.84902-12.73123-7.76495-15.87718-13.96875-22.91408-4.327-4.90805-47.14733-54.2454-49.94533-57.54688-2.31245-2.72855-3.44692-3.82812-3.94532-3.82812zm-106.125 106.3047c-.6547-.003-1.25015.0641-1.85935.1875-2.9117.58955-28.69798 6.5275-28.90625 6.65625-.48235.29808-.11568.6234 1.6328 1.45313 1.99785.94804 3.93852 1.60595 28.90625 9.85937 9.14375 3.0226 34.79375 11.5181 57 18.875 41.73347 13.82625 42.62458 14.10995 45.75 14.7578 3.45978.71712 4.17768.75375 6.03125.27345 1.53977-.399 17.1808-3.9905 24.09375-5.53125 2.2-.49035 4.09407-.98475 4.21095-1.09375.44568-.4157-.89017-1.2289-3.9922-2.4375-3.94097-1.53543-13.46163-4.72582-70.21875-23.52345-47.73873-15.81078-51.58457-17.06135-56.6797-18.40625-2.80025-.73915-4.52838-1.06613-5.96875-1.0703z" fill="#fff"/><path d="m710.48437 92.429705c.005.183325.0105.3832.0155.5703.31483.293675.5.5439.5.726575 0 .171975.20633.53415.64845 1.125.44255.59055 1.11885 1.411225 2.0703 2.5 1.14111 1.30685 2.67688 2.9984 4.65625 5.14843 4.21468 4.57802 54.64248 60.01422 65.60938 72.12499 5.10515 5.63763 8.5741 9.4806 11.28125 12.33595.54132.57098 1.05187 1.095 1.53907 1.59375 4.87495 4.99105 7.38185 6.6893 14.49218 11.60938 11.11373 7.69025 19.69825 13.65005 25.30467 17.55467.8873.61795 2.05028 1.42238 2.76565 1.92188 1.74748 1.2201 2.96633 2.07552 3.59375 2.52345.71195.5083 1.45293 1.00795 2.0703 1.40625.30871.19912.58335.3726.8125.5078h.008c.1119.0659.21085.12575.2969.17187.0899.0482.16143.0855.21875.10938.12303.0514.26405.1429.41405.26562.15348.12558.31763.27898.4922.46875.003.002-.003.006 0 .008.0671.0731.14135.15293.21093.23438l.73437.26562c-.48159-.67017-.95534-1.22875-1.3828-1.60937-.39094-.34808-1.68245-1.81058-2.8672-3.25-2.7767-3.37375-5.69937-6.60793-44.6092-49.36718-36.22877-39.81295-38.01312-41.74852-41.51562-44.9453-3.63473-3.31747-5.4684-4.64282-26.25-19.03125-10.43315-7.22355-19.3625-13.501695-19.84375-13.94532-.38408-.35405-.80398-.690925-1.26563-1.023425zm-546.6875 230.468745c-.095.003-.19391.011-.29687.0235h-.0156c-.0985.0122-.19807.0342-.30468.0547-.0972.0188-.20008.0444-.30469.0703-.092.0228-.19089.0418-.28906.0703-.008.002-.0151.005-.0234.008-.15903.0468-.3233.10165-.5.16405-.17031.0602-.35071.12782-.53906.20315-.0703.0281-.14574.0634-.21875.0937-.0826.0342-.1639.0644-.25.10154-.0587.0253-.11151.0437-.17188.0703-.11072.0488-.21934.10295-.33593.15625-.31192.14265-.65857.3078-1.01563.4844-.0325.016-.0608.0305-.0937.0469-.1267.0631-.26576.13575-.39844.20315-.27422.13925-.55833.28693-.85937.4453-.28712.15105-.60102.31535-.91406.48438-.20478.11057-.37732.20177-.59375.32032-.13815.0756-.2554.13985-.39844.21875-.59866.33-1.20853.6724-1.89844 1.0625-2.16614 1.22463-8.18227 4.6537-16.03125 9.1406-19.62244 11.2179-50.717045 29.03563-61.898435 35.46875-2.236278 1.2866-3.678835 2.1195-4.070313 2.35158-4.138279 2.45335-7.037645 4.70997-9.125 7.24217-.0012.002.0012.006 0 .008-.230532.27983-.46066.5645-.671875.85158-.212392.28862-.41536.5778-.609375.875-.97007 1.48587-1.71513 3.08887-2.3125 4.8828-.04292.1289-.160835.55305-.34375 1.2422-.914382 3.44492-3.483997 13.51515-6.742187 26.42185-1.30424 5.16652-2.715743 10.78305-4.179688 16.6172-1.370942 5.4635-2.572655 10.256-3.625 14.46095-1.052252 4.20488-1.95429 7.81928-2.726562 10.9375-.0005.002.0005.006 0 .008-.385365 1.556-.739655 2.98725-1.0625 4.3047-.971325 3.9624-1.67083 6.89385-2.164063 9.08593-.301542 1.34097-.517617 2.37285-.679687 3.22657-.01445.0761-.0334.17715-.04687.25-.206798 1.11563-.302398 1.84415-.320313 2.36718-.0035.1044-.0022.2002 0 .28907.002.0915.0082.17195.01563.25.0218.22798.06037.4018.117188.5625.03786.1071.08541.20843.132812.3125.06834.14993.162815.2965.28125.42968.237908.26577.557485.48522.890625.60937.16657.0621.33643.10103.5.10938.091.005.389063-.0661.796875-.17968.407813-.11362.92538-.26835 1.453125-.44532.660588-.22155 1.949595-.82718 3.359375-1.5625.56424-.2947 1.147378-.60963 1.71875-.92968.28561-.15992.568373-.32407.84375-.4844 5.318508-3.09555 59.826198-34.27557 73.749998-42.1875 4.5375-2.5783 8.99364-5.15915 11.42969-6.61717.81202-.486 1.39598-.84508 1.6875-1.03908.98086-.65255 1.92832-1.36987 2.79687-2.10935.003-.002.005-.005.008-.008.58057-.4947 1.12651-.99645 1.63282-1.50782.25178-.25428.49669-.5105.72656-.7656.001-.002-.001-.006 0-.008.34502-.38313.66421-.7618.95312-1.14063.001-.002-.001-.006 0-.008.0966-.12682.19151-.24927.28125-.375.53877-.75502.94909-1.3071 1.36719-2.13282.001-.002-.001-.006 0-.008.0193-.0381.0432-.0778.0625-.11718.10001-.20385.20095-.42707.30469-.67187.31147-.73548.64955-1.6805 1.0625-3.02345.33036-1.07433.71002-2.40175 1.16406-4.0703.22702-.83428.47446-1.75638.74219-2.77345 1.07093-4.06818 2.49319-9.6881 4.47656-17.59375.99169-3.9528 2.12376-8.478 3.42188-13.66405 5.32608-21.27798 10.25968-40.9375 10.96875-43.6875.21361-.82845.40215-1.58758.5625-2.28125.40168-1.7387.63676-3.06685.70312-4.08595.0135-.20365.0154-.3909.0156-.5703.00008-.18245-.002-.34903-.0156-.5078-.0131-.15655-.036-.29455-.0625-.4297-.0399-.20263-.0942-.38053-.16406-.53905-.001-.002.001-.006 0-.008-.0232-.0529-.0437-.1001-.0703-.14843-.0799-.14497-.17915-.2676-.28907-.375-.0718-.0702-.14975-.13942-.23437-.19532h-.008c-.12991-.0851-.26978-.15523-.42969-.21093-.0686-.024-.13862-.045-.21094-.0625-.0233-.006-.0466-.0108-.0703-.0158-.0172-.003-.0373-.005-.0547-.008-.0818-.0152-.17004-.0242-.25781-.0312-.10644-.009-.21125-.012-.32812-.008zm472.69533 23.34375-1.07033.25c-1.19382.67818-3.86429 1.745-11.22657 4.67967-6.36203 2.53596-12.0203 4.87238-12.5703 5.19533-2.02548 1.1891-5.55393 4.2952-17.77345 15.6406-8.25905 7.66835-69.82978 64.38925-80.35155 74.02345-5.88128 5.38515-8.75 8.2366-8.75 8.6953 0 .1495.16957.27345.375.27345.2054 0 4.3108-1.575 9.125-3.5s8.83523-3.49825 8.9375-3.4922c.0688.004.065.0332 0 .086l3.35937-1.3203c.10288-.0731.21723-.15258.30468-.21875.67348-.50988 2.30467-1.7343 3.625-2.71875 4.1565-3.09927 3.5914-2.5875 48.89845-44.32033 14.85-13.67849 31.33125-28.8587 36.625-33.73437 5.29375-4.8757 11.81052-11.04573 14.48437-13.70313 2.67386-2.6574 4.94438-4.82812 5.04688-4.82812.11897 0 .49285-.4086.96095-1.0078zm-357.77345 212.40625c-.13645.002-.27238.009-.40625.0155-.0894.004-.1775.009-.26563.0158-.10989.008-.22052.0197-.32812.0312-.135.0142-.2675.0277-.39845.0468-.0417.006-.0837.009-.125.0158-.13933.022-.27268.0503-.40625.0781-.23145.0483-.45918.10352-.6875.16407-.45655.12105-.91358.26823-1.36718.44533-2.72105 1.06258-5.50285 3.21687-9.76562 7.46875-.35543.3545-.7248.7251-1.10155 1.10935-3.79297 3.86847-23.58233 24.09347-54.62501 55.83595-20.35541 20.81427-24.16913 24.71737-25.50781 26.3672-.001.003.001.006 0 .008-.30629.37787-.48682.64197-.70313.96095-.25479.37563-.48693.7337-.69531 1.08592-.001.003.001.006 0 .008-.10289.17403-.2053.34716-.29688.5156-.1841.33835-.34575.66805-.48437.9844-.001.003.001.006 0 .008-.13785.31623-.25898.62673-.35156.92188-.0933.2968-.16331.58315-.21094.85937-.0238.13833-.0423.2729-.0547.40625-.0248.26628-.0284.5186-.008.76563.00021.003-.00021.005 0 .008.0208.24422.0677.48467.13281.71092.0659.22883.15476.44513.26563.65625.18726.3566.38068.6722.64062.98438.001.002-.001.006 0 .008.0857.10267.18764.20197.28907.3047.10182.10275.21437.21507.33593.3203.24602.21345.53174.43305.88282.6719.35107.23877.76934.497 1.25781.78125.24429.14192.50436.28825.78906.4453 1.13881.62825 2.61558 1.38862 4.5625 2.35937.97346.48538 2.0651 1.02385 3.28906 1.625 24.28959 11.93 38.55226 18.93743 54.25 26.66408 2.3375 1.15052 4.59814 2.25697 6.67972 3.27342 4.16329 2.03283 7.61815 3.70648 9.5781 4.63283.97989.4632 1.58465.7372 1.71875.78125.31077.10202.61957.18957.9297.2656.15512.038.31365.0778.46875.1094.31.063.61945.1114.9297.14842.77612.0927 1.55207.101 2.33592.0312.4699-.0419.93878-.11055 1.41408-.21092.47525-.10043.95492-.2318 1.4375-.39065.29375-.0967.59872-.2118.91405-.35155.15765-.0699.32185-.1463.48437-.22655.16245-.0802.32528-.16745.49218-.25783.33405-.1808.67352-.3817 1.02345-.60157.17495-.1099.35285-.2244.53125-.34375.5352-.35793 1.08855-.75728 1.64845-1.1953.93305-.73005 1.8931-1.56463 2.85935-2.4922.19325-.18545.38457-.37765.57815-.5703 1.53865-1.53173 10.538-10.7125 20-20.40625 9.46195-9.69375 22.44252-22.96875 28.84375-29.5 7.48667-7.63885 13.36735-13.6431 17.99217-18.375 2.31215-2.36568 4.30335-4.41275 6.03125-6.1875 3.45865-3.55248 5.8349-6.00718 7.47658-7.73438.38495-.405.72235-.76445 1.03125-1.09375.021-.0225.0496-.0482.0703-.0703.32427-.34608.60255-.65023.85155-.92185.25107-.27388.46277-.50905.64845-.71875.0853-.0963.1455-.16545.21875-.25.24212-.27973.44245-.5177.57812-.69533.0887-.11605.16178-.21795.21875-.30467.4962-.7555.88705-1.44963 1.17968-2.10158.0213-.0473.0345-.0938.0547-.14062.25622-.59445.43667-1.15368.52345-1.6797.0704-.42678.0864-.83445.0469-1.22655-.0263-.2614-.0816-.51625-.15625-.76563-.0736-.2462-.16878-.4894-.28905-.72657-.002-.003-.006-.005-.008-.008-.0612-.12005-.12223-.23333-.19533-.35155-.077-.1246-.13872-.24005-.19532-.34375-.002-.003-.006-.005-.008-.008-.0273-.0499-.0498-.10038-.0781-.14843-.002-.003-.006-.005-.008-.008-.0902-.15189-.19565-.29525-.375-.46875-.1214-.11689-.27845-.24907-.48435-.39842-.10297-.0747-.22092-.156-.35157-.2422-.26138-.17238-.57788-.36963-.97658-.60155-.19747-.11497-.41855-.24212-.65625-.375h-.008c-.9608-.53707-2.26325-1.22857-4.0547-2.14845-1.49322-.76665-3.42235-1.73473-5.67185-2.85938-.449-.22447-.81387-.41549-1.2969-.65625h-.008c-8.71077-4.34177-23.0559-11.3798-46.84375-23.07032-11.89375-5.84513-22.03207-10.7755-22.53125-10.9531-.16987-.0605-.34642-.11885-.52345-.1719-.0818-.0245-.16685-.0473-.25-.0703-.0985-.0271-.1968-.0533-.29685-.0781-.0334-.008-.0681-.0153-.1016-.0235-.15233-.0365-.30588-.0703-.4609-.10157-.18883-.0382-.37883-.0712-.57035-.10158-.0699-.011-.14085-.0212-.2109-.0312-.3904-.0553-.78168-.0954-1.1719-.11717-.11575-.006-.2287-.012-.34375-.0155-.19085-.006-.38272-.0105-.5703-.008z" fill="#fdfd00"/><path d="m800.85155 211.78125c-1.11513.0269-2.38262.35768-3.53125.9375-2.79168 1.40923-5.666 3.8694-13.3203 11.40625-8.66768 8.53468-56.48295 55.2449-71 69.35937-14.2876 13.8914-15.45383 15.14758-16.78125 18.14843-.73468 1.66087-.55775 3.3967.4375 4.3672.3971.3872 5.3875 3.93677 11.09375 7.89062s13.6375 9.45758 17.625 12.22658c10.47525 7.27413 12.70435 8.7949 13.125 8.9531.8572.32243 3.0514.15345 4.35937-.33592 1.59536-.59688 4.48628-2.59703 7.03908-4.875 3.45263-3.08095 86.7259-84.44505 90.28905-88.21875 2.63005-2.78545 4.66583-5.67195 5.07812-7.20312.29415-1.09245.064-2.3884-.57812-3.21093-.17008-.21785-7.34375-5.2667-15.9375-11.22657-8.59375-5.95988-17.875-12.40815-20.625-14.32813-2.75-1.91997-5.39445-3.60067-5.875-3.73437-.4149-.11543-.89155-.1685-1.39845-.15625zm-613.64843 114.28905c-1.4147-.0152-2.73966.98435-3.66406 2.8047-.2793.55-5.19316 19.675-10.91406 42.5s-10.6296 42.33857-10.91406 43.3672c-.68351 2.47152-.56121 6.65488.25781 8.78125 1.24383 3.22922 3.69622 6.4447 7.28125 9.54685 1.30614 1.13023 9.79989 8.6407 18.875 16.6875s22.51875 19.96907 29.875 26.4922c7.35625 6.5231 17.86462 15.85585 23.35156 20.7422 12.53686 11.1646 12.13601 10.83108 14.52344 12.03905 2.26965 1.14838 3.48667 1.2085 4.84375.2422.4238-.3018 1.09645-1.22937 1.51562-2.09375.89143-1.83827.21686.76 12.5-48.34375 9.56283-38.2288 9.76855-39.0928 9.76563-41.5-.005-3.81492-.83943-6.2298-3.25-9.41407-2.18338-2.88418-.45522-1.31403-37.10938-33.80468-4.80553-4.2597-11.27428-9.99137-14.375-12.7422-33.01739-29.2916-35.61885-31.5878-37.11718-32.72655-1.44797-1.1005-3.69157-2.2679-4.83594-2.51565-.20479-.0443-.40728-.0603-.60938-.0625zm549.84375 92.82815c-1.03222.002-1.22005.1256-1.82032.79685-.63683.7122-.72655 1.00495-.72655 2.32815 0 2.75805.78628 5.2567 5.4922 17.4453 15.7453 40.7814 35.80685 92.6332 38.10155 98.47655 4.01053 10.21255 6.62657 14.06978 10.58595 15.625.72805.286 5.67152 1.0313 13.66405 2.0625 6.89027.88902 19.39375 2.51635 27.78125 3.6094 8.3875 1.09298 15.85658 1.9473 16.60155 1.90625 1.15787-.0638 1.4573-.18983 2.0625-.8672.6192-.69298.71095-.9845.71095-2.3672 0-1.62575-.57242-4.2437-1.45313-6.66405-.27517-.75625-4.8768-12.68125-10.23437-26.5-5.35758-13.81875-11.5514-29.79375-13.7578-35.5-2.20642-5.70625-6.72928-17.40625-10.0547-26-3.32545-8.59375-6.93057-17.94777-8.0078-20.78905-3.1003-8.17735-5.14053-11.98215-7.60158-14.14845-2.31962-2.0418-2.51277-2.08785-15.89062-3.78125-6.66875-.84415-19.15625-2.44415-27.75-3.5625-8.59375-1.11833-16.34057-2.04693-17.21095-2.0625-.18585-.003-.34473-.008-.49218-.008z" fill="#00e600"/><path d="m694.57812 101.07813c-.74332.0258-1.49294.15298-2.24217.38283-2.77432.85105-5.2064 2.6294-9.9297 7.25-7.0618 6.90824-35.63155 34.80764-58.65625 57.28125-27.7139 27.05054-27.1723 26.50339-28.71875 28.8828-2.8765 4.42585-2.96578 7.88252-.32813 12.32032.98448 1.65633 3.45128 4.39495 60.70313 67.31247 19.64873 21.59315 19.83945 21.78788 23.16405 23.02345 2.0052.74523 4.379.53435 6.71875-.58595 1.01-.4836 2.51095-1.38418 3.33595-2.0078.825-.62365 7.918-7.4217 15.76562-15.10155 7.84766-7.67987 27.99505-27.36562 44.76563-43.74999 18.12802-17.7106 30.90178-30.3819 31.5078-31.25 2.21647-3.17508 3.0546-5.88893 2.6094-8.45313-.35375-2.0375-1.94965-5.17665-3.57033-7.03125-.73162-.83725-11.45312-12.64455-23.82812-26.2422s-29.40318-32.31767-37.84375-41.60155c-8.4406-9.2839-15.92185-17.3239-16.625-17.85937-2.37085-1.80555-4.59812-2.64783-6.82813-2.57033zm-323.91407 15.02345c-.7311.0105-1.49925.0903-2.30468.23438-1.10744.19807-4.48244 1.25597-7.5 2.35937-3.01757 1.10337-14.25937 5.23578-24.98437 9.17968-10.725 3.94389-24.95625 9.17562-31.625 11.62499-17.1545 6.3007-40.8873 15.02683-44.0703 16.20313-7.9598 2.9416-10.66875 6.98417-9.35157 13.96095.2502 1.3252 2.18412 6.84462 5.51562 15.75 2.82087 7.5404 7.38862 19.78592 10.15625 27.21092 4.9492 13.27775 6.8448 18.34863 17.6328 47.25 2.97685 7.975 6.7056 17.97652 8.28125 22.22655 1.69632 4.57545 3.2858 8.4375 3.89845 9.46875 2.04318 3.43915 4.3689 5.3522 7.1953 5.90625 1.56777.30732 1.95887.3046 4.16407 0 1.56045-.21563 8.11583-2.53293 32.45313-11.47655 16.775-6.16458 39.89375-14.6562 51.375-18.875 11.48125-4.21878 22.36737-8.2217 24.1875-8.89063 7.93622-2.91667 10.84843-6.59902 10.07812-12.74216-.1399-1.11578-.38447-2.49598-.53907-3.07033-.28808-1.07028-4.5096-12.4521-29.58593-79.67187-11.34539-30.41258-14.65945-39.03945-15.58592-40.58593-2.51717-4.2016-5.44257-6.11975-9.39065-6.0625zm562.03907 247.13279c-.99977.0328-2.04525.21138-3.11717.53908-.9426.28812-5.8172 2.64225-10.83595 5.22655-5.01875 2.58432-15.36875 7.89592-23 11.8125-7.63125 3.91655-24.1125 12.37905-36.625 18.8047s-25.28125 12.98222-28.375 14.5703c-3.09375 1.58807-6.13373 3.26078-6.7578 3.71095-1.85912 1.34095-3.71685 3.48725-4.57033 5.28905-.74387 1.57035-.79327 1.87282-.78907 4.3125.003 1.44375.15673 3.24375.34375 4 .3072 1.24195 4.67017 12.63097 22.27345 58.125 3.139 8.1125 8.98937 23.24375 13 33.625 4.0106 10.38125 7.73267 20.01082 8.27345 21.39845 2.45763 6.30645 5.52257 9.2818 9.61717 9.33592.69598.009 2.15848-.21652 3.25-.5 2.03548-.52859 1.07808-.0419 82.85938-42.04687 23.00882-11.81793 24.44287-12.64842 26.4922-15.3047 2.47495-3.20803 2.846-7.35093 1.125-12.53125-.44945-1.35285-34.57215-89.77983-42.4844-110.09375-1.48045-3.8009-3.43908-7.12668-4.9453-8.39843-1.55125-1.3098-3.53485-1.94725-5.73438-1.875zm-786.01562 77.32813c-2.84572.006-5.85648 1.15595-10.0625 3.57812-5.33279 3.07108-36.25619 20.76781-63.5 36.33593-20.65404 11.8025-23.408305 13.4468-24.648438 14.71875-2.512012 2.57655-2.784222 4.57327-1.03125 7.5469 1.57198 2.6666-4.072175-2.4554 58.039068 52.60155 3.2404 2.8724 9.20111 8.1599 13.25 11.75 17.38193 15.41242 17.51075 15.51993 20.39062 16.96095 1.60659.80393 2.88615 1.21663 4.47656 1.4375 1.26659.17588 1.50524.16652 3.64063-.1172 2.95509-.39265 4.62101-1.30012 44.8125-24.28125 22.03754-12.60087 42.30485-24.20107 45.03125-25.78125 5.23418-3.03365 7.15246-4.57332 8.03125-6.4375 1.37221-2.91088-.33021-6.33393-5.28125-10.625-1.34851-1.16875-11.50644-10.1594-22.57813-19.97655-11.07168-9.8172-26.93478-23.87968-35.25-31.25s-17.25897-15.315-19.875-17.65625c-5.91076-5.28987-6.71231-5.89893-9.50781-7.25-2.11967-1.02447-3.99043-1.55885-5.9375-1.5547zm236.78125 178.45312c-1.67197.0145-3.5666.8254-5.6875 2.42968-.74015.5599-4.78655 4.5454-8.9922 8.85157-10.7323 10.9888-37.43135 38.26393-58.67968 59.95313-9.90082 10.10625-18.51577 19.10625-19.14842 20-3.17685 4.48772-3.91102 8.19647-2.46875 12.47655.30618.9087 3.3863 6.53162 7.11717 13 6.46835 11.21447 9.83163 17.07298 30.69533 53.39845 11.03365 19.21055 11.66303 20.16465 14.0625 21.39062 1.2699.64886 3.29858.54116 4.89842-.26562 3.29038-1.65925 1.40408.22115 67.49218-67.375 20.2842-20.74703 21.15957-21.66588 22.46875-23.59375 2.86505-4.21898 3.46717-7.35037 2.26565-11.8125-.46153-1.71398 1.3673 1.53768-24.94533-44.21875-8.64442-15.03228-11.0995-19.31275-18.60937-32.375-4.9853-8.67117-6.22738-10.36585-8.32813-11.3828-.66567-.32225-1.38065-.48317-2.14062-.47658zm406.40625 24.38283c-3.00532.0326-5.29105.9933-11.41405 4.78125-10.80097 6.68195-82.28477 50.68083-90.58595 55.7578-11.2824 6.9003-12.40212 7.66235-14.5703 9.89845-3.04057 3.13575-4.01183 6.08907-3.22658 9.78905.27138 1.27872 2.3725 6.05893 7.80468 17.75 4.0889 8.8 8.91745 19.20625 10.7344 23.125 20.62765 44.48902 22.5045 48.45602 23.48435 49.7422 1.2683 1.66475 2.71137 2.71595 4.32032 3.14842 1.55003.41663 1.63923.41466 3.63283-.008 3.6674-.77723-1.11502 2.08692 82.0703-49.1328 26.76738-16.48148 29.40273-18.1462 31.25-19.71875 1.87615-1.59716 3.2188-3.22633 4.14062-5.03125.76145-1.49095.95438-4.75931.40625-6.8828-.21159-.8198-8.22215-18.3672-17.80467-38.9922-9.58255-20.625-18.46838-39.75166-19.7422-42.5078-3.38378-7.32148-3.79205-8.06585-5.21095-9.47658-1.85203-1.84142-2.85558-2.26858-5.28905-2.24217zm-339.21875 133.36717c-1.79508-.006-3.48208.32928-4.79688.97658-3.21202 1.58123-5.05025 4.6012-7.32812 12.03125-1.25417 4.0909-20.19685 66.67795-28.28905 93.47655-1.34942 4.46875-3.37985 11.1625-4.51565 14.875l-2.0625 6.75-.0155 3.5c-.0143 3.30337.0205 3.58087.66405 4.96095.90565 1.94218 3.13617 4.07237 5.625 5.36717 1.31408.68368 10.50595 3.8505 28.4375 9.79688 33.76568 11.19725 68.349 22.6599 80.39062 26.64845 5.1643 1.71055 9.88931 3.20838 10.5 3.3281 2.0717.4063 5.07255.30602 6.79688-.22655 1.09333-.3377 2.00365-.84362 2.8203-1.5625 1.46582-1.29027 3.3367-4.09933 4.0625-6.09375.2946-.80945 2.89922-9.2875 5.78125-18.84375 8.4552-28.03553 15.55482-51.5013 23.33595-77.125l7.28905-24 .008-3.375c.014-3.7063-.19905-4.57303-1.64843-6.6797-.85465-1.24215-3.13647-3.01985-5.21095-4.0625-1.93392-.97198-117.2425-39.15673-119.35155-39.52343-.83785-.14567-1.67625-.21605-2.4922-.21875z" fill="#fd0000"/><path d="m500.21095 241.85938c-.51875-.013-1.03647.0286-1.53908.1172-1.68152.2962-4.49077 1.5496-6.05467 2.70312-.55325.40805-4.0446 3.54393-7.75783 6.96875-14.06984 12.97697-48.17317 44.38872-65.48437 60.3125-10.49535 9.65418-18.54963 17.2552-19.3203 18.23435-3.42667 4.35375-3.95382 8.08828-1.75783 12.4297 1.26601 2.50285 2.20998 3.65065 12.44533 15.03125 12.66095 14.0776 31.30923 34.81893 55.36717 61.59375 5.49788 6.11875 11.85835 13.18763 14.13283 15.71095 4.00263 4.44063 6.02105 6.26938 8.125 7.35155 2.5027 1.28728 4.81872 1.50063 7.47655.6797 3.46242-1.06945-1.45702 3.34185 77.15625-69.125 4.19375-3.8659 9.93125-9.14037 12.75-11.71875 6.06443-5.54725 6.7118-6.21887 8.2578-8.57032 1.51725-2.30763 2.1237-4.45315 1.91407-6.76563-.12092-1.334-.41319-2.21427-1.39062-4.1875-1.37625-2.77837.5442-.54172-21.6797-25.26562-5.92638-6.59303-18.96525-21.09688-28.97655-32.23438s-22.02605-24.50952-26.6953-29.71095c-4.66927-5.20142-9.12415-9.95099-9.89845-10.56247-2.43823-1.92555-4.82248-2.93582-7.0703-2.9922z" fill="#ff7f00"/><path d="m699.48437 88.851562c-1.35467.02548-2.6815.221668-3.75782.59375-3.1475 1.08815-7.0304 3.886076-12.60155 9.078125-1.5125 1.4096-18.49513 17.923323-37.7422 36.703123-52.23613 50.968-56.46448 55.17156-59.48435 59.19531-5.35965 7.1413-5.1524 11.96227.85935 20.07032 2.22042 2.99462 5.66295 6.81046 67.71875 75.00781 11.50212 12.64042 16.04785 17.524 19.89845 21.3828 4.8164 4.82677 3.83215 4.10267 37.8672 27.69532 12.74143 8.83223 13.88645 9.54593 17.5078 10.83593 2.15265.76685 5.49662.8059 7.78905.0937 3.18972-.99073 7.6161-4.16333 13.46095-9.64843 1.58125-1.48392 19.075-18.51032 38.875-37.83592 53.93315-52.64101 56.16105-54.88886 59.14062-59.45314 1.95968-3.00192 2.34676-4.23046 2.34375-7.44531-.003-2.54202-.0632-2.89636-.8125-4.64844-.83704-1.95717-2.06047-3.96754-3.0625-5.14062-.0696-.0814-.14387-.1613-.21092-.23438-.003-.001.002-.005 0-.008-.086-.0934-.16912-.18098-.25-.25781-.003-.001-.006.001-.008 0-.0821-.0778-.15765-.14815-.23437-.21094-.15-.12272-.29108-.2142-.41405-.26562-.0574-.0239-.12888-.0611-.21875-.10938-.0861-.0461-.185-.10595-.2969-.17187h-.008c-.22915-.1352-.5038-.30869-.8125-.50781-.61738-.3983-1.35835-.89795-2.0703-1.40625-.62745-.44793-1.84628-1.30334-3.59375-2.52344-.71538-.4995-1.87835-1.30393-2.76566-1.92188-2.14537-1.49418-5.1091-3.55492-8.10154-5.63281-.71653-.49729-1.72176-1.19756-2.48438-1.72656-4.23615-2.93931-9.16187-6.35019-14.71875-10.19531-1.39017-.96195-2.56592-1.77475-3.65625-2.53907-.0666-.0466-.13745-.10232-.20312-.14843-.37835-.26579-.75863-.53104-1.10938-.78125-.28135-.20067-.55407-.40066-.82033-.59375-.3151-.22866-.63997-.46606-.9375-.6875-.0654-.0487-.13062-.0922-.19529-.14063-.16825-.126-.33625-.25798-.5-.38281-.49408-.37667-.97861-.75424-1.4453-1.13281-.22605-.18335-.4566-.36764-.6797-.55469-.3316-.27813-.6608-.5672-.99221-.85938-.0245-.0216-.0536-.0408-.0781-.0625-.24213-.21424-.48085-.43884-.72658-.66406-.20132-.18444-.40387-.36905-.60937-.5625-.2645-.24908-.53021-.50658-.80471-.77344-.23527-.22861-.48164-.46712-.72654-.71093-.32588-.32459-.66043-.65996-1.0078-1.01563-.48723-.49875-.99775-1.02277-1.53908-1.59375-.9934-1.04779-2.14103-2.28697-3.38283-3.64062-.24437-.26626-.50182-.54822-.75779-.82813-.51843-.56727-1.17208-1.28695-1.74221-1.91406-1.57477-1.73174-3.35637-3.69808-5.39842-5.95313-10.96652-12.11054-61.39431-67.54674-65.60899-72.12476-1.00315-1.08963-1.85988-2.02636-2.64063-2.890625-.26414-.29179-.5022-.552705-.74217-.820313-.0352-.03931-.0591-.07058-.0937-.109375-.42637-.476122-.82922-.926727-1.1797-1.328125-.38395-.439362-.71075-.825147-1.0078-1.179687-.25505-.304395-.4928-.590648-.6875-.835938-.0294-.03702-.0501-.06584-.0782-.101562-.1078-.136768-.20835-.2647-.29685-.382813-.0916-.122375-.1706-.225027-.2422-.328125-.0158-.02255-.0243-.04085-.039-.0625-.009-.0137-.0145-.02572-.0235-.03906-.0529-.07852-.10047-.15231-.14063-.21875-.0342-.05667-.0608-.108167-.0859-.15625-.0165-.03125-.0263-.05816-.0391-.08594-.0132-.0289-.0376-.06078-.0469-.08594-.005-.01302-.004-.02703-.008-.03906-.0132-.04292-.0235-.07874-.0235-.109375 0-.02492 0-.05074-.008-.07813-.005-.02185-.0143-.04695-.0235-.07031-.003-.0047-.006-.01087-.008-.01563-.021-.04911-.0563-.10116-.0937-.15625-.0428-.06105-.0946-.127702-.15625-.195313-.0125-.01377-.0258-.03285-.0391-.04687-.04867-.052401-.11167-.108384-.17117-.164059-1.0378-.970965-3.56523-2.410663-6.1328-3.40625-1.3556-.525628-3.1411-.77495-4.88283-.742188zm-4.90625 12.226568c2.23001-.0775 4.45728.76476 6.82813 2.57031.70315.53547 8.1844 8.57547 16.625 17.85937 8.44057 9.28388 25.46875 28.00392 37.84375 41.60156 12.375 13.59765 23.0965 25.40494 23.82812 26.24219 1.62068 1.8546 3.21658 4.99375 3.57033 7.03125.4452 2.5642-.3929 5.27805-2.6094 8.45313-.60603.8681-13.37978 13.5394-31.5078 31.25-16.77058 16.38436-36.91797 36.07011-44.76563 43.75001-7.84762 7.67983-14.94062 14.4779-15.76562 15.10155-.825.62362-2.32595 1.52422-3.33595 2.0078-2.33975 1.12032-4.71353 1.33117-6.71875.58595-3.32458-1.23557-3.51532-1.43028-23.16405-23.02345-57.25185-62.9175-59.71865-65.65616-60.70313-67.31249-2.63765-4.4378-2.54837-7.89446.32813-12.32031 1.54645-2.3794 1.00485-1.83226 28.71875-28.88281 23.0247-22.4736 51.59445-50.373 58.65625-57.28125 4.7233-4.6206 7.15538-6.39895 9.9297-7.25.74923-.22985 1.49885-.35699 2.24217-.38282zm-323.27342 2.92968c-1.62002-.0167-3.40292.19266-5.38283.60938-1.44307.30373-1.64072.26561-6.83592 2.125-2.5979.92913-6.44105 2.33528-12.32033 4.49219-5.87907 2.15732-13.7928 5.0637-24.51562 9.00781-4.6932 1.72627-10.08428 3.71117-15.8203 5.82031-.0505.0185-.0902.0284-.14065.0469-.33605.1227-.62432.22987-.97655.35937-14.3101 5.25761-27.71602 10.19259-31.6875 11.66406-1.2375.4585-5.00625 1.84318-8.375 3.07813-.0122.004-.019.003-.0312.008-1.61592.59219-3.3822 1.24715-5.22655 1.92968-.11707.0434-.24165.0891-.3594.13282-1.59575.59084-3.23715 1.2006-4.92185 1.82812-.1975.0736-.37997.14489-.57815.21875-.22195.0827-.44135.16694-.66405.25-1.96075.73131-3.89475 1.45342-5.85156 2.1875-1.20795.45157-2.52095.93856-3.64063 1.35938-.19311.0727-.36256.13848-.55468.21093-1.83271.69038-3.60867 1.36401-5.26563 1.99219-.008.003-.0233.005-.0312.008-.0795.0303-.31077.11944-.40625.15625-.65899.25001-1.11559.42855-1.73437.66406-1.14513.43577-2.22054.84494-3.19532 1.21875-.93936.3603-1.87493.7197-2.61718 1.00782-.11778.0457-.2236.0813-.33594.125-.19801.077-.45247.17945-.63281.25-.58054.22756-1.21319.47687-1.57813.625-1.2375.50227-4.275 1.73052-6.75 2.73437s-6.91875 2.81465-9.875 4.01563c-2.95625 1.201-7.85 3.16481-10.875 4.36718-2.03954.81067-3.81117 1.52928-5.35937 2.17969-1.54821.65042-2.87064 1.22875-4.03125 1.77344-.77392.36286-1.4771.71082-2.11719 1.04687-.31996.16817-.62181.33551-.91406.5-.5847.32872-1.12024.65037-1.61719.97657-.2484.16322-.48652.32658-.71875.49218-.4629.3298-.89884.67206-1.32031 1.02344-.001.001-.006-.001-.008 0-.42292.35277-.83023.71865-1.24219 1.10938-.12664.12011-.24736.2442-.36719.36718-.11983.12299-.23852.24119-.35156.36719-.001.001.001.006 0 .008-.11163.12456-.22312.24738-.32813.375-.001.002.001.006 0 .008-.63577.77354-1.15238 1.60497-1.54687 2.50781-.0659.15075-.1283.30613-.1875.46094-.17761.46454-.32758.94178-.44531 1.44531-.0005.002.0005.005 0 .008-.0777.33338-.14367.67948-.19532 1.03125-.052.35433-.0915.7197-.11718 1.09375-.0385.56106-.0439 1.14162-.0234 1.75.0137.40557.0384.82207.0781 1.25.0198.21396.0439.42868.0703.64843.0529.44187.11623.89329.19531 1.35938.0722.4257.15602.85794.25 1.30469.008.0396.0149.0774.0234.11718.0121.0566.0266.11496.0391.17188.0949.4344.1975.88112.3125 1.33594.13008.51445.27404 1.04437.42969 1.58593.0778.27077.15799.54256.24218.82032 1.46956 4.84819 2.66414 8.10321 18.16407 49.63281 3.15609 8.45629 7.03633 18.86249 8.625 23.12501 2.32394 6.2353 4.38702 11.7643 6.21875 16.67187 3.66343 9.81508 6.40667 17.1484 8.50781 22.7109 1.0506 2.78128 1.94143 5.11885 2.70312 7.1016.76166 1.98273 1.39699 3.60818 1.9375 4.96875 1.62165 4.08175 2.39884 5.76418 3.25 7.42188 1.34369 2.6169 2.62041 4.5657 3.97657 6 .16954.17925.33543.34427.50781.50777.34721.33018.70025.62825 1.0625.89848.17978.13405.35469.25477.53906.375.739.4826 1.51535.85557 2.35156 1.14062.15707.0535.32608.10243.5.1484.17173.0455.35261.087.53907.125.16638.034.33874.0655.51562.0937.0441.007.0881.0168.13281.0235.18492.0276.3758.0487.57032.0703.17428.0195.35022.0401.53125.0547.11307.009.22834.016.34375.0235.15446.01.31056.017.46875.0235.0904.004.18194.005.27343.008.10957.003.21717.006.32813.008h.10156c2.08287.0213 4.38273-.22005 6.34375-.70312.0161-.004.0308-.0115.0469-.0155.17831-.0444.3513-.0923.52343-.14062.12434-.035.24649-.0646.36722-.10158.0217-.007.0408-.0168.0625-.0235.2174-.0675.4287-.13685.6328-.2109.75625-.27465 10.9375-4.40075 22.625-9.1719 5.20425-2.12452 8.82197-3.6007 12.3203-5.02342.81667-.33218 1.2946-.52593 2.03907-.82813 2.37078-.96262 4.61213-1.86925 6.39843-2.58595 1.51975-.60863 2.8632-1.14575 4.10157-1.6328 1.31493-.51765 2.5107-.98535 3.67188-1.4297 1.0746-.41118 2.11187-.79755 3.1797-1.1953 1.11307-.41457 2.26535-.84005 3.5156-1.29687 1.25412-.4583 2.61612-.95188 4.14845-1.50783 5.43125-1.9704 12.0125-4.37293 14.625-5.33592 2.6125-.96295 10.31875-3.79623 17.125-6.29688 23.97472-8.80835 35.7497-13.13207 46.03125-16.91405.94735-.3487 1.49682-.55375 2.39062-.88282 6.0333-2.21968 12.3869-4.56313 15.42968-5.6875 3.60155-1.33078 6.27735-2.31903 8.15625-3.02343 2.87277-1.07705 5.42035-1.9824 6.16407-2.19532.10515-.0299.17643-.0469.20313-.0469.21355 0 1.08987-.35117 1.9453-.78125 3.63625-1.82802 6.31765-3.9257 8.00782-6.25.0833-.1144.16378-.22822.24218-.34375v-.008c.0784-.1155.16085-.22722.2344-.34375v-.008c.0435-.069.0832-.14157.125-.21092.0301-.0502.0645-.0981.0937-.14845.0684-.1175.1317-.23303.1953-.35155v-.008c.0646-.1206.1279-.2377.1875-.35938.2991-.61042.5309-1.23035.70312-1.8672.0337-.12445.0727-.24952.10158-.375v-.008c.0293-.12787.0539-.25395.0781-.3828.0442-.2343.0757-.4942.10157-.78125.0259-.28707.0463-.60132.0547-.9297.004-.1667.008-.33272.008-.5078-.00003-.17237-.003-.34432-.008-.52345-.0168-.71647-.069-1.48292-.14843-2.25-.0399-.38375-.0862-.7693-.14062-1.14845-.1086-.75792-.24365-1.4932-.40625-2.16406-.15993-.65982-.31563-1.26932-.4922-1.92188-.17663-.65256-.3769-1.34454-.6328-2.16406-.1279-.40976-.27023-.85178-.4297-1.33594-.47845-1.45248-1.11253-3.29059-2.0156-5.80468-2.40788-6.70482-6.70263-18.22995-14.88285-40.14873-4.66975-12.5125-10.14593-27.19375-12.17188-32.625-4.54492-12.18422-7.9836-21.39128-10.625-28.41406-1.98075-5.26721-3.51362-9.30381-4.73437-12.45313-.8141-2.09943-1.48748-3.80347-2.0625-5.21093-.28638-.70133-.55518-1.33181-.79688-1.89844v-.008c-1.4545-3.40913-2.186-4.59668-3.26562-6.26563-.17785-.27494-.35658-.54017-.53908-.79687-.0175-.0246-.0371-.0459-.0547-.0703-.1643-.22901-.33163-.45746-.5-.67188-.13528-.17225-.26815-.33709-.40625-.5-.11598-.13686-.23348-.26813-.35158-.39844-.22717-.2506-.45975-.4922-.6953-.71875-.0335-.0323-.0679-.0619-.10155-.0937-.0675-.0636-.13495-.12583-.20315-.1875-.069-.0625-.13335-.12699-.2031-.1875-.0337-.0292-.0677-.0572-.10157-.0859-.10553-.0896-.21298-.1727-.32033-.25782-.10512-.0834-.20555-.16302-.3125-.24218-.0358-.0265-.0733-.0521-.10935-.0781-.0727-.0525-.14528-.10568-.21875-.15625-.0733-.0505-.1447-.0999-.21875-.14844-.0364-.0238-.0728-.0469-.1094-.0703-.11112-.071-.22282-.14414-.33592-.21094-.11265-.0664-.22913-.12523-.34375-.1875-.0384-.0209-.0786-.0421-.11718-.0625-.1544-.0816-.3107-.16026-.46875-.23437-.0387-.0181-.0783-.037-.1172-.0547-.11927-.0542-.23792-.10622-.35937-.15625-.002-.001-.006.001-.008 0-.15948-.0656-.32103-.12906-.48435-.1875-.0818-.0292-.1672-.0585-.25-.0859-.085-.0282-.17178-.0596-.25783-.0859-.0417-.0127-.0831-.0268-.125-.0391-.1283-.0376-.25992-.068-.39062-.10156-.13073-.0335-.26525-.0643-.39845-.0937-.0446-.01-.0879-.0218-.1328-.0312-.0883-.0185-.17623-.0379-.26563-.0547-.0896-.0168-.18272-.0318-.27342-.0469-.046-.008-.0944-.0163-.14065-.0234-.14068-.0218-.27845-.037-.42185-.0547-.13898-.0172-.28033-.0336-.4219-.0469-.0487-.005-.0994-.0115-.14843-.0156-.1354-.0113-.26842-.0234-.40625-.0312-.25417-.0144-.51082-.0208-.77342-.0234zm-.64065 12.09375c3.9481-.0573 6.87343 1.8609 9.39065 6.0625.92647 1.54648 4.24053 10.17336 15.58592 40.58594 25.07633 67.21977 29.29791 78.6016 29.58593 79.67187.1546.57435.39917 1.95454.53907 3.07032.77031 6.14313-2.1419 9.82551-10.07812 12.74218-1.82013.66893-12.70625 4.67185-24.1875 8.89063-11.48125 4.2188-34.6 12.71042-51.375 18.875-24.3373 8.94362-30.89268 11.26097-32.45313 11.47655-2.2052.30465-2.59627.30735-4.16407 0-2.8264-.55403-5.15213-2.46708-7.1953-5.90625-.61265-1.03125-2.20207-4.89328-3.89845-9.46875-1.57563-4.25-5.30435-14.25155-8.28125-22.22655-10.78795-28.90137-12.6836-33.97225-17.6328-47.25-2.76763-7.425-7.33538-19.67054-10.15625-27.21094-3.3315-8.90537-5.26543-14.4248-5.51563-15.75-1.31717-6.97677 1.39173-11.01934 9.35158-13.96094 3.18298-1.1763 26.9158-9.90242 44.0703-16.20312 6.66875-2.44938 20.9-7.6811 31.625-11.625s21.9668-8.07631 24.98437-9.17969c3.01756-1.1034 6.39256-2.1613 7.5-2.35937.80543-.14408 1.5736-.22388 2.30468-.23438zm-141.47655 52.27344c.059-.001.10717.007.14844.0156 3.25426.70035 5.11255 3.86763 9.88281 16.85938 1.64081 4.46875 5.06689 13.69375 7.60937 20.5 2.54249 6.80625 10.49813 28.125 17.67968 47.375 7.18157 19.25 13.70765 36.70172 14.50782 38.78905 1.93143 5.03847 2.72715 7.97642 2.90625 10.7422.13103 2.02317.0861 2.42105-.39842 3.42187-.30115.62196-.79895 1.28288-1.10158 1.47658-.30262.1936-10.45655 4.3682-22.57032 9.27342-15.93686 6.45335-22.29447 8.91408-22.99999 8.91408-1.24421-.002-2.63477-.8349-3.77344-2.26565-2.1485-2.69943-2.51372-3.61452-20.82812-52.72655-3.46108-9.28125-8.07794-21.65625-10.25781-27.5-2.17988-5.84375-6.21628-16.68486-8.97657-24.08594-8.10724-21.73765-8.88737-24.09315-9.17968-27.71875-.14041-1.74142-.0971-2.0496.49218-3.25.35804-.72935.86032-1.4511 1.11719-1.60937.25687-.15828 3.38104-1.47109 6.94531-2.91407 3.56427-1.44297 13.60901-5.51068 22.32032-9.03906 12.47056-5.051 15.59121-6.24531 16.47656-6.25781zm571.66405 43.40625c.5069-.0122.98355.0408 1.39845.15625.48055.1337 3.125 1.8144 5.875 3.73437 2.75 1.91998 12.03125 8.36825 20.625 14.32813 8.59375 5.95987 15.76742 11.00871 15.9375 11.22656.64217.82253.87227 2.11849.57812 3.21094-.41229 1.53117-2.44807 4.41768-5.07812 7.20312-3.56315 3.7737-86.83642 85.1378-90.28905 88.21875-2.5528 2.27798-5.44372 4.27813-7.03908 4.875-1.30797.48938-3.50217.6584-4.35937.33593-.42065-.15818-2.64975-1.679-13.125-8.9531-3.9875-2.76903-11.91875-8.27273-17.625-12.22658s-10.69665-7.50342-11.09375-7.89062c-.99525-.9705-1.17218-2.7063-.4375-4.3672 1.32742-3.00085 2.49365-4.25703 16.78125-18.14843 14.51705-14.11447 62.33232-60.8247 71-69.35937 7.6543-7.53685 10.52865-9.99703 13.3203-11.40625 1.14863-.57983 2.41615-.91058 3.53125-.9375zm-272.53905 2.89062c-1.06.002-2.13198.10831-3.10938.32813.94488-.19608 2.26448-.31553 3.42188-.3125.16965.0005.33547.002.5.008-.26913-.0133-.5404-.024-.8125-.0234zm.039.34375c-1.66068.0306-3.4292.34489-5.10155.92969-3.8963 1.36243-21.07833 8.34304-23.3672 9.49219-5.35765 2.68995-4.99618 2.37445-42.2578 36.70312-7.0125 6.46053-22.0875 20.34103-33.5 30.85158-32.3904 29.83033-34.92405 32.265-37.32813 35.85935-3.88712 5.81183-3.33057 10.26015 2.20313 17.6719 2.93645 3.93295 4.94457 6.22603 27.75 31.60155 5.43722 6.05 14.33042 15.94128 19.7578 21.98437 27.90187 31.06676 37.70515 41.93223 41.63282 46.14063 6.9396 7.4356 10.62221 10.34388 14.42188 11.3672 2.708.7293 5.75155.3353 9.9375-1.28908 1.591-.61739 1.86227-.81205 1.8125-1.27342-.085-.78737 1.95385-2.8633 10.1875-10.39845 11.37402-10.4091 79.74788-73.40812 83.875-77.28125 7.06825-6.6332 11.92675-10.78425 13.66405-11.67188.73447-.37525 22.19785-8.94615 23.2422-9.28125.57672-.18502 3.31062-4.34969 3.8203-5.82032 1.25245-3.61328.49685-7.44855-2.3125-11.6953l-.58593-.875-.0781-.1172-.125.72657c-.0198.11631-.0498.22093-.125.32813-.003.003-.006.005-.008.008-.0182.0251-.0381.0521-.0625.0781-.005.006-.01.01-.0158.0155-.0242.0247-.0472.0441-.0781.0703-.0178.0152-.0343.0309-.0547.0469-.0425.0332-.0859.0652-.14063.10155-.0118.008-.0187.0155-.0312.0235-.0709.046-.14885.0881-.24217.14062-.0865.0488-.1803.10053-.28908.15625-.0278.0143-.0487.0242-.0781.0391-.0919.0463-.1885.0889-.29688.1406-.20097.0961-.48495.2256-.75.34375-.0912.0406-.15062.0737-.25.1172-.18095.0794-.3128.1364-.52342.22655-.2799.12-.53678.22568-.875.3672-.35203.14755-.65517.271-1.07815.4453-.27003.11137-.4952.20465-.79685.32815-.11262.0461-.24212.1005-.3594.14842-1.3747.56175-2.97502 1.20845-5.0703 2.05468-6.0499 2.4435-11.3668 4.44995-11.8125 4.46095-1.0978.0269-2.57475-.89163-4.96875-3.07813-2.35807-2.1537-4.27543-4.18632-9.85155-10.45312-3.7938-4.26363-8.1513-9.11353-36.25-40.375-32.24243-35.87155-39.28777-43.69563-40.92965-45.45303-2.4481-2.62032-5.34317-6.24812-6.4375-8.0625-.66-1.09425-.87407-1.71342-.8203-2.35937l.0703-.875 11-4.4375c5.3912-2.17587 8.29247-3.31676 9.9453-3.875.0747-.0275.1879-.0682.25782-.0937.003-.00075.006.00075.008 0 .16548-.0542.29908-.0917.4375-.13281.0723-.0217.1297-.0441.1953-.0625.0294-.008.05-.008.0781-.0156.14835-.0405.28245-.0773.39842-.10156.10665-.0223.19763-.0368.28125-.0469.0238-.003.056-.006.0782-.008.0971-.008.18753-.008.2578 0 .12883.0142.23658.0207.33595.0234.35333.01.52103-.0493.4453-.17188-.025-.0403-.06-.0895-.10937-.14062-.74118-.76686-4.09015-2.65911-5.54688-3.10156-1.0653-.32358-2.29425-.46907-3.58595-.44532zm8.19532 2.47657c.44726.33118.96343.76308 1.5625 1.28906h.008c.0341.03.0668.0552.10155.0859.0624.0552.13085.12117.1953.17968l-.17185-.1875c-.36765-.3921-.97892-.87782-1.69532-1.36718zm-36.72657 24.36718c.12935-.003.2609-.003.39065 0 2.24782.0564 4.63207 1.06664 7.0703 2.99219.7743.61148 5.22917 5.36106 9.89845 10.56249 4.66925 5.20147 16.684 18.57345 26.6953 29.71095s23.05017 25.64135 28.97655 32.23437c22.2239 24.72391 20.30345 22.48726 21.6797 25.26563.97742 1.97323 1.2697 2.8535 1.39062 4.1875.14413 1.58983-.0997 3.1017-.75782 4.64062-.0598.1399-.12073.28143-.1875.42188-.2669.56177-.58943 1.12622-.96875 1.70312-1.54598 2.35145-2.19338 3.02301-8.2578 8.57033-2.81875 2.57835-8.55625 7.8528-12.75 11.71875-61.41663 56.6147-71.84875 66.31043-75.125 68.35155-.2621.1633-.47893.2739-.67188.35937-.48235.21368-.81837.24696-1.35937.41408-2.65783.82093-4.9739.60758-7.47655-.6797-2.104-1.08218-4.12243-2.91098-8.125-7.35155-2.2745-2.52332-8.63495-9.5922-14.13283-15.71095-24.05795-26.77483-42.70627-47.51615-55.36717-61.59375-10.23543-11.3806-11.17933-12.5284-12.44533-15.03125-2.196-4.34143-1.6689-8.0759 1.75783-12.4297.77065-.97908 8.82495-8.58023 19.3203-18.23435 17.3112-15.92383 51.41452-47.33553 65.48437-60.3125 3.71323-3.42486 7.20453-6.56071 7.75783-6.96876 1.56385-1.15353 4.37315-2.40693 6.05467-2.70313.1266-.0223.25478-.0384.38283-.0547.0207-.003.0416-.005.0625-.008.083-.01.16642-.0162.25-.0234.15195-.0131.30002-.0272.4531-.0312zm-323.64061 74.41408c-.33481.002-.68472.019-1.05469.039-3.07824.1665-5.92639 1.1604-11.5 4.03125-3.65326 1.8817-56.18109 31.79613-84.25 47.97655-9.479088 5.46432-13.25949 8.01627-16.148438 10.90625-3.514045 3.5154-4.830612 5.98007-6.960937 13.02345-1.509392 4.9904-21.630895 85.5473-22.375 89.57812-.758875 4.11083-.85287 8.15113-.242188 10.50783 1.197618 4.62173 4.203883 8.37355 13.320313 16.6328 4.38783 3.97525 69.20641 61.48598 77.53906 68.79687 9.91262 8.69713 13.81046 11.43196 17.99219 12.60158.94877.26535 2.14996.35685 3.875.29685 3.32268-.11553 5.88841-.9925 11.75-4.0078 4.50409-2.31697 80.32774-45.56882 89.75-51.1953 13.04023-7.78692 15.0789-10.5454 19.09375-25.83595 2.36743-9.01633 20.2533-80.754 20.77345-83.3203.76395-3.77022 1.04723-7.28285.77342-9.65625-.65647-5.691-3.53857-9.50565-15.01562-19.875-3.97933-3.59535-34.17237-30.39505-55.50781-49.27345-2.56403-2.26875-8.47692-7.5069-13.14063-11.64063-15.19194-13.46552-18.10613-15.82082-22.14062-17.85157-2.58145-1.29933-4.18763-1.7495-6.53125-1.73435zm-12.38282 6.625c.11688-.004.22169 0 .32813.008.0878.007.17601.016.25781.0312.0174.003.0375.004.0547.008.0237.005.0471.0102.0703.0158.0723.0175.14237.0384.21094.0625.15991.0557.29977.1258.42969.21092h.008c.0846.0559.16256.12513.23437.19533.10991.10735.20916.23.28906.375.0266.0483.0471.0956.0703.14842.001.002-.001.005 0 .008.0699.15848.12416.33643.16406.53905.0265.13515.0494.27313.0625.4297.0136.15873.0157.32535.0156.5078-.0002.1794-.002.3667-.0156.5703-.0664 1.01913-.30145 2.34725-.70313 4.08595-.16034.69368-.34889 1.4528-.5625 2.28125-.70906 2.75-5.64266 22.40953-10.96875 43.6875-1.29812 5.18605-2.43018 9.71128-3.42187 13.66405-1.98337 7.90568-3.40563 13.5256-4.47656 17.59375-.26774 1.01708-.51517 1.93918-.74219 2.77345-.45404 1.66855-.83371 2.99603-1.16406 4.0703-.41295 1.34295-.75103 2.28798-1.0625 3.02345-.10374.2448-.20468.46803-.30469.67188-.0194.0394-.0432.0791-.0625.11717-.001.002.001.005 0 .008-.4181.82573-.82842 1.37778-1.36719 2.13283-.0897.12567-.18462.24815-.28125.375-.001.002.001.005 0 .008-.28892.37882-.6081.7575-.95312 1.14062-.001.002.001.005 0 .008-.22987.2551-.47478.51135-.72657.7656-.50631.51138-1.05224 1.01313-1.63281 1.50783-.003.002-.005.005-.008.008-.86855.73945-1.81601 1.45682-2.79687 2.10935-.29152.19402-.87549.55307-1.6875 1.03907-2.43606 1.45803-6.89219 4.0389-11.42969 6.61718-13.9238 7.91197-68.431493 39.09195-73.75 42.1875-.275377.16035-.55814.32445-.84375.4844-.571373.32-1.15451.63497-1.71875.92967-1.40978.73533-2.698788 1.34095-3.359375 1.5625-.527745.17698-1.045313.33165-1.453125.44533-.407812.11352-.705872.18417-.796875.17967-.16357-.008-.33343-.0473-.5-.10937-.33314-.12415-.652718-.3436-.890625-.60938-.118435-.13317-.212913-.27977-.28125-.42967-.0474-.10408-.09495-.2054-.132813-.3125-.05682-.16073-.09539-.33455-.117187-.5625-.0074-.0781-.01362-.1585-.01563-.25-.0022-.0889-.0035-.18468 0-.28908.01792-.52302.113515-1.25157.320312-2.36717.01347-.0729.03243-.17393.04687-.25.16207-.85373.378146-1.8856.679688-3.22658.493232-2.19207 1.192737-5.12352 2.164062-9.08592.322845-1.3175.677135-2.7487 1.0625-4.3047.000501-.002-.0005-.005 0-.008.772273-3.11825 1.67431-6.73265 2.726563-10.9375 1.052345-4.20495 2.254058-8.99745 3.625-14.46095 1.463945-5.83415 2.875447-11.45065 4.179687-16.6172 3.25819-12.9067 5.827805-22.97695 6.742188-26.42185.182915-.68915.300825-1.1133.34375-1.2422.59737-1.79393 1.34243-3.39695 2.3125-4.8828.194015-.29723.396982-.5864.609375-.875.211215-.2871.441342-.57175.671875-.85158.0012-.002-.0012-.005 0-.008 2.087355-2.5322 4.98672-4.78882 9.125-7.24217.391477-.23208 1.834035-1.06493 4.070312-2.35158 11.18139-6.4331 42.275998-24.25082 61.898438-35.46875 7.84898-4.48687 13.86511-7.916 16.03125-9.1406.68991-.39015 1.29978-.73255 1.89844-1.0625.14304-.0789.26029-.1432.39843-.21875.21644-.1186.38898-.20975.59375-.32032.31305-.16903.62695-.33333.91407-.48438.30103-.15837.58515-.30607.85937-.4453.13268-.0674.27174-.14007.39844-.20315.0329-.0163.0612-.0309.0937-.0469.35706-.17662.70371-.34172 1.01562-.4844.11659-.0533.22522-.10747.33594-.15625.0604-.0265.1132-.045.17188-.0703.0861-.0371.16742-.0674.25-.10155.073-.0303.14841-.0657.21875-.0937.18835-.0753.36875-.14292.53906-.20315.1767-.0623.34096-.11722.5-.16405.008-.002.0151-.005.0234-.008.0982-.0286.1971-.0476.28907-.0703.10461-.0259.20751-.0515.30468-.0703.10662-.0205.20623-.0424.30469-.0547h.0156c.10296-.0125.20191-.02.29687-.0235zm23.40625 3.17185c.2021.002.40459.0183.60938.0625 1.14437.2478 3.38797 1.4151 4.83594 2.51565 1.49833 1.1387 4.09979 3.43495 37.11718 32.72655 3.10072 2.75083 9.56947 8.48245 14.375 12.7422 36.65416 32.49065 34.926 30.9205 37.10938 33.80467 2.41057 3.18428 3.2455 5.59911 3.25 9.41408.003 2.40718-.2028 3.27118-9.76563 41.5-12.28314 49.1037-11.60857 46.50543-12.5 48.34375-.41917.86435-1.09182 1.7919-1.51562 2.09375-1.35708.9663-2.5741.90618-4.84375-.2422-2.38743-1.20797-1.98658-.87448-14.52344-12.03905-5.48689-4.88635-15.99526-14.2191-23.35151-20.7422-7.35625-6.52313-20.79989-18.44535-29.875-26.4922-9.07511-8.0468-17.56886-15.55725-18.875-16.6875-3.58503-3.10213-6.03742-6.31768-7.28125-9.54685-.81902-2.1264-.94132-6.30978-.25781-8.78125.28446-1.02863 5.19316-20.5422 10.91406-43.3672s10.63476-41.95 10.91406-42.5c.9244-1.82035 2.24936-2.8199 3.66406-2.8047zm449.03908 1.57815c.91998 1.29375 1.67435 2.5092 2.2578 3.67185-.64487-1.32395-1.40358-2.64895-1.9375-3.28905zm2.2578 3.67185c.0986.19658.19218.39238.28125.58595-.0901-.196-.18472-.38777-.28125-.58595zm.28125.58595c.79502 1.72803 1.20475 3.34365 1.2422 4.92188-.005-.95468-.14467-1.9013-.4219-2.84375-.16603-.56453-.46518-1.30548-.8203-2.07813zm228.76562 6.92188c-2.80962.0153-5.29687.29235-5.29687.70312 0 .12033.92758.21875 2.0625.21875s8.25265.78645 15.8125 1.75c32.5942 4.15435 41.30765 5.29723 42.1797 5.52345 1.03565.2686 1.6953.81955 1.6953 1.40625 0 1.00653-3.38613 3.27693-9.25 6.2031-1.85625.92638-11.7 5.95368-21.875 11.1797-10.175 5.22603-28.68125 14.73545-41.125 21.125s-26.05625 13.39278-30.25 15.5703c-13.56697 7.04443-16.99195 8.03353-24.375 7.01565-5.10263-.70357-37.29323-4.82025-46.25-5.91407-3.9875-.48698-7.66633-.99728-8.1797-1.13283-1.19678-.31587-1.5409-.90647-1.05468-1.84375.20108-.38747.31715-.76095.25-.8281-.28125-.28125-4.6123 2.7142-6.54687 4.53125-1.66062 1.5596-2.28657 2.35915-3.03125 3.86717l-.9375 1.89843.0155 3.51565c.0175 3.95325.22712 4.9487 2.32812 11.1328 1.81623 5.34585 1.77025 5.21797 10.23438 27.125 22.89768 59.2642 30.49823 78.90122 32.96092 85.125 2.7849 7.03795 5.68275 13.30692 7.22658 15.6328 2.14277 3.22828 4.8274 5.5077 7.82032 6.63282 3.18393 1.197 3.70085 1.27185 39.66405 5.86718 11.4125 1.45832 21.81875 2.74267 23.125 2.85157 3.4326.2862 4.11115.28573 6.75.008 4.60163-.48462 8.35306-1.86202 17.625-6.45315 6.39663-3.16732 82.82808-42.37065 95.5-48.98435 10.70378-5.58655 13.76215-7.47572 16.6797-10.32815 4.11901-4.02702 4.69463-8.71435 2.11718-17.10154-1.56792-5.10215-1.97315-6.1812-28.28908-74.25-13.82015-35.7473-16.84357-43.47405-18.53905-47.46095-5.3147-12.49743-8.63132-15.5859-18.46875-17.17185-3.91922-.6319-52.8537-6.88943-56.75-7.25783-1.20602-.11403-2.55102-.1632-3.82812-.15625zm65.5625 24.39842c2.03595.0153 3.87383.6549 5.32813 1.88283 1.50622 1.27175 3.46485 4.59755 4.9453 8.39842 7.9123 20.31393 42.03493 108.74095 42.4844 110.09375 1.72097 5.18035 1.34992 9.32325-1.125 12.53125-2.04932 2.65628-3.48338 3.48678-26.4922 15.3047-81.7813 42.00495-80.8239 41.51828-82.85938 42.04687-1.09152.28348-2.55402.50925-3.25.5-4.0946-.0541-7.15954-3.02949-9.61717-9.33592-.54078-1.38762-4.26285-11.0172-8.27345-21.39845-4.01063-10.38125-9.861-25.5125-13-33.625-17.60328-45.49403-21.96623-56.88305-22.27345-58.125-.187-.75625-.34123-2.55625-.34375-4-.004-2.43968.0452-2.74215.78907-4.3125.85348-1.8018 2.71118-3.94813 4.57033-5.28905.62402-.45017 3.66405-2.12288 6.7578-3.71095 3.09375-1.58808 15.8625-8.14468 28.375-14.5703 12.5125-6.42565 28.99375-14.88815 36.625-18.8047 7.63125-3.91658 17.98125-9.22818 23-11.8125 5.01875-2.5843 9.89335-4.93847 10.83595-5.22655 1.07192-.3277 2.1174-.50622 3.11717-.53908.13748-.005.27053-.009.40625-.008zm-196.0625 55.6719c.14746 0 .30635.004.49218.008.87037.0155 8.6172.94417 17.21095 2.0625 8.59375 1.11835 21.08125 2.71835 27.75 3.5625 13.37785 1.6934 13.571 1.73945 15.89062 3.78125 2.46105 2.1663 4.50126 5.97107 7.60158 14.14845 1.07723 2.84128 4.68235 12.1953 8.0078 20.78905 3.32542 8.59375 7.84825 20.29375 10.0547 26 2.2064 5.70625 8.40022 21.68125 13.7578 35.5 5.35757 13.81875 9.9592 25.74375 10.23437 26.5.88071 2.42035 1.45313 5.03832 1.45313 6.66405 0 1.38273-.0918 1.67422-.71095 2.3672-.60518.67737-.90463.80335-2.0625.8672-.74497.041-8.21405-.81327-16.60155-1.90625-8.3875-1.09305-20.89098-2.72035-27.78125-3.6094-7.99253-1.03117-12.93602-1.77648-13.66405-2.0625-3.95938-1.55522-6.57542-5.41243-10.58595-15.625-2.2947-5.84335-22.35627-57.69515-38.10155-98.47655-4.70595-12.18855-5.4922-14.68723-5.4922-17.44525 0-1.3232.0897-1.61592.72655-2.32815.60027-.67125.7881-.7944 1.82032-.79685zm-590.35932 21.66405c1.94707-.004 3.81783.5302 5.9375 1.5547 2.7955 1.35105 3.59705 1.9601 9.50781 7.25 2.61603 2.34123 11.55978 10.2859 19.875 17.65625 8.31522 7.37028 24.17832 21.43275 35.25 31.25 11.07169 9.81712 21.22962 18.8078 22.57813 19.97655 4.95104 4.29107 6.65346 7.71412 5.28125 10.625-.87879 1.86418-2.79707 3.40385-8.03125 6.4375-2.7264 1.58018-22.99371 13.18038-45.03125 25.78125-40.19149 22.98113-41.85741 23.8886-44.8125 24.28125-2.13539.28372-2.37404.29308-3.64063.1172-1.59041-.22087-2.86997-.6336-4.47656-1.4375-2.87987-1.44105-3.00869-1.54853-20.39062-16.96095-4.04889-3.5901-10.0096-8.8776-13.25-11.75-62.111243-55.05695-56.467087-49.93498-58.039068-52.60155-1.752972-2.97365-1.480762-4.97035 1.03125-7.5469 1.240133-1.27192 3.994398-2.9162 24.648438-14.71875 27.24381-15.56812 58.16721-33.26485 63.5-36.33593 4.20602-2.42217 7.21678-3.57212 10.0625-3.57812zm376.5 7.53125c-.0472.0383-.12945.0911-.25.15625.12325-.0664.20217-.11745.25-.15625zm-2.47655 1.16405c-.74053.31612-1.64863.70015-2.7422 1.14845 1.0786-.4423 2.01155-.83643 2.7422-1.14845zm201.90625 100.13282c-1.85935.025-2.48345.17158-4.28908.79688-2.8318.98068-6.55904 2.83417-11.46092 5.70312-3.25397 1.90445-83.67517 51.34103-99.1172 60.92968-14.08315 8.74487-18.34798 12.31862-20.0547 16.8047-.86063 2.26225-.81048 6.40363.1172 9.53125.97137 3.27485 1.58332 4.6172 2.03125 4.4453.55843-.21428 1.76335.79727 3.7422 3.14845.98365 1.16875 5.49812 6.4 10.03125 11.625 24.87638 28.67348 39.86902 45.9182 41.05467 47.21095 4.4461 4.84753 8.1215 10.56697 11.4375 17.8125 3.97463 8.68448 36.42603 78.53558 38.89843 83.72655 1.9253 4.0421 2.51675 5.80715 2.1797 6.54687-.24565.53913-.1543.72438.95312 1.86718 2.72323 2.8103 5.54363 4.7682 8.23438 5.72657 1.83798.65465 5.4178.62943 7.95312-.0547 2.82168-.7614 8.77218-3.80562 16.17188-8.27345 5.91908-3.57388 86.14768-52.9428 96.5-59.3828 12.68213-7.88937 17.1355-11.63767 18.79687-15.8047.75708-1.89883.91133-5.7935.32813-8.4453-.93355-4.24505-1.87077-6.38458-16.6953-38.3047-5.84307-12.58125-13.96815-30.075-18.0547-38.875-13.17585-28.373-13.5554-29.03195-24.10155-41.25-3.67297-4.25518-35.23625-40.62595-44.3672-51.125-7.52882-8.65685-11.37773-12.17382-15-13.71095-1.35203-.5737-1.86973-.64843-4.40625-.64843-.32293-.00005-.61725-.004-.8828 0zm-442.4375 3.875c-1.3569 0-1.91867.13756-3.14065.5625-3.8725 1.34676-7.01557 3.80725-15.0078 11.74218-7.178 7.1266-78.55043 80.08605-82.22656 84.0547-4.86908 5.25652-7.3027 8.6366-8.51563 11.83595-.53772 1.4183-.62675 2.07523-.625 4.41405.002 2.4227.0913 3.02377.78125 5.04687 1.54258 4.52328 1.08398 3.69028 27.24219 49.20313 27.37117 47.62328 27.11864 47.2101 31.46875 51.53905 4.20953 4.1891 4.5966 4.38965 56.59375 29.96095 16.98125 8.3511 32.28125 15.83145 34 16.6172 4.49505 2.05483 7.85633 3.25093 10.125 3.60155.4125.0638 1.70625.0777 2.875.0312 4.9422-.19655 8.5365-2.45877 16.85155-10.6172 3.94633-3.87188 54.40715-55.3056 77.90625-79.40625 13.09445-13.42953 15.472-17.08845 15.1797-23.33593-.20842-4.4546-1.57917-7.53557-9.4375-21.26562-15.1185-26.41505-41.60697-72.33485-43.2578-74.9922-3.42113-5.50683-6.52592-9.1312-9.9922-11.66405-2.34615-1.71438-5.55237-3.4957-13.35155-7.39845-14.7075-7.3596-71.08518-35.02655-74.77345-36.6953-5.64348-2.5534-7.40103-3.06685-11.01563-3.1953-.68329-.0243-1.22744-.0388-1.67967-.0391zm437.91405 1.39063c1.33407-.0289 2.54112.22507 3.6797.7578 2.15678 1.00932 2.82123 1.62327 7.4375 6.9297 11.46165 13.17535 46.12625 53.1005 48.35155 55.6875 2.26532 2.63352 2.8015 5.51442 1.46095 7.85155-.75555 1.3172-3.46582 4.02232-5.15625 5.14845-.5449.36297-11.51095 7.12842-24.3672 15.03125-31.1889 19.17205-75.39707 46.39638-79.1328 48.73437-3.35932 2.10235-6.44 3.54853-8.71875 4.08593-2.24825.5303-4.03398.45698-5.7344-.24218-2.12362-.8732-3.12683-1.65887-5.09375-3.96875-.9656-1.13405-13.0899-15.10889-26.9453-31.05467-16.3599-18.82812-25.373-29.3866-25.70313-30.1172-.7549-1.67065-.83564-3.43355-.21875-4.82813 1.24028-2.80387 3.41635-4.6081 12.04688-9.97657 20.80615-12.94193 98.22855-60.47833 100.125-61.47655 3.1758-1.67162 5.74527-2.5143 7.96875-2.5625zm-439.375 3.9922c.18757-.003.37948.002.5703.008.11505.004.22805.009.34375.0155.39022.0217.7815.0619 1.1719.11717.07.01.14105.0203.21092.0312.19153.0303.38145.0634.57033.10158.155.0312.3086.0651.46092.10157.0335.008.0682.0153.10158.0235.10002.0248.1984.051.29685.0781.0832.023.16822.0458.25.0703.17707.053.35357.11143.52345.1719.49917.1776 10.6375 5.108 22.53125 10.9531 23.78785 11.69052 38.13297 18.72855 46.84375 23.07033h.008c.48305.24075.84785.43177 1.2969.65625 2.24947 1.12464 4.17865 2.09272 5.67185 2.85937 1.79145.91988 3.0939 1.61135 4.0547 2.14845h.008c.23772.13288.45882.26.65625.375.39875.23193.7152.42918.97658.60155.13065.0862.24855.16745.35157.2422.2059.14935.36298.28153.48435.39843.17935.1735.28488.31685.375.46875.002.003.005.005.008.008.0283.048.0509.0985.0781.14843.002.003.005.005.008.008.0566.1037.11832.21915.19532.34375.0731.11817.13408.2315.19533.35155.002.003.005.005.008.008.12027.23717.21547.48037.28905.72657.0746.24938.13.50423.15625.76563.0395.3921.0235.79977-.0468 1.22655-.0868.52605-.26723 1.08525-.52346 1.6797-.0202.0468-.0334.0933-.0547.14062-.29257.65196-.68347 1.34608-1.17967 2.10158-.057.0867-.1301.18862-.21875.30467-.13567.17763-.336.4156-.57813.69533-.0732.0846-.13347.15372-.21875.25-.18567.20967-.39732.44487-.64845.71875-.24895.2716-.52727.5758-.85155.92185-.0208.0222-.0493.0478-.0703.0703-.30893.3293-.64633.68875-1.03125 1.09375-1.64173 1.7272-4.01793 4.1819-7.47658 7.73438-1.7279 1.77475-3.7191 3.82182-6.03125 6.1875-4.62482 4.7319-10.50555 10.73615-17.99217 18.375-6.40123 6.53125-19.3818 19.80625-28.84375 29.5-9.46203 9.69375-18.46138 18.87452-20 20.40625-.1936.19265-.38488.38487-.57815.5703-.96623.92762-1.92635 1.76215-2.85935 2.4922-.55995.43802-1.11325.83737-1.64846 1.1953-.1784.1194-.35629.23387-.53125.34375-.34992.21987-.68937.42077-1.02345.60157-.1669.0904-.32972.17758-.49217.25783-.16253.0802-.32673.15667-.48438.22655-.31532.13975-.62034.25487-.91404.35155-.48258.15885-.96228.29022-1.4375.39065-.4753.10037-.94418.169-1.41408.21092-.78385.0697-1.55985.0615-2.33592-.0312-.3103-.037-.6197-.0854-.92971-.14842-.1551-.0316-.31362-.0713-.46875-.1094-.31012-.076-.61889-.16358-.9297-.2656-.13407-.044-.73882-.31805-1.71875-.78125-1.95995-.92638-5.41485-2.6-9.5781-4.63283-2.08157-1.01645-4.3422-2.1229-6.6797-3.27342-15.69774-7.72665-29.96041-14.73407-54.25-26.66408-1.22396-.60115-2.3156-1.13962-3.28906-1.625-1.94692-.97075-3.42369-1.73112-4.5625-2.35937-.2847-.15705-.54477-.30338-.78906-.4453-.48847-.28428-.90674-.5425-1.25781-.78125-.35108-.23888-.6368-.45843-.88282-.6719-.12156-.10523-.23411-.21755-.33593-.3203-.10143-.10273-.2034-.20203-.28907-.3047-.001-.003.001-.005 0-.008-.25994-.31218-.45336-.62778-.64062-.98438-.11087-.21112-.19976-.42742-.26563-.65625-.0651-.22625-.11198-.4667-.13281-.71092-.00021-.002.00021-.005 0-.008-.0206-.24703-.017-.49935.008-.76563.0124-.13334.0309-.26792.0547-.40625.0476-.27622.1176-.56257.21094-.85937.0926-.29515.21371-.60565.35156-.92188.001-.003-.001-.005 0-.008.13862-.31637.30027-.64604.48437-.9844.0916-.1684.19399-.34157.29688-.5156.001-.003-.001-.005 0-.008.20838-.35222.44052-.71029.69531-1.08592.21631-.319.39684-.58307.70313-.96095.001-.003-.001-.005 0-.008 1.33868-1.64982 5.1524-5.55292 25.50781-26.3672 31.04268-31.74248 50.83197-51.96748 54.62502-55.83595.37675-.38423.74613-.75485 1.10155-1.10935 4.26275-4.25188 7.04458-6.4062 9.76563-7.46875.4536-.1771.91067-.32427 1.36715-.44533.22835-.0606.45607-.1158.6875-.16407.13357-.0278.26697-.0561.40625-.0781.0413-.007.0833-.01.125-.0158.131-.0193.26345-.0326.39847-.0468.1076-.0115.21823-.023.32813-.0312.0881-.007.17622-.0115.26562-.0158.13388-.007.26978-.013.40625-.0155zm104.75 60.36717c.75997-.006 1.47495.15431 2.14062.47658 2.10075 1.01695 3.34283 2.71163 8.32813 11.3828 7.50988 13.06225 9.96495 17.34272 18.60937 32.375 26.31263 45.75643 24.48378 42.50477 24.94533 44.21875 1.2015 4.46213.59943 7.59352-2.26565 11.8125-1.30912 1.92787-2.18455 2.84672-22.46875 23.59375-66.0881 67.59615-64.2018 65.71575-67.49218 67.375-1.59985.80678-3.62855.91448-4.89842.26562-2.39952-1.22597-3.02888-2.18007-14.0625-21.39062-20.8637-36.32547-24.22697-42.18398-30.69533-53.39845-3.73087-6.46835-6.81102-12.09128-7.11717-13-1.44227-4.28008-.70815-7.98883 2.46875-12.47655.6326-.89375 9.2476-9.89375 19.14842-20 21.24833-21.6892 47.94741-48.96433 58.67968-59.95313 4.2057-4.30617 8.25205-8.29167 8.9922-8.85157 2.1209-1.60428 4.01553-2.41518 5.6875-2.42968zm406.40625 24.38283c2.43348-.0264 3.43702.40075 5.28905 2.24217 1.41892 1.41073 1.82717 2.15508 5.21095 9.47658 1.27382 2.7561 10.15965 21.8828 19.7422 42.5078 9.58248 20.625 17.59308 38.1724 17.80467 38.9922.54813 2.12347.3552 5.39185-.40625 6.8828-.92182 1.80493-2.26447 3.4341-4.14062 5.03125-1.84727 1.57255-4.48262 3.23727-31.25 19.71875-83.18533 51.21973-78.40292 48.3556-82.0703 49.1328-1.9936.42242-2.0828.42445-3.63283.008-1.60895-.43248-3.052-1.48367-4.32032-3.14843-.97983-1.28622-2.8567-5.25317-23.48435-49.7422-1.81695-3.91875-6.64548-14.325-10.7344-23.125-5.43215-11.69107-7.5333-16.47127-7.80468-17.75-.78525-3.69997.18601-6.65329 3.22658-9.78905 2.16815-2.23609 3.2879-2.99815 14.5703-9.89845 8.30118-5.07697 79.78498-49.07585 90.58595-55.7578 6.123-3.78795 8.40873-4.7487 11.41405-4.78125zm-612.28125 33.375c.65602 0 1.51283.19308 2.40625.5703.75625.31933 19.23507 9.37098 41.0625 20.1172 21.82742 10.74618 39.75923 19.53905 39.85155 19.53905.0925 0 1.41365.82877 2.9375 1.84375 2.98025 1.98495 5.92227 4.82597 7.94532 7.66405.63898.8964 3.15751 5.11515 5.59375 9.375 7.20248 12.59383 38.73428 67.41032 41.19533 71.6172 3.58485 6.12833 4.20598 7.64982 3.53125 8.6797-.3666.55943-1.2219.72002-2.1172.39842-2.41465-.86737-7.3502-3.23412-28.125-13.46092-13.3375-6.56565-27.4-13.47905-31.25-15.3672-26.30993-12.90305-26.80163-13.18332-30.75-17.28905-3.5492-3.69068-2.75075-2.38905-21.25781-34.58595-6.16483-10.725-15.41628-26.8125-20.55469-35.75-11.72742-20.39807-12.47669-21.89847-11.5625-23 .19794-.2385.58351-.3516 1.09375-.35155zm302.09375 77.0703c-.22413.004-.47263.0168-.73438.0312-.17847.01-.36275.0243-.55467.039-.14205.011-.2819.018-.4297.0312-.2254.0205-.45268.0441-.6875.0703-.088.01-.1768.0285-.26563.0391-.18515.022-.36755.0372-.55467.0625-.3634.049-.72775.10348-1.08595.16405-2.52943.42775-27.62192 6.2001-29.75 6.84375-3.39457 1.0267-5.77112 2.58388-7.8828 5.70312-.1242.18345-.2447.36806-.3672.5625v.008c-.12133.1927-.24723.38978-.3672.59375v.008c-.0433.0737-.0896.15145-.1328.22655-.19813.34485-.39013.70058-.58595 1.07815-.11928.23001-.24058.46043-.35935.7031-.71423 1.458-1.42005 3.14808-2.15625 5.1172-.24503.65538-.48983 1.33595-.7422 2.0547-.25353.72171-.51003 1.46875-.77345 2.2578-.2724.81608-.72223 2.21248-1.29685 4.03905-1.72395 5.47988-4.59173 14.82345-7.33595 23.89845-3.65895 12.1-7.8849 26.05-9.3828 31-5.59593 18.49193-9.70895 32.06978-12.7344 42.1328-2.26923 7.54758-3.92445 13.11675-5.1328 17.3047-.80543 2.79173-1.41108 4.96598-1.8672 6.70313-.1147.43675-.22378.84255-.3203 1.22657-.096.38206-.17833.73496-.2578 1.0703-.1599.67373-.28795 1.25485-.39065 1.77345-.0511.25833-.0936.49848-.1328.72655-.11852.6876-.18833 1.24553-.22655 1.7578-.0128.17018-.0245.3304-.0312.4922-.0351.81213-.004 1.54783-.008 2.5625l-.0155 4.0078.8203 1.66408c.14308.2908.30248.5813.4844.86717.0909.14303.18878.28038.28905.4219.002.003-.002.006 0 .008.0992.13978.20435.27598.3125.41405.11075.14145.2238.28235.34375.4219.11842.13788.23998.27038.3672.40625.25573.27301.53033.54118.8203.80468.14412.1311.28523.26215.4375.39062.002.003.006-.003.008 0 .15082.12713.30237.25065.46095.375.16307.1279.3289.25023.5.375.16795.12261.33233.24783.5078.3672h.008c.17377.11811.3503.23678.53125.35155.18467.11716.37057.23028.5625.34375.18995.11235.38127.21958.57812.32813.19883.10968.39593.21465.60155.32032.32425.16651.61838.32156.90625.46875h.008c.28568.14598.56003.28848.85158.42968.29552.14323.60135.2847.9453.4375.34152.15175.71692.3087 1.14845.48437.4332.17643.91767.37076 1.48435.58595.56357.21401 1.19982.44408 1.9375.71093.74025.26775 1.5728.56287 2.53125.89842.95397.33408 2.0221.7093 3.2344 1.125h.008c2.42345.83108 5.40985 1.84235 9.1172 3.08595 11.13147 3.73403 28.80367 9.58603 57.5703 19.1172 19.3348 6.40611 31.6039 10.46925 39.6797 13.10155h.008c6.72502 2.192 10.54427 3.39285 13.10155 4.125 1.02332.29298 1.84312.51026 2.57033.6875 1.09082.26588 1.97077.4376 2.99217.6328.1437.0275.30095.0545.46875.0782.0678.01.14717.0148.21875.0235.0794.01.15818.0222.2422.0312.0444.005.0871.011.1328.0155.17832.0177.36518.0325.5625.0469.2003.0148.42142.028.64065.0391h.0468c.238.0113.4833.0242.7422.0312.008.00022.0152 0 .0235 0 .14678.004.29985.005.4531.008.38132.006.77588.0103 1.19532.008.29796-.003.60581-.01.92188-.0155l3.875-.0703 12.75-2.92967c18.88558-4.33155 19.25987-4.4386 22.1953-6.57816.22052-.1607.44645-.34875.6797-.5625.11785-.10799.23185-.224.35155-.34375.237-.23662.47957-.49045.71875-.76559.23907-.27523.4767-.57085.71095-.875.23425-.30423.46502-.61403.6875-.9375.33395-.48525.64977-.99053.9375-1.49221.1917-.33447.36883-.67025.53125-1 .1625-.32975.3113-.65335.4375-.96875l.39062-.9922c-.41247.97403-.81685 1.85268-1.23437 2.64845-.22372.18758-.45372.37441-.67188.55471.13583-.23158.27168-.46501.40625-.71096l.82033-1.5-.7344.65625c-.23418.21073-.43853.37698-.66405.53125-.0528.0361-.10805.0752-.16405.10938-.0261.016-.0511.0312-.0782.0469-.005.003-.0105.005-.0155.008-.081.0463-.1658.0885-.25783.13283-.0982.0473-.20515.0941-.32032.14062-.11803.0477-.24983.1-.3906.14846-1.01247.34857-2.66917.74045-5.90625 1.47654-.003 0-.005 0-.008 0-3.26492.74238-9.68303 2.20435-14.27342 3.25-2.29643.5231-4.43983.9889-6.04691 1.3203-.80352.16573-1.47507.29511-1.96092.38283-.24317.0441-.44042.0808-.58592.10158-.14535.0205-.23783.0286-.27345.0235-.0398-.006-.0796-.0138-.11721-.0235-.0381-.01-.0735-.0254-.10934-.0391-.0356-.0135-.0682-.0294-.10158-.0469-.0329-.0175-.0628-.0336-.0937-.0547-.0397-.027-.0811-.0605-.11717-.0937-.003 0-.007 0-.008 0-.0388-.0362-.067-.0737-.10158-.11717-.0332-.0412-.0645-.085-.0937-.13283-.009-.0142-.015-.0321-.0235-.0468-.005-.008-.0113-.0153-.0155-.0235-.0356-.066-.0726-.13396-.10155-.21096 0-.003 0-.005 0-.008-.0291-.078-.0479-.16082-.0703-.25-.0113-.0444-.0215-.0935-.0312-.14062-.005-.0258-.011-.0515-.0155-.0781-.009-.0515-.0237-.10162-.0312-.15625-.0225-.16897-.0265-.35627-.0312-.5547-.002-.0661-.008-.13377-.008-.20309 0-.0741.005-.14881.008-.22658.006-.1743.0138-.35393.0312-.54688.009-.10054.0313-.23644.0547-.39062.005-.0366.009-.0779.0155-.11717.0113-.0702.0248-.16058.0391-.24221.0122-.0708.033-.1733.0469-.25.0656-.36265.14762-.7807.2422-1.2422.009-.0438.0148-.0895.0235-.1328.0319-.16147.0651-.31937.10157-.4922.0261-.12347.0581-.25082.0859-.375.043-.19949.0879-.40589.13282-.60934.0637-.28968.1216-.56213.1875-.85158.11108-.48748.2196-.96375.3281-1.41408.10853-.45022.21715-.87545.3125-1.24217.0993-.38185.18373-.67435.25783-.91408.0717-.23687.12665-.4004.16407-.46092.0197-.0321.14115-.39702.33593-1.01563.13455-.42992.31695-1.02144.5625-1.82029.6548-2.13035 1.75337-5.73878 3.5625-11.70316 3.61825-11.9287 10.07982-33.28552 21.51562-71.10155 3.78385-12.5125 7.6116-25.23077 8.5078-28.26562.3304-1.1187.6427-2.16188.94533-3.13283v-.008c.0479-.15374.0933-.29512.14062-.44529.1061-.33703.20883-.64126.3125-.96096.098-.30412.18583-.58627.28125-.875.046-.139.0952-.28634.14063-.42187 0-.003 0-.005 0-.008.13917-.41525.27977-.81197.41407-1.1953 0-.003 0-.005 0-.008.13413-.38302.2686-.74915.39843-1.10157 0-.003 0-.005 0-.008.12995-.35266.25657-.69133.38282-1.0156.12805-.32848.25805-.63783.3828-.9375.12325-.296.23998-.57443.35938-.84375.22092-.49385.43375-.9409.64842-1.35158.013-.0247.0262-.046.0391-.0703.0491-.0929.0996-.17673.14842-.2656.0342-.0619.0675-.12735.10158-.1875.0408-.072.0843-.14955.125-.21875 0-.002 0-.006 0-.008.11627-.19773.23565-.37838.35157-.55468 0-.003-.003-.006 0-.008.114-.17332.229-.33732.34375-.49217.002-.003-.003-.006 0-.008.1147-.15463.23665-.2939.35155-.42968.002-.002-.003-.006 0-.008.11678-.13777.2335-.26222.35155-.38282.12908-.13203.2433-.24013.35158-.34375.0905-.0865.17717-.17068.26562-.24218.0122-.0103.0265-.0213.039-.0312.007-.006.0168-.009.0235-.0155.002-.003-.003-.007 0-.008.0437-.0335.087-.0629.1328-.0937.0108-.008.0205-.0163.0312-.0235.0423-.0276.0875-.0521.13283-.0781.0145-.009.0318-.0153.0469-.0235.0521-.0284.10645-.0589.16405-.086.0127-.006.0265-.009.0391-.0155.003-.002.005-.006.008-.008.007-.004.016-.005.0235-.008.066-.0294.12802-.0573.20312-.086.0836-.0318.1762-.0619.27345-.0937.0752-.0248.1574-.053.24218-.0781.0222-.007.0471-.009.0703-.0158.0135-.004.0254-.0118.039-.0155.0103-.003.021-.005.0312-.008.21248-.0603.44683-.11893.72655-.1875.36675-.0899.82328-.19685 1.33595-.3125.23568-.0525.8308-.1839 1.125-.25.98198-.2188 3.00818-.67833 5.14063-1.16408.30132-.0686.6658-.1557.97657-.22655 2.37198-.54115 5.096-1.15907 7.7031-1.7578.3941-.0904.65963-.1533 1.0469-.2422.2699-.062.49995-.119.7656-.1797.2149-.0491.39765-.0926.6094-.1406.89463-.20325 1.71053-.38062 2.53125-.5625 1.2247-.27142 2.33968-.5129 3.3125-.71875.87363-.18487 1.58918-.3377 2.17968-.45315.093-.0183.2194-.046.30467-.0625.277-.053.53413-.10172.71875-.1328.022-.004.0263-.004.0469-.008.10953-.0182.17905-.0222.25-.0312.0434-.006.11865-.021.14843-.0235.0172-.002.0192 0 .0312 0 .0213 0 .0475-.003.0547 0 .18198.0698.47533.47665.65625.90625l.32815.78125.0859-.45312.10937.86717.14063-.53905c.0604-.22932.11122-.51052.15625-.84375.0227-.1666.0436-.34642.0625-.53905.0561-.5779.095-1.2734.11717-2.08595.015-.5417.0235-1.13495.0235-1.78125 0-1.91762 0-2.89205-.10155-3.59375v-.008c-.0127-.0878-.0308-.16932-.0469-.25-.0319-.16135-.0697-.31195-.11717-.46095-.11913-.37257-.28865-.73695-.53908-1.26562-.1874-.3957-.40722-.78433-.65625-1.16408-.2476-.3781-.52927-.74882-.83592-1.10935-.002-.002.003-.006 0-.008-.20428-.23995-.42645-.4716-.65625-.70312-.1169-.1178-.23595-.23608-.35938-.35155-.7334-.68648-1.5763-1.32415-2.53125-1.9219-.15882-.0995-.3197-.20008-.48437-.29685-.92528-.54378-1.55555-.89163-2.02343-1.08595-.0777-.0326-.14972-.062-.21875-.0859-.34592-.11928-.5845-.13788-.7969-.0625-.0697.0247-.13777.0582-.2031.10157-.0469.0308-.0938.0696-.14065.10938-.006.005-.01.0108-.0155.0155-.0426.0371-.0809.0731-.125.11717-.28692.28693-.70477.52345-.9297.52345-.2249 0-6.60927 1.43438-14.1875 3.1875-1.97772.45753-3.71297.85463-5.2422 1.20313-.76457.17425-1.481.33565-2.14842.48437-.23545.0524-.50238.11473-.72658.16405-.38602.085-.78635.1741-1.1406.25-.0997.0215-.20737.0418-.3047.0625-.45912.0975-.91152.19123-1.3203.27345-.40787.0821-.77752.15125-1.14065.21875-.35617.0662-.69742.1269-1.0156.1797-.0563.009-.12452.0222-.1797.0312-.02.003-.0427.005-.0625.008-.31805.0509-.60605.0953-.89062.1328-.0873.0115-.18898.0288-.27343.0391-.0395.005-.0861.011-.125.0155-.0213.002-.0413.005-.0625.008-.30675.0349-.60037.0593-.875.0781-.29432.0203-.56885.0285-.83595.0312-.19765.003-.3906-.00008-.57812-.008-.0969-.004-.194-.01-.28908-.0155-.18235-.0113-.36062-.0275-.53905-.0469-.0622-.007-.1255-.0158-.1875-.0235-.21295-.0263-.43287-.0569-.64845-.0937-.18132-.0313-.3671-.0633-.55467-.10157-.0307-.006-.0628-.017-.0937-.0235-.0767-.016-.1561-.0298-.23438-.0469-.21807-.0476-.4374-.10068-.67187-.15625-.28088-.0665-.57703-.134-.89063-.21093-1.5125-.37097-14.61875-4.6157-29.125-9.42967-43.62042-14.4757-69.08305-22.9091-84.375-27.95315-1.3318-.43925-2.50042-.8305-3.66405-1.21875-.39865-.13295-.73747-.2477-1.1172-.375-1.4542-.4873-2.77027-.93465-3.96095-1.34375-1.78597-.6136-3.2884-1.14205-4.53905-1.60155-.41687-.15318-.80935-.2995-1.17187-.4375-.72505-.276-1.34423-.52105-1.86718-.7422-.26152-.11053-.49615-.21415-.71095-.3125-.0575-.0263-.10195-.0448-.15625-.0703-.15265-.0716-.29385-.13783-.42187-.20313-.1707-.0871-.32398-.17325-.45313-.25-.1256-.0747-.23165-.14512-.3203-.21092-.11627-.0863-.20032-.16148-.25782-.2344-.008-.0105-.009-.021-.0155-.0312-.0238-.0335-.0428-.0628-.0547-.0937-.0327-.0853-.0303-.18053 0-.27343v-.008c.0102-.0295.023-.0565.0391-.0859v-.008c.0168-.0298.04-.0566.0625-.0859v-.008c.0233-.0297.0571-.0571.0859-.0859.061-.0599.13407-.11868.21875-.17188.0381-.024.16675-.071.375-.1328 1.45787-.4318 6.8586-1.73517 13.0547-3.14065 5.90537-1.33945 9.47802-2.14577 11.6172-2.64842 1.06952-.25133 1.7792-.4278 2.24217-.55468.15148-.0415.28038-.0772.38283-.1094.10332-.0326.1892-.0609.25-.0859.058-.024.0983-.0514.125-.0703.0132-.01.025-.0145.0312-.0235.006-.009.007-.023.008-.0312 0-.01-.002-.0145-.008-.0235-.005-.008-.007-.016-.0158-.0235-.0345-.0301-.10025-.0562-.15625-.0937-.0175-.0118-.043-.0213-.0703-.0312-.0233-.009-.0482-.024-.0781-.0312h-.0155c-.023-.005-.0594-.011-.0859-.0155-.11865-.0198-.26637-.0315-.4453-.0391-.17502-.008-.36962-.0115-.59375-.008zm-29.03125 22.92187c.81595.003 1.6543.0731 2.4922.21875 2.10905.36671 117.41763 38.55148 119.35155 39.52343 2.07447 1.04265 4.3563 2.82037 5.21095 4.0625 1.44938 2.10667 1.66242 2.9734 1.64842 6.6797l-.008 3.375-7.28905 24c-7.78113 25.6237-14.88076 49.08947-23.33595 77.125-2.882 9.55625-5.48663 18.0343-5.78125 18.84375-.72578 1.99442-2.59668 4.80348-4.0625 6.09375-.81663.71888-1.72698 1.2248-2.8203 1.5625-1.72433.53257-4.72518.63285-6.79688.22655-.6107-.11973-5.3357-1.61755-10.5-3.3281-12.0417-3.98857-46.62503-15.4512-80.3907-26.64845-17.93155-5.94638-27.12343-9.1132-28.4375-9.79688-2.48883-1.2948-4.71935-3.42499-5.625-5.36717-.64355-1.38008-.67832-1.65757-.66405-4.96095l.0155-3.5 2.0625-6.75c1.1358-3.7125 3.1662-10.40625 4.51565-14.875 8.09215-26.7986 27.03487-89.38568 28.28905-93.47655 2.27787-7.43007 4.1161-10.45002 7.32812-12.03125 1.3148-.64733 3.0018-.98257 4.79688-.97658z"/></svg>