<?xml version="1.0" encoding="UTF-8" standalone="no"?>
<!-- Created with Inkscape (http://www.inkscape.org/) -->

<svg
   xmlns:dc="http://purl.org/dc/elements/1.1/"
   xmlns:cc="http://creativecommons.org/ns#"
   xmlns:rdf="http://www.w3.org/1999/02/22-rdf-syntax-ns#"
   xmlns:svg="http://www.w3.org/2000/svg"
   xmlns="http://www.w3.org/2000/svg"
   xmlns:sodipodi="http://sodipodi.sourceforge.net/DTD/sodipodi-0.dtd"
   xmlns:inkscape="http://www.inkscape.org/namespaces/inkscape"
   id="svg2"
   version="1.1"
   inkscape:version="0.48.5 r10040"
   width="1024"
   height="1024"
   sodipodi:docname="heart-posterizedish3.svg">
  <metadata
     id="metadata8">
    <rdf:RDF>
      <cc:Work
         rdf:about="">
        <dc:format>image/svg+xml</dc:format>
        <dc:type
           rdf:resource="http://purl.org/dc/dcmitype/StillImage" />
        <dc:title></dc:title>
      </cc:Work>
    </rdf:RDF>
  </metadata>
  <defs
     id="defs6" />
  <sodipodi:namedview
     pagecolor="#ffffff"
     bordercolor="#666666"
     borderopacity="1"
     objecttolerance="10"
     gridtolerance="10"
     guidetolerance="10"
     inkscape:pageopacity="0"
     inkscape:pageshadow="2"
     inkscape:window-width="1280"
     inkscape:window-height="751"
     id="namedview4"
     showgrid="false"
     inkscape:zoom="0.32593203"
     inkscape:cx="759.80866"
     inkscape:cy="322.42871"
     inkscape:window-x="0"
     inkscape:window-y="0"
     inkscape:window-maximized="1"
     inkscape:current-layer="svg2"
     fit-margin-top="0"
     fit-margin-left="0"
     fit-margin-right="0"
     fit-margin-bottom="0">
    <inkscape:grid
       type="xygrid"
       id="grid4025"
       empspacing="5"
       visible="true"
       enabled="true"
       snapvisiblegridlinesonly="true"
       originx="0px"
       originy="0px" />
  </sodipodi:namedview>
  <path
     inkscape:connector-curvature="0"
     style="fill:#0000ff;fill-opacity:1"
     d="m 536.64845,218.84375 c -0.90188,0.0285 -3.30245,0.92487 -11.77345,4.34375 l -11,4.4375 -0.0703,0.875 c -0.0538,0.64595 0.1603,1.26512 0.8203,2.35937 1.09433,1.81438 3.9894,5.44218 6.4375,8.0625 1.64188,1.7574 8.68722,9.58148 40.9297,45.45313 28.0987,31.26148 32.4562,36.11137 36.25,40.375 5.57613,6.2668 7.49348,8.29942 9.85155,10.45312 2.394,2.18651 3.87095,3.10508 4.96875,3.07813 0.4457,-0.011 5.7626,-2.01745 11.8125,-4.46095 10.6805,-4.31363 11.00347,-4.46883 11.125,-5.17968 l 0.125,-0.72657 0.0781,0.1172 0.58593,0.875 c 0.2441,0.36892 0.46662,0.7309 0.6797,1.09375 l -0.039,-0.5703 c -0.37003,-0.5963 -0.77683,-1.20572 -1.22658,-1.83595 -0.23235,-0.3256 -0.47285,-0.65643 -0.72657,-0.9922 -3.48483,-4.61118 -5.22938,-6.5864 -33.21093,-37.71875 -9.0161,-10.03125 -24.98204,-27.80633 -35.48437,-39.49999 -2.08168,-2.31781 -3.95765,-4.4031 -5.78125,-6.42187 -0.37648,-0.41683 -0.68875,-0.7595 -1.0547,-1.16407 -1.4488,-1.60185 -2.70967,-2.9895 -4,-4.40625 -0.14588,-0.16028 -0.2622,-0.28731 -0.40625,-0.44531 -1.00505,-1.10272 -2.02508,-2.21713 -2.9375,-3.21094 -0.34083,-0.37128 -0.69505,-0.76844 -1.02343,-1.125 -0.82812,-0.89922 -1.54562,-1.66833 -2.29687,-2.47656 -0.50888,-0.54762 -0.97777,-1.04695 -1.45313,-1.55469 -0.22664,-0.24213 -0.42922,-0.46204 -0.64842,-0.69531 -0.1038,-0.11044 -0.19472,-0.20401 -0.2969,-0.3125 -0.55925,-0.594 -1.0979,-1.15868 -1.60935,-1.69531 -0.53892,-0.5654 -1.05072,-1.10495 -1.53908,-1.60938 -0.0542,-0.056 -0.1105,-0.11664 -0.16407,-0.17187 -0.1024,-0.10566 -0.18875,-0.19387 -0.28905,-0.29688 -0.43163,-0.44338 -0.84195,-0.86217 -1.23438,-1.25781 -0.008,-0.008 -0.0153,-0.0151 -0.0235,-0.0234 -0.47617,-0.47983 -0.91437,-0.91532 -1.33595,-1.32813 -0.0976,-0.0956 -0.1786,-0.17344 -0.27345,-0.26562 -0.30317,-0.29469 -0.59165,-0.57566 -0.86717,-0.83594 -0.0177,-0.0169 -0.037,-0.0302 -0.0547,-0.0469 -0.0666,-0.0628 -0.1254,-0.11393 -0.1875,-0.17187 l -2.164,-0.9922 c -0.0978,-0.003 -0.20227,-0.01 -0.32812,-0.0234 -0.0481,-0.005 -0.10395,-0.01 -0.16405,-0.008 z M 638.17187,342.4375 c -0.0947,0.16298 -0.18757,0.3248 -0.28907,0.4922 l 0.28907,-0.0547 0,-0.4375 z m 79.92188,212.21875 c -2.22348,0.0482 -4.79295,0.89088 -7.96875,2.5625 -1.89645,0.99823 -79.31885,48.53462 -100.125,61.47655 -8.63053,5.36847 -10.8066,7.1727 -12.04688,9.97657 -0.61689,1.39458 -0.53615,3.15748 0.21875,4.82813 0.33013,0.7306 9.34323,11.28908 25.70313,30.1172 13.8554,15.94578 25.9797,29.92062 26.9453,31.05467 1.96687,2.30988 2.97007,3.09555 5.09375,3.96875 1.7004,0.69916 3.48615,0.77248 5.7344,0.24218 2.2788,-0.53745 5.35943,-1.98358 8.71875,-4.08593 3.73575,-2.33799 47.9439,-29.56232 79.1328,-48.73437 12.85625,-7.90283 23.8223,-14.66828 24.3672,-15.03125 1.69045,-1.12613 4.4007,-3.83125 5.15625,-5.14845 1.34055,-2.33713 0.80438,-5.21803 -1.46095,-7.85155 -2.2253,-2.587 -36.8899,-42.51215 -48.35155,-55.6875 -4.61627,-5.30643 -5.28072,-5.92038 -7.4375,-6.9297 -1.13852,-0.53273 -2.34563,-0.78673 -3.6797,-0.7578 z m -540.5,122.1172 c -0.51024,-5e-5 -0.89581,0.11305 -1.09375,0.35155 -0.91419,1.10153 -0.16492,2.60193 11.5625,23 5.13841,8.9375 14.38986,25.025 20.55469,35.75 18.50706,32.1969 17.70861,30.89527 21.25781,34.58595 3.94837,4.10573 4.44007,4.386 30.75,17.28905 3.85,1.88815 17.9125,8.80155 31.25,15.3672 20.7748,10.2268 25.71035,12.59355 28.125,13.46092 0.8953,0.3216 1.75063,0.161 2.1172,-0.39842 0.67478,-1.02982 0.0536,-2.55137 -3.53125,-8.6797 -2.46102,-4.20687 -33.99285,-59.02337 -41.19533,-71.6172 -2.43624,-4.25985 -4.95477,-8.4786 -5.59375,-9.375 -2.02305,-2.8381 -4.96507,-5.6791 -7.94532,-7.66405 -1.5239,-1.01498 -2.84508,-1.84375 -2.9375,-1.84375 -0.0924,0 -18.02413,-8.79287 -39.85155,-19.53905 -21.82743,-10.74622 -40.30625,-19.79787 -41.0625,-20.1172 -0.89342,-0.37722 -1.75023,-0.5703 -2.40625,-0.5703 z M 629.10937,815.6875 c -0.71302,0.0616 -5.39187,1.0539 -10.86717,2.3125 -5.84035,1.34248 -12.5297,2.8698 -14.8672,3.39062 -4.21673,0.9395 -4.26058,0.95533 -5.3047,2.02343 -1.8903,1.93387 -3.57053,5.97772 -6.21875,14.94532 -0.8962,3.03485 -4.72395,15.75313 -8.5078,28.26563 -22.87158,75.63207 -25.8411,85.42142 -25.97655,85.64062 -0.29932,0.48425 -1.86655,7.3537 -1.9922,8.73438 -0.16662,1.83092 0.1815,2.8303 1.03125,2.95312 0.28498,0.0412 4.27435,-0.78192 8.8672,-1.82812 4.5928,-1.0462 11.01793,-2.50798 14.28125,-3.25 6.2667,-1.425 6.64105,-1.55372 7.79685,-2.59375 l 0.7344,-0.65625 -0.82033,1.5 c -0.13457,0.24595 -0.27042,0.47937 -0.40625,0.71095 0.21816,-0.1803 0.44816,-0.36712 0.67188,-0.5547 0.53205,-1.01405 1.04735,-2.15612 1.57812,-3.46875 2.43323,-6.01745 2.01868,-4.67207 22.72658,-73.1875 13.37175,-44.24288 17.35985,-57.28752 18.53905,-62.8047 l -0.10938,-0.89843 -0.0859,0.45313 -0.32815,-0.78125 c -0.18095,-0.4296 -0.47428,-0.83642 -0.65625,-0.90625 -0.0113,-0.004 -0.0384,-0.004 -0.0859,0 z"
     id="path3063" />
  <path
     style="fill:#ffffff;fill-opacity:1;stroke:none"
     d="m 229.1875,168.3782 c -0.88535,0.0125 -4.006,1.2068 -16.47656,6.2578 -8.71131,3.52838 -18.75605,7.59611 -22.32032,9.03908 -3.56427,1.44297 -6.68844,2.7558 -6.94531,2.91407 -0.25687,0.15828 -0.75915,0.88 -1.11719,1.60935 -0.58924,1.20041 -0.63259,1.50858 -0.49218,3.25 0.29231,3.6256 1.07244,5.9811 9.17968,27.71875 2.76029,7.40108 6.79669,18.2422 8.97657,24.08595 2.17987,5.84375 6.79673,18.21875 10.25781,27.5 18.3144,49.11202 18.67962,50.02708 20.82812,52.72655 1.13867,1.4307 2.52923,2.264 3.77344,2.26565 0.70552,0 7.06311,-2.46073 22.99999,-8.91408 12.11375,-4.90522 22.2677,-9.0798 22.57032,-9.27342 0.30263,-0.19368 0.80048,-0.85463 1.10158,-1.47658 0.4845,-1.00082 0.52945,-1.3987 0.39842,-3.42187 -0.1791,-2.76578 -0.97482,-5.70375 -2.90625,-10.7422 -0.80017,-2.08735 -7.32627,-19.53905 -14.50782,-38.78905 -7.18158,-19.25 -15.13719,-40.56875 -17.67968,-47.375 -2.54248,-6.80625 -5.96856,-16.03125 -7.60937,-20.5 -4.77026,-12.99175 -6.62855,-16.15902 -9.88281,-16.85937 -0.0413,-0.009 -0.0894,-0.0165 -0.14844,-0.0155 z m 635.15625,171.66405 c -4.59735,-0.0383 -10.1701,1.7922 -18.10938,5.91408 -1.84857,0.95975 -18.09687,9.30612 -36.10937,18.54687 -18.0125,9.24075 -34.775,17.84135 -37.25,19.1172 -2.475,1.2758 -8.38125,4.3178 -13.125,6.7578 -9.87918,5.08145 -13.01058,6.77518 -15.125,8.1875 -2.86105,1.91105 -3.47545,2.82733 -2.27345,3.375 0.32912,0.14995 4.68848,0.79363 9.6875,1.4297 4.99902,0.63605 17.5797,2.25963 27.96095,3.60935 10.96585,1.42575 19.8702,2.46683 21.25,2.4844 1.6062,0.0205 3.05017,-0.13057 4.46095,-0.46875 2.77475,-0.66517 6.7113,-2.22927 10.39842,-4.125 1.65651,-0.8517 8.80938,-4.53117 15.89063,-8.1797 21.0924,-10.86755 76.22005,-39.16125 81.875,-42.02345 9.67448,-4.89657 11.52202,-6.64782 7.79687,-7.39842 -2.03767,-0.41058 -54.05314,-7.03663 -56.42187,-7.1875 -0.29825,-0.019 -0.59975,-0.0365 -0.90625,-0.0391 z M 590.10155,648.0032 c -0.70563,0 1.8995,6.22597 7.9922,19.09375 0.7721,1.6307 1.40625,2.99847 1.40625,3.03908 0,0.0406 1.25302,2.75459 2.78125,6.03125 1.5282,3.27662 3.48317,7.47967 4.34375,9.33592 0.8606,1.85625 1.92772,4.1625 2.375,5.125 0.44727,0.9625 1.2084,2.59375 1.6875,3.625 0.4791,1.03125 2.7285,5.86875 5,10.75 4.72817,10.1604 4.79557,10.31357 8.9922,19.375 10.02285,21.64162 11.15605,23.59392 19.15625,33 1.5203,1.7875 4.57483,5.3187 6.78125,7.85158 2.2064,2.53285 5.92842,6.80785 8.27342,9.5 2.34498,2.69212 9.47896,10.91717 15.85938,18.27342 20.32052,23.4283 21.0573,24.2344 21.9375,24.2422 0.17187,0.002 0.3125,-0.11665 0.3125,-0.26562 0,-0.42858 -1.3241,-3.58451 -2.875,-6.85158 -2.20547,-4.646 -31.9923,-68.75548 -36.16405,-77.83592 -5.84902,-12.73123 -7.76495,-15.87718 -13.96875,-22.91408 -4.327,-4.90805 -47.14733,-54.2454 -49.94533,-57.54688 -2.31245,-2.72855 -3.44692,-3.82812 -3.94532,-3.82812 z m -106.125,106.3047 c -0.6547,-0.003 -1.25015,0.0641 -1.85935,0.1875 -2.9117,0.58955 -28.69798,6.5275 -28.90625,6.65625 -0.48235,0.29808 -0.11568,0.6234 1.6328,1.45313 1.99785,0.94804 3.93852,1.60595 28.90625,9.85937 9.14375,3.0226 34.79375,11.5181 57,18.875 41.73347,13.82625 42.62458,14.10995 45.75,14.7578 3.45978,0.71712 4.17768,0.75375 6.03125,0.27345 1.53977,-0.399 17.1808,-3.9905 24.09375,-5.53125 2.2,-0.49035 4.09407,-0.98475 4.21095,-1.09375 0.44568,-0.4157 -0.89017,-1.2289 -3.9922,-2.4375 -3.94097,-1.53543 -13.46163,-4.72582 -70.21875,-23.52345 -47.73873,-15.81078 -51.58457,-17.06135 -56.6797,-18.40625 -2.80025,-0.73915 -4.52838,-1.06613 -5.96875,-1.0703 z"
     id="rect3957"
     inkscape:connector-curvature="0" />
  <path
     style="fill:#fdfd00;stroke:none"
     d="m 710.48437,92.429705 c 0.005,0.183325 0.0105,0.3832 0.0155,0.5703 0.31483,0.293675 0.5,0.5439 0.5,0.726575 0,0.171975 0.20633,0.53415 0.64845,1.125 0.44255,0.59055 1.11885,1.411225 2.0703,2.5 1.14111,1.30685 2.67688,2.9984 4.65625,5.14843 4.21468,4.57802 54.64248,60.01422 65.60938,72.12499 5.10515,5.63763 8.5741,9.4806 11.28125,12.33595 0.54132,0.57098 1.05187,1.095 1.53907,1.59375 4.87495,4.99105 7.38185,6.6893 14.49218,11.60938 11.11373,7.69025 19.69825,13.65005 25.30467,17.55467 0.8873,0.61795 2.05028,1.42238 2.76565,1.92188 1.74748,1.2201 2.96633,2.07552 3.59375,2.52345 0.71195,0.5083 1.45293,1.00795 2.0703,1.40625 0.30871,0.19912 0.58335,0.3726 0.8125,0.5078 0.003,0 0.006,0 0.008,0 0.1119,0.0659 0.21085,0.12575 0.2969,0.17187 0.0899,0.0482 0.16143,0.0855 0.21875,0.10938 0.12303,0.0514 0.26405,0.1429 0.41405,0.26562 0.15348,0.12558 0.31763,0.27898 0.4922,0.46875 0.003,0.002 -0.003,0.006 0,0.008 0.0671,0.0731 0.14135,0.15293 0.21093,0.23438 l 0.73437,0.26562 c -0.48159,-0.67017 -0.95534,-1.22875 -1.3828,-1.60937 -0.39094,-0.34808 -1.68245,-1.81058 -2.8672,-3.25 -2.7767,-3.37375 -5.69937,-6.60793 -44.6092,-49.36718 -36.22877,-39.81295 -38.01312,-41.74852 -41.51562,-44.9453 -3.63473,-3.31747 -5.4684,-4.64282 -26.25,-19.03125 -10.43315,-7.22355 -19.3625,-13.501695 -19.84375,-13.94532 -0.38408,-0.35405 -0.80398,-0.690925 -1.26563,-1.023425 z M 163.79687,322.89845 c -0.095,0.003 -0.19391,0.011 -0.29687,0.0235 l -0.0156,0 c -0.0985,0.0122 -0.19807,0.0342 -0.30468,0.0547 -0.0972,0.0188 -0.20008,0.0444 -0.30469,0.0703 -0.092,0.0228 -0.19089,0.0418 -0.28906,0.0703 -0.008,0.002 -0.0151,0.005 -0.0234,0.008 -0.15903,0.0468 -0.3233,0.10165 -0.5,0.16405 -0.17031,0.0602 -0.35071,0.12782 -0.53906,0.20315 -0.0703,0.0281 -0.14574,0.0634 -0.21875,0.0937 -0.0826,0.0342 -0.1639,0.0644 -0.25,0.10154 -0.0587,0.0253 -0.11151,0.0437 -0.17188,0.0703 -0.11072,0.0488 -0.21934,0.10295 -0.33593,0.15625 -0.31192,0.14265 -0.65857,0.3078 -1.01563,0.4844 -0.0325,0.016 -0.0608,0.0305 -0.0937,0.0469 -0.1267,0.0631 -0.26576,0.13575 -0.39844,0.20315 -0.27422,0.13925 -0.55833,0.28693 -0.85937,0.4453 -0.28712,0.15105 -0.60102,0.31535 -0.91406,0.48438 -0.20478,0.11057 -0.37732,0.20177 -0.59375,0.32032 -0.13815,0.0756 -0.2554,0.13985 -0.39844,0.21875 -0.59866,0.33 -1.20853,0.6724 -1.89844,1.0625 -2.16614,1.22463 -8.18227,4.6537 -16.03125,9.1406 -19.62244,11.2179 -50.717045,29.03563 -61.898435,35.46875 -2.236278,1.2866 -3.678835,2.1195 -4.070313,2.35158 -4.138279,2.45335 -7.037645,4.70997 -9.125,7.24217 -0.0012,0.002 0.0012,0.006 0,0.008 -0.230532,0.27983 -0.46066,0.5645 -0.671875,0.85158 -0.212392,0.28862 -0.41536,0.5778 -0.609375,0.875 -0.97007,1.48587 -1.71513,3.08887 -2.3125,4.8828 -0.04292,0.1289 -0.160835,0.55305 -0.34375,1.2422 -0.914382,3.44492 -3.483997,13.51515 -6.742187,26.42185 -1.30424,5.16652 -2.715743,10.78305 -4.179688,16.6172 -1.370942,5.4635 -2.572655,10.256 -3.625,14.46095 -1.052252,4.20488 -1.95429,7.81928 -2.726562,10.9375 -5e-4,0.002 5e-4,0.006 0,0.008 -0.385365,1.556 -0.739655,2.98725 -1.0625,4.3047 -0.971325,3.9624 -1.67083,6.89385 -2.164063,9.08593 -0.301542,1.34097 -0.517617,2.37285 -0.679687,3.22657 -0.01445,0.0761 -0.0334,0.17715 -0.04687,0.25 -0.206798,1.11563 -0.302398,1.84415 -0.320313,2.36718 -0.0035,0.1044 -0.0022,0.2002 0,0.28907 0.002,0.0915 0.0082,0.17195 0.01563,0.25 0.0218,0.22798 0.06037,0.4018 0.117188,0.5625 0.03786,0.1071 0.08541,0.20843 0.132812,0.3125 0.06834,0.14993 0.162815,0.2965 0.28125,0.42968 0.237908,0.26577 0.557485,0.48522 0.890625,0.60937 0.16657,0.0621 0.33643,0.10103 0.5,0.10938 0.091,0.005 0.389063,-0.0661 0.796875,-0.17968 0.407813,-0.11362 0.92538,-0.26835 1.453125,-0.44532 0.660588,-0.22155 1.949595,-0.82718 3.359375,-1.5625 0.56424,-0.2947 1.147378,-0.60963 1.71875,-0.92968 0.28561,-0.15992 0.568373,-0.32407 0.84375,-0.4844 5.318508,-3.09555 59.826198,-34.27557 73.749998,-42.1875 4.5375,-2.5783 8.99364,-5.15915 11.42969,-6.61717 0.81202,-0.486 1.39598,-0.84508 1.6875,-1.03908 0.98086,-0.65255 1.92832,-1.36987 2.79687,-2.10935 0.003,-0.002 0.005,-0.005 0.008,-0.008 0.58057,-0.4947 1.12651,-0.99645 1.63282,-1.50782 0.25178,-0.25428 0.49669,-0.5105 0.72656,-0.7656 0.001,-0.002 -0.001,-0.006 0,-0.008 0.34502,-0.38313 0.66421,-0.7618 0.95312,-1.14063 0.001,-0.002 -0.001,-0.006 0,-0.008 0.0966,-0.12682 0.19151,-0.24927 0.28125,-0.375 0.53877,-0.75502 0.94909,-1.3071 1.36719,-2.13282 0.001,-0.002 -0.001,-0.006 0,-0.008 0.0193,-0.0381 0.0432,-0.0778 0.0625,-0.11718 0.10001,-0.20385 0.20095,-0.42707 0.30469,-0.67187 0.31147,-0.73548 0.64955,-1.6805 1.0625,-3.02345 0.33036,-1.07433 0.71002,-2.40175 1.16406,-4.0703 0.22702,-0.83428 0.47446,-1.75638 0.74219,-2.77345 1.07093,-4.06818 2.49319,-9.6881 4.47656,-17.59375 0.99169,-3.9528 2.12376,-8.478 3.42188,-13.66405 5.32608,-21.27798 10.25968,-40.9375 10.96875,-43.6875 0.21361,-0.82845 0.40215,-1.58758 0.5625,-2.28125 0.40168,-1.7387 0.63676,-3.06685 0.70312,-4.08595 0.0135,-0.20365 0.0154,-0.3909 0.0156,-0.5703 8e-5,-0.18245 -0.002,-0.34903 -0.0156,-0.5078 -0.0131,-0.15655 -0.036,-0.29455 -0.0625,-0.4297 -0.0399,-0.20263 -0.0942,-0.38053 -0.16406,-0.53905 -0.001,-0.002 0.001,-0.006 0,-0.008 -0.0232,-0.0529 -0.0437,-0.1001 -0.0703,-0.14843 -0.0799,-0.14497 -0.17915,-0.2676 -0.28907,-0.375 -0.0718,-0.0702 -0.14975,-0.13942 -0.23437,-0.19532 l -0.008,0 c -0.12991,-0.0851 -0.26978,-0.15523 -0.42969,-0.21093 -0.0686,-0.024 -0.13862,-0.045 -0.21094,-0.0625 -0.0233,-0.006 -0.0466,-0.0108 -0.0703,-0.0158 -0.0172,-0.003 -0.0373,-0.005 -0.0547,-0.008 -0.0818,-0.0152 -0.17004,-0.0242 -0.25781,-0.0312 -0.10644,-0.009 -0.21125,-0.012 -0.32812,-0.008 z m 472.69533,23.34375 -1.07033,0.25 c -1.19382,0.67818 -3.86429,1.745 -11.22657,4.67967 -6.36203,2.53596 -12.0203,4.87238 -12.5703,5.19533 -2.02548,1.1891 -5.55393,4.2952 -17.77345,15.6406 -8.25905,7.66835 -69.82978,64.38925 -80.35155,74.02345 -5.88128,5.38515 -8.75,8.2366 -8.75,8.6953 0,0.1495 0.16957,0.27345 0.375,0.27345 0.2054,0 4.3108,-1.575 9.125,-3.5 4.8142,-1.925 8.83523,-3.49825 8.9375,-3.4922 0.0688,0.004 0.065,0.0332 0,0.086 l 3.35937,-1.3203 c 0.10288,-0.0731 0.21723,-0.15258 0.30468,-0.21875 0.67348,-0.50988 2.30467,-1.7343 3.625,-2.71875 4.1565,-3.09927 3.5914,-2.5875 48.89845,-44.32033 14.85,-13.67849 31.33125,-28.8587 36.625,-33.73437 5.29375,-4.8757 11.81052,-11.04573 14.48437,-13.70313 2.67386,-2.6574 4.94438,-4.82812 5.04688,-4.82812 0.11897,0 0.49285,-0.4086 0.96095,-1.0078 z M 278.71875,558.64845 c -0.13645,0.002 -0.27238,0.009 -0.40625,0.0155 -0.0894,0.004 -0.1775,0.009 -0.26563,0.0158 -0.10989,0.008 -0.22052,0.0197 -0.32812,0.0312 -0.135,0.0142 -0.2675,0.0277 -0.39845,0.0468 -0.0417,0.006 -0.0837,0.009 -0.125,0.0158 -0.13933,0.022 -0.27268,0.0503 -0.40625,0.0781 -0.23145,0.0483 -0.45918,0.10352 -0.6875,0.16407 -0.45655,0.12105 -0.91358,0.26823 -1.36718,0.44533 -2.72105,1.06258 -5.50285,3.21687 -9.76562,7.46875 -0.35543,0.3545 -0.7248,0.7251 -1.10155,1.10935 -3.79297,3.86847 -23.58233,24.09347 -54.62501,55.83595 -20.35541,20.81427 -24.16913,24.71737 -25.50781,26.3672 -10e-4,0.003 0.001,0.006 0,0.008 -0.30629,0.37787 -0.48682,0.64197 -0.70313,0.96095 -0.25479,0.37563 -0.48693,0.7337 -0.69531,1.08592 -0.001,0.003 0.001,0.006 0,0.008 -0.10289,0.17403 -0.2053,0.34716 -0.29688,0.5156 -0.1841,0.33835 -0.34575,0.66805 -0.48437,0.9844 -0.001,0.003 0.001,0.006 0,0.008 -0.13785,0.31623 -0.25898,0.62673 -0.35156,0.92188 -0.0933,0.2968 -0.16331,0.58315 -0.21094,0.85937 -0.0238,0.13833 -0.0423,0.2729 -0.0547,0.40625 -0.0248,0.26628 -0.0284,0.5186 -0.008,0.76563 2.1e-4,0.003 -2.1e-4,0.005 0,0.008 0.0208,0.24422 0.0677,0.48467 0.13281,0.71092 0.0659,0.22883 0.15476,0.44513 0.26563,0.65625 0.18726,0.3566 0.38068,0.6722 0.64062,0.98438 0.001,0.002 -0.001,0.006 0,0.008 0.0857,0.10267 0.18764,0.20197 0.28907,0.3047 0.10182,0.10275 0.21437,0.21507 0.33593,0.3203 0.24602,0.21345 0.53174,0.43305 0.88282,0.6719 0.35107,0.23877 0.76934,0.497 1.25781,0.78125 0.24429,0.14192 0.50436,0.28825 0.78906,0.4453 1.13881,0.62825 2.61558,1.38862 4.5625,2.35937 0.97346,0.48538 2.0651,1.02385 3.28906,1.625 24.28959,11.93 38.55226,18.93743 54.25,26.66408 2.3375,1.15052 4.59814,2.25697 6.67972,3.27342 4.16329,2.03283 7.61815,3.70648 9.5781,4.63283 0.97989,0.4632 1.58465,0.7372 1.71875,0.78125 0.31077,0.10202 0.61957,0.18957 0.9297,0.2656 0.15512,0.038 0.31365,0.0778 0.46875,0.1094 0.31,0.063 0.61945,0.1114 0.9297,0.14842 0.77612,0.0927 1.55207,0.101 2.33592,0.0312 0.4699,-0.0419 0.93878,-0.11055 1.41408,-0.21092 0.47525,-0.10043 0.95492,-0.2318 1.4375,-0.39065 0.29375,-0.0967 0.59872,-0.2118 0.91405,-0.35155 0.15765,-0.0699 0.32185,-0.1463 0.48437,-0.22655 0.16245,-0.0802 0.32528,-0.16745 0.49218,-0.25783 0.33405,-0.1808 0.67352,-0.3817 1.02345,-0.60157 0.17495,-0.1099 0.35285,-0.2244 0.53125,-0.34375 0.5352,-0.35793 1.08855,-0.75728 1.64845,-1.1953 0.93305,-0.73005 1.8931,-1.56463 2.85935,-2.4922 0.19325,-0.18545 0.38457,-0.37765 0.57815,-0.5703 1.53865,-1.53173 10.538,-10.7125 20,-20.40625 9.46195,-9.69375 22.44252,-22.96875 28.84375,-29.5 7.48667,-7.63885 13.36735,-13.6431 17.99217,-18.375 2.31215,-2.36568 4.30335,-4.41275 6.03125,-6.1875 3.45865,-3.55248 5.8349,-6.00718 7.47658,-7.73438 0.38495,-0.405 0.72235,-0.76445 1.03125,-1.09375 0.021,-0.0225 0.0496,-0.0482 0.0703,-0.0703 0.32427,-0.34608 0.60255,-0.65023 0.85155,-0.92185 0.25107,-0.27388 0.46277,-0.50905 0.64845,-0.71875 0.0853,-0.0963 0.1455,-0.16545 0.21875,-0.25 0.24212,-0.27973 0.44245,-0.5177 0.57812,-0.69533 0.0887,-0.11605 0.16178,-0.21795 0.21875,-0.30467 0.4962,-0.7555 0.88705,-1.44963 1.17968,-2.10158 0.0213,-0.0473 0.0345,-0.0938 0.0547,-0.14062 0.25622,-0.59445 0.43667,-1.15368 0.52345,-1.6797 0.0704,-0.42678 0.0864,-0.83445 0.0469,-1.22655 -0.0263,-0.2614 -0.0816,-0.51625 -0.15625,-0.76563 -0.0736,-0.2462 -0.16878,-0.4894 -0.28905,-0.72657 -0.002,-0.003 -0.006,-0.005 -0.008,-0.008 -0.0612,-0.12005 -0.12223,-0.23333 -0.19533,-0.35155 -0.077,-0.1246 -0.13872,-0.24005 -0.19532,-0.34375 -0.002,-0.003 -0.006,-0.005 -0.008,-0.008 -0.0273,-0.0499 -0.0498,-0.10038 -0.0781,-0.14843 -0.002,-0.003 -0.006,-0.005 -0.008,-0.008 -0.0902,-0.15189 -0.19565,-0.29525 -0.375,-0.46875 -0.1214,-0.11689 -0.27845,-0.24907 -0.48435,-0.39842 -0.10297,-0.0747 -0.22092,-0.156 -0.35157,-0.2422 -0.26138,-0.17238 -0.57788,-0.36963 -0.97658,-0.60155 -0.19747,-0.11497 -0.41855,-0.24212 -0.65625,-0.375 l -0.008,0 c -0.9608,-0.53707 -2.26325,-1.22857 -4.0547,-2.14845 -1.49322,-0.76665 -3.42235,-1.73473 -5.67185,-2.85938 -0.449,-0.22447 -0.81387,-0.41549 -1.2969,-0.65625 l -0.008,0 c -8.71077,-4.34177 -23.0559,-11.3798 -46.84375,-23.07032 -11.89375,-5.84513 -22.03207,-10.7755 -22.53125,-10.9531 -0.16987,-0.0605 -0.34642,-0.11885 -0.52345,-0.1719 -0.0818,-0.0245 -0.16685,-0.0473 -0.25,-0.0703 -0.0985,-0.0271 -0.1968,-0.0533 -0.29685,-0.0781 -0.0334,-0.008 -0.0681,-0.0153 -0.1016,-0.0235 -0.15233,-0.0365 -0.30588,-0.0703 -0.4609,-0.10157 -0.18883,-0.0382 -0.37883,-0.0712 -0.57035,-0.10158 -0.0699,-0.011 -0.14085,-0.0212 -0.2109,-0.0312 -0.3904,-0.0553 -0.78168,-0.0954 -1.1719,-0.11717 -0.11575,-0.006 -0.2287,-0.012 -0.34375,-0.0155 -0.19085,-0.006 -0.38272,-0.0105 -0.5703,-0.008 z"
     id="path3071"
     inkscape:connector-curvature="0" />
  <path
     style="fill:#00e600"
     d="m 800.85155,211.78125 c -1.11513,0.0269 -2.38262,0.35768 -3.53125,0.9375 -2.79168,1.40923 -5.666,3.8694 -13.3203,11.40625 -8.66768,8.53468 -56.48295,55.2449 -71,69.35937 -14.2876,13.8914 -15.45383,15.14758 -16.78125,18.14843 -0.73468,1.66087 -0.55775,3.3967 0.4375,4.3672 0.3971,0.3872 5.3875,3.93677 11.09375,7.89062 5.70625,3.95385 13.6375,9.45758 17.625,12.22658 10.47525,7.27413 12.70435,8.7949 13.125,8.9531 0.8572,0.32243 3.0514,0.15345 4.35937,-0.33592 1.59536,-0.59688 4.48628,-2.59703 7.03908,-4.875 3.45263,-3.08095 86.7259,-84.44505 90.28905,-88.21875 2.63005,-2.78545 4.66583,-5.67195 5.07812,-7.20312 0.29415,-1.09245 0.064,-2.3884 -0.57812,-3.21093 -0.17008,-0.21785 -7.34375,-5.2667 -15.9375,-11.22657 -8.59375,-5.95988 -17.875,-12.40815 -20.625,-14.32813 -2.75,-1.91997 -5.39445,-3.60067 -5.875,-3.73437 -0.4149,-0.11543 -0.89155,-0.1685 -1.39845,-0.15625 z M 187.20312,326.0703 c -1.4147,-0.0152 -2.73966,0.98435 -3.66406,2.8047 -0.2793,0.55 -5.19316,19.675 -10.91406,42.5 -5.7209,22.825 -10.6296,42.33857 -10.91406,43.3672 -0.68351,2.47152 -0.56121,6.65488 0.25781,8.78125 1.24383,3.22922 3.69622,6.4447 7.28125,9.54685 1.30614,1.13023 9.79989,8.6407 18.875,16.6875 9.07511,8.0468 22.51875,19.96907 29.875,26.4922 7.35625,6.5231 17.86462,15.85585 23.35156,20.7422 12.53686,11.1646 12.13601,10.83108 14.52344,12.03905 2.26965,1.14838 3.48667,1.2085 4.84375,0.2422 0.4238,-0.3018 1.09645,-1.22937 1.51562,-2.09375 0.89143,-1.83827 0.21686,0.76 12.5,-48.34375 9.56283,-38.2288 9.76855,-39.0928 9.76563,-41.5 -0.005,-3.81492 -0.83943,-6.2298 -3.25,-9.41407 -2.18338,-2.88418 -0.45522,-1.31403 -37.10938,-33.80468 -4.80553,-4.2597 -11.27428,-9.99137 -14.375,-12.7422 -33.01739,-29.2916 -35.61885,-31.5878 -37.11718,-32.72655 -1.44797,-1.1005 -3.69157,-2.2679 -4.83594,-2.51565 -0.20479,-0.0443 -0.40728,-0.0603 -0.60938,-0.0625 z m 549.84375,92.82815 c -1.03222,0.002 -1.22005,0.1256 -1.82032,0.79685 -0.63683,0.7122 -0.72655,1.00495 -0.72655,2.32815 0,2.75805 0.78628,5.2567 5.4922,17.4453 15.7453,40.7814 35.80685,92.6332 38.10155,98.47655 4.01053,10.21255 6.62657,14.06978 10.58595,15.625 0.72805,0.286 5.67152,1.0313 13.66405,2.0625 6.89027,0.88902 19.39375,2.51635 27.78125,3.6094 8.3875,1.09298 15.85658,1.9473 16.60155,1.90625 1.15787,-0.0638 1.4573,-0.18983 2.0625,-0.8672 0.6192,-0.69298 0.71095,-0.9845 0.71095,-2.3672 0,-1.62575 -0.57242,-4.2437 -1.45313,-6.66405 -0.27517,-0.75625 -4.8768,-12.68125 -10.23437,-26.5 -5.35758,-13.81875 -11.5514,-29.79375 -13.7578,-35.5 -2.20642,-5.70625 -6.72928,-17.40625 -10.0547,-26 -3.32545,-8.59375 -6.93057,-17.94777 -8.0078,-20.78905 -3.1003,-8.17735 -5.14053,-11.98215 -7.60158,-14.14845 -2.31962,-2.0418 -2.51277,-2.08785 -15.89062,-3.78125 -6.66875,-0.84415 -19.15625,-2.44415 -27.75,-3.5625 -8.59375,-1.11833 -16.34057,-2.04693 -17.21095,-2.0625 -0.18585,-0.003 -0.34473,-0.008 -0.49218,-0.008 z"
     id="path3061"
     inkscape:connector-curvature="0"
     sodipodi:nodetypes="ssssscssccssccsssscsssssssssccscssscccccssscssccsssssssssscc" />
  <path
     style="fill:#fd0000"
     d="m 694.57812,101.07813 c -0.74332,0.0258 -1.49294,0.15298 -2.24217,0.38283 -2.77432,0.85105 -5.2064,2.6294 -9.9297,7.25 -7.0618,6.90824 -35.63155,34.80764 -58.65625,57.28125 -27.7139,27.05054 -27.1723,26.50339 -28.71875,28.8828 -2.8765,4.42585 -2.96578,7.88252 -0.32813,12.32032 0.98448,1.65633 3.45128,4.39495 60.70313,67.31247 19.64873,21.59315 19.83945,21.78788 23.16405,23.02345 2.0052,0.74523 4.379,0.53435 6.71875,-0.58595 1.01,-0.4836 2.51095,-1.38418 3.33595,-2.0078 0.825,-0.62365 7.918,-7.4217 15.76562,-15.10155 7.84766,-7.67987 27.99505,-27.36562 44.76563,-43.74999 18.12802,-17.7106 30.90178,-30.3819 31.5078,-31.25 2.21647,-3.17508 3.0546,-5.88893 2.6094,-8.45313 -0.35375,-2.0375 -1.94965,-5.17665 -3.57033,-7.03125 C 778.9715,188.51433 768.25,176.70703 755.875,163.10938 743.5,149.51173 726.47182,130.79171 718.03125,121.50783 c -8.4406,-9.2839 -15.92185,-17.3239 -16.625,-17.85937 -2.37085,-1.80555 -4.59812,-2.64783 -6.82813,-2.57033 z m -323.91407,15.02345 c -0.7311,0.0105 -1.49925,0.0903 -2.30468,0.23438 -1.10744,0.19807 -4.48244,1.25597 -7.5,2.35937 -3.01757,1.10337 -14.25937,5.23578 -24.98437,9.17968 -10.725,3.94389 -24.95625,9.17562 -31.625,11.62499 -17.1545,6.3007 -40.8873,15.02683 -44.0703,16.20313 -7.9598,2.9416 -10.66875,6.98417 -9.35157,13.96095 0.2502,1.3252 2.18412,6.84462 5.51562,15.75 2.82087,7.5404 7.38862,19.78592 10.15625,27.21092 4.9492,13.27775 6.8448,18.34863 17.6328,47.25 2.97685,7.975 6.7056,17.97652 8.28125,22.22655 1.69632,4.57545 3.2858,8.4375 3.89845,9.46875 2.04318,3.43915 4.3689,5.3522 7.1953,5.90625 1.56777,0.30732 1.95887,0.3046 4.16407,0 1.56045,-0.21563 8.11583,-2.53293 32.45313,-11.47655 16.775,-6.16458 39.89375,-14.6562 51.375,-18.875 11.48125,-4.21878 22.36737,-8.2217 24.1875,-8.89063 7.93622,-2.91667 10.84843,-6.59902 10.07812,-12.74216 -0.1399,-1.11578 -0.38447,-2.49598 -0.53907,-3.07033 -0.28808,-1.07028 -4.5096,-12.4521 -29.58593,-79.67187 -11.34539,-30.41258 -14.65945,-39.03945 -15.58592,-40.58593 -2.51717,-4.2016 -5.44257,-6.11975 -9.39065,-6.0625 z m 562.03907,247.13279 c -0.99977,0.0328 -2.04525,0.21138 -3.11717,0.53908 -0.9426,0.28812 -5.8172,2.64225 -10.83595,5.22655 -5.01875,2.58432 -15.36875,7.89592 -23,11.8125 -7.63125,3.91655 -24.1125,12.37905 -36.625,18.8047 -12.5125,6.42565 -25.28125,12.98222 -28.375,14.5703 -3.09375,1.58807 -6.13373,3.26078 -6.7578,3.71095 -1.85912,1.34095 -3.71685,3.48725 -4.57033,5.28905 -0.74387,1.57035 -0.79327,1.87282 -0.78907,4.3125 0.003,1.44375 0.15673,3.24375 0.34375,4 0.3072,1.24195 4.67017,12.63097 22.27345,58.125 3.139,8.1125 8.98937,23.24375 13,33.625 4.0106,10.38125 7.73267,20.01082 8.27345,21.39845 2.45763,6.30645 5.52257,9.2818 9.61717,9.33592 0.69598,0.009 2.15848,-0.21652 3.25,-0.5 2.03548,-0.52859 1.07808,-0.0419 82.85938,-42.04687 23.00882,-11.81793 24.44287,-12.64842 26.4922,-15.3047 2.47495,-3.20803 2.846,-7.35093 1.125,-12.53125 -0.44945,-1.35285 -34.57215,-89.77983 -42.4844,-110.09375 -1.48045,-3.8009 -3.43908,-7.12668 -4.9453,-8.39843 -1.55125,-1.3098 -3.53485,-1.94725 -5.73438,-1.875 z M 146.6875,440.5625 c -2.84572,0.006 -5.85648,1.15595 -10.0625,3.57812 -5.33279,3.07108 -36.25619,20.76781 -63.5,36.33593 -20.65404,11.8025 -23.408305,13.4468 -24.648438,14.71875 -2.512012,2.57655 -2.784222,4.57327 -1.03125,7.5469 1.57198,2.6666 -4.072175,-2.4554 58.039068,52.60155 3.2404,2.8724 9.20111,8.1599 13.25,11.75 17.38193,15.41242 17.51075,15.51993 20.39062,16.96095 1.60659,0.80393 2.88615,1.21663 4.47656,1.4375 1.26659,0.17588 1.50524,0.16652 3.64063,-0.1172 2.95509,-0.39265 4.62101,-1.30012 44.8125,-24.28125 22.03754,-12.60087 42.30485,-24.20107 45.03125,-25.78125 5.23418,-3.03365 7.15246,-4.57332 8.03125,-6.4375 1.37221,-2.91088 -0.33021,-6.33393 -5.28125,-10.625 -1.34851,-1.16875 -11.50644,-10.1594 -22.57813,-19.97655 -11.07168,-9.8172 -26.93478,-23.87968 -35.25,-31.25 -8.31522,-7.37032 -17.25897,-15.315 -19.875,-17.65625 -5.91076,-5.28987 -6.71231,-5.89893 -9.50781,-7.25 -2.11967,-1.02447 -3.99043,-1.55885 -5.9375,-1.5547 z m 236.78125,178.45312 c -1.67197,0.0145 -3.5666,0.8254 -5.6875,2.42968 -0.74015,0.5599 -4.78655,4.5454 -8.9922,8.85157 -10.7323,10.9888 -37.43135,38.26393 -58.67968,59.95313 -9.90082,10.10625 -18.51577,19.10625 -19.14842,20 -3.17685,4.48772 -3.91102,8.19647 -2.46875,12.47655 0.30618,0.9087 3.3863,6.53162 7.11717,13 6.46835,11.21447 9.83163,17.07298 30.69533,53.39845 11.03365,19.21055 11.66303,20.16465 14.0625,21.39062 1.2699,0.64886 3.29858,0.54116 4.89842,-0.26562 3.29038,-1.65925 1.40408,0.22115 67.49218,-67.375 20.2842,-20.74703 21.15957,-21.66588 22.46875,-23.59375 2.86505,-4.21898 3.46717,-7.35037 2.26565,-11.8125 -0.46153,-1.71398 1.3673,1.53768 -24.94533,-44.21875 -8.64442,-15.03228 -11.0995,-19.31275 -18.60937,-32.375 -4.9853,-8.67117 -6.22738,-10.36585 -8.32813,-11.3828 -0.66567,-0.32225 -1.38065,-0.48317 -2.14062,-0.47658 z M 789.875,643.39845 c -3.00532,0.0326 -5.29105,0.9933 -11.41405,4.78125 -10.80097,6.68195 -82.28477,50.68083 -90.58595,55.7578 -11.2824,6.9003 -12.40212,7.66235 -14.5703,9.89845 -3.04057,3.13575 -4.01183,6.08907 -3.22658,9.78905 0.27138,1.27872 2.3725,6.05893 7.80468,17.75 4.0889,8.8 8.91745,19.20625 10.7344,23.125 20.62765,44.48902 22.5045,48.45602 23.48435,49.7422 1.2683,1.66475 2.71137,2.71595 4.32032,3.14842 1.55003,0.41663 1.63923,0.41466 3.63283,-0.008 3.6674,-0.77723 -1.11502,2.08692 82.0703,-49.1328 26.76738,-16.48148 29.40273,-18.1462 31.25,-19.71875 1.87615,-1.59716 3.2188,-3.22633 4.14062,-5.03125 0.76145,-1.49095 0.95438,-4.75931 0.40625,-6.8828 -0.21159,-0.8198 -8.22215,-18.3672 -17.80467,-38.9922 -9.58255,-20.625 -18.46838,-39.75166 -19.7422,-42.5078 -3.38378,-7.32148 -3.79205,-8.06585 -5.21095,-9.47658 -1.85203,-1.84142 -2.85558,-2.26858 -5.28905,-2.24217 z M 450.65625,776.76562 c -1.79508,-0.006 -3.48208,0.32928 -4.79688,0.97658 -3.21202,1.58123 -5.05025,4.6012 -7.32812,12.03125 -1.25417,4.0909 -20.19685,66.67795 -28.28905,93.47655 -1.34942,4.46875 -3.37985,11.1625 -4.51565,14.875 l -2.0625,6.75 -0.0155,3.5 c -0.0143,3.30337 0.0205,3.58087 0.66405,4.96095 0.90565,1.94218 3.13617,4.07237 5.625,5.36717 1.31408,0.68368 10.50595,3.8505 28.4375,9.79688 33.76568,11.19725 68.349,22.6599 80.39062,26.64845 5.1643,1.71055 9.88931,3.20838 10.5,3.3281 2.0717,0.4063 5.07255,0.30602 6.79688,-0.22655 1.09333,-0.3377 2.00365,-0.84362 2.8203,-1.5625 1.46582,-1.29027 3.3367,-4.09933 4.0625,-6.09375 0.2946,-0.80945 2.89922,-9.2875 5.78125,-18.84375 8.4552,-28.03553 15.55482,-51.5013 23.33595,-77.125 l 7.28905,-24 0.008,-3.375 c 0.014,-3.7063 -0.19905,-4.57303 -1.64843,-6.6797 -0.85465,-1.24215 -3.13647,-3.01985 -5.21095,-4.0625 -1.93392,-0.97198 -117.2425,-39.15673 -119.35155,-39.52343 -0.83785,-0.14567 -1.67625,-0.21605 -2.4922,-0.21875 z"
     id="path3065"
     inkscape:connector-curvature="0"
     sodipodi:nodetypes="scssssssscsssssssssssssssssssssscsssscsssscssssccccsscccssssssssscsssscsssssssscsccssccssssssssssccsssssscscssscssccscsscccccssccccscccccss" />
  <path
     style="fill:#ff7f00;fill-opacity:1"
     d="m 500.21095,241.85938 c -0.51875,-0.013 -1.03647,0.0286 -1.53908,0.1172 -1.68152,0.2962 -4.49077,1.5496 -6.05467,2.70312 -0.55325,0.40805 -4.0446,3.54393 -7.75783,6.96875 -14.06984,12.97697 -48.17317,44.38872 -65.48437,60.3125 -10.49535,9.65418 -18.54963,17.2552 -19.3203,18.23435 -3.42667,4.35375 -3.95382,8.08828 -1.75783,12.4297 1.26601,2.50285 2.20998,3.65065 12.44533,15.03125 12.66095,14.0776 31.30923,34.81893 55.36717,61.59375 5.49788,6.11875 11.85835,13.18763 14.13283,15.71095 4.00263,4.44063 6.02105,6.26938 8.125,7.35155 2.5027,1.28728 4.81872,1.50063 7.47655,0.6797 3.46242,-1.06945 -1.45702,3.34185 77.15625,-69.125 4.19375,-3.8659 9.93125,-9.14037 12.75,-11.71875 6.06443,-5.54725 6.7118,-6.21887 8.2578,-8.57032 1.51725,-2.30763 2.1237,-4.45315 1.91407,-6.76563 -0.12092,-1.334 -0.41319,-2.21427 -1.39062,-4.1875 -1.37625,-2.77837 0.5442,-0.54172 -21.6797,-25.26562 -5.92638,-6.59303 -18.96525,-21.09688 -28.97655,-32.23438 -10.0113,-11.1375 -22.02605,-24.50952 -26.6953,-29.71095 -4.66927,-5.20142 -9.12415,-9.95099 -9.89845,-10.56247 -2.43823,-1.92555 -4.82248,-2.93582 -7.0703,-2.9922 z"
     id="path3067"
     inkscape:connector-curvature="0"
     sodipodi:nodetypes="ssssscsssssssscsssssss" />
  <path
     inkscape:connector-curvature="0"
     style="fill:#000000"
     d="m 699.48437,88.851562 c -1.35467,0.02548 -2.6815,0.221668 -3.75782,0.59375 -3.1475,1.08815 -7.0304,3.886076 -12.60155,9.078125 -1.5125,1.4096 -18.49513,17.923323 -37.7422,36.703123 -52.23613,50.968 -56.46448,55.17156 -59.48435,59.19531 -5.35965,7.1413 -5.1524,11.96227 0.85935,20.07032 2.22042,2.99462 5.66295,6.81046 67.71875,75.00781 11.50212,12.64042 16.04785,17.524 19.89845,21.3828 4.8164,4.82677 3.83215,4.10267 37.8672,27.69532 12.74143,8.83223 13.88645,9.54593 17.5078,10.83593 2.15265,0.76685 5.49662,0.8059 7.78905,0.0937 3.18972,-0.99073 7.6161,-4.16333 13.46095,-9.64843 1.58125,-1.48392 19.075,-18.51032 38.875,-37.83592 53.93315,-52.64101 56.16105,-54.88886 59.14062,-59.45314 1.95968,-3.00192 2.34676,-4.23046 2.34375,-7.44531 -0.003,-2.54202 -0.0632,-2.89636 -0.8125,-4.64844 -0.83704,-1.95717 -2.06047,-3.96754 -3.0625,-5.14062 -0.0696,-0.0814 -0.14387,-0.1613 -0.21092,-0.23438 -0.003,-0.001 0.002,-0.005 0,-0.008 -0.086,-0.0934 -0.16912,-0.18098 -0.25,-0.25781 -0.003,-0.001 -0.006,0.001 -0.008,0 -0.0821,-0.0778 -0.15765,-0.14815 -0.23437,-0.21094 -0.15,-0.12272 -0.29108,-0.2142 -0.41405,-0.26562 -0.0574,-0.0239 -0.12888,-0.0611 -0.21875,-0.10938 -0.0861,-0.0461 -0.185,-0.10595 -0.2969,-0.17187 l -0.008,0 c -0.22915,-0.1352 -0.5038,-0.30869 -0.8125,-0.50781 -0.61738,-0.3983 -1.35835,-0.89795 -2.0703,-1.40625 -0.62745,-0.44793 -1.84628,-1.30334 -3.59375,-2.52344 -0.71538,-0.4995 -1.87835,-1.30393 -2.76566,-1.92188 -2.14537,-1.49418 -5.1091,-3.55492 -8.10154,-5.63281 -0.71653,-0.49729 -1.72176,-1.19756 -2.48438,-1.72656 -4.23615,-2.93931 -9.16187,-6.35019 -14.71875,-10.19531 -1.39017,-0.96195 -2.56592,-1.77475 -3.65625,-2.53907 -0.0666,-0.0466 -0.13745,-0.10232 -0.20312,-0.14843 -0.37835,-0.26579 -0.75863,-0.53104 -1.10938,-0.78125 -0.28135,-0.20067 -0.55407,-0.40066 -0.82033,-0.59375 -0.3151,-0.22866 -0.63997,-0.46606 -0.9375,-0.6875 -0.0654,-0.0487 -0.13062,-0.0922 -0.19529,-0.14063 -0.16825,-0.126 -0.33625,-0.25798 -0.5,-0.38281 -0.49408,-0.37667 -0.97861,-0.75424 -1.4453,-1.13281 -0.22605,-0.18335 -0.4566,-0.36764 -0.6797,-0.55469 -0.3316,-0.27813 -0.6608,-0.5672 -0.99221,-0.85938 -0.0245,-0.0216 -0.0536,-0.0408 -0.0781,-0.0625 -0.24213,-0.21424 -0.48085,-0.43884 -0.72658,-0.66406 -0.20132,-0.18444 -0.40387,-0.36905 -0.60937,-0.5625 -0.2645,-0.24908 -0.53021,-0.50658 -0.80471,-0.77344 -0.23527,-0.22861 -0.48164,-0.46712 -0.72654,-0.71093 -0.32588,-0.32459 -0.66043,-0.65996 -1.0078,-1.01563 -0.48723,-0.49875 -0.99775,-1.02277 -1.53908,-1.59375 -0.9934,-1.04779 -2.14103,-2.28697 -3.38283,-3.64062 -0.24437,-0.26626 -0.50182,-0.54822 -0.75779,-0.82813 -0.51843,-0.56727 -1.17208,-1.28695 -1.74221,-1.91406 -1.57477,-1.73174 -3.35637,-3.69808 -5.39842,-5.95313 C 773.01747,162.51422 722.58968,107.07802 718.375,102.5 c -1.00315,-1.08963 -1.85988,-2.02636 -2.64063,-2.890625 -0.26414,-0.29179 -0.5022,-0.552705 -0.74217,-0.820313 -0.0352,-0.03931 -0.0591,-0.07058 -0.0937,-0.109375 -0.42637,-0.476122 -0.82922,-0.926727 -1.1797,-1.328125 -0.38395,-0.439362 -0.71075,-0.825147 -1.0078,-1.179687 -0.25505,-0.304395 -0.4928,-0.590648 -0.6875,-0.835938 -0.0294,-0.03702 -0.0501,-0.06584 -0.0782,-0.101562 -0.1078,-0.136768 -0.20835,-0.2647 -0.29685,-0.382813 -0.0916,-0.122375 -0.1706,-0.225027 -0.2422,-0.328125 -0.0158,-0.02255 -0.0243,-0.04085 -0.039,-0.0625 -0.009,-0.0137 -0.0145,-0.02572 -0.0235,-0.03906 -0.0529,-0.07852 -0.10047,-0.15231 -0.14063,-0.21875 -0.0342,-0.05667 -0.0608,-0.108167 -0.0859,-0.15625 -0.0165,-0.03125 -0.0263,-0.05816 -0.0391,-0.08594 -0.0132,-0.0289 -0.0376,-0.06078 -0.0469,-0.08594 -0.005,-0.01302 -0.004,-0.02703 -0.008,-0.03906 -0.0132,-0.04292 -0.0235,-0.07874 -0.0235,-0.109375 0,-0.02492 0,-0.05074 -0.008,-0.07813 -0.005,-0.02185 -0.0143,-0.04695 -0.0235,-0.07031 -0.003,-0.0047 -0.006,-0.01087 -0.008,-0.01563 -0.021,-0.04911 -0.0563,-0.10116 -0.0937,-0.15625 -0.0428,-0.06105 -0.0946,-0.127702 -0.15625,-0.195313 -0.0125,-0.01377 -0.0258,-0.03285 -0.0391,-0.04687 C 710.6225,93.111658 710.5595,93.055675 710.5,93 c -1.0378,-0.970965 -3.56523,-2.410663 -6.1328,-3.40625 -1.3556,-0.525628 -3.1411,-0.77495 -4.88283,-0.742188 z m -4.90625,12.226568 c 2.23001,-0.0775 4.45728,0.76476 6.82813,2.57031 0.70315,0.53547 8.1844,8.57547 16.625,17.85937 8.44057,9.28388 25.46875,28.00392 37.84375,41.60156 12.375,13.59765 23.0965,25.40494 23.82812,26.24219 1.62068,1.8546 3.21658,4.99375 3.57033,7.03125 0.4452,2.5642 -0.3929,5.27805 -2.6094,8.45313 -0.60603,0.8681 -13.37978,13.5394 -31.5078,31.25 -16.77058,16.38436 -36.91797,36.07011 -44.76563,43.75001 -7.84762,7.67983 -14.94062,14.4779 -15.76562,15.10155 -0.825,0.62362 -2.32595,1.52422 -3.33595,2.0078 -2.33975,1.12032 -4.71353,1.33117 -6.71875,0.58595 -3.32458,-1.23557 -3.51532,-1.43028 -23.16405,-23.02345 -57.25185,-62.9175 -59.71865,-65.65616 -60.70313,-67.31249 -2.63765,-4.4378 -2.54837,-7.89446 0.32813,-12.32031 1.54645,-2.3794 1.00485,-1.83226 28.71875,-28.88281 23.0247,-22.4736 51.59445,-50.373 58.65625,-57.28125 4.7233,-4.6206 7.15538,-6.39895 9.9297,-7.25 0.74923,-0.22985 1.49885,-0.35699 2.24217,-0.38282 z m -323.27342,2.92968 c -1.62002,-0.0167 -3.40292,0.19266 -5.38283,0.60938 -1.44307,0.30373 -1.64072,0.26561 -6.83592,2.125 -2.5979,0.92913 -6.44105,2.33528 -12.32033,4.49219 -5.87907,2.15732 -13.7928,5.0637 -24.51562,9.00781 -4.6932,1.72627 -10.08428,3.71117 -15.8203,5.82031 -0.0505,0.0185 -0.0902,0.0284 -0.14065,0.0469 -0.33605,0.1227 -0.62432,0.22987 -0.97655,0.35937 -14.3101,5.25761 -27.71602,10.19259 -31.6875,11.66406 -1.2375,0.4585 -5.00625,1.84318 -8.375,3.07813 -0.0122,0.004 -0.019,0.003 -0.0312,0.008 -1.61592,0.59219 -3.3822,1.24715 -5.22655,1.92968 -0.11707,0.0434 -0.24165,0.0891 -0.3594,0.13282 -1.59575,0.59084 -3.23715,1.2006 -4.92185,1.82812 -0.1975,0.0736 -0.37997,0.14489 -0.57815,0.21875 -0.22195,0.0827 -0.44135,0.16694 -0.66405,0.25 -1.96075,0.73131 -3.89475,1.45342 -5.85156,2.1875 -1.20795,0.45157 -2.52095,0.93856 -3.64063,1.35938 -0.19311,0.0727 -0.36256,0.13848 -0.55468,0.21093 -1.83271,0.69038 -3.60867,1.36401 -5.26563,1.99219 -0.008,0.003 -0.0233,0.005 -0.0312,0.008 -0.0795,0.0303 -0.31077,0.11944 -0.40625,0.15625 -0.65899,0.25001 -1.11559,0.42855 -1.73437,0.66406 -1.14513,0.43577 -2.22054,0.84494 -3.19532,1.21875 -0.93936,0.3603 -1.87493,0.7197 -2.61718,1.00782 -0.11778,0.0457 -0.2236,0.0813 -0.33594,0.125 -0.19801,0.077 -0.45247,0.17945 -0.63281,0.25 -0.58054,0.22756 -1.21319,0.47687 -1.57813,0.625 -1.2375,0.50227 -4.275,1.73052 -6.75,2.73437 -2.475,1.00385 -6.91875,2.81465 -9.875,4.01563 -2.95625,1.201 -7.85,3.16481 -10.875,4.36718 -2.03954,0.81067 -3.81117,1.52928 -5.35937,2.17969 -1.54821,0.65042 -2.87064,1.22875 -4.03125,1.77344 -0.77392,0.36286 -1.4771,0.71082 -2.11719,1.04687 -0.31996,0.16817 -0.62181,0.33551 -0.91406,0.5 -0.5847,0.32872 -1.12024,0.65037 -1.61719,0.97657 -0.2484,0.16322 -0.48652,0.32658 -0.71875,0.49218 -0.4629,0.3298 -0.89884,0.67206 -1.32031,1.02344 -0.001,0.001 -0.006,-0.001 -0.008,0 -0.42292,0.35277 -0.83023,0.71865 -1.24219,1.10938 -0.12664,0.12011 -0.24736,0.2442 -0.36719,0.36718 -0.11983,0.12299 -0.23852,0.24119 -0.35156,0.36719 -0.001,0.001 0.001,0.006 0,0.008 -0.11163,0.12456 -0.22312,0.24738 -0.32813,0.375 -0.001,0.002 0.001,0.006 0,0.008 -0.63577,0.77354 -1.15238,1.60497 -1.54687,2.50781 -0.0659,0.15075 -0.1283,0.30613 -0.1875,0.46094 -0.17761,0.46454 -0.32758,0.94178 -0.44531,1.44531 -5e-4,0.002 5e-4,0.005 0,0.008 -0.0777,0.33338 -0.14367,0.67948 -0.19532,1.03125 -0.052,0.35433 -0.0915,0.7197 -0.11718,1.09375 -0.0385,0.56106 -0.0439,1.14162 -0.0234,1.75 0.0137,0.40557 0.0384,0.82207 0.0781,1.25 0.0198,0.21396 0.0439,0.42868 0.0703,0.64843 0.0529,0.44187 0.11623,0.89329 0.19531,1.35938 0.0722,0.4257 0.15602,0.85794 0.25,1.30469 0.008,0.0396 0.0149,0.0774 0.0234,0.11718 0.0121,0.0566 0.0266,0.11496 0.0391,0.17188 0.0949,0.4344 0.1975,0.88112 0.3125,1.33594 0.13008,0.51445 0.27404,1.04437 0.42969,1.58593 0.0778,0.27077 0.15799,0.54256 0.24218,0.82032 1.46956,4.84819 2.66414,8.10321 18.16407,49.63281 3.15609,8.45629 7.03633,18.86249 8.625,23.12501 2.32394,6.2353 4.38702,11.7643 6.21875,16.67187 3.66343,9.81508 6.40667,17.1484 8.50781,22.7109 1.0506,2.78128 1.94143,5.11885 2.70312,7.1016 0.76166,1.98273 1.39699,3.60818 1.9375,4.96875 1.62165,4.08175 2.39884,5.76418 3.25,7.42188 1.34369,2.6169 2.62041,4.5657 3.97657,6 0.16954,0.17925 0.33543,0.34427 0.50781,0.50777 0.34721,0.33018 0.70025,0.62825 1.0625,0.89848 0.17978,0.13405 0.35469,0.25477 0.53906,0.375 0.739,0.4826 1.51535,0.85557 2.35156,1.14062 0.15707,0.0535 0.32608,0.10243 0.5,0.1484 0.17173,0.0455 0.35261,0.087 0.53907,0.125 0.16638,0.034 0.33874,0.0655 0.51562,0.0937 0.0441,0.007 0.0881,0.0168 0.13281,0.0235 0.18492,0.0276 0.3758,0.0487 0.57032,0.0703 0.17428,0.0195 0.35022,0.0401 0.53125,0.0547 0.11307,0.009 0.22834,0.016 0.34375,0.0235 0.15446,0.01 0.31056,0.017 0.46875,0.0235 0.0904,0.004 0.18194,0.005 0.27343,0.008 0.10957,0.003 0.21717,0.006 0.32813,0.008 l 0.10156,0 c 2.08287,0.0213 4.38273,-0.22005 6.34375,-0.70312 0.0161,-0.004 0.0308,-0.0115 0.0469,-0.0155 0.17831,-0.0444 0.3513,-0.0923 0.52343,-0.14062 0.12434,-0.035 0.24649,-0.0646 0.36722,-0.10158 0.0217,-0.007 0.0408,-0.0168 0.0625,-0.0235 0.2174,-0.0675 0.4287,-0.13685 0.6328,-0.2109 0.75625,-0.27465 10.9375,-4.40075 22.625,-9.1719 5.20425,-2.12452 8.82197,-3.6007 12.3203,-5.02342 0.81667,-0.33218 1.2946,-0.52593 2.03907,-0.82813 2.37078,-0.96262 4.61213,-1.86925 6.39843,-2.58595 1.51975,-0.60863 2.8632,-1.14575 4.10157,-1.6328 1.31493,-0.51765 2.5107,-0.98535 3.67188,-1.4297 1.0746,-0.41118 2.11187,-0.79755 3.1797,-1.1953 1.11307,-0.41457 2.26535,-0.84005 3.5156,-1.29687 1.25412,-0.4583 2.61612,-0.95188 4.14845,-1.50783 5.43125,-1.9704 12.0125,-4.37293 14.625,-5.33592 2.6125,-0.96295 10.31875,-3.79623 17.125,-6.29688 23.97472,-8.80835 35.7497,-13.13207 46.03125,-16.91405 0.94735,-0.3487 1.49682,-0.55375 2.39062,-0.88282 6.0333,-2.21968 12.3869,-4.56313 15.42968,-5.6875 3.60155,-1.33078 6.27735,-2.31903 8.15625,-3.02343 2.87277,-1.07705 5.42035,-1.9824 6.16407,-2.19532 0.10515,-0.0299 0.17643,-0.0469 0.20313,-0.0469 0.21355,0 1.08987,-0.35117 1.9453,-0.78125 3.63625,-1.82802 6.31765,-3.9257 8.00782,-6.25 0.0833,-0.1144 0.16378,-0.22822 0.24218,-0.34375 l 0,-0.008 c 0.0784,-0.1155 0.16085,-0.22722 0.2344,-0.34375 l 0,-0.008 c 0.0435,-0.069 0.0832,-0.14157 0.125,-0.21092 0.0301,-0.0502 0.0645,-0.0981 0.0937,-0.14845 0.0684,-0.1175 0.1317,-0.23303 0.1953,-0.35155 l 0,-0.008 c 0.0646,-0.1206 0.1279,-0.2377 0.1875,-0.35938 0.2991,-0.61042 0.5309,-1.23035 0.70312,-1.8672 0.0337,-0.12445 0.0727,-0.24952 0.10158,-0.375 l 0,-0.008 c 0.0293,-0.12787 0.0539,-0.25395 0.0781,-0.3828 0.0442,-0.2343 0.0757,-0.4942 0.10157,-0.78125 0.0259,-0.28707 0.0463,-0.60132 0.0547,-0.9297 0.004,-0.1667 0.008,-0.33272 0.008,-0.5078 -3e-5,-0.17237 -0.003,-0.34432 -0.008,-0.52345 -0.0168,-0.71647 -0.069,-1.48292 -0.14843,-2.25 -0.0399,-0.38375 -0.0862,-0.7693 -0.14062,-1.14845 -0.1086,-0.75792 -0.24365,-1.4932 -0.40625,-2.16406 -0.15993,-0.65982 -0.31563,-1.26932 -0.4922,-1.92188 -0.17663,-0.65256 -0.3769,-1.34454 -0.6328,-2.16406 -0.1279,-0.40976 -0.27023,-0.85178 -0.4297,-1.33594 -0.47845,-1.45248 -1.11253,-3.29059 -2.0156,-5.80468 -2.40788,-6.70482 -6.70263,-18.22995 -14.88285,-40.14873 -4.66975,-12.5125 -10.14593,-27.19375 -12.17188,-32.625 -4.54492,-12.18422 -7.9836,-21.39128 -10.625,-28.41406 -1.98075,-5.26721 -3.51362,-9.30381 -4.73437,-12.45313 -0.8141,-2.09943 -1.48748,-3.80347 -2.0625,-5.21093 -0.28638,-0.70133 -0.55518,-1.33181 -0.79688,-1.89844 l 0,-0.008 c -1.4545,-3.40913 -2.186,-4.59668 -3.26562,-6.26563 -0.17785,-0.27494 -0.35658,-0.54017 -0.53908,-0.79687 -0.0175,-0.0246 -0.0371,-0.0459 -0.0547,-0.0703 -0.1643,-0.22901 -0.33163,-0.45746 -0.5,-0.67188 -0.13528,-0.17225 -0.26815,-0.33709 -0.40625,-0.5 -0.11598,-0.13686 -0.23348,-0.26813 -0.35158,-0.39844 -0.22717,-0.2506 -0.45975,-0.4922 -0.6953,-0.71875 -0.0335,-0.0323 -0.0679,-0.0619 -0.10155,-0.0937 -0.0675,-0.0636 -0.13495,-0.12583 -0.20315,-0.1875 -0.069,-0.0625 -0.13335,-0.12699 -0.2031,-0.1875 -0.0337,-0.0292 -0.0677,-0.0572 -0.10157,-0.0859 -0.10553,-0.0896 -0.21298,-0.1727 -0.32033,-0.25782 -0.10512,-0.0834 -0.20555,-0.16302 -0.3125,-0.24218 -0.0358,-0.0265 -0.0733,-0.0521 -0.10935,-0.0781 -0.0727,-0.0525 -0.14528,-0.10568 -0.21875,-0.15625 -0.0733,-0.0505 -0.1447,-0.0999 -0.21875,-0.14844 -0.0364,-0.0238 -0.0728,-0.0469 -0.1094,-0.0703 -0.11112,-0.071 -0.22282,-0.14414 -0.33592,-0.21094 -0.11265,-0.0664 -0.22913,-0.12523 -0.34375,-0.1875 -0.0384,-0.0209 -0.0786,-0.0421 -0.11718,-0.0625 -0.1544,-0.0816 -0.3107,-0.16026 -0.46875,-0.23437 -0.0387,-0.0181 -0.0783,-0.037 -0.1172,-0.0547 -0.11927,-0.0542 -0.23792,-0.10622 -0.35937,-0.15625 -0.002,-10e-4 -0.006,0.001 -0.008,0 -0.15948,-0.0656 -0.32103,-0.12906 -0.48435,-0.1875 -0.0818,-0.0292 -0.1672,-0.0585 -0.25,-0.0859 -0.085,-0.0282 -0.17178,-0.0596 -0.25783,-0.0859 -0.0417,-0.0127 -0.0831,-0.0268 -0.125,-0.0391 -0.1283,-0.0376 -0.25992,-0.068 -0.39062,-0.10156 -0.13073,-0.0335 -0.26525,-0.0643 -0.39845,-0.0937 -0.0446,-0.01 -0.0879,-0.0218 -0.1328,-0.0312 -0.0883,-0.0185 -0.17623,-0.0379 -0.26563,-0.0547 -0.0896,-0.0168 -0.18272,-0.0318 -0.27342,-0.0469 -0.046,-0.008 -0.0944,-0.0163 -0.14065,-0.0234 -0.14068,-0.0218 -0.27845,-0.037 -0.42185,-0.0547 -0.13898,-0.0172 -0.28033,-0.0336 -0.4219,-0.0469 -0.0487,-0.005 -0.0994,-0.0115 -0.14843,-0.0156 -0.1354,-0.0113 -0.26842,-0.0234 -0.40625,-0.0312 -0.25417,-0.0144 -0.51082,-0.0208 -0.77342,-0.0234 z m -0.64065,12.09375 c 3.9481,-0.0573 6.87343,1.8609 9.39065,6.0625 0.92647,1.54648 4.24053,10.17336 15.58592,40.58594 25.07633,67.21977 29.29791,78.6016 29.58593,79.67187 0.1546,0.57435 0.39917,1.95454 0.53907,3.07032 0.77031,6.14313 -2.1419,9.82551 -10.07812,12.74218 -1.82013,0.66893 -12.70625,4.67185 -24.1875,8.89063 -11.48125,4.2188 -34.6,12.71042 -51.375,18.875 -24.3373,8.94362 -30.89268,11.26097 -32.45313,11.47655 -2.2052,0.30465 -2.59627,0.30735 -4.16407,0 -2.8264,-0.55403 -5.15213,-2.46708 -7.1953,-5.90625 -0.61265,-1.03125 -2.20207,-4.89328 -3.89845,-9.46875 -1.57563,-4.25 -5.30435,-14.25155 -8.28125,-22.22655 -10.78795,-28.90137 -12.6836,-33.97225 -17.6328,-47.25 -2.76763,-7.425 -7.33538,-19.67054 -10.15625,-27.21094 -3.3315,-8.90537 -5.26543,-14.4248 -5.51563,-15.75 -1.31717,-6.97677 1.39173,-11.01934 9.35158,-13.96094 3.18298,-1.1763 26.9158,-9.90242 44.0703,-16.20312 6.66875,-2.44938 20.9,-7.6811 31.625,-11.625 10.725,-3.9439 21.9668,-8.07631 24.98437,-9.17969 3.01756,-1.1034 6.39256,-2.1613 7.5,-2.35937 0.80543,-0.14408 1.5736,-0.22388 2.30468,-0.23438 z M 229.1875,168.375 c 0.059,-0.001 0.10717,0.007 0.14844,0.0156 3.25426,0.70035 5.11255,3.86763 9.88281,16.85938 1.64081,4.46875 5.06689,13.69375 7.60937,20.5 2.54249,6.80625 10.49813,28.125 17.67968,47.375 7.18157,19.25 13.70765,36.70172 14.50782,38.78905 1.93143,5.03847 2.72715,7.97642 2.90625,10.7422 0.13103,2.02317 0.0861,2.42105 -0.39842,3.42187 -0.30115,0.62196 -0.79895,1.28288 -1.10158,1.47658 -0.30262,0.1936 -10.45655,4.3682 -22.57032,9.27342 -15.93686,6.45335 -22.29447,8.91408 -22.99999,8.91408 -1.24421,-0.002 -2.63477,-0.8349 -3.77344,-2.26565 -2.1485,-2.69943 -2.51372,-3.61452 -20.82812,-52.72655 -3.46108,-9.28125 -8.07794,-21.65625 -10.25781,-27.5 -2.17988,-5.84375 -6.21628,-16.68486 -8.97657,-24.08594 -8.10724,-21.73765 -8.88737,-24.09315 -9.17968,-27.71875 -0.14041,-1.74142 -0.0971,-2.0496 0.49218,-3.25 0.35804,-0.72935 0.86032,-1.4511 1.11719,-1.60937 0.25687,-0.15828 3.38104,-1.47109 6.94531,-2.91407 3.56427,-1.44297 13.60901,-5.51068 22.32032,-9.03906 12.47056,-5.051 15.59121,-6.24531 16.47656,-6.25781 z m 571.66405,43.40625 c 0.5069,-0.0122 0.98355,0.0408 1.39845,0.15625 0.48055,0.1337 3.125,1.8144 5.875,3.73437 2.75,1.91998 12.03125,8.36825 20.625,14.32813 8.59375,5.95987 15.76742,11.00871 15.9375,11.22656 0.64217,0.82253 0.87227,2.11849 0.57812,3.21094 -0.41229,1.53117 -2.44807,4.41768 -5.07812,7.20312 -3.56315,3.7737 -86.83642,85.1378 -90.28905,88.21875 -2.5528,2.27798 -5.44372,4.27813 -7.03908,4.875 -1.30797,0.48938 -3.50217,0.6584 -4.35937,0.33593 -0.42065,-0.15818 -2.64975,-1.679 -13.125,-8.9531 -3.9875,-2.76903 -11.91875,-8.27273 -17.625,-12.22658 -5.70625,-3.95385 -10.69665,-7.50342 -11.09375,-7.89062 -0.99525,-0.9705 -1.17218,-2.7063 -0.4375,-4.3672 1.32742,-3.00085 2.49365,-4.25703 16.78125,-18.14843 14.51705,-14.11447 62.33232,-60.8247 71,-69.35937 7.6543,-7.53685 10.52865,-9.99703 13.3203,-11.40625 1.14863,-0.57983 2.41615,-0.91058 3.53125,-0.9375 z m -272.53905,2.89062 c -1.06,0.002 -2.13198,0.10831 -3.10938,0.32813 0.94488,-0.19608 2.26448,-0.31553 3.42188,-0.3125 0.16965,5e-4 0.33547,0.002 0.5,0.008 -0.26913,-0.0133 -0.5404,-0.024 -0.8125,-0.0234 z m 0.039,0.34375 c -1.66068,0.0306 -3.4292,0.34489 -5.10155,0.92969 -3.8963,1.36243 -21.07833,8.34304 -23.3672,9.49219 -5.35765,2.68995 -4.99618,2.37445 -42.2578,36.70312 -7.0125,6.46053 -22.0875,20.34103 -33.5,30.85158 -32.3904,29.83033 -34.92405,32.265 -37.32813,35.85935 -3.88712,5.81183 -3.33057,10.26015 2.20313,17.6719 2.93645,3.93295 4.94457,6.22603 27.75,31.60155 5.43722,6.05 14.33042,15.94128 19.7578,21.98437 27.90187,31.06676 37.70515,41.93223 41.63282,46.14063 6.9396,7.4356 10.62221,10.34388 14.42188,11.3672 2.708,0.7293 5.75155,0.3353 9.9375,-1.28908 1.591,-0.61739 1.86227,-0.81205 1.8125,-1.27342 -0.085,-0.78737 1.95385,-2.8633 10.1875,-10.39845 11.37402,-10.4091 79.74788,-73.40812 83.875,-77.28125 7.06825,-6.6332 11.92675,-10.78425 13.66405,-11.67188 0.73447,-0.37525 22.19785,-8.94615 23.2422,-9.28125 0.57672,-0.18502 3.31062,-4.34969 3.8203,-5.82032 1.25245,-3.61328 0.49685,-7.44855 -2.3125,-11.6953 l -0.58593,-0.875 -0.0781,-0.1172 -0.125,0.72657 c -0.0198,0.11631 -0.0498,0.22093 -0.125,0.32813 -0.003,0.003 -0.006,0.005 -0.008,0.008 -0.0182,0.0251 -0.0381,0.0521 -0.0625,0.0781 -0.005,0.006 -0.01,0.01 -0.0158,0.0155 -0.0242,0.0247 -0.0472,0.0441 -0.0781,0.0703 -0.0178,0.0152 -0.0343,0.0309 -0.0547,0.0469 -0.0425,0.0332 -0.0859,0.0652 -0.14063,0.10155 -0.0118,0.008 -0.0187,0.0155 -0.0312,0.0235 -0.0709,0.046 -0.14885,0.0881 -0.24217,0.14062 -0.0865,0.0488 -0.1803,0.10053 -0.28908,0.15625 -0.0278,0.0143 -0.0487,0.0242 -0.0781,0.0391 -0.0919,0.0463 -0.1885,0.0889 -0.29688,0.1406 -0.20097,0.0961 -0.48495,0.2256 -0.75,0.34375 -0.0912,0.0406 -0.15062,0.0737 -0.25,0.1172 -0.18095,0.0794 -0.3128,0.1364 -0.52342,0.22655 -0.2799,0.12 -0.53678,0.22568 -0.875,0.3672 -0.35203,0.14755 -0.65517,0.271 -1.07815,0.4453 -0.27003,0.11137 -0.4952,0.20465 -0.79685,0.32815 -0.11262,0.0461 -0.24212,0.1005 -0.3594,0.14842 -1.3747,0.56175 -2.97502,1.20845 -5.0703,2.05468 -6.0499,2.4435 -11.3668,4.44995 -11.8125,4.46095 -1.0978,0.0269 -2.57475,-0.89163 -4.96875,-3.07813 -2.35807,-2.1537 -4.27543,-4.18632 -9.85155,-10.45312 -3.7938,-4.26363 -8.1513,-9.11353 -36.25,-40.375 -32.24243,-35.87155 -39.28777,-43.69563 -40.92965,-45.45303 -2.4481,-2.62032 -5.34317,-6.24812 -6.4375,-8.0625 -0.66,-1.09425 -0.87407,-1.71342 -0.8203,-2.35937 l 0.0703,-0.875 11,-4.4375 c 5.3912,-2.17587 8.29247,-3.31676 9.9453,-3.875 0.0747,-0.0275 0.1879,-0.0682 0.25782,-0.0937 0.003,-7.5e-4 0.006,7.5e-4 0.008,0 0.16548,-0.0542 0.29908,-0.0917 0.4375,-0.13281 0.0723,-0.0217 0.1297,-0.0441 0.1953,-0.0625 0.0294,-0.008 0.05,-0.008 0.0781,-0.0156 0.14835,-0.0405 0.28245,-0.0773 0.39842,-0.10156 0.10665,-0.0223 0.19763,-0.0368 0.28125,-0.0469 0.0238,-0.003 0.056,-0.006 0.0782,-0.008 0.0971,-0.008 0.18753,-0.008 0.2578,0 0.12883,0.0142 0.23658,0.0207 0.33595,0.0234 0.35333,0.01 0.52103,-0.0493 0.4453,-0.17188 -0.025,-0.0403 -0.06,-0.0895 -0.10937,-0.14062 -0.74118,-0.76686 -4.09015,-2.65911 -5.54688,-3.10156 -1.0653,-0.32358 -2.29425,-0.46907 -3.58595,-0.44532 z m 8.19532,2.47657 c 0.44726,0.33118 0.96343,0.76308 1.5625,1.28906 l 0.008,0 c 0.0341,0.03 0.0668,0.0552 0.10155,0.0859 0.0624,0.0552 0.13085,0.12117 0.1953,0.17968 l -0.17185,-0.1875 c -0.36765,-0.3921 -0.97892,-0.87782 -1.69532,-1.36718 z m -36.72657,24.36718 c 0.12935,-0.003 0.2609,-0.003 0.39065,0 2.24782,0.0564 4.63207,1.06664 7.0703,2.99219 0.7743,0.61148 5.22917,5.36106 9.89845,10.56249 4.66925,5.20147 16.684,18.57345 26.6953,29.71095 10.0113,11.1375 23.05017,25.64135 28.97655,32.23437 22.2239,24.72391 20.30345,22.48726 21.6797,25.26563 0.97742,1.97323 1.2697,2.8535 1.39062,4.1875 0.14413,1.58983 -0.0997,3.1017 -0.75782,4.64062 -0.0598,0.1399 -0.12073,0.28143 -0.1875,0.42188 -0.2669,0.56177 -0.58943,1.12622 -0.96875,1.70312 -1.54598,2.35145 -2.19338,3.02301 -8.2578,8.57033 -2.81875,2.57835 -8.55625,7.8528 -12.75,11.71875 -61.41663,56.6147 -71.84875,66.31043 -75.125,68.35155 -0.2621,0.1633 -0.47893,0.2739 -0.67188,0.35937 -0.48235,0.21368 -0.81837,0.24696 -1.35937,0.41408 -2.65783,0.82093 -4.9739,0.60758 -7.47655,-0.6797 -2.104,-1.08218 -4.12243,-2.91098 -8.125,-7.35155 -2.2745,-2.52332 -8.63495,-9.5922 -14.13283,-15.71095 -24.05795,-26.77483 -42.70627,-47.51615 -55.36717,-61.59375 -10.23543,-11.3806 -11.17933,-12.5284 -12.44533,-15.03125 -2.196,-4.34143 -1.6689,-8.0759 1.75783,-12.4297 0.77065,-0.97908 8.82495,-8.58023 19.3203,-18.23435 17.3112,-15.92383 51.41452,-47.33553 65.48437,-60.3125 3.71323,-3.42486 7.20453,-6.56071 7.75783,-6.96876 1.56385,-1.15353 4.37315,-2.40693 6.05467,-2.70313 0.1266,-0.0223 0.25478,-0.0384 0.38283,-0.0547 0.0207,-0.003 0.0416,-0.005 0.0625,-0.008 0.083,-0.01 0.16642,-0.0162 0.25,-0.0234 0.15195,-0.0131 0.30002,-0.0272 0.4531,-0.0312 z m -323.64061,74.41408 c -0.33481,0.002 -0.68472,0.019 -1.05469,0.039 -3.07824,0.1665 -5.92639,1.1604 -11.5,4.03125 -3.65326,1.8817 -56.18109,31.79613 -84.25,47.97655 -9.479088,5.46432 -13.25949,8.01627 -16.148438,10.90625 -3.514045,3.5154 -4.830612,5.98007 -6.960937,13.02345 -1.509392,4.9904 -21.630895,85.5473 -22.375,89.57812 -0.758875,4.11083 -0.85287,8.15113 -0.242188,10.50783 1.197618,4.62173 4.203883,8.37355 13.320313,16.6328 4.38783,3.97525 69.20641,61.48598 77.53906,68.79687 9.91262,8.69713 13.81046,11.43196 17.99219,12.60158 0.94877,0.26535 2.14996,0.35685 3.875,0.29685 3.32268,-0.11553 5.88841,-0.9925 11.75,-4.0078 4.50409,-2.31697 80.32774,-45.56882 89.75,-51.1953 13.04023,-7.78692 15.0789,-10.5454 19.09375,-25.83595 2.36743,-9.01633 20.2533,-80.754 20.77345,-83.3203 0.76395,-3.77022 1.04723,-7.28285 0.77342,-9.65625 -0.65647,-5.691 -3.53857,-9.50565 -15.01562,-19.875 -3.97933,-3.59535 -34.17237,-30.39505 -55.50781,-49.27345 -2.56403,-2.26875 -8.47692,-7.5069 -13.14063,-11.64063 -15.19194,-13.46552 -18.10613,-15.82082 -22.14062,-17.85157 -2.58145,-1.29933 -4.18763,-1.7495 -6.53125,-1.73435 z m -12.38282,6.625 c 0.11688,-0.004 0.22169,0 0.32813,0.008 0.0878,0.007 0.17601,0.016 0.25781,0.0312 0.0174,0.003 0.0375,0.004 0.0547,0.008 0.0237,0.005 0.0471,0.0102 0.0703,0.0158 0.0723,0.0175 0.14237,0.0384 0.21094,0.0625 0.15991,0.0557 0.29977,0.1258 0.42969,0.21092 l 0.008,0 c 0.0846,0.0559 0.16256,0.12513 0.23437,0.19533 0.10991,0.10735 0.20916,0.23 0.28906,0.375 0.0266,0.0483 0.0471,0.0956 0.0703,0.14842 0.001,0.002 -0.001,0.005 0,0.008 0.0699,0.15848 0.12416,0.33643 0.16406,0.53905 0.0265,0.13515 0.0494,0.27313 0.0625,0.4297 0.0136,0.15873 0.0157,0.32535 0.0156,0.5078 -2e-4,0.1794 -0.002,0.3667 -0.0156,0.5703 -0.0664,1.01913 -0.30145,2.34725 -0.70313,4.08595 -0.16034,0.69368 -0.34889,1.4528 -0.5625,2.28125 -0.70906,2.75 -5.64266,22.40953 -10.96875,43.6875 -1.29812,5.18605 -2.43018,9.71128 -3.42187,13.66405 -1.98337,7.90568 -3.40563,13.5256 -4.47656,17.59375 -0.26774,1.01708 -0.51517,1.93918 -0.74219,2.77345 -0.45404,1.66855 -0.83371,2.99603 -1.16406,4.0703 -0.41295,1.34295 -0.75103,2.28798 -1.0625,3.02345 -0.10374,0.2448 -0.20468,0.46803 -0.30469,0.67188 -0.0194,0.0394 -0.0432,0.0791 -0.0625,0.11717 -0.001,0.002 0.001,0.005 0,0.008 -0.4181,0.82573 -0.82842,1.37778 -1.36719,2.13283 -0.0897,0.12567 -0.18462,0.24815 -0.28125,0.375 -0.001,0.002 0.001,0.005 0,0.008 -0.28892,0.37882 -0.6081,0.7575 -0.95312,1.14062 -0.001,0.002 0.001,0.005 0,0.008 -0.22987,0.2551 -0.47478,0.51135 -0.72657,0.7656 -0.50631,0.51138 -1.05224,1.01313 -1.63281,1.50783 -0.003,0.002 -0.005,0.005 -0.008,0.008 -0.86855,0.73945 -1.81601,1.45682 -2.79687,2.10935 -0.29152,0.19402 -0.87549,0.55307 -1.6875,1.03907 -2.43606,1.45803 -6.89219,4.0389 -11.42969,6.61718 -13.9238,7.91197 -68.431493,39.09195 -73.75,42.1875 -0.275377,0.16035 -0.55814,0.32445 -0.84375,0.4844 -0.571373,0.32 -1.15451,0.63497 -1.71875,0.92967 -1.40978,0.73533 -2.698788,1.34095 -3.359375,1.5625 -0.527745,0.17698 -1.045313,0.33165 -1.453125,0.44533 -0.407812,0.11352 -0.705872,0.18417 -0.796875,0.17967 -0.16357,-0.008 -0.33343,-0.0473 -0.5,-0.10937 -0.33314,-0.12415 -0.652718,-0.3436 -0.890625,-0.60938 -0.118435,-0.13317 -0.212913,-0.27977 -0.28125,-0.42967 -0.0474,-0.10408 -0.09495,-0.2054 -0.132813,-0.3125 -0.05682,-0.16073 -0.09539,-0.33455 -0.117187,-0.5625 -0.0074,-0.0781 -0.01362,-0.1585 -0.01563,-0.25 -0.0022,-0.0889 -0.0035,-0.18468 0,-0.28908 0.01792,-0.52302 0.113515,-1.25157 0.320312,-2.36717 0.01347,-0.0729 0.03243,-0.17393 0.04687,-0.25 0.16207,-0.85373 0.378146,-1.8856 0.679688,-3.22658 0.493232,-2.19207 1.192737,-5.12352 2.164062,-9.08592 0.322845,-1.3175 0.677135,-2.7487 1.0625,-4.3047 5.01e-4,-0.002 -5e-4,-0.005 0,-0.008 0.772273,-3.11825 1.67431,-6.73265 2.726563,-10.9375 1.052345,-4.20495 2.254058,-8.99745 3.625,-14.46095 1.463945,-5.83415 2.875447,-11.45065 4.179687,-16.6172 3.25819,-12.9067 5.827805,-22.97695 6.742188,-26.42185 0.182915,-0.68915 0.300825,-1.1133 0.34375,-1.2422 0.59737,-1.79393 1.34243,-3.39695 2.3125,-4.8828 0.194015,-0.29723 0.396982,-0.5864 0.609375,-0.875 0.211215,-0.2871 0.441342,-0.57175 0.671875,-0.85158 0.0012,-0.002 -0.0012,-0.005 0,-0.008 2.087355,-2.5322 4.98672,-4.78882 9.125,-7.24217 0.391477,-0.23208 1.834035,-1.06493 4.070312,-2.35158 11.18139,-6.4331 42.275998,-24.25082 61.898438,-35.46875 7.84898,-4.48687 13.86511,-7.916 16.03125,-9.1406 0.68991,-0.39015 1.29978,-0.73255 1.89844,-1.0625 0.14304,-0.0789 0.26029,-0.1432 0.39843,-0.21875 0.21644,-0.1186 0.38898,-0.20975 0.59375,-0.32032 0.31305,-0.16903 0.62695,-0.33333 0.91407,-0.48438 0.30103,-0.15837 0.58515,-0.30607 0.85937,-0.4453 0.13268,-0.0674 0.27174,-0.14007 0.39844,-0.20315 0.0329,-0.0163 0.0612,-0.0309 0.0937,-0.0469 0.35706,-0.17662 0.70371,-0.34172 1.01562,-0.4844 0.11659,-0.0533 0.22522,-0.10747 0.33594,-0.15625 0.0604,-0.0265 0.1132,-0.045 0.17188,-0.0703 0.0861,-0.0371 0.16742,-0.0674 0.25,-0.10155 0.073,-0.0303 0.14841,-0.0657 0.21875,-0.0937 0.18835,-0.0753 0.36875,-0.14292 0.53906,-0.20315 0.1767,-0.0623 0.34096,-0.11722 0.5,-0.16405 0.008,-0.002 0.0151,-0.005 0.0234,-0.008 0.0982,-0.0286 0.1971,-0.0476 0.28907,-0.0703 0.10461,-0.0259 0.20751,-0.0515 0.30468,-0.0703 0.10662,-0.0205 0.20623,-0.0424 0.30469,-0.0547 l 0.0156,0 c 0.10296,-0.0125 0.20191,-0.02 0.29687,-0.0235 z m 23.40625,3.17185 c 0.2021,0.002 0.40459,0.0183 0.60938,0.0625 1.14437,0.2478 3.38797,1.4151 4.83594,2.51565 1.49833,1.1387 4.09979,3.43495 37.11718,32.72655 3.10072,2.75083 9.56947,8.48245 14.375,12.7422 36.65416,32.49065 34.926,30.9205 37.10938,33.80467 2.41057,3.18428 3.2455,5.59911 3.25,9.41408 0.003,2.40718 -0.2028,3.27118 -9.76563,41.5 -12.28314,49.1037 -11.60857,46.50543 -12.5,48.34375 -0.41917,0.86435 -1.09182,1.7919 -1.51562,2.09375 -1.35708,0.9663 -2.5741,0.90618 -4.84375,-0.2422 -2.38743,-1.20797 -1.98658,-0.87448 -14.52344,-12.03905 C 235.86462,492.10585 225.35625,482.7731 218,476.25 c -7.35625,-6.52313 -20.79989,-18.44535 -29.875,-26.4922 -9.07511,-8.0468 -17.56886,-15.55725 -18.875,-16.6875 -3.58503,-3.10213 -6.03742,-6.31768 -7.28125,-9.54685 -0.81902,-2.1264 -0.94132,-6.30978 -0.25781,-8.78125 0.28446,-1.02863 5.19316,-20.5422 10.91406,-43.3672 5.7209,-22.825 10.63476,-41.95 10.91406,-42.5 0.9244,-1.82035 2.24936,-2.8199 3.66406,-2.8047 z m 449.03908,1.57815 c 0.91998,1.29375 1.67435,2.5092 2.2578,3.67185 -0.64487,-1.32395 -1.40358,-2.64895 -1.9375,-3.28905 l -0.3203,-0.3828 z m 2.2578,3.67185 c 0.0986,0.19658 0.19218,0.39238 0.28125,0.58595 -0.0901,-0.196 -0.18472,-0.38777 -0.28125,-0.58595 z m 0.28125,0.58595 c 0.79502,1.72803 1.20475,3.34365 1.2422,4.92188 -0.005,-0.95468 -0.14467,-1.9013 -0.4219,-2.84375 -0.16603,-0.56453 -0.46518,-1.30548 -0.8203,-2.07813 z m 228.76562,6.92188 c -2.80962,0.0153 -5.29687,0.29235 -5.29687,0.70312 0,0.12033 0.92758,0.21875 2.0625,0.21875 1.13492,0 8.25265,0.78645 15.8125,1.75 32.5942,4.15435 41.30765,5.29723 42.1797,5.52345 1.03565,0.2686 1.6953,0.81955 1.6953,1.40625 0,1.00653 -3.38613,3.27693 -9.25,6.2031 -1.85625,0.92638 -11.7,5.95368 -21.875,11.1797 -10.175,5.22603 -28.68125,14.73545 -41.125,21.125 -12.44375,6.38955 -26.05625,13.39278 -30.25,15.5703 -13.56697,7.04443 -16.99195,8.03353 -24.375,7.01565 -5.10263,-0.70357 -37.29323,-4.82025 -46.25,-5.91407 -3.9875,-0.48698 -7.66633,-0.99728 -8.1797,-1.13283 -1.19678,-0.31587 -1.5409,-0.90647 -1.05468,-1.84375 0.20108,-0.38747 0.31715,-0.76095 0.25,-0.8281 -0.28125,-0.28125 -4.6123,2.7142 -6.54687,4.53125 -1.66062,1.5596 -2.28657,2.35915 -3.03125,3.86717 l -0.9375,1.89843 0.0155,3.51565 c 0.0175,3.95325 0.22712,4.9487 2.32812,11.1328 1.81623,5.34585 1.77025,5.21797 10.23438,27.125 22.89768,59.2642 30.49823,78.90122 32.96092,85.125 2.7849,7.03795 5.68275,13.30692 7.22658,15.6328 2.14277,3.22828 4.8274,5.5077 7.82032,6.63282 3.18393,1.197 3.70085,1.27185 39.66405,5.86718 11.4125,1.45832 21.81875,2.74267 23.125,2.85157 3.4326,0.2862 4.11115,0.28573 6.75,0.008 4.60163,-0.48462 8.35306,-1.86202 17.625,-6.45315 6.39663,-3.16732 82.82808,-42.37065 95.5,-48.98435 10.70378,-5.58655 13.76215,-7.47572 16.6797,-10.32815 4.11901,-4.02702 4.69463,-8.71435 2.11718,-17.10154 -1.56792,-5.10215 -1.97315,-6.1812 -28.28908,-74.25 -13.82015,-35.7473 -16.84357,-43.47405 -18.53905,-47.46095 -5.3147,-12.49743 -8.63132,-15.5859 -18.46875,-17.17185 -3.91922,-0.6319 -52.8537,-6.88943 -56.75,-7.25783 -1.20602,-0.11403 -2.55102,-0.1632 -3.82812,-0.15625 z m 65.5625,24.39842 c 2.03595,0.0153 3.87383,0.6549 5.32813,1.88283 1.50622,1.27175 3.46485,4.59755 4.9453,8.39842 7.9123,20.31393 42.03493,108.74095 42.4844,110.09375 1.72097,5.18035 1.34992,9.32325 -1.125,12.53125 -2.04932,2.65628 -3.48338,3.48678 -26.4922,15.3047 -81.7813,42.00495 -80.8239,41.51828 -82.85938,42.04687 -1.09152,0.28348 -2.55402,0.50925 -3.25,0.5 -4.0946,-0.0541 -7.15954,-3.02949 -9.61717,-9.33592 -0.54078,-1.38762 -4.26285,-11.0172 -8.27345,-21.39845 -4.01063,-10.38125 -9.861,-25.5125 -13,-33.625 -17.60328,-45.49403 -21.96623,-56.88305 -22.27345,-58.125 -0.187,-0.75625 -0.34123,-2.55625 -0.34375,-4 -0.004,-2.43968 0.0452,-2.74215 0.78907,-4.3125 0.85348,-1.8018 2.71118,-3.94813 4.57033,-5.28905 0.62402,-0.45017 3.66405,-2.12288 6.7578,-3.71095 3.09375,-1.58808 15.8625,-8.14468 28.375,-14.5703 12.5125,-6.42565 28.99375,-14.88815 36.625,-18.8047 7.63125,-3.91658 17.98125,-9.22818 23,-11.8125 5.01875,-2.5843 9.89335,-4.93847 10.83595,-5.22655 1.07192,-0.3277 2.1174,-0.50622 3.11717,-0.53908 0.13748,-0.005 0.27053,-0.009 0.40625,-0.008 z m -196.0625,55.6719 c 0.14746,0 0.30635,0.004 0.49218,0.008 0.87037,0.0155 8.6172,0.94417 17.21095,2.0625 8.59375,1.11835 21.08125,2.71835 27.75,3.5625 13.37785,1.6934 13.571,1.73945 15.89062,3.78125 2.46105,2.1663 4.50126,5.97107 7.60158,14.14845 1.07723,2.84128 4.68235,12.1953 8.0078,20.78905 3.32542,8.59375 7.84825,20.29375 10.0547,26 2.2064,5.70625 8.40022,21.68125 13.7578,35.5 5.35757,13.81875 9.9592,25.74375 10.23437,26.5 0.88071,2.42035 1.45313,5.03832 1.45313,6.66405 0,1.38273 -0.0918,1.67422 -0.71095,2.3672 -0.60518,0.67737 -0.90463,0.80335 -2.0625,0.8672 -0.74497,0.041 -8.21405,-0.81327 -16.60155,-1.90625 -8.3875,-1.09305 -20.89098,-2.72035 -27.78125,-3.6094 -7.99253,-1.03117 -12.93602,-1.77648 -13.66405,-2.0625 -3.95938,-1.55522 -6.57542,-5.41243 -10.58595,-15.625 -2.2947,-5.84335 -22.35627,-57.69515 -38.10155,-98.47655 -4.70595,-12.18855 -5.4922,-14.68723 -5.4922,-17.44525 0,-1.3232 0.0897,-1.61592 0.72655,-2.32815 0.60027,-0.67125 0.7881,-0.7944 1.82032,-0.79685 z M 146.6875,440.5625 c 1.94707,-0.004 3.81783,0.5302 5.9375,1.5547 2.7955,1.35105 3.59705,1.9601 9.50781,7.25 2.61603,2.34123 11.55978,10.2859 19.875,17.65625 8.31522,7.37028 24.17832,21.43275 35.25,31.25 11.07169,9.81712 21.22962,18.8078 22.57813,19.97655 4.95104,4.29107 6.65346,7.71412 5.28125,10.625 -0.87879,1.86418 -2.79707,3.40385 -8.03125,6.4375 -2.7264,1.58018 -22.99371,13.18038 -45.03125,25.78125 -40.19149,22.98113 -41.85741,23.8886 -44.8125,24.28125 -2.13539,0.28372 -2.37404,0.29308 -3.64063,0.1172 -1.59041,-0.22087 -2.86997,-0.6336 -4.47656,-1.4375 -2.87987,-1.44105 -3.00869,-1.54853 -20.39062,-16.96095 -4.04889,-3.5901 -10.0096,-8.8776 -13.25,-11.75 C 43.373137,500.2868 49.017293,505.40877 47.445312,502.7422 c -1.752972,-2.97365 -1.480762,-4.97035 1.03125,-7.5469 1.240133,-1.27192 3.994398,-2.9162 24.648438,-14.71875 27.24381,-15.56812 58.16721,-33.26485 63.5,-36.33593 4.20602,-2.42217 7.21678,-3.57212 10.0625,-3.57812 z m 376.5,7.53125 c -0.0472,0.0383 -0.12945,0.0911 -0.25,0.15625 0.12325,-0.0664 0.20217,-0.11745 0.25,-0.15625 z m -2.47655,1.16405 c -0.74053,0.31612 -1.64863,0.70015 -2.7422,1.14845 1.0786,-0.4423 2.01155,-0.83643 2.7422,-1.14845 z M 722.6172,549.39062 c -1.85935,0.025 -2.48345,0.17158 -4.28908,0.79688 -2.8318,0.98068 -6.55904,2.83417 -11.46092,5.70312 -3.25397,1.90445 -83.67517,51.34103 -99.1172,60.92968 -14.08315,8.74487 -18.34798,12.31862 -20.0547,16.8047 -0.86063,2.26225 -0.81048,6.40363 0.1172,9.53125 0.97137,3.27485 1.58332,4.6172 2.03125,4.4453 0.55843,-0.21428 1.76335,0.79727 3.7422,3.14845 0.98365,1.16875 5.49812,6.4 10.03125,11.625 24.87638,28.67348 39.86902,45.9182 41.05467,47.21095 4.4461,4.84753 8.1215,10.56697 11.4375,17.8125 3.97463,8.68448 36.42603,78.53558 38.89843,83.72655 1.9253,4.0421 2.51675,5.80715 2.1797,6.54687 -0.24565,0.53913 -0.1543,0.72438 0.95312,1.86718 2.72323,2.8103 5.54363,4.7682 8.23438,5.72657 1.83798,0.65465 5.4178,0.62943 7.95312,-0.0547 2.82168,-0.7614 8.77218,-3.80562 16.17188,-8.27345 5.91908,-3.57388 86.14768,-52.9428 96.5,-59.3828 12.68213,-7.88937 17.1355,-11.63767 18.79687,-15.8047 0.75708,-1.89883 0.91133,-5.7935 0.32813,-8.4453 -0.93355,-4.24505 -1.87077,-6.38458 -16.6953,-38.3047 -5.84307,-12.58125 -13.96815,-30.075 -18.0547,-38.875 -13.17585,-28.373 -13.5554,-29.03195 -24.10155,-41.25 -3.67297,-4.25518 -35.23625,-40.62595 -44.3672,-51.125 -7.52882,-8.65685 -11.37773,-12.17382 -15,-13.71095 -1.35203,-0.5737 -1.86973,-0.64843 -4.40625,-0.64843 -0.32293,-5e-5 -0.61725,-0.004 -0.8828,0 z m -442.4375,3.875 c -1.3569,0 -1.91867,0.13756 -3.14065,0.5625 -3.8725,1.34676 -7.01557,3.80725 -15.0078,11.74218 -7.178,7.1266 -78.55043,80.08605 -82.22656,84.0547 -4.86908,5.25652 -7.3027,8.6366 -8.51563,11.83595 -0.53772,1.4183 -0.62675,2.07523 -0.625,4.41405 0.002,2.4227 0.0913,3.02377 0.78125,5.04687 1.54258,4.52328 1.08398,3.69028 27.24219,49.20313 27.37117,47.62328 27.11864,47.2101 31.46875,51.53905 4.20953,4.1891 4.5966,4.38965 56.59375,29.96095 16.98125,8.3511 32.28125,15.83145 34,16.6172 4.49505,2.05483 7.85633,3.25093 10.125,3.60155 0.4125,0.0638 1.70625,0.0777 2.875,0.0312 4.9422,-0.19655 8.5365,-2.45877 16.85155,-10.6172 3.94633,-3.87188 54.40715,-55.3056 77.90625,-79.40625 13.09445,-13.42953 15.472,-17.08845 15.1797,-23.33593 -0.20842,-4.4546 -1.57917,-7.53557 -9.4375,-21.26562 -15.1185,-26.41505 -41.60697,-72.33485 -43.2578,-74.9922 -3.42113,-5.50683 -6.52592,-9.1312 -9.9922,-11.66405 -2.34615,-1.71438 -5.55237,-3.4957 -13.35155,-7.39845 -14.7075,-7.3596 -71.08518,-35.02655 -74.77345,-36.6953 -5.64348,-2.5534 -7.40103,-3.06685 -11.01563,-3.1953 -0.68329,-0.0243 -1.22744,-0.0388 -1.67967,-0.0391 z m 437.91405,1.39063 c 1.33407,-0.0289 2.54112,0.22507 3.6797,0.7578 2.15678,1.00932 2.82123,1.62327 7.4375,6.9297 11.46165,13.17535 46.12625,53.1005 48.35155,55.6875 2.26532,2.63352 2.8015,5.51442 1.46095,7.85155 -0.75555,1.3172 -3.46582,4.02232 -5.15625,5.14845 -0.5449,0.36297 -11.51095,7.12842 -24.3672,15.03125 -31.1889,19.17205 -75.39707,46.39638 -79.1328,48.73437 -3.35932,2.10235 -6.44,3.54853 -8.71875,4.08593 -2.24825,0.5303 -4.03398,0.45698 -5.7344,-0.24218 -2.12362,-0.8732 -3.12683,-1.65887 -5.09375,-3.96875 -0.9656,-1.13405 -13.0899,-15.10889 -26.9453,-31.05467 -16.3599,-18.82812 -25.373,-29.3866 -25.70313,-30.1172 -0.7549,-1.67065 -0.83564,-3.43355 -0.21875,-4.82813 1.24028,-2.80387 3.41635,-4.6081 12.04688,-9.97657 20.80615,-12.94193 98.22855,-60.47833 100.125,-61.47655 3.1758,-1.67162 5.74527,-2.5143 7.96875,-2.5625 z m -439.375,3.9922 c 0.18757,-0.003 0.37948,0.002 0.5703,0.008 0.11505,0.004 0.22805,0.009 0.34375,0.0155 0.39022,0.0217 0.7815,0.0619 1.1719,0.11717 0.07,0.01 0.14105,0.0203 0.21092,0.0312 0.19153,0.0303 0.38145,0.0634 0.57033,0.10158 0.155,0.0312 0.3086,0.0651 0.46092,0.10157 0.0335,0.008 0.0682,0.0153 0.10158,0.0235 0.10002,0.0248 0.1984,0.051 0.29685,0.0781 0.0832,0.023 0.16822,0.0458 0.25,0.0703 0.17707,0.053 0.35357,0.11143 0.52345,0.1719 0.49917,0.1776 10.6375,5.108 22.53125,10.9531 23.78785,11.69052 38.13297,18.72855 46.84375,23.07033 l 0.008,0 c 0.48305,0.24075 0.84785,0.43177 1.2969,0.65625 2.24947,1.12464 4.17865,2.09272 5.67185,2.85937 1.79145,0.91988 3.0939,1.61135 4.0547,2.14845 l 0.008,0 c 0.23772,0.13288 0.45882,0.26 0.65625,0.375 0.39875,0.23193 0.7152,0.42918 0.97658,0.60155 0.13065,0.0862 0.24855,0.16745 0.35157,0.2422 0.2059,0.14935 0.36298,0.28153 0.48435,0.39843 0.17935,0.1735 0.28488,0.31685 0.375,0.46875 0.002,0.003 0.005,0.005 0.008,0.008 0.0283,0.048 0.0509,0.0985 0.0781,0.14843 0.002,0.003 0.005,0.005 0.008,0.008 0.0566,0.1037 0.11832,0.21915 0.19532,0.34375 0.0731,0.11817 0.13408,0.2315 0.19533,0.35155 0.002,0.003 0.005,0.005 0.008,0.008 0.12027,0.23717 0.21547,0.48037 0.28905,0.72657 0.0746,0.24938 0.13,0.50423 0.15625,0.76563 0.0395,0.3921 0.0235,0.79977 -0.0468,1.22655 -0.0868,0.52605 -0.26723,1.08525 -0.52346,1.6797 -0.0202,0.0468 -0.0334,0.0933 -0.0547,0.14062 -0.29257,0.65196 -0.68347,1.34608 -1.17967,2.10158 -0.057,0.0867 -0.1301,0.18862 -0.21875,0.30467 -0.13567,0.17763 -0.336,0.4156 -0.57813,0.69533 -0.0732,0.0846 -0.13347,0.15372 -0.21875,0.25 -0.18567,0.20967 -0.39732,0.44487 -0.64845,0.71875 -0.24895,0.2716 -0.52727,0.5758 -0.85155,0.92185 -0.0208,0.0222 -0.0493,0.0478 -0.0703,0.0703 -0.30893,0.3293 -0.64633,0.68875 -1.03125,1.09375 -1.64173,1.7272 -4.01793,4.1819 -7.47658,7.73438 -1.7279,1.77475 -3.7191,3.82182 -6.03125,6.1875 -4.62482,4.7319 -10.50555,10.73615 -17.99217,18.375 -6.40123,6.53125 -19.3818,19.80625 -28.84375,29.5 -9.46203,9.69375 -18.46138,18.87452 -20,20.40625 -0.1936,0.19265 -0.38488,0.38487 -0.57815,0.5703 -0.96623,0.92762 -1.92635,1.76215 -2.85935,2.4922 -0.55995,0.43802 -1.11325,0.83737 -1.64846,1.1953 -0.1784,0.1194 -0.35629,0.23387 -0.53125,0.34375 -0.34992,0.21987 -0.68937,0.42077 -1.02345,0.60157 -0.1669,0.0904 -0.32972,0.17758 -0.49217,0.25783 -0.16253,0.0802 -0.32673,0.15667 -0.48438,0.22655 -0.31532,0.13975 -0.62034,0.25487 -0.91404,0.35155 -0.48258,0.15885 -0.96228,0.29022 -1.4375,0.39065 -0.4753,0.10037 -0.94418,0.169 -1.41408,0.21092 -0.78385,0.0697 -1.55985,0.0615 -2.33592,-0.0312 -0.3103,-0.037 -0.6197,-0.0854 -0.92971,-0.14842 -0.1551,-0.0316 -0.31362,-0.0713 -0.46875,-0.1094 -0.31012,-0.076 -0.61889,-0.16358 -0.9297,-0.2656 -0.13407,-0.044 -0.73882,-0.31805 -1.71875,-0.78125 -1.95995,-0.92638 -5.41485,-2.6 -9.5781,-4.63283 -2.08157,-1.01645 -4.3422,-2.1229 -6.6797,-3.27342 -15.69774,-7.72665 -29.96041,-14.73407 -54.25,-26.66408 -1.22396,-0.60115 -2.3156,-1.13962 -3.28906,-1.625 -1.94692,-0.97075 -3.42369,-1.73112 -4.5625,-2.35937 -0.2847,-0.15705 -0.54477,-0.30338 -0.78906,-0.4453 -0.48847,-0.28428 -0.90674,-0.5425 -1.25781,-0.78125 -0.35108,-0.23888 -0.6368,-0.45843 -0.88282,-0.6719 -0.12156,-0.10523 -0.23411,-0.21755 -0.33593,-0.3203 -0.10143,-0.10273 -0.2034,-0.20203 -0.28907,-0.3047 -0.001,-0.003 0.001,-0.005 0,-0.008 -0.25994,-0.31218 -0.45336,-0.62778 -0.64062,-0.98438 -0.11087,-0.21112 -0.19976,-0.42742 -0.26563,-0.65625 -0.0651,-0.22625 -0.11198,-0.4667 -0.13281,-0.71092 -2.1e-4,-0.002 2.1e-4,-0.005 0,-0.008 -0.0206,-0.24703 -0.017,-0.49935 0.008,-0.76563 0.0124,-0.13334 0.0309,-0.26792 0.0547,-0.40625 0.0476,-0.27622 0.1176,-0.56257 0.21094,-0.85937 0.0926,-0.29515 0.21371,-0.60565 0.35156,-0.92188 0.001,-0.003 -10e-4,-0.005 0,-0.008 0.13862,-0.31637 0.30027,-0.64604 0.48437,-0.9844 0.0916,-0.1684 0.19399,-0.34157 0.29688,-0.5156 0.001,-0.003 -10e-4,-0.005 0,-0.008 0.20838,-0.35222 0.44052,-0.71029 0.69531,-1.08592 0.21631,-0.319 0.39684,-0.58307 0.70313,-0.96095 0.001,-0.003 -0.001,-0.005 0,-0.008 1.33868,-1.64982 5.1524,-5.55292 25.50781,-26.3672 31.04268,-31.74248 50.83197,-51.96748 54.62502,-55.83595 0.37675,-0.38423 0.74613,-0.75485 1.10155,-1.10935 4.26275,-4.25188 7.04458,-6.4062 9.76563,-7.46875 0.4536,-0.1771 0.91067,-0.32427 1.36715,-0.44533 0.22835,-0.0606 0.45607,-0.1158 0.6875,-0.16407 0.13357,-0.0278 0.26697,-0.0561 0.40625,-0.0781 0.0413,-0.007 0.0833,-0.01 0.125,-0.0158 0.131,-0.0193 0.26345,-0.0326 0.39847,-0.0468 0.1076,-0.0115 0.21823,-0.023 0.32813,-0.0312 0.0881,-0.007 0.17622,-0.0115 0.26562,-0.0158 0.13388,-0.007 0.26978,-0.013 0.40625,-0.0155 z m 104.75,60.36717 c 0.75997,-0.006 1.47495,0.15431 2.14062,0.47658 2.10075,1.01695 3.34283,2.71163 8.32813,11.3828 7.50988,13.06225 9.96495,17.34272 18.60937,32.375 26.31263,45.75643 24.48378,42.50477 24.94533,44.21875 1.2015,4.46213 0.59943,7.59352 -2.26565,11.8125 -1.30912,1.92787 -2.18455,2.84672 -22.46875,23.59375 -66.0881,67.59615 -64.2018,65.71575 -67.49218,67.375 -1.59985,0.80678 -3.62855,0.91448 -4.89842,0.26562 -2.39952,-1.22597 -3.02888,-2.18007 -14.0625,-21.39062 -20.8637,-36.32547 -24.22697,-42.18398 -30.69533,-53.39845 -3.73087,-6.46835 -6.81102,-12.09128 -7.11717,-13 -1.44227,-4.28008 -0.70815,-7.98883 2.46875,-12.47655 0.6326,-0.89375 9.2476,-9.89375 19.14842,-20 21.24833,-21.6892 47.94741,-48.96433 58.67968,-59.95313 4.2057,-4.30617 8.25205,-8.29167 8.9922,-8.85157 2.1209,-1.60428 4.01553,-2.41518 5.6875,-2.42968 z M 789.875,643.39845 c 2.43348,-0.0264 3.43702,0.40075 5.28905,2.24217 1.41892,1.41073 1.82717,2.15508 5.21095,9.47658 1.27382,2.7561 10.15965,21.8828 19.7422,42.5078 9.58248,20.625 17.59308,38.1724 17.80467,38.9922 0.54813,2.12347 0.3552,5.39185 -0.40625,6.8828 -0.92182,1.80493 -2.26447,3.4341 -4.14062,5.03125 -1.84727,1.57255 -4.48262,3.23727 -31.25,19.71875 -83.18533,51.21973 -78.40292,48.3556 -82.0703,49.1328 -1.9936,0.42242 -2.0828,0.42445 -3.63283,0.008 -1.60895,-0.43248 -3.052,-1.48367 -4.32032,-3.14843 -0.97983,-1.28622 -2.8567,-5.25317 -23.48435,-49.7422 -1.81695,-3.91875 -6.64548,-14.325 -10.7344,-23.125 -5.43215,-11.69107 -7.5333,-16.47127 -7.80468,-17.75 -0.78525,-3.69997 0.18601,-6.65329 3.22658,-9.78905 2.16815,-2.23609 3.2879,-2.99815 14.5703,-9.89845 8.30118,-5.07697 79.78498,-49.07585 90.58595,-55.7578 6.123,-3.78795 8.40873,-4.7487 11.41405,-4.78125 z m -612.28125,33.375 c 0.65602,0 1.51283,0.19308 2.40625,0.5703 0.75625,0.31933 19.23507,9.37098 41.0625,20.1172 C 242.88992,708.20713 260.82173,717 260.91405,717 c 0.0925,0 1.41365,0.82877 2.9375,1.84375 2.98025,1.98495 5.92227,4.82597 7.94532,7.66405 0.63898,0.8964 3.15751,5.11515 5.59375,9.375 7.20248,12.59383 38.73428,67.41032 41.19533,71.6172 3.58485,6.12833 4.20598,7.64982 3.53125,8.6797 -0.3666,0.55943 -1.2219,0.72002 -2.1172,0.39842 -2.41465,-0.86737 -7.3502,-3.23412 -28.125,-13.46092 -13.3375,-6.56565 -27.4,-13.47905 -31.25,-15.3672 -26.30993,-12.90305 -26.80163,-13.18332 -30.75,-17.28905 -3.5492,-3.69068 -2.75075,-2.38905 -21.25781,-34.58595 -6.16483,-10.725 -15.41628,-26.8125 -20.55469,-35.75 -11.72742,-20.39807 -12.47669,-21.89847 -11.5625,-23 0.19794,-0.2385 0.58351,-0.3516 1.09375,-0.35155 z m 302.09375,77.0703 c -0.22413,0.004 -0.47263,0.0168 -0.73438,0.0312 -0.17847,0.01 -0.36275,0.0243 -0.55467,0.039 -0.14205,0.011 -0.2819,0.018 -0.4297,0.0312 -0.2254,0.0205 -0.45268,0.0441 -0.6875,0.0703 -0.088,0.01 -0.1768,0.0285 -0.26563,0.0391 -0.18515,0.022 -0.36755,0.0372 -0.55467,0.0625 -0.3634,0.049 -0.72775,0.10348 -1.08595,0.16405 -2.52943,0.42775 -27.62192,6.2001 -29.75,6.84375 -3.39457,1.0267 -5.77112,2.58388 -7.8828,5.70312 -0.1242,0.18345 -0.2447,0.36806 -0.3672,0.5625 l 0,0.008 c -0.12133,0.1927 -0.24723,0.38978 -0.3672,0.59375 l 0,0.008 c -0.0433,0.0737 -0.0896,0.15145 -0.1328,0.22655 -0.19813,0.34485 -0.39013,0.70058 -0.58595,1.07815 -0.11928,0.23001 -0.24058,0.46043 -0.35935,0.7031 -0.71423,1.458 -1.42005,3.14808 -2.15625,5.1172 -0.24503,0.65538 -0.48983,1.33595 -0.7422,2.0547 -0.25353,0.72171 -0.51003,1.46875 -0.77345,2.2578 -0.2724,0.81608 -0.72223,2.21248 -1.29685,4.03905 -1.72395,5.47988 -4.59173,14.82345 -7.33595,23.89845 -3.65895,12.1 -7.8849,26.05 -9.3828,31 -5.59593,18.49193 -9.70895,32.06978 -12.7344,42.1328 -2.26923,7.54758 -3.92445,13.11675 -5.1328,17.3047 -0.80543,2.79173 -1.41108,4.96598 -1.8672,6.70313 -0.1147,0.43675 -0.22378,0.84255 -0.3203,1.22657 -0.096,0.38206 -0.17833,0.73496 -0.2578,1.0703 -0.1599,0.67373 -0.28795,1.25485 -0.39065,1.77345 -0.0511,0.25833 -0.0936,0.49848 -0.1328,0.72655 -0.11852,0.6876 -0.18833,1.24553 -0.22655,1.7578 -0.0128,0.17018 -0.0245,0.3304 -0.0312,0.4922 -0.0351,0.81213 -0.004,1.54783 -0.008,2.5625 l -0.0155,4.0078 0.8203,1.66408 c 0.14308,0.2908 0.30248,0.5813 0.4844,0.86717 0.0909,0.14303 0.18878,0.28038 0.28905,0.4219 0.002,0.003 -0.002,0.006 0,0.008 0.0992,0.13978 0.20435,0.27598 0.3125,0.41405 0.11075,0.14145 0.2238,0.28235 0.34375,0.4219 0.11842,0.13788 0.23998,0.27038 0.3672,0.40625 0.25573,0.27301 0.53033,0.54118 0.8203,0.80468 0.14412,0.1311 0.28523,0.26215 0.4375,0.39062 0.002,0.003 0.006,-0.003 0.008,0 0.15082,0.12713 0.30237,0.25065 0.46095,0.375 0.16307,0.1279 0.3289,0.25023 0.5,0.375 0.16795,0.12261 0.33233,0.24783 0.5078,0.3672 l 0.008,0 c 0.17377,0.11811 0.3503,0.23678 0.53125,0.35155 0.18467,0.11716 0.37057,0.23028 0.5625,0.34375 0.18995,0.11235 0.38127,0.21958 0.57812,0.32813 0.19883,0.10968 0.39593,0.21465 0.60155,0.32032 0.32425,0.16651 0.61838,0.32156 0.90625,0.46875 l 0.008,0 c 0.28568,0.14598 0.56003,0.28848 0.85158,0.42968 0.29552,0.14323 0.60135,0.2847 0.9453,0.4375 0.34152,0.15175 0.71692,0.3087 1.14845,0.48437 0.4332,0.17643 0.91767,0.37076 1.48435,0.58595 0.56357,0.21401 1.19982,0.44408 1.9375,0.71093 0.74025,0.26775 1.5728,0.56287 2.53125,0.89842 0.95397,0.33408 2.0221,0.7093 3.2344,1.125 l 0.008,0 c 2.42345,0.83108 5.40985,1.84235 9.1172,3.08595 11.13147,3.73403 28.80367,9.58603 57.5703,19.1172 19.3348,6.40611 31.6039,10.46925 39.6797,13.10155 l 0.008,0 c 6.72502,2.192 10.54427,3.39285 13.10155,4.125 1.02332,0.29298 1.84312,0.51026 2.57033,0.6875 1.09082,0.26588 1.97077,0.4376 2.99217,0.6328 0.1437,0.0275 0.30095,0.0545 0.46875,0.0782 0.0678,0.01 0.14717,0.0148 0.21875,0.0235 0.0794,0.01 0.15818,0.0222 0.2422,0.0312 0.0444,0.005 0.0871,0.011 0.1328,0.0155 0.17832,0.0177 0.36518,0.0325 0.5625,0.0469 0.2003,0.0148 0.42142,0.028 0.64065,0.0391 l 0.0468,0 c 0.238,0.0113 0.4833,0.0242 0.7422,0.0312 0.008,2.2e-4 0.0152,0 0.0235,0 0.14678,0.004 0.29985,0.005 0.4531,0.008 0.38132,0.006 0.77588,0.0103 1.19532,0.008 0.29796,-0.003 0.60581,-0.01 0.92188,-0.0155 l 3.875,-0.0703 12.75,-2.92967 c 18.88558,-4.33155 19.25987,-4.4386 22.1953,-6.57816 0.22052,-0.1607 0.44645,-0.34875 0.6797,-0.5625 0.11785,-0.10799 0.23185,-0.224 0.35155,-0.34375 0.237,-0.23662 0.47957,-0.49045 0.71875,-0.76559 0.23907,-0.27523 0.4767,-0.57085 0.71095,-0.875 0.23425,-0.30423 0.46502,-0.61403 0.6875,-0.9375 0.33395,-0.48525 0.64977,-0.99053 0.9375,-1.49221 0.1917,-0.33447 0.36883,-0.67025 0.53125,-1 0.1625,-0.32975 0.3113,-0.65335 0.4375,-0.96875 l 0.39062,-0.9922 c -0.41247,0.97403 -0.81685,1.85268 -1.23437,2.64845 -0.22372,0.18758 -0.45372,0.37441 -0.67188,0.55471 0.13583,-0.23158 0.27168,-0.46501 0.40625,-0.71096 l 0.82033,-1.5 -0.7344,0.65625 c -0.23418,0.21073 -0.43853,0.37698 -0.66405,0.53125 -0.0528,0.0361 -0.10805,0.0752 -0.16405,0.10938 -0.0261,0.016 -0.0511,0.0312 -0.0782,0.0469 -0.005,0.003 -0.0105,0.005 -0.0155,0.008 -0.081,0.0463 -0.1658,0.0885 -0.25783,0.13283 -0.0982,0.0473 -0.20515,0.0941 -0.32032,0.14062 -0.11803,0.0477 -0.24983,0.1 -0.3906,0.14846 -1.01247,0.34857 -2.66917,0.74045 -5.90625,1.47654 -0.003,0 -0.005,0 -0.008,0 -3.26492,0.74238 -9.68303,2.20435 -14.27342,3.25 -2.29643,0.5231 -4.43983,0.9889 -6.04691,1.3203 -0.80352,0.16573 -1.47507,0.29511 -1.96092,0.38283 -0.24317,0.0441 -0.44042,0.0808 -0.58592,0.10158 -0.14535,0.0205 -0.23783,0.0286 -0.27345,0.0235 -0.0398,-0.006 -0.0796,-0.0138 -0.11721,-0.0235 -0.0381,-0.01 -0.0735,-0.0254 -0.10934,-0.0391 -0.0356,-0.0135 -0.0682,-0.0294 -0.10158,-0.0469 -0.0329,-0.0175 -0.0628,-0.0336 -0.0937,-0.0547 -0.0397,-0.027 -0.0811,-0.0605 -0.11717,-0.0937 -0.003,0 -0.007,0 -0.008,0 -0.0388,-0.0362 -0.067,-0.0737 -0.10158,-0.11717 -0.0332,-0.0412 -0.0645,-0.085 -0.0937,-0.13283 -0.009,-0.0142 -0.015,-0.0321 -0.0235,-0.0468 -0.005,-0.008 -0.0113,-0.0153 -0.0155,-0.0235 -0.0356,-0.066 -0.0726,-0.13396 -0.10155,-0.21096 0,-0.003 0,-0.005 0,-0.008 -0.0291,-0.078 -0.0479,-0.16082 -0.0703,-0.25 -0.0113,-0.0444 -0.0215,-0.0935 -0.0312,-0.14062 -0.005,-0.0258 -0.011,-0.0515 -0.0155,-0.0781 -0.009,-0.0515 -0.0237,-0.10162 -0.0312,-0.15625 -0.0225,-0.16897 -0.0265,-0.35627 -0.0312,-0.5547 -0.002,-0.0661 -0.008,-0.13377 -0.008,-0.20309 0,-0.0741 0.005,-0.14881 0.008,-0.22658 0.006,-0.1743 0.0138,-0.35393 0.0312,-0.54688 0.009,-0.10054 0.0313,-0.23644 0.0547,-0.39062 0.005,-0.0366 0.009,-0.0779 0.0155,-0.11717 0.0113,-0.0702 0.0248,-0.16058 0.0391,-0.24221 0.0122,-0.0708 0.033,-0.1733 0.0469,-0.25 0.0656,-0.36265 0.14762,-0.7807 0.2422,-1.2422 0.009,-0.0438 0.0148,-0.0895 0.0235,-0.1328 0.0319,-0.16147 0.0651,-0.31937 0.10157,-0.4922 0.0261,-0.12347 0.0581,-0.25082 0.0859,-0.375 0.043,-0.19949 0.0879,-0.40589 0.13282,-0.60934 0.0637,-0.28968 0.1216,-0.56213 0.1875,-0.85158 0.11108,-0.48748 0.2196,-0.96375 0.3281,-1.41408 0.10853,-0.45022 0.21715,-0.87545 0.3125,-1.24217 0.0993,-0.38185 0.18373,-0.67435 0.25783,-0.91408 0.0717,-0.23687 0.12665,-0.4004 0.16407,-0.46092 0.0197,-0.0321 0.14115,-0.39702 0.33593,-1.01563 0.13455,-0.42992 0.31695,-1.02144 0.5625,-1.82029 0.6548,-2.13035 1.75337,-5.73878 3.5625,-11.70316 3.61825,-11.9287 10.07982,-33.28552 21.51562,-71.10155 3.78385,-12.5125 7.6116,-25.23077 8.5078,-28.26562 0.3304,-1.1187 0.6427,-2.16188 0.94533,-3.13283 l 0,-0.008 c 0.0479,-0.15374 0.0933,-0.29512 0.14062,-0.44529 0.1061,-0.33703 0.20883,-0.64126 0.3125,-0.96096 0.098,-0.30412 0.18583,-0.58627 0.28125,-0.875 0.046,-0.139 0.0952,-0.28634 0.14063,-0.42187 0,-0.003 0,-0.005 0,-0.008 0.13917,-0.41525 0.27977,-0.81197 0.41407,-1.1953 0,-0.003 0,-0.005 0,-0.008 0.13413,-0.38302 0.2686,-0.74915 0.39843,-1.10157 0,-0.003 0,-0.005 0,-0.008 0.12995,-0.35266 0.25657,-0.69133 0.38282,-1.0156 0.12805,-0.32848 0.25805,-0.63783 0.3828,-0.9375 0.12325,-0.296 0.23998,-0.57443 0.35938,-0.84375 0.22092,-0.49385 0.43375,-0.9409 0.64842,-1.35158 0.013,-0.0247 0.0262,-0.046 0.0391,-0.0703 0.0491,-0.0929 0.0996,-0.17673 0.14842,-0.2656 0.0342,-0.0619 0.0675,-0.12735 0.10158,-0.1875 0.0408,-0.072 0.0843,-0.14955 0.125,-0.21875 0,-0.002 0,-0.006 0,-0.008 0.11627,-0.19773 0.23565,-0.37838 0.35157,-0.55468 0,-0.003 -0.003,-0.006 0,-0.008 0.114,-0.17332 0.229,-0.33732 0.34375,-0.49217 0.002,-0.003 -0.003,-0.006 0,-0.008 0.1147,-0.15463 0.23665,-0.2939 0.35155,-0.42968 0.002,-0.002 -0.003,-0.006 0,-0.008 0.11678,-0.13777 0.2335,-0.26222 0.35155,-0.38282 0.12908,-0.13203 0.2433,-0.24013 0.35158,-0.34375 0.0905,-0.0865 0.17717,-0.17068 0.26562,-0.24218 0.0122,-0.0103 0.0265,-0.0213 0.039,-0.0312 0.007,-0.006 0.0168,-0.009 0.0235,-0.0155 0.002,-0.003 -0.003,-0.007 0,-0.008 0.0437,-0.0335 0.087,-0.0629 0.1328,-0.0937 0.0108,-0.008 0.0205,-0.0163 0.0312,-0.0235 0.0423,-0.0276 0.0875,-0.0521 0.13283,-0.0781 0.0145,-0.009 0.0318,-0.0153 0.0469,-0.0235 0.0521,-0.0284 0.10645,-0.0589 0.16405,-0.086 0.0127,-0.006 0.0265,-0.009 0.0391,-0.0155 0.003,-0.002 0.005,-0.006 0.008,-0.008 0.007,-0.004 0.016,-0.005 0.0235,-0.008 0.066,-0.0294 0.12802,-0.0573 0.20312,-0.086 0.0836,-0.0318 0.1762,-0.0619 0.27345,-0.0937 0.0752,-0.0248 0.1574,-0.053 0.24218,-0.0781 0.0222,-0.007 0.0471,-0.009 0.0703,-0.0158 0.0135,-0.004 0.0254,-0.0118 0.039,-0.0155 0.0103,-0.003 0.021,-0.005 0.0312,-0.008 0.21248,-0.0603 0.44683,-0.11893 0.72655,-0.1875 0.36675,-0.0899 0.82328,-0.19685 1.33595,-0.3125 0.23568,-0.0525 0.8308,-0.1839 1.125,-0.25 0.98198,-0.2188 3.00818,-0.67833 5.14063,-1.16408 0.30132,-0.0686 0.6658,-0.1557 0.97657,-0.22655 2.37198,-0.54115 5.096,-1.15907 7.7031,-1.7578 0.3941,-0.0904 0.65963,-0.1533 1.0469,-0.2422 0.2699,-0.062 0.49995,-0.119 0.7656,-0.1797 0.2149,-0.0491 0.39765,-0.0926 0.6094,-0.1406 0.89463,-0.20325 1.71053,-0.38062 2.53125,-0.5625 1.2247,-0.27142 2.33968,-0.5129 3.3125,-0.71875 0.87363,-0.18487 1.58918,-0.3377 2.17968,-0.45315 0.093,-0.0183 0.2194,-0.046 0.30467,-0.0625 0.277,-0.053 0.53413,-0.10172 0.71875,-0.1328 0.022,-0.004 0.0263,-0.004 0.0469,-0.008 0.10953,-0.0182 0.17905,-0.0222 0.25,-0.0312 0.0434,-0.006 0.11865,-0.021 0.14843,-0.0235 0.0172,-0.002 0.0192,0 0.0312,0 0.0213,0 0.0475,-0.003 0.0547,0 0.18198,0.0698 0.47533,0.47665 0.65625,0.90625 l 0.32815,0.78125 0.0859,-0.45312 0.10937,0.86717 0.14063,-0.53905 c 0.0604,-0.22932 0.11122,-0.51052 0.15625,-0.84375 0.0227,-0.1666 0.0436,-0.34642 0.0625,-0.53905 0.0561,-0.5779 0.095,-1.2734 0.11717,-2.08595 0.015,-0.5417 0.0235,-1.13495 0.0235,-1.78125 0,-1.91762 0,-2.89205 -0.10155,-3.59375 l 0,-0.008 c -0.0127,-0.0878 -0.0308,-0.16932 -0.0469,-0.25 -0.0319,-0.16135 -0.0697,-0.31195 -0.11717,-0.46095 -0.11913,-0.37257 -0.28865,-0.73695 -0.53908,-1.26562 -0.1874,-0.3957 -0.40722,-0.78433 -0.65625,-1.16408 -0.2476,-0.3781 -0.52927,-0.74882 -0.83592,-1.10935 -0.002,-0.002 0.003,-0.006 0,-0.008 -0.20428,-0.23995 -0.42645,-0.4716 -0.65625,-0.70312 -0.1169,-0.1178 -0.23595,-0.23608 -0.35938,-0.35155 -0.7334,-0.68648 -1.5763,-1.32415 -2.53125,-1.9219 -0.15882,-0.0995 -0.3197,-0.20008 -0.48437,-0.29685 -0.92528,-0.54378 -1.55555,-0.89163 -2.02343,-1.08595 -0.0777,-0.0326 -0.14972,-0.062 -0.21875,-0.0859 -0.34592,-0.11928 -0.5845,-0.13788 -0.7969,-0.0625 -0.0697,0.0247 -0.13777,0.0582 -0.2031,0.10157 -0.0469,0.0308 -0.0938,0.0696 -0.14065,0.10938 -0.006,0.005 -0.01,0.0108 -0.0155,0.0155 -0.0426,0.0371 -0.0809,0.0731 -0.125,0.11717 -0.28692,0.28693 -0.70477,0.52345 -0.9297,0.52345 -0.2249,0 -6.60927,1.43438 -14.1875,3.1875 -1.97772,0.45753 -3.71297,0.85463 -5.2422,1.20313 -0.76457,0.17425 -1.481,0.33565 -2.14842,0.48437 -0.23545,0.0524 -0.50238,0.11473 -0.72658,0.16405 -0.38602,0.085 -0.78635,0.1741 -1.1406,0.25 -0.0997,0.0215 -0.20737,0.0418 -0.3047,0.0625 -0.45912,0.0975 -0.91152,0.19123 -1.3203,0.27345 -0.40787,0.0821 -0.77752,0.15125 -1.14065,0.21875 -0.35617,0.0662 -0.69742,0.1269 -1.0156,0.1797 -0.0563,0.009 -0.12452,0.0222 -0.1797,0.0312 -0.02,0.003 -0.0427,0.005 -0.0625,0.008 -0.31805,0.0509 -0.60605,0.0953 -0.89062,0.1328 -0.0873,0.0115 -0.18898,0.0288 -0.27343,0.0391 -0.0395,0.005 -0.0861,0.011 -0.125,0.0155 -0.0213,0.002 -0.0413,0.005 -0.0625,0.008 -0.30675,0.0349 -0.60037,0.0593 -0.875,0.0781 -0.29432,0.0203 -0.56885,0.0285 -0.83595,0.0312 -0.19765,0.003 -0.3906,-8e-5 -0.57812,-0.008 -0.0969,-0.004 -0.194,-0.01 -0.28908,-0.0155 -0.18235,-0.0113 -0.36062,-0.0275 -0.53905,-0.0469 -0.0622,-0.007 -0.1255,-0.0158 -0.1875,-0.0235 -0.21295,-0.0263 -0.43287,-0.0569 -0.64845,-0.0937 -0.18132,-0.0313 -0.3671,-0.0633 -0.55467,-0.10157 -0.0307,-0.006 -0.0628,-0.017 -0.0937,-0.0235 -0.0767,-0.016 -0.1561,-0.0298 -0.23438,-0.0469 -0.21807,-0.0476 -0.4374,-0.10068 -0.67187,-0.15625 -0.28088,-0.0665 -0.57703,-0.134 -0.89063,-0.21093 -1.5125,-0.37097 -14.61875,-4.6157 -29.125,-9.42967 -43.62042,-14.4757 -69.08305,-22.9091 -84.375,-27.95315 -1.3318,-0.43925 -2.50042,-0.8305 -3.66405,-1.21875 -0.39865,-0.13295 -0.73747,-0.2477 -1.1172,-0.375 -1.4542,-0.4873 -2.77027,-0.93465 -3.96095,-1.34375 -1.78597,-0.6136 -3.2884,-1.14205 -4.53905,-1.60155 -0.41687,-0.15318 -0.80935,-0.2995 -1.17187,-0.4375 -0.72505,-0.276 -1.34423,-0.52105 -1.86718,-0.7422 -0.26152,-0.11053 -0.49615,-0.21415 -0.71095,-0.3125 -0.0575,-0.0263 -0.10195,-0.0448 -0.15625,-0.0703 -0.15265,-0.0716 -0.29385,-0.13783 -0.42187,-0.20313 -0.1707,-0.0871 -0.32398,-0.17325 -0.45313,-0.25 -0.1256,-0.0747 -0.23165,-0.14512 -0.3203,-0.21092 -0.11627,-0.0863 -0.20032,-0.16148 -0.25782,-0.2344 -0.008,-0.0105 -0.009,-0.021 -0.0155,-0.0312 -0.0238,-0.0335 -0.0428,-0.0628 -0.0547,-0.0937 -0.0327,-0.0853 -0.0303,-0.18053 0,-0.27343 l 0,-0.008 c 0.0102,-0.0295 0.023,-0.0565 0.0391,-0.0859 l 0,-0.008 c 0.0168,-0.0298 0.04,-0.0566 0.0625,-0.0859 l 0,-0.008 c 0.0233,-0.0297 0.0571,-0.0571 0.0859,-0.0859 0.061,-0.0599 0.13407,-0.11868 0.21875,-0.17188 0.0381,-0.024 0.16675,-0.071 0.375,-0.1328 1.45787,-0.4318 6.8586,-1.73517 13.0547,-3.14065 5.90537,-1.33945 9.47802,-2.14577 11.6172,-2.64842 1.06952,-0.25133 1.7792,-0.4278 2.24217,-0.55468 0.15148,-0.0415 0.28038,-0.0772 0.38283,-0.1094 0.10332,-0.0326 0.1892,-0.0609 0.25,-0.0859 0.058,-0.024 0.0983,-0.0514 0.125,-0.0703 0.0132,-0.01 0.025,-0.0145 0.0312,-0.0235 0.006,-0.009 0.007,-0.023 0.008,-0.0312 0,-0.01 -0.002,-0.0145 -0.008,-0.0235 -0.005,-0.008 -0.007,-0.016 -0.0158,-0.0235 -0.0345,-0.0301 -0.10025,-0.0562 -0.15625,-0.0937 -0.0175,-0.0118 -0.043,-0.0213 -0.0703,-0.0312 -0.0233,-0.009 -0.0482,-0.024 -0.0781,-0.0312 l -0.0155,0 c -0.023,-0.005 -0.0594,-0.011 -0.0859,-0.0155 -0.11865,-0.0198 -0.26637,-0.0315 -0.4453,-0.0391 -0.17502,-0.008 -0.36962,-0.0115 -0.59375,-0.008 z m -29.03125,22.92187 c 0.81595,0.003 1.6543,0.0731 2.4922,0.21875 2.10905,0.36671 117.41763,38.55148 119.35155,39.52343 2.07447,1.04265 4.3563,2.82037 5.21095,4.0625 1.44938,2.10667 1.66242,2.9734 1.64842,6.6797 l -0.008,3.375 -7.28905,24 c -7.78113,25.6237 -14.88076,49.08947 -23.33595,77.125 -2.882,9.55625 -5.48663,18.0343 -5.78125,18.84375 -0.72578,1.99442 -2.59668,4.80348 -4.0625,6.09375 -0.81663,0.71888 -1.72698,1.2248 -2.8203,1.5625 -1.72433,0.53257 -4.72518,0.63285 -6.79688,0.22655 -0.6107,-0.11973 -5.3357,-1.61755 -10.5,-3.3281 -12.0417,-3.98857 -46.62503,-15.4512 -80.3907,-26.64845 -17.93155,-5.94638 -27.12343,-9.1132 -28.4375,-9.79688 -2.48883,-1.2948 -4.71935,-3.42499 -5.625,-5.36717 -0.64355,-1.38008 -0.67832,-1.65757 -0.66405,-4.96095 l 0.0155,-3.5 2.0625,-6.75 c 1.1358,-3.7125 3.1662,-10.40625 4.51565,-14.875 8.09215,-26.7986 27.03487,-89.38568 28.28905,-93.47655 2.27787,-7.43007 4.1161,-10.45002 7.32812,-12.03125 1.3148,-0.64733 3.0018,-0.98257 4.79688,-0.97658 z"
     id="path3979" />
</svg>
